<svg width="1448" height="1356" viewBox="0 0 1448 1356" fill="none" xmlns="http://www.w3.org/2000/svg">
<circle cx="756.559" cy="678" r="665.5" fill="#AD8E37" stroke="#AD8E37" stroke-width="25"/>
<path d="M1259.29 679.645C1259.29 957.8 1033.8 1183.29 755.648 1183.29C477.492 1183.29 252.002 957.8 252.002 679.645C252.002 401.49 477.492 176 755.648 176C1033.8 176 1259.29 401.49 1259.29 679.645Z" fill="#0A481E" stroke="#001F5F" stroke-width="72"/>
<path d="M311.127 910.913C430.309 910.913 482.839 877.349 565.084 877.349C655.271 877.349 687.008 906.82 756.052 906.82C840.072 906.82 842.956 878.167 933.022 878.167C1015.41 878.167 1080.28 914.806 1201.98 912.55" stroke="#AD8E37" stroke-width="15.24" stroke-linecap="round" stroke-linejoin="round"/>
<path d="M346.453 967.864C456.328 967.864 504.757 931.338 580.579 931.338C663.725 931.338 692.983 963.41 756.635 963.41C834.094 963.41 836.754 932.229 919.786 932.229C995.739 932.229 1055.54 972.101 1167.74 969.646" stroke="#AD8E37" stroke-width="15.24" stroke-linecap="round" stroke-linejoin="round"/>
<path d="M392.117 1021.35C478.661 1016.78 521.857 986.377 586.732 986.377C663.648 986.377 690.715 1017.58 749.598 1017.58C821.254 1017.58 823.714 987.244 900.526 987.244C968.51 987.244 1022.51 1023.56 1119.96 1023.76" stroke="#AD8E37" stroke-width="15.24" stroke-linecap="round" stroke-linejoin="round"/>
<path d="M451.303 1075.02C521.031 1068.08 558.227 1038.28 612.863 1038.28C680.674 1038.28 704.536 1071.8 756.449 1071.8C819.622 1071.8 821.791 1039.21 889.51 1039.21C944.859 1039.21 989.694 1072.48 1063.89 1077.74" stroke="#AD8E37" stroke-width="15.24" stroke-linecap="round" stroke-linejoin="round"/>
<path d="M533.33 1125.88C577.709 1116.6 605.394 1095.39 643.966 1095.39C698.111 1095.39 717.164 1125.9 758.615 1125.9C809.057 1125.9 810.788 1096.24 864.86 1096.24C903.811 1096.24 936.24 1119.76 983.947 1128.62" stroke="#AD8E37" stroke-width="15.24" stroke-linecap="round" stroke-linejoin="round"/>
<path d="M1250.7 678.002C1250.7 950.909 1029.47 1172.14 756.56 1172.14C483.652 1172.14 262.416 950.909 262.416 678.002C262.416 405.095 483.652 183.859 756.56 183.859C1029.47 183.859 1250.7 405.095 1250.7 678.002Z" stroke="#001F5F" stroke-width="50"/>
<mask id="path-9-inside-1_129_1048" fill="white">
<path d="M783.757 588.445C786.542 587.122 803.77 586.247 810.806 588.445C811.676 583.695 809.546 573.1 805.326 570.662C789.918 561.774 765.742 556.785 748.186 556.533C741.477 556.433 736.722 557.125 735.077 558.354C732.356 560.376 730.718 564.961 725.162 588.445C722.788 598.542 718.441 610.019 711.966 618.183C700.665 632.412 683.204 641.539 663.62 641.539C629.529 641.539 601.933 610.819 601.894 579.821C601.869 551.633 620.484 527.835 646.518 520.471C651.28 519.129 656.71 518.001 658.064 513.762C659.337 509.769 657.27 507.577 655.412 505.51C596.868 440.435 541.693 376.813 497.013 283.757C495.073 279.712 493.485 278.868 491.886 278.591C489.977 278.264 487.898 279.013 485.952 281.533C464.409 309.406 473.568 351.729 499.161 383.95C527.369 419.451 558.046 453.856 591.293 487.103C542.015 451.771 491.874 410.871 448.662 359.383C445.833 356.013 444.133 355.603 442.539 355.723C440.649 355.874 438.86 357.083 437.625 359.943C423.893 391.621 442.816 429.592 474.898 454.007C506.425 477.938 539.665 500.52 574.683 521.672C522.626 501.3 468.101 476.407 417.437 440.118C413.947 437.598 412.221 437.623 410.748 438.12C408.99 438.719 407.578 440.306 407.094 443.317C401.72 476.696 428.864 508.166 465.216 523.58C497.657 537.256 531.206 549.476 565.895 560.185C519.47 554.433 470.412 545.627 421.916 527.637C417.966 526.157 416.347 526.616 415.074 527.467C413.569 528.481 412.65 530.339 412.965 533.312C416.455 566.225 450.167 588.997 488.467 594.225C516.939 598.042 545.896 600.669 575.338 602.068C534.009 607.031 489.707 610.325 443.837 605.708C439.73 605.273 438.319 606.111 437.33 607.226C436.146 608.562 435.73 610.558 436.763 613.292C448.171 643.603 485.714 656.856 523.262 652.384C545.675 649.65 568.188 646.097 590.815 641.714C558.866 653.644 532.963 663.263 496.295 669.48C492.309 670.135 491.194 671.288 490.551 672.604C489.789 674.167 489.909 676.15 491.59 678.462C505.826 697.416 533.466 703.571 563.766 694.48C578.336 690.116 600.686 682.595 614.827 676.932C591.186 692.15 578.959 697.662 552.251 709.907C548.673 711.539 547.917 712.925 547.64 714.329C547.325 715.992 547.929 717.864 550.127 719.589C572.81 737.365 598.164 729.396 617.667 721.97C629.818 717.347 641.9 712.358 653.918 707.212C643.764 715.085 633.251 722.707 622.334 729.996C619.16 732.112 618.649 733.548 618.606 734.934C618.555 736.572 619.437 738.234 621.787 739.571C640.798 750.373 664.331 746.486 685.012 733.718C677.188 746.909 667.298 758.121 656.539 767.027C660.558 768.565 670.65 768.023 674.895 766.379C669.811 773.912 665.843 781.672 660.193 788.791C650.794 800.614 638.077 778.064 625.112 782.404C624.269 782.688 623.525 783.059 622.939 783.884C618.555 784.753 613.541 789.591 614.832 798.107C618.542 791.947 623.072 791.411 626.171 791.593C632.017 792.608 634.996 794.378 637.887 796.293C631.632 794.637 618.668 797.603 617.825 805.502C614.139 810.913 612.76 818.043 619.639 824.62C620.269 808.859 632.13 804.526 643.507 805.143C636.553 807.166 628.023 814.138 630.531 822.327C629.679 826.711 632.408 834.485 640.798 836.494C637.699 832.582 636.95 827.506 638.6 823.543C641.246 817.206 648.15 813.735 653.12 812.557C662.895 810.233 671.589 813.086 675.412 816.96C677.402 818.988 678.562 823.719 676.546 827.65C682.152 824.846 683.62 817.602 682.656 813.615C683.003 813.249 683.298 812.739 683.053 811.75C681.119 804.014 667.103 804.027 674.316 795.744L690.152 777.59C689.837 782.447 692.174 789.054 694.902 792.884C701.843 778.05 713.056 760.689 725.042 748.292C712.929 784.084 693.818 822.256 672.06 851.258C670.422 853.437 670.36 854.577 670.592 855.566C670.87 856.757 671.739 857.759 673.489 858.225C688.595 862.244 703.864 853.248 714.919 838.144C710.617 852.254 705.635 866.345 699.827 880.304C698.743 882.88 698.938 883.995 699.398 884.89C699.946 885.954 701.01 886.678 702.818 886.623C719.033 886.1 732.153 871.794 739.133 852.764C739.921 883.523 743.518 908.279 754.46 908.279C765.401 908.279 768.985 883.524 769.779 852.764C776.765 871.794 789.886 886.099 806.1 886.623C807.901 886.679 808.971 885.955 809.52 884.89C809.974 883.995 810.175 882.88 809.091 880.304C803.277 866.345 798.295 852.254 793.999 838.144C805.054 853.249 820.323 862.244 835.422 858.225C837.168 857.759 838.05 856.757 838.326 855.566C838.553 854.578 838.491 853.437 836.858 851.258C815.101 822.256 795.989 784.084 783.876 748.292C795.864 760.689 807.07 778.049 814.012 792.884C816.739 789.054 819.082 782.447 818.768 777.59L834.591 795.744C841.816 804.027 827.795 804.014 825.867 811.75C825.622 812.739 825.917 813.249 826.263 813.615C825.3 817.602 826.761 824.846 832.362 827.65C830.359 823.719 831.517 818.988 833.508 816.96C837.319 813.086 846.024 810.233 855.8 812.557C860.771 813.735 867.674 817.206 870.313 823.543C871.97 827.506 871.215 832.582 868.121 836.494C876.499 834.485 879.226 826.711 878.389 822.327C880.896 814.138 872.366 807.166 865.412 805.143C876.788 804.526 888.644 808.859 889.273 824.62C896.158 818.043 894.779 810.913 891.088 805.502C890.25 797.602 877.287 794.636 871.032 796.293C873.923 794.378 876.903 792.608 882.735 791.593C885.834 791.411 890.376 791.946 894.086 798.107C895.378 789.59 890.357 784.753 885.979 783.884C885.387 783.059 884.65 782.688 883.799 782.404C870.836 778.064 858.118 800.614 848.72 788.791C843.069 781.672 839.107 773.912 834.024 766.379C838.264 768.022 848.361 768.564 852.367 767.027C841.602 758.121 831.725 746.902 823.901 733.712C844.588 746.48 868.122 750.373 887.132 739.57C889.481 738.234 890.363 736.571 890.313 734.933C890.269 733.547 889.759 732.111 886.584 729.995C875.668 722.706 865.155 715.085 855 707.211C867.019 712.357 879.101 717.346 891.252 721.969C910.754 729.396 936.108 737.365 958.791 719.588C960.99 717.863 961.595 715.992 961.279 714.329C961.002 712.924 960.246 711.538 956.668 709.907C929.96 697.662 917.733 692.15 894.092 676.931C908.235 682.594 930.583 690.115 945.153 694.48C975.458 703.569 1003.09 697.415 1017.33 678.461C1019.01 676.15 1019.14 674.165 1018.37 672.603C1017.73 671.287 1016.61 670.134 1012.62 669.479C975.955 663.262 950.054 653.643 918.104 641.713C940.731 646.097 963.244 649.65 985.656 652.383C1023.21 656.856 1060.75 643.602 1072.16 613.291C1073.19 610.557 1072.77 608.561 1071.6 607.225C1070.6 606.11 1069.19 605.273 1065.08 605.707C1019.21 610.324 974.909 607.03 933.58 602.067C963.022 600.668 991.979 598.041 1020.45 594.224C1058.75 588.996 1092.46 566.224 1095.95 533.312C1096.27 530.339 1095.35 528.48 1093.84 527.467C1092.57 526.615 1090.95 526.156 1087.01 527.637C1038.51 545.627 989.448 554.433 943.023 560.184C977.712 549.475 1011.26 537.255 1043.7 523.58C1080.05 508.166 1107.2 476.695 1101.82 443.317C1101.34 440.305 1099.93 438.718 1098.17 438.119C1096.7 437.622 1094.98 437.597 1091.48 440.117C1040.82 476.406 986.292 501.299 934.236 521.671C969.253 500.519 1002.49 477.937 1034.02 454.007C1066.1 429.592 1085.03 391.621 1071.29 359.942C1070.06 357.083 1068.27 355.872 1066.38 355.722C1064.79 355.603 1063.08 356.012 1060.26 359.382C1017.04 410.871 966.903 451.77 917.625 487.103C950.872 453.856 981.555 419.45 1009.76 383.949C1035.35 351.728 1044.51 309.405 1022.97 281.532C1021.02 279.012 1018.94 278.263 1017.04 278.59C1015.43 278.867 1013.84 279.711 1011.9 283.756C967.226 376.814 912.051 440.436 853.508 505.511C851.65 507.577 849.583 509.769 850.856 513.763C852.217 518.002 857.64 519.129 862.402 520.472C888.436 527.836 907.05 551.633 907.025 579.822C906.988 610.819 879.391 641.54 845.3 641.54C825.716 641.54 808.255 632.413 796.954 618.184C790.472 610.019 786.132 598.549 783.757 588.445ZM754.461 802.532C750.756 832.515 747.021 863.842 754.461 893.051C761.899 863.842 758.164 832.515 754.461 802.532ZM798.919 877.378C784.21 838.885 780.796 820.018 776.129 793.776C773.546 821.845 775.928 859.904 798.919 877.378ZM825.684 850.638C802.478 816.592 794.793 799.017 784.185 774.57C788.16 802.475 799.272 838.953 825.684 850.638ZM710 877.378C724.709 838.885 728.123 820.018 732.791 793.776C735.374 821.845 732.993 859.904 710 877.378ZM683.235 850.638C706.442 816.592 714.127 799.017 724.734 774.57C720.76 802.475 709.648 838.953 683.235 850.638ZM454.129 381.028C497.536 431.748 542.166 465.928 599.324 506.028C549.082 477.461 505.895 451.559 491.571 440.341C474.475 426.942 454.381 404.341 454.129 381.028ZM1054.79 381.028C1011.38 431.748 966.754 465.928 909.596 506.028C959.837 477.461 1003.02 451.559 1017.35 440.341C1034.44 426.942 1054.54 404.341 1054.79 381.028ZM871.315 731.018C854.522 718.628 842.963 706.798 830.22 691.365C838.931 710.288 849.357 728.416 871.315 731.018ZM1009.8 312.072C972.719 383.396 929.223 437.241 882.982 489.561C924.594 450.274 977.784 393.021 989.097 378.779C1002.6 361.765 1014.99 334.799 1009.8 312.072ZM936.178 711.888C912.789 701.155 895.863 689.779 876.601 674.346C891.87 695 909.01 714.263 936.178 711.888ZM995.956 677.961C952.052 667.341 932.883 658.705 906.282 646.63C930.036 666.39 965.891 687.876 995.956 677.961ZM1050.87 618.29C1006.84 620.652 984.095 619.229 922.497 610.442C945.867 620.167 963.731 627.228 989.595 630.152C1009.49 632.399 1034.95 632.394 1050.87 618.29ZM1075.21 544.61C1027.79 559.249 1003.81 564.874 931.875 571.551C959.132 573.945 991.359 576.912 1019.07 572.867C1039.11 569.951 1063.96 562.361 1075.21 544.61ZM1083.96 459.37C1029.54 495.804 993.431 511.388 927.145 535.917C980.952 522.897 1015.49 513.542 1032.25 506.481C1052.27 498.04 1077.6 481.795 1083.96 459.37ZM637.604 731.018C654.398 718.628 665.957 706.798 678.7 691.365C669.988 710.288 659.563 728.416 637.604 731.018ZM499.118 312.072C536.2 383.396 579.696 437.241 625.939 489.561C584.327 450.274 531.136 393.021 519.823 378.779C506.317 361.765 493.933 334.799 499.118 312.072ZM572.742 711.888C596.13 701.155 613.056 689.779 632.319 674.346C617.05 695 599.91 714.263 572.742 711.888ZM512.963 677.961C556.869 667.341 576.036 658.705 602.638 646.63C578.883 666.39 543.029 687.876 512.963 677.961ZM458.047 618.29C502.078 620.652 524.824 619.229 586.423 610.442C563.054 620.167 545.189 627.228 519.324 630.152C499.433 632.399 473.972 632.394 458.047 618.29ZM433.713 544.61C481.133 559.249 505.114 564.874 577.045 571.551C549.788 573.945 517.562 576.912 489.846 572.867C469.814 569.951 444.964 562.361 433.713 544.61ZM424.957 459.37C479.375 495.804 515.488 511.388 581.775 535.917C527.967 522.897 493.43 513.542 476.667 506.481C456.648 498.04 431.319 481.795 424.957 459.37Z"/>
</mask>
<path d="M783.757 588.445C786.542 587.122 803.77 586.247 810.806 588.445C811.676 583.695 809.546 573.1 805.326 570.662C789.918 561.774 765.742 556.785 748.186 556.533C741.477 556.433 736.722 557.125 735.077 558.354C732.356 560.376 730.718 564.961 725.162 588.445C722.788 598.542 718.441 610.019 711.966 618.183C700.665 632.412 683.204 641.539 663.62 641.539C629.529 641.539 601.933 610.819 601.894 579.821C601.869 551.633 620.484 527.835 646.518 520.471C651.28 519.129 656.71 518.001 658.064 513.762C659.337 509.769 657.27 507.577 655.412 505.51C596.868 440.435 541.693 376.813 497.013 283.757C495.073 279.712 493.485 278.868 491.886 278.591C489.977 278.264 487.898 279.013 485.952 281.533C464.409 309.406 473.568 351.729 499.161 383.95C527.369 419.451 558.046 453.856 591.293 487.103C542.015 451.771 491.874 410.871 448.662 359.383C445.833 356.013 444.133 355.603 442.539 355.723C440.649 355.874 438.86 357.083 437.625 359.943C423.893 391.621 442.816 429.592 474.898 454.007C506.425 477.938 539.665 500.52 574.683 521.672C522.626 501.3 468.101 476.407 417.437 440.118C413.947 437.598 412.221 437.623 410.748 438.12C408.99 438.719 407.578 440.306 407.094 443.317C401.72 476.696 428.864 508.166 465.216 523.58C497.657 537.256 531.206 549.476 565.895 560.185C519.47 554.433 470.412 545.627 421.916 527.637C417.966 526.157 416.347 526.616 415.074 527.467C413.569 528.481 412.65 530.339 412.965 533.312C416.455 566.225 450.167 588.997 488.467 594.225C516.939 598.042 545.896 600.669 575.338 602.068C534.009 607.031 489.707 610.325 443.837 605.708C439.73 605.273 438.319 606.111 437.33 607.226C436.146 608.562 435.73 610.558 436.763 613.292C448.171 643.603 485.714 656.856 523.262 652.384C545.675 649.65 568.188 646.097 590.815 641.714C558.866 653.644 532.963 663.263 496.295 669.48C492.309 670.135 491.194 671.288 490.551 672.604C489.789 674.167 489.909 676.15 491.59 678.462C505.826 697.416 533.466 703.571 563.766 694.48C578.336 690.116 600.686 682.595 614.827 676.932C591.186 692.15 578.959 697.662 552.251 709.907C548.673 711.539 547.917 712.925 547.64 714.329C547.325 715.992 547.929 717.864 550.127 719.589C572.81 737.365 598.164 729.396 617.667 721.97C629.818 717.347 641.9 712.358 653.918 707.212C643.764 715.085 633.251 722.707 622.334 729.996C619.16 732.112 618.649 733.548 618.606 734.934C618.555 736.572 619.437 738.234 621.787 739.571C640.798 750.373 664.331 746.486 685.012 733.718C677.188 746.909 667.298 758.121 656.539 767.027C660.558 768.565 670.65 768.023 674.895 766.379C669.811 773.912 665.843 781.672 660.193 788.791C650.794 800.614 638.077 778.064 625.112 782.404C624.269 782.688 623.525 783.059 622.939 783.884C618.555 784.753 613.541 789.591 614.832 798.107C618.542 791.947 623.072 791.411 626.171 791.593C632.017 792.608 634.996 794.378 637.887 796.293C631.632 794.637 618.668 797.603 617.825 805.502C614.139 810.913 612.76 818.043 619.639 824.62C620.269 808.859 632.13 804.526 643.507 805.143C636.553 807.166 628.023 814.138 630.531 822.327C629.679 826.711 632.408 834.485 640.798 836.494C637.699 832.582 636.95 827.506 638.6 823.543C641.246 817.206 648.15 813.735 653.12 812.557C662.895 810.233 671.589 813.086 675.412 816.96C677.402 818.988 678.562 823.719 676.546 827.65C682.152 824.846 683.62 817.602 682.656 813.615C683.003 813.249 683.298 812.739 683.053 811.75C681.119 804.014 667.103 804.027 674.316 795.744L690.152 777.59C689.837 782.447 692.174 789.054 694.902 792.884C701.843 778.05 713.056 760.689 725.042 748.292C712.929 784.084 693.818 822.256 672.06 851.258C670.422 853.437 670.36 854.577 670.592 855.566C670.87 856.757 671.739 857.759 673.489 858.225C688.595 862.244 703.864 853.248 714.919 838.144C710.617 852.254 705.635 866.345 699.827 880.304C698.743 882.88 698.938 883.995 699.398 884.89C699.946 885.954 701.01 886.678 702.818 886.623C719.033 886.1 732.153 871.794 739.133 852.764C739.921 883.523 743.518 908.279 754.46 908.279C765.401 908.279 768.985 883.524 769.779 852.764C776.765 871.794 789.886 886.099 806.1 886.623C807.901 886.679 808.971 885.955 809.52 884.89C809.974 883.995 810.175 882.88 809.091 880.304C803.277 866.345 798.295 852.254 793.999 838.144C805.054 853.249 820.323 862.244 835.422 858.225C837.168 857.759 838.05 856.757 838.326 855.566C838.553 854.578 838.491 853.437 836.858 851.258C815.101 822.256 795.989 784.084 783.876 748.292C795.864 760.689 807.07 778.049 814.012 792.884C816.739 789.054 819.082 782.447 818.768 777.59L834.591 795.744C841.816 804.027 827.795 804.014 825.867 811.75C825.622 812.739 825.917 813.249 826.263 813.615C825.3 817.602 826.761 824.846 832.362 827.65C830.359 823.719 831.517 818.988 833.508 816.96C837.319 813.086 846.024 810.233 855.8 812.557C860.771 813.735 867.674 817.206 870.313 823.543C871.97 827.506 871.215 832.582 868.121 836.494C876.499 834.485 879.226 826.711 878.389 822.327C880.896 814.138 872.366 807.166 865.412 805.143C876.788 804.526 888.644 808.859 889.273 824.62C896.158 818.043 894.779 810.913 891.088 805.502C890.25 797.602 877.287 794.636 871.032 796.293C873.923 794.378 876.903 792.608 882.735 791.593C885.834 791.411 890.376 791.946 894.086 798.107C895.378 789.59 890.357 784.753 885.979 783.884C885.387 783.059 884.65 782.688 883.799 782.404C870.836 778.064 858.118 800.614 848.72 788.791C843.069 781.672 839.107 773.912 834.024 766.379C838.264 768.022 848.361 768.564 852.367 767.027C841.602 758.121 831.725 746.902 823.901 733.712C844.588 746.48 868.122 750.373 887.132 739.57C889.481 738.234 890.363 736.571 890.313 734.933C890.269 733.547 889.759 732.111 886.584 729.995C875.668 722.706 865.155 715.085 855 707.211C867.019 712.357 879.101 717.346 891.252 721.969C910.754 729.396 936.108 737.365 958.791 719.588C960.99 717.863 961.595 715.992 961.279 714.329C961.002 712.924 960.246 711.538 956.668 709.907C929.96 697.662 917.733 692.15 894.092 676.931C908.235 682.594 930.583 690.115 945.153 694.48C975.458 703.569 1003.09 697.415 1017.33 678.461C1019.01 676.15 1019.14 674.165 1018.37 672.603C1017.73 671.287 1016.61 670.134 1012.62 669.479C975.955 663.262 950.054 653.643 918.104 641.713C940.731 646.097 963.244 649.65 985.656 652.383C1023.21 656.856 1060.75 643.602 1072.16 613.291C1073.19 610.557 1072.77 608.561 1071.6 607.225C1070.6 606.11 1069.19 605.273 1065.08 605.707C1019.21 610.324 974.909 607.03 933.58 602.067C963.022 600.668 991.979 598.041 1020.45 594.224C1058.75 588.996 1092.46 566.224 1095.95 533.312C1096.27 530.339 1095.35 528.48 1093.84 527.467C1092.57 526.615 1090.95 526.156 1087.01 527.637C1038.51 545.627 989.448 554.433 943.023 560.184C977.712 549.475 1011.26 537.255 1043.7 523.58C1080.05 508.166 1107.2 476.695 1101.82 443.317C1101.34 440.305 1099.93 438.718 1098.17 438.119C1096.7 437.622 1094.98 437.597 1091.48 440.117C1040.82 476.406 986.292 501.299 934.236 521.671C969.253 500.519 1002.49 477.937 1034.02 454.007C1066.1 429.592 1085.03 391.621 1071.29 359.942C1070.06 357.083 1068.27 355.872 1066.38 355.722C1064.79 355.603 1063.08 356.012 1060.26 359.382C1017.04 410.871 966.903 451.77 917.625 487.103C950.872 453.856 981.555 419.45 1009.76 383.949C1035.35 351.728 1044.51 309.405 1022.97 281.532C1021.02 279.012 1018.94 278.263 1017.04 278.59C1015.43 278.867 1013.84 279.711 1011.9 283.756C967.226 376.814 912.051 440.436 853.508 505.511C851.65 507.577 849.583 509.769 850.856 513.763C852.217 518.002 857.64 519.129 862.402 520.472C888.436 527.836 907.05 551.633 907.025 579.822C906.988 610.819 879.391 641.54 845.3 641.54C825.716 641.54 808.255 632.413 796.954 618.184C790.472 610.019 786.132 598.549 783.757 588.445ZM754.461 802.532C750.756 832.515 747.021 863.842 754.461 893.051C761.899 863.842 758.164 832.515 754.461 802.532ZM798.919 877.378C784.21 838.885 780.796 820.018 776.129 793.776C773.546 821.845 775.928 859.904 798.919 877.378ZM825.684 850.638C802.478 816.592 794.793 799.017 784.185 774.57C788.16 802.475 799.272 838.953 825.684 850.638ZM710 877.378C724.709 838.885 728.123 820.018 732.791 793.776C735.374 821.845 732.993 859.904 710 877.378ZM683.235 850.638C706.442 816.592 714.127 799.017 724.734 774.57C720.76 802.475 709.648 838.953 683.235 850.638ZM454.129 381.028C497.536 431.748 542.166 465.928 599.324 506.028C549.082 477.461 505.895 451.559 491.571 440.341C474.475 426.942 454.381 404.341 454.129 381.028ZM1054.79 381.028C1011.38 431.748 966.754 465.928 909.596 506.028C959.837 477.461 1003.02 451.559 1017.35 440.341C1034.44 426.942 1054.54 404.341 1054.79 381.028ZM871.315 731.018C854.522 718.628 842.963 706.798 830.22 691.365C838.931 710.288 849.357 728.416 871.315 731.018ZM1009.8 312.072C972.719 383.396 929.223 437.241 882.982 489.561C924.594 450.274 977.784 393.021 989.097 378.779C1002.6 361.765 1014.99 334.799 1009.8 312.072ZM936.178 711.888C912.789 701.155 895.863 689.779 876.601 674.346C891.87 695 909.01 714.263 936.178 711.888ZM995.956 677.961C952.052 667.341 932.883 658.705 906.282 646.63C930.036 666.39 965.891 687.876 995.956 677.961ZM1050.87 618.29C1006.84 620.652 984.095 619.229 922.497 610.442C945.867 620.167 963.731 627.228 989.595 630.152C1009.49 632.399 1034.95 632.394 1050.87 618.29ZM1075.21 544.61C1027.79 559.249 1003.81 564.874 931.875 571.551C959.132 573.945 991.359 576.912 1019.07 572.867C1039.11 569.951 1063.96 562.361 1075.21 544.61ZM1083.96 459.37C1029.54 495.804 993.431 511.388 927.145 535.917C980.952 522.897 1015.49 513.542 1032.25 506.481C1052.27 498.04 1077.6 481.795 1083.96 459.37ZM637.604 731.018C654.398 718.628 665.957 706.798 678.7 691.365C669.988 710.288 659.563 728.416 637.604 731.018ZM499.118 312.072C536.2 383.396 579.696 437.241 625.939 489.561C584.327 450.274 531.136 393.021 519.823 378.779C506.317 361.765 493.933 334.799 499.118 312.072ZM572.742 711.888C596.13 701.155 613.056 689.779 632.319 674.346C617.05 695 599.91 714.263 572.742 711.888ZM512.963 677.961C556.869 667.341 576.036 658.705 602.638 646.63C578.883 666.39 543.029 687.876 512.963 677.961ZM458.047 618.29C502.078 620.652 524.824 619.229 586.423 610.442C563.054 620.167 545.189 627.228 519.324 630.152C499.433 632.399 473.972 632.394 458.047 618.29ZM433.713 544.61C481.133 559.249 505.114 564.874 577.045 571.551C549.788 573.945 517.562 576.912 489.846 572.867C469.814 569.951 444.964 562.361 433.713 544.61ZM424.957 459.37C479.375 495.804 515.488 511.388 581.775 535.917C527.967 522.897 493.43 513.542 476.667 506.481C456.648 498.04 431.319 481.795 424.957 459.37Z" fill="#AD8E37" stroke="#AD8E37" stroke-width="4" mask="url(#path-9-inside-1_129_1048)"/>
<path d="M782.035 571.874C772.497 569.269 767.439 568.505 758.674 567.721C763.82 571.62 767.03 573.458 773.729 575.508C778.504 575.329 780.225 574.459 782.035 571.874Z" fill="#AD8E37" stroke="#0A481E" stroke-width="3"/>
<path d="M600.468 194.129L593.389 197.348C592.843 196.49 592.209 195.797 591.487 195.267C590.76 194.726 589.969 194.345 589.114 194.122C588.259 193.9 587.36 193.84 586.419 193.943C585.488 194.041 584.549 194.306 583.6 194.737C581.887 195.516 580.588 196.62 579.704 198.05C578.814 199.468 578.387 201.145 578.421 203.08C578.451 205.004 578.987 207.113 580.031 209.409C581.104 211.768 582.355 213.592 583.786 214.879C585.227 216.161 586.769 216.923 588.413 217.164C590.057 217.405 591.714 217.145 593.384 216.386C594.322 215.96 595.133 215.441 595.818 214.831C596.513 214.216 597.066 213.529 597.475 212.771C597.88 212.002 598.13 211.179 598.226 210.303C598.332 209.423 598.266 208.504 598.026 207.547L605.12 204.36C605.628 205.963 605.836 207.637 605.745 209.381C605.66 211.111 605.255 212.809 604.532 214.478C603.814 216.13 602.756 217.665 601.358 219.08C599.966 220.48 598.209 221.663 596.086 222.628C593.133 223.97 590.189 224.503 587.254 224.225C584.33 223.942 581.619 222.84 579.121 220.92C576.633 218.996 574.571 216.234 572.935 212.635C571.294 209.025 570.576 205.645 570.783 202.495C570.989 199.346 571.955 196.579 573.68 194.196C575.4 191.801 577.715 189.943 580.624 188.62C582.542 187.748 584.443 187.209 586.326 187.003C588.219 186.792 590.037 186.915 591.779 187.371C593.516 187.817 595.121 188.602 596.594 189.727C598.079 190.846 599.37 192.314 600.468 194.129Z" fill="#AD8E37"/>
<path d="M644.318 187.687C645.23 191.546 645.274 195.002 644.451 198.055C643.64 201.105 642.147 203.641 639.973 205.663C637.808 207.671 635.165 209.044 632.043 209.782C628.898 210.525 625.907 210.478 623.07 209.641C620.232 208.803 617.768 207.202 615.677 204.838C613.585 202.474 612.085 199.368 611.175 195.521C610.263 191.662 610.213 188.207 611.025 185.157C611.836 182.107 613.325 179.578 615.489 177.57C617.652 175.55 620.305 174.169 623.45 173.426C626.572 172.688 629.551 172.738 632.389 173.575C635.235 174.399 637.704 175.992 639.795 178.356C641.898 180.718 643.406 183.828 644.318 187.687ZM636.732 189.48C636.141 186.98 635.268 184.961 634.114 183.421C632.971 181.879 631.621 180.824 630.063 180.255C628.506 179.687 626.823 179.616 625.014 180.044C623.206 180.471 621.732 181.288 620.594 182.493C619.456 183.699 618.715 185.249 618.372 187.142C618.041 189.033 618.17 191.228 618.761 193.728C619.352 196.227 620.219 198.248 621.362 199.791C622.516 201.33 623.872 202.384 625.43 202.952C626.987 203.521 628.67 203.591 630.479 203.164C632.288 202.736 633.761 201.92 634.899 200.714C636.037 199.509 636.772 197.961 637.104 196.07C637.447 194.176 637.323 191.98 636.732 189.48Z" fill="#AD8E37"/>
<path d="M647.121 168.904L656.476 167.363L670.33 189.841L670.75 189.772L676.658 164.036L686.014 162.495L691.927 198.374L684.569 199.587L680.72 176.234L680.422 176.283L674.957 200.991L669.946 201.817L656.826 180.081L656.529 180.131L660.392 203.571L653.034 204.784L647.121 168.904Z" fill="#AD8E37"/>
<path d="M697.118 160.737L706.567 159.948L718.577 183.463L719.002 183.428L726.95 158.248L736.399 157.46L739.422 193.698L731.991 194.318L730.023 170.731L729.722 170.756L722.297 194.948L717.237 195.37L705.898 172.654L705.598 172.68L707.573 196.354L700.141 196.974L697.118 160.737Z" fill="#AD8E37"/>
<path d="M754.254 156.686L755.714 193.02L748.032 193.329L746.572 156.995L754.254 156.686Z" fill="#AD8E37"/>
<path d="M761.798 162.884L762.123 156.554L791.948 158.083L791.624 164.413L780.506 163.843L778.969 193.829L771.379 193.44L772.916 163.454L761.798 162.884Z" fill="#AD8E37"/>
<path d="M798.973 158.397L808.378 159.599L815.215 185.103L815.638 185.157L828.668 162.192L838.073 163.393L833.464 199.464L826.067 198.519L829.066 175.041L828.767 175.003L816.455 197.111L811.418 196.468L805.072 171.886L804.772 171.847L801.761 195.413L794.364 194.468L798.973 158.397Z" fill="#AD8E37"/>
<path d="M839.817 200.543L846.993 164.895L871.014 169.73L869.763 175.944L853.28 172.626L851.57 181.121L866.818 184.19L865.567 190.404L850.319 187.335L848.605 195.846L865.159 199.179L863.908 205.393L839.817 200.543Z" fill="#AD8E37"/>
<path d="M906.396 178.263L897.235 213.453L890.808 211.78L881.264 185.646L881.006 185.579L875.24 207.728L867.8 205.791L876.961 170.6L883.491 172.3L892.919 198.386L893.228 198.466L898.99 176.335L906.396 178.263Z" fill="#AD8E37"/>
<path d="M908.271 184.842L910.445 178.887L938.5 189.127L936.326 195.082L925.868 191.265L915.574 219.469L908.435 216.864L918.729 188.659L908.271 184.842Z" fill="#AD8E37"/>
<path d="M968.966 243.587L957.418 237.86L973.573 205.282L985.217 211.056C988.494 212.681 990.991 214.732 992.709 217.209C994.433 219.676 995.328 222.439 995.397 225.498C995.476 228.563 994.676 231.787 992.999 235.17C991.316 238.564 989.228 241.162 986.735 242.964C984.253 244.773 981.496 245.737 978.463 245.858C975.44 245.985 972.275 245.227 968.966 243.587ZM967.232 235.374L971.607 237.543C973.643 238.553 975.534 239.042 977.281 239.009C979.044 238.972 980.654 238.363 982.111 237.183C983.584 235.998 984.923 234.191 986.127 231.762C987.321 229.355 987.941 227.212 987.988 225.332C988.045 223.458 987.558 221.816 986.526 220.406C985.495 218.996 983.961 217.786 981.925 216.776L977.534 214.599L967.232 235.374Z" fill="#AD8E37"/>
<path d="M1013.42 225.272L996.249 257.327L989.471 253.697L1006.64 221.642L1013.42 225.272Z" fill="#AD8E37"/>
<path d="M1031.35 247.848C1031.98 246.557 1032.05 245.29 1031.56 244.047C1031.06 242.805 1030.03 241.696 1028.46 240.72C1027.4 240.057 1026.41 239.648 1025.48 239.493C1024.57 239.328 1023.75 239.385 1023.04 239.663C1022.33 239.948 1021.77 240.422 1021.36 241.086C1020.99 241.626 1020.81 242.18 1020.8 242.749C1020.81 243.323 1020.94 243.902 1021.21 244.485C1021.48 245.058 1021.84 245.64 1022.3 246.23C1022.76 246.81 1023.28 247.385 1023.86 247.954L1026.22 250.344C1027.38 251.484 1028.36 252.655 1029.18 253.858C1029.99 255.061 1030.58 256.286 1030.95 257.532C1031.31 258.779 1031.41 260.04 1031.25 261.316C1031.09 262.599 1030.62 263.887 1029.83 265.179C1028.64 267.062 1027.14 268.4 1025.32 269.193C1023.52 269.982 1021.49 270.202 1019.22 269.852C1016.97 269.499 1014.59 268.54 1012.08 266.977C1009.59 265.426 1007.66 263.693 1006.28 261.778C1004.92 259.87 1004.19 257.845 1004.08 255.703C1004 253.558 1004.62 251.359 1005.95 249.107L1012.27 253.038C1011.69 254.117 1011.45 255.165 1011.54 256.184C1011.65 257.199 1012.04 258.157 1012.7 259.059C1013.38 259.958 1014.29 260.757 1015.41 261.458C1016.52 262.146 1017.58 262.582 1018.59 262.767C1019.62 262.959 1020.53 262.908 1021.34 262.617C1022.15 262.326 1022.79 261.808 1023.25 261.064C1023.68 260.371 1023.84 259.66 1023.72 258.931C1023.61 258.209 1023.27 257.438 1022.69 256.618C1022.12 255.805 1021.36 254.912 1020.4 253.94L1017.57 251.004C1015.36 248.751 1013.92 246.482 1013.25 244.197C1012.58 241.913 1012.96 239.633 1014.39 237.358C1015.54 235.482 1017.06 234.158 1018.93 233.387C1020.82 232.622 1022.89 232.398 1025.14 232.714C1027.4 233.031 1029.65 233.89 1031.91 235.291C1034.2 236.717 1035.95 238.354 1037.17 240.201C1038.4 242.054 1039.06 243.977 1039.15 245.968C1039.23 247.959 1038.72 249.883 1037.6 251.741L1031.35 247.848Z" fill="#AD8E37"/>
<path d="M1067.47 275.537L1061.3 270.809C1061.79 269.923 1062.11 269.038 1062.23 268.151C1062.37 267.255 1062.33 266.377 1062.13 265.518C1061.92 264.659 1061.55 263.839 1061.01 263.057C1060.49 262.282 1059.81 261.578 1058.99 260.945C1057.49 259.8 1055.91 259.175 1054.23 259.068C1052.56 258.951 1050.88 259.364 1049.19 260.306C1047.5 261.238 1045.9 262.706 1044.36 264.707C1042.79 266.765 1041.77 268.728 1041.31 270.596C1040.85 272.472 1040.91 274.191 1041.47 275.755C1042.03 277.318 1043.04 278.658 1044.5 279.773C1045.32 280.399 1046.16 280.871 1047.02 281.187C1047.89 281.511 1048.75 281.675 1049.62 281.679C1050.48 281.673 1051.33 281.506 1052.15 281.179C1052.97 280.858 1053.75 280.366 1054.48 279.703L1060.64 284.46C1059.46 285.663 1058.08 286.635 1056.5 287.377C1054.94 288.116 1053.25 288.56 1051.43 288.707C1049.64 288.853 1047.79 288.642 1045.88 288.076C1043.99 287.508 1042.12 286.515 1040.27 285.097C1037.69 283.125 1035.83 280.779 1034.7 278.059C1033.57 275.346 1033.26 272.436 1033.78 269.327C1034.31 266.226 1035.77 263.107 1038.18 259.968C1040.59 256.82 1043.23 254.595 1046.11 253.293C1048.98 251.992 1051.88 251.54 1054.79 251.939C1057.71 252.328 1060.44 253.494 1062.98 255.438C1064.65 256.719 1066.02 258.141 1067.09 259.705C1068.17 261.276 1068.92 262.938 1069.34 264.689C1069.76 266.431 1069.83 268.217 1069.53 270.046C1069.24 271.883 1068.55 273.713 1067.47 275.537Z" fill="#AD8E37"/>
<path d="M1085.51 273.001L1062.94 301.514L1056.92 296.742L1079.48 268.23L1085.51 273.001Z" fill="#AD8E37"/>
<path d="M1067.3 305.776L1090.56 277.821L1101.59 286.996C1103.71 288.76 1105.18 290.667 1106 292.719C1106.82 294.761 1107.03 296.822 1106.63 298.902C1106.24 300.98 1105.27 302.947 1103.73 304.804C1102.18 306.66 1100.42 307.965 1098.44 308.719C1096.46 309.472 1094.38 309.612 1092.2 309.14C1090.03 308.675 1087.87 307.549 1085.72 305.763L1078.69 299.915L1082.63 295.178L1088.71 300.231C1089.84 301.177 1090.94 301.762 1092.01 301.983C1093.09 302.204 1094.1 302.115 1095.05 301.717C1096.01 301.318 1096.87 300.658 1097.64 299.739C1098.41 298.811 1098.9 297.846 1099.1 296.844C1099.32 295.841 1099.21 294.837 1098.79 293.834C1098.37 292.822 1097.58 291.839 1096.44 290.886L1092.45 287.57L1073.21 310.693L1067.3 305.776Z" fill="#AD8E37"/>
<path d="M1089.38 323.626L1114.78 297.599L1120.28 302.968L1099.31 324.458L1110.47 335.345L1106.04 339.882L1089.38 323.626Z" fill="#AD8E37"/>
<path d="M1140.15 323.257L1113.47 347.961L1108.24 342.319L1134.93 317.615L1140.15 323.257Z" fill="#AD8E37"/>
<path d="M1163.23 350.925L1135.62 374.581L1131.3 369.538L1138.39 342.634L1138.21 342.431L1120.83 357.321L1115.83 351.482L1143.45 327.825L1147.83 332.949L1140.68 359.748L1140.89 359.99L1158.25 345.113L1163.23 350.925Z" fill="#AD8E37"/>
<path d="M1138.65 378.325L1167.64 356.378L1182.43 375.915L1177.38 379.741L1167.23 366.334L1160.32 371.563L1169.71 383.965L1164.65 387.791L1155.27 375.389L1148.34 380.629L1158.53 394.093L1153.48 397.918L1138.65 378.325Z" fill="#AD8E37"/>
<path d="M324.919 383.363L355.499 403.04L351.339 409.505L320.759 389.828L324.919 383.363Z" fill="#AD8E37"/>
<path d="M351.515 349.807L379.894 372.543L375.743 377.726L347.989 375.763L347.823 375.971L365.685 390.28L360.878 396.28L332.498 373.545L336.717 368.279L364.378 370.328L364.578 370.078L346.73 355.78L351.515 349.807Z" fill="#AD8E37"/>
<path d="M361.082 349.034L356.319 344.851L376.025 322.411L380.788 326.594L373.442 334.959L396.003 354.771L390.988 360.481L368.428 340.669L361.082 349.034Z" fill="#AD8E37"/>
<path d="M407.039 342.749L380.774 317.6L397.72 299.902L402.298 304.286L390.669 316.431L396.928 322.423L407.685 311.189L412.263 315.573L401.506 326.807L407.778 332.812L419.456 320.616L424.034 324.999L407.039 342.749Z" fill="#AD8E37"/>
<path d="M432.725 287.078C431.971 286.589 431.206 286.242 430.432 286.037C429.65 285.823 428.862 285.755 428.067 285.834C427.274 285.896 426.484 286.106 425.695 286.462C424.916 286.81 424.151 287.31 423.401 287.963C421.998 289.182 421.068 290.603 420.611 292.224C420.163 293.837 420.223 295.565 420.791 297.409C421.351 299.243 422.462 301.117 424.124 303.028C425.786 304.94 427.49 306.313 429.236 307.148C430.981 307.983 432.692 308.291 434.369 308.072C436.038 307.845 437.596 307.102 439.043 305.844C440.356 304.702 441.275 303.495 441.8 302.223C442.326 300.934 442.462 299.647 442.208 298.362C441.962 297.07 441.331 295.838 440.314 294.668L441.644 293.817L434.57 299.969L430.771 295.601L442.254 285.616L445.26 289.073C447.357 291.485 448.65 294 449.138 296.618C449.619 299.228 449.374 301.778 448.403 304.269C447.424 306.752 445.783 308.995 443.478 310.999C440.906 313.236 438.153 314.634 435.219 315.192C432.277 315.742 429.349 315.441 426.434 314.29C423.52 313.122 420.805 311.09 418.288 308.196C416.354 305.972 414.952 303.71 414.08 301.408C413.21 299.091 412.832 296.816 412.946 294.583C413.059 292.351 413.618 290.242 414.62 288.256C415.623 286.271 417.031 284.489 418.845 282.913C420.399 281.561 422.044 280.531 423.78 279.821C425.508 279.103 427.248 278.704 428.998 278.625C430.758 278.538 432.462 278.774 434.109 279.334C435.749 279.884 437.253 280.757 438.621 281.952L432.725 287.078Z" fill="#AD8E37"/>
<path d="M460.913 295.03L439.201 265.859L450.71 257.293C452.913 255.654 455.086 254.648 457.23 254.277C459.376 253.89 461.392 254.109 463.275 254.935C465.162 255.745 466.822 257.113 468.257 259.041C469.699 260.978 470.521 262.955 470.725 264.973C470.921 266.981 470.502 268.946 469.467 270.867C468.442 272.781 466.809 274.572 464.568 276.24L456.863 281.975L453.173 277.018L459.882 272.025C461.06 271.149 461.917 270.259 462.456 269.357C462.994 268.455 463.213 267.539 463.112 266.611C463.021 265.675 462.618 264.728 461.904 263.769C461.183 262.8 460.381 262.129 459.497 261.754C458.622 261.372 457.664 261.303 456.621 261.548C455.581 261.776 454.468 262.332 453.281 263.215L449.122 266.311L467.081 290.439L460.913 295.03ZM466.786 270.03L483.916 277.908L477.108 282.976L460.134 274.981L466.786 270.03Z" fill="#AD8E37"/>
<path d="M474.597 239.826L493.986 270.59L487.481 274.689L468.093 243.925L474.597 239.826Z" fill="#AD8E37"/>
<path d="M482.198 242.006L479.091 236.481L505.122 221.842L508.229 227.367L498.526 232.824L513.243 258.995L506.619 262.72L491.902 236.549L482.198 242.006Z" fill="#AD8E37"/>
<path d="M509.475 218.836L517.349 215.349L531.273 226.309L531.598 226.165L532.837 208.488L540.71 205.001L538.104 231.867L543.31 243.62L536.33 246.713L531.123 234.959L509.475 218.836Z" fill="#AD8E37"/>
<path d="M987.445 1178.6C975.793 1192.46 944.024 1200.01 936.087 1220.31C936.087 1234.83 935.989 1249.35 935.989 1264.04C935.482 1266.68 934.073 1269.22 933.229 1270.21C930.527 1264.6 931.224 1255.47 923.962 1256.62C918.896 1257.12 914.514 1268.16 915.189 1280.71C917.216 1283.51 925.949 1278.26 926.624 1282.05C926.793 1290.8 918.577 1298.53 908.782 1304.3C907.093 1304.3 907.39 1305.64 911.443 1306.13C917.523 1303.33 924.671 1302.2 931.257 1300.55C933.115 1295.1 934.566 1291.31 933.721 1279.26C936.93 1276.46 938.354 1272.51 938.354 1267.89C941.563 1272.85 947.766 1276.59 954.521 1276.76C969.551 1275.77 977.453 1251.25 987.248 1242.18C986.91 1240.53 987.093 1240.68 986.755 1239.19C980.675 1238.37 975.104 1233.01 967.336 1233.51C962.101 1233.34 953.041 1243.99 950.676 1258.84C947.299 1261.98 941.058 1255.19 940.72 1250.07C940.552 1239.02 941.396 1236.82 940.72 1226.09C947.138 1213.22 957.882 1211.44 972.067 1202.2C983.213 1195.77 987.952 1184.21 987.445 1178.6ZM971.574 1239.96C976.931 1239.84 978.376 1241.74 977.785 1243.33C974.069 1253.07 964.527 1258.62 954.225 1258.45C956.083 1251.03 962.932 1240.65 969.011 1240.15C969.94 1240.05 970.809 1239.98 971.574 1239.96Z" fill="#0A481E"/>
<path d="M889.07 1250.54C893.123 1251.2 892.785 1260.94 900.891 1259.78C903.762 1265.06 899.878 1270.51 898.189 1275.79C894.643 1277.6 889.07 1274.63 884.848 1272.82C878.431 1276.94 880.626 1289.32 872.689 1291.79C868.298 1291.63 865.258 1288 860.867 1288C846.513 1306.81 813.92 1322.82 785.886 1322.82C768.492 1322.65 761.906 1316.88 763.257 1305.82C763.594 1299.88 764.439 1294.11 766.465 1289.15C767.647 1289.15 768.661 1288.99 769.843 1288.82C766.803 1301.04 771.701 1304.83 781.495 1304.83C814.933 1304.17 838.238 1298.4 857.828 1282.55C861.036 1282.22 866.44 1285.52 868.805 1283.54C872.689 1279.91 871.676 1274.47 874.547 1270.01C874.884 1269.35 878.937 1267.37 879.444 1267.21C880.964 1259.95 882.315 1254.17 889.07 1250.54Z" fill="#0A481E"/>
<path d="M816.807 1268.2C819.171 1265.39 824.913 1275.95 829.304 1279.59C830.824 1281.24 823.224 1285.2 819.847 1288.17C818.665 1288.99 811.741 1280.08 807.688 1275.95C807.012 1275.13 814.105 1271 816.807 1268.2Z" fill="#0A481E"/>
<path d="M800.016 1270.36C802.38 1267.55 808.122 1278.11 812.682 1281.91C814.033 1283.39 806.434 1287.35 803.056 1290.32C802.043 1291.15 795.119 1282.24 791.066 1278.28C790.39 1277.29 797.314 1273.16 800.016 1270.36Z" fill="#0A481E"/>
<path d="M692.012 1233.71C695.39 1231.89 696.572 1243.94 699.443 1248.89C700.119 1250.87 691.675 1251.86 687.284 1253.34C685.933 1253.84 682.893 1242.95 680.698 1237.83C680.36 1236.68 688.466 1235.36 692.012 1233.71Z" fill="#0A481E"/>
<path d="M553.789 1276.62C556.998 1274.8 558.349 1286.85 561.051 1291.8C561.895 1293.78 553.282 1294.77 549.06 1296.26C547.709 1296.75 544.67 1285.86 542.305 1280.74C542.137 1279.59 550.074 1278.27 553.789 1276.62Z" fill="#0A481E"/>
<path d="M626.948 1311.79C630.157 1310.14 631.508 1322.02 634.21 1327.13C635.054 1329.11 626.442 1329.94 622.22 1331.59C620.869 1331.92 617.829 1321.19 615.633 1315.91C615.296 1314.76 623.233 1313.6 626.948 1311.79Z" fill="#0A481E"/>
<path d="M689.015 1287.84C692.223 1286.02 693.574 1298.07 696.276 1303.02C697.121 1305 688.508 1305.99 684.286 1307.47C682.935 1307.97 679.895 1297.08 677.7 1291.8C677.362 1290.81 685.299 1289.49 689.015 1287.84Z" fill="#0A481E"/>
<path d="M706.498 1294.77C709.707 1293.12 711.058 1305 713.76 1310.11C714.604 1312.09 705.991 1312.92 701.769 1314.57C700.418 1314.9 697.379 1304.17 695.014 1298.89C694.846 1297.74 702.783 1296.58 706.498 1294.77Z" fill="#0A481E"/>
<path d="M690.921 1308.96C694.298 1307.15 695.48 1319.19 698.351 1324.14C699.196 1326.12 690.583 1327.11 686.192 1328.6C684.841 1329.09 681.801 1318.2 679.606 1313.09C679.268 1311.93 687.374 1310.61 690.921 1308.96Z" fill="#0A481E"/>
<path d="M705.454 1269.36C701.739 1273.32 697.686 1275.47 690.931 1273.49C687.384 1270.68 689.411 1265.4 686.202 1263.75C675.394 1261.6 647.867 1266.06 646.009 1276.46C651.413 1279.26 658.168 1282.07 664.586 1284.05C660.364 1286.03 651.413 1287.84 644.32 1286.36C635.37 1286.85 634.019 1278.44 639.761 1268.37C646.009 1254.01 654.453 1240.32 659.519 1225.8C656.142 1228.77 653.947 1231.57 649.049 1231.24C640.605 1252.03 632.499 1267.05 626.926 1283.06C624.9 1288.5 627.602 1299.72 637.228 1302.53C653.946 1305.83 667.626 1290.48 678.603 1286.85C679.109 1284.87 678.94 1285.37 679.447 1283.39C673.874 1280.42 661.546 1274.81 656.142 1271.84C661.208 1267.55 674.718 1269.03 681.811 1271.34C685.864 1273.16 684.682 1279.43 689.58 1280.58C696.166 1281.57 703.934 1277.78 705.961 1272.33C706.129 1271.01 705.961 1270.02 705.454 1269.36Z" fill="#0A481E"/>
<path d="M621.542 1262.44C621.035 1264.26 621.035 1263.43 620.528 1265.25C602.965 1275.98 581.349 1282.74 541.494 1261.12C517.683 1248.09 531.699 1234.06 538.117 1226.14C544.365 1248.91 576.114 1268.55 621.542 1262.44Z" fill="#0A481E"/>
<path d="M425.624 1136.52L386.426 1197.78L362.257 1182.31C357.611 1179.34 354.22 1175.92 352.085 1172.05C349.938 1168.2 349.008 1164.17 349.296 1159.94C349.552 1155.72 350.981 1151.57 353.584 1147.5C356.187 1143.44 359.361 1140.41 363.107 1138.42C366.852 1136.43 370.945 1135.64 375.385 1136.03C379.806 1136.41 384.369 1138.11 389.075 1141.12L404.48 1150.98L397.838 1161.36L384.527 1152.84C382.035 1151.25 379.706 1150.36 377.543 1150.19C375.346 1150.02 373.358 1150.44 371.577 1151.47C369.765 1152.5 368.214 1154.03 366.925 1156.04C365.624 1158.07 364.897 1160.11 364.745 1162.15C364.56 1164.19 365.017 1166.16 366.116 1168.04C367.203 1169.95 369.002 1171.7 371.515 1173.31L380.249 1178.9L412.672 1128.23L425.624 1136.52Z" fill="#0A481E"/>
<path d="M372.78 1096.83L325.293 1151.91L303.561 1133.18C299.401 1129.59 296.492 1125.79 294.834 1121.77C293.143 1117.74 292.693 1113.72 293.486 1109.68C294.244 1105.64 296.192 1101.81 299.33 1098.17C302.484 1094.51 305.986 1092.04 309.836 1090.77C313.671 1089.51 317.688 1089.47 321.888 1090.65C326.071 1091.82 330.278 1094.23 334.509 1097.88L349.061 1110.42L340.992 1119.78L328.323 1108.86C326.1 1106.94 323.99 1105.66 321.994 1105C319.998 1104.34 318.116 1104.31 316.348 1104.91C314.561 1105.5 312.888 1106.7 311.326 1108.51C309.75 1110.34 308.788 1112.2 308.441 1114.09C308.076 1115.96 308.36 1117.86 309.292 1119.79C310.19 1121.72 311.76 1123.65 314.001 1125.58L321.855 1132.35L361.133 1086.79L372.78 1096.83ZM321.422 1096.25L329.341 1059.38L342.198 1070.47L333.983 1107.08L321.422 1096.25Z" fill="#0A481E"/>
<path d="M252.372 1017.15C258.421 1012.02 264.539 1008.81 270.727 1007.5C276.899 1006.18 282.774 1006.54 288.351 1008.57C293.894 1010.61 298.741 1014.07 302.89 1018.97C307.07 1023.89 309.702 1029.27 310.785 1035.08C311.869 1040.9 311.254 1046.75 308.939 1052.62C306.625 1058.49 302.453 1063.99 296.422 1069.1C290.373 1074.23 284.262 1077.46 278.09 1078.78C271.917 1080.1 266.059 1079.75 260.516 1077.71C254.954 1075.69 250.084 1072.22 245.904 1067.29C241.754 1062.39 239.138 1057.04 238.054 1051.22C236.938 1045.4 237.536 1039.56 239.85 1033.68C242.149 1027.79 246.323 1022.28 252.372 1017.15ZM262.454 1029.04C258.536 1032.36 255.729 1035.75 254.034 1039.21C252.324 1042.65 251.669 1046.01 252.07 1049.3C252.471 1052.59 253.873 1055.66 256.277 1058.49C258.681 1061.33 261.474 1063.21 264.656 1064.14C267.837 1065.08 271.271 1064.99 274.957 1063.88C278.627 1062.76 282.421 1060.53 286.34 1057.21C290.258 1053.89 293.072 1050.51 294.783 1047.07C296.478 1043.62 297.125 1040.24 296.724 1036.95C296.323 1033.66 294.92 1030.6 292.517 1027.76C290.113 1024.93 287.32 1023.04 284.138 1022.11C280.956 1021.18 277.53 1021.27 273.86 1022.4C270.174 1023.5 266.372 1025.72 262.454 1029.04Z" fill="#0A481E"/>
<path d="M207.118 1012.52L245.644 969.187L245.3 968.607L188.799 981.686L180.093 967.032L255.423 951.44L265.544 968.476L215.842 1027.21L207.118 1012.52Z" fill="#0A481E"/>
<path d="M166.623 936.982L232.936 907.119L239.25 921.139L172.937 951.002L166.623 936.982Z" fill="#0A481E"/>
<path d="M136.388 855.89L205.15 832.202L209.475 844.759L176.503 889.583L176.676 890.087L219.954 875.178L224.963 889.716L156.201 913.404L151.806 900.645L184.826 856.068L184.618 855.463L141.373 870.36L136.388 855.89Z" fill="#0A481E"/>
<path d="M142.935 765.752L145.813 781.038C143.888 781.689 142.238 782.59 140.865 783.74C139.468 784.894 138.35 786.249 137.511 787.804C136.671 789.359 136.127 791.076 135.878 792.954C135.625 794.808 135.691 796.759 136.077 798.806C136.773 802.505 138.298 805.555 140.653 807.954C142.985 810.358 146.038 811.987 149.812 812.843C153.564 813.702 157.917 813.666 162.873 812.733C167.968 811.774 172.106 810.212 175.288 808.047C178.466 805.859 180.68 803.226 181.932 800.148C183.183 797.069 183.469 793.727 182.79 790.121C182.409 788.097 181.789 786.274 180.93 784.653C180.066 783.009 178.996 781.609 177.718 780.452C176.417 779.3 174.939 778.422 173.283 777.818C171.624 777.191 169.807 776.882 167.834 776.893L165.026 761.594C168.381 761.372 171.731 761.765 175.077 762.773C178.395 763.763 181.502 765.358 184.397 767.559C187.265 769.742 189.741 772.528 191.824 775.918C193.88 779.289 195.34 783.266 196.202 787.849C197.402 794.224 197.033 800.196 195.094 805.764C193.151 811.309 189.719 816.051 184.799 819.988C179.875 823.902 173.527 826.591 165.757 828.053C157.963 829.521 151.056 829.303 145.037 827.401C139.017 825.498 134.104 822.304 130.296 817.817C126.465 813.335 123.959 807.953 122.776 801.671C121.997 797.53 121.856 793.582 122.353 789.826C122.846 786.048 123.951 782.575 125.668 779.41C127.361 776.248 129.651 773.505 132.538 771.179C135.42 768.829 138.886 767.021 142.935 765.752Z" fill="#0A481E"/>
<path d="M114.707 736.313L187.362 733.065L188.049 748.426L115.394 751.674L114.707 736.313Z" fill="#0A481E"/>
<path d="M187.485 702.95L186.149 719.373L115.697 688.452L117.304 668.702L191.824 649.61L190.488 666.033L133.088 679.641L133.042 680.208L187.485 702.95ZM158.909 701.658L162.065 662.866L174.028 663.839L170.872 702.632L158.909 701.658Z" fill="#0A481E"/>
<path d="M191.812 633.576L120.703 618.319L123.929 603.285L182.642 615.882L189.183 585.397L201.578 588.057L191.812 633.576Z" fill="#0A481E"/>
<path d="M761.092 263.717C776.118 270.14 786.682 284.771 786.682 301.823C786.682 324.798 767.59 343.453 744.078 343.453C732.321 343.453 721.7 338.745 713.996 331.217C721.912 346.023 737.776 356.155 756.056 356.155C782.247 356.155 803.492 335.396 803.492 309.803C803.492 285.877 784.909 266.181 761.092 263.717Z" fill="#AD8E37"/>
<path d="M743.751 321.645L731.773 306.764L712.898 311.038L723.68 295.308L713.688 279.088L732.329 284.247L745.028 269.949L745.768 288.867L763.609 296.25L745.424 302.783L743.751 321.645Z" fill="#AD8E37"/>
<path d="M1304.45 464.931L1292.48 450.05L1273.6 454.324L1284.38 438.594L1274.39 422.374L1293.03 427.533L1305.73 413.234L1306.47 432.153L1324.31 439.536L1306.13 446.069L1304.45 464.931Z" fill="#0A481E"/>
<path d="M226.708 464.931L214.73 450.05L195.855 454.324L206.637 438.594L196.645 422.374L215.287 427.533L227.986 413.234L228.725 432.153L246.566 439.536L228.381 446.069L226.708 464.931Z" fill="#0A481E"/>
<path d="M1368.32 668.522C1371.13 667.872 1373.18 666.376 1374.47 664.036C1375.77 661.695 1376.18 658.694 1375.7 655.031C1375.38 652.542 1374.75 650.487 1373.83 648.864C1372.92 647.239 1371.8 646.048 1370.46 645.29C1369.13 644.557 1367.68 644.29 1366.13 644.492C1364.84 644.612 1363.75 645.028 1362.86 645.74C1361.98 646.476 1361.25 647.417 1360.68 648.565C1360.14 649.71 1359.7 651.008 1359.36 652.461C1359.05 653.91 1358.82 655.444 1358.67 657.062L1357.96 663.743C1357.67 666.981 1357.1 669.99 1356.27 672.772C1355.44 675.554 1354.29 678.018 1352.82 680.166C1351.36 682.314 1349.53 684.066 1347.35 685.424C1345.16 686.806 1342.57 687.704 1339.57 688.117C1335.15 688.666 1331.18 688.036 1327.65 686.226C1324.15 684.437 1321.23 681.568 1318.9 677.621C1316.6 673.694 1315.07 668.796 1314.31 662.926C1313.56 657.104 1313.79 651.917 1315.01 647.366C1316.24 642.838 1318.45 639.138 1321.63 636.266C1324.84 633.414 1329.03 631.593 1334.21 630.802L1336.12 645.557C1333.72 646.036 1331.8 646.99 1330.33 648.421C1328.9 649.873 1327.9 651.685 1327.35 653.857C1326.82 656.051 1326.73 658.462 1327.07 661.091C1327.41 663.674 1328.07 665.867 1329.07 667.671C1330.07 669.499 1331.31 670.854 1332.79 671.737C1334.26 672.62 1335.87 672.948 1337.61 672.723C1339.23 672.513 1340.52 671.855 1341.5 670.749C1342.48 669.667 1343.24 668.16 1343.78 666.228C1344.32 664.32 1344.74 662.01 1345.03 659.298L1345.98 651.189C1346.67 644.916 1348.36 639.815 1351.05 635.885C1353.74 631.955 1357.75 629.656 1363.08 628.988C1367.45 628.398 1371.41 629.065 1374.98 630.989C1378.55 632.937 1381.52 635.858 1383.89 639.752C1386.26 643.647 1387.78 648.223 1388.46 653.482C1389.16 658.835 1388.85 663.626 1387.54 667.855C1386.23 672.107 1384.08 675.56 1381.11 678.214C1378.14 680.868 1374.51 682.509 1370.22 683.137L1368.32 668.522Z" fill="#0A481E"/>
<path d="M1318.33 697.715L1390.99 700.799L1388.91 749.761L1376.24 749.223L1377.67 715.624L1360.36 714.889L1359.04 745.969L1346.37 745.431L1347.69 714.351L1330.34 713.615L1328.91 747.356L1316.24 746.818L1318.33 697.715Z" fill="#0A481E"/>
<path d="M1313.49 763.139L1385.15 775.599L1380.23 803.868C1379.29 809.279 1377.52 813.729 1374.92 817.217C1372.34 820.733 1369.11 823.188 1365.24 824.582C1361.39 826.002 1357.09 826.301 1352.36 825.478C1347.6 824.65 1343.69 822.912 1340.61 820.264C1337.57 817.619 1335.47 814.191 1334.33 809.979C1333.18 805.791 1333.09 800.945 1334.05 795.44L1337.34 776.513L1349.51 778.63L1346.65 795.108C1346.14 798.001 1346.12 800.472 1346.58 802.522C1347.04 804.573 1347.99 806.203 1349.41 807.411C1350.83 808.643 1352.72 809.464 1355.07 809.874C1357.45 810.288 1359.54 810.158 1361.34 809.486C1363.13 808.837 1364.62 807.617 1365.8 805.827C1366.99 804.065 1367.84 801.726 1368.35 798.81L1370.13 788.594L1310.86 778.289L1313.49 763.139ZM1339.37 807.504L1303.67 819.642L1306.58 802.919L1342.21 791.166L1339.37 807.504Z" fill="#0A481E"/>
<path d="M1367.66 857.215L1309.69 858.288L1309.5 858.934L1357.43 891.589L1352.56 907.925L1290.02 863.136L1295.67 844.145L1372.54 840.844L1367.66 857.215Z" fill="#0A481E"/>
<path d="M1340.04 935.385L1274.19 904.512L1280.71 890.59L1346.56 921.462L1340.04 935.385Z" fill="#0A481E"/>
<path d="M1280.09 990.749L1288.17 977.463C1290.04 978.266 1291.87 978.7 1293.66 978.764C1295.47 978.84 1297.21 978.581 1298.87 977.987C1300.54 977.392 1302.09 976.48 1303.53 975.251C1304.96 974.042 1306.21 972.548 1307.3 970.768C1309.25 967.552 1310.16 964.265 1310.01 960.907C1309.89 957.56 1308.71 954.307 1306.48 951.146C1304.26 947.998 1301 945.113 1296.69 942.491C1292.27 939.796 1288.14 938.188 1284.33 937.669C1280.51 937.17 1277.1 937.646 1274.11 939.097C1271.12 940.548 1268.67 942.84 1266.76 945.975C1265.69 947.735 1264.93 949.504 1264.49 951.284C1264.03 953.083 1263.89 954.841 1264.07 956.555C1264.26 958.282 1264.77 959.923 1265.6 961.48C1266.41 963.056 1267.56 964.501 1269.03 965.813L1260.88 979.063C1258.24 976.984 1256.02 974.45 1254.2 971.463C1252.4 968.508 1251.16 965.244 1250.48 961.671C1249.8 958.13 1249.83 954.403 1250.55 950.489C1251.27 946.608 1252.85 942.676 1255.27 938.692C1258.65 933.151 1262.92 928.959 1268.08 926.117C1273.24 923.295 1278.96 922.066 1285.25 922.431C1291.53 922.815 1298.04 925.063 1304.8 929.174C1311.57 933.297 1316.56 938.079 1319.76 943.519C1322.97 948.96 1324.48 954.621 1324.31 960.503C1324.16 966.398 1322.42 972.075 1319.1 977.535C1316.91 981.135 1314.37 984.164 1311.49 986.623C1308.6 989.102 1305.45 990.943 1302.06 992.148C1298.68 993.365 1295.15 993.873 1291.45 993.671C1287.73 993.489 1283.95 992.515 1280.09 990.749Z" fill="#0A481E"/>
<path d="M1236.39 976.172L1295.17 1018.99L1266.32 1058.6L1256.07 1051.14L1275.87 1023.96L1261.86 1013.75L1243.55 1038.9L1233.3 1031.43L1251.62 1006.29L1237.58 996.065L1217.7 1023.36L1207.45 1015.9L1236.39 976.172Z" fill="#0A481E"/>
<path d="M385.14 165.276L400.995 154.873L444.546 184.74L445.259 184.273L435.198 132.431L451.053 122.028L490.951 182.835L478.48 191.017L452.512 151.439L452.007 151.77L462.045 201.376L453.553 206.948L411.946 177.843L411.441 178.174L437.507 217.901L425.037 226.083L385.14 165.276Z" fill="#0A481E"/>
<path d="M515.123 170.356L500.393 177.739L490.251 101.471L507.966 92.5924L562.966 146.377L548.236 153.76L506.809 111.762L506.301 112.017L515.123 170.356ZM501.394 145.261L536.189 127.821L541.567 138.552L506.772 155.991L501.394 145.261Z" fill="#0A481E"/>
<path d="M609.935 56.1497L630.224 125.99L617.47 129.695L574.316 94.5648L573.804 94.7134L586.574 138.67L571.808 142.96L551.519 73.1199L564.478 69.3554L607.383 104.521L607.997 104.342L595.237 60.4195L609.935 56.1497Z" fill="#0A481E"/>
<path d="M655.201 122.776L638.902 125.195L653.06 49.5695L672.661 46.6606L708.137 114.919L691.838 117.338L665.581 64.5126L665.019 64.596L655.201 122.776ZM649.985 94.6499L688.484 88.9363L690.246 100.809L651.747 106.523L649.985 94.6499Z" fill="#0A481E"/>
<path d="M760.307 68.137C759.806 66.4099 759.104 64.8844 758.202 63.5606C757.299 62.2132 756.196 61.0793 754.892 60.1588C753.611 59.2147 752.142 58.4959 750.483 58.0024C748.849 57.5088 747.037 57.2642 745.049 57.2686C741.332 57.2768 738.067 58.2073 735.254 60.0601C732.464 61.9128 730.292 64.6046 728.737 68.1355C727.182 71.6428 726.411 75.9295 726.422 80.9958C726.433 86.0621 727.212 90.3691 728.759 93.9168C730.305 97.4645 732.489 100.17 735.311 102.034C738.132 103.875 741.46 104.791 745.295 104.782C748.775 104.775 751.745 104.153 754.205 102.916C756.688 101.656 758.578 99.888 759.875 97.6124C761.195 95.3368 761.852 92.6483 761.846 89.547L764.972 90.0017L746.222 90.0431L746.196 78.4664L776.629 78.3993L776.649 87.5612C776.664 93.9533 775.326 99.4486 772.638 104.047C769.949 108.622 766.24 112.158 761.51 114.654C756.781 117.127 751.362 118.37 745.254 118.383C738.436 118.398 732.443 116.908 727.276 113.913C722.108 110.894 718.074 106.606 715.173 101.049C712.296 95.4683 710.85 88.8426 710.833 81.1722C710.82 75.2773 711.66 70.0198 713.355 65.3996C715.073 60.7556 717.479 56.8204 720.573 53.5938C723.667 50.3673 727.272 47.9091 731.388 46.2191C735.503 44.5292 739.964 43.6789 744.77 43.6683C748.889 43.6592 752.726 44.2545 756.28 45.454C759.833 46.6299 762.986 48.3038 765.737 50.4758C768.511 52.6477 770.778 55.2351 772.537 58.2378C774.295 61.2169 775.427 64.5051 775.932 68.1025L760.307 68.137Z" fill="#0A481E"/>
<path d="M798.434 116.014L807.811 43.8939L856.407 50.2123L854.773 62.7841L821.424 58.4482L819.19 75.6331L850.038 79.6439L848.404 92.2156L817.555 88.2048L815.316 105.425L848.806 109.779L847.171 122.351L798.434 116.014Z" fill="#0A481E"/>
<path d="M889.477 53.9261L907.586 59.5551L912.207 112.162L913.021 112.415L946.651 71.6986L964.759 77.3276L943.171 146.777L928.929 142.35L942.98 97.1465L942.403 96.9673L910.485 136.244L900.786 133.23L896.812 82.6093L896.236 82.4301L882.132 127.803L867.889 123.375L889.477 53.9261Z" fill="#0A481E"/>
<path d="M958.747 152.182L989.698 86.3698L1034.04 107.226L1028.65 118.698L998.217 104.386L990.842 120.068L1018.99 133.307L1013.6 144.779L985.447 131.54L978.056 147.254L1008.62 161.626L1003.22 173.099L958.747 152.182Z" fill="#0A481E"/>
<path d="M1105.82 149.979L1066.68 211.278L1055.48 204.13L1053.45 148.522L1053 148.235L1028.37 186.816L1015.41 178.541L1054.54 117.243L1065.92 124.505L1067.76 179.95L1068.3 180.294L1092.92 141.743L1105.82 149.979Z" fill="#0A481E"/>
<path d="M1106.87 165.828L1114.95 156.054L1161 194.093L1152.92 203.867L1135.76 189.687L1097.51 235.984L1085.8 226.305L1124.04 180.008L1106.87 165.828Z" fill="#0A481E"/>
</svg>
