<svg width="1448" height="1356" viewBox="0 0 1448 1356" fill="none" xmlns="http://www.w3.org/2000/svg">
<circle cx="756.289" cy="678" r="665.5" fill="#AD8E37" stroke="#AD8E37" stroke-width="25"/>
<path d="M1259.02 679.645C1259.02 957.8 1033.53 1183.29 755.378 1183.29C477.222 1183.29 251.732 957.8 251.732 679.645C251.732 401.49 477.222 176 755.378 176C1033.53 176 1259.02 401.49 1259.02 679.645Z" fill="#0A481E" stroke="#001F5F" stroke-width="72"/>
<path d="M310.857 910.913C430.039 910.913 482.569 877.349 564.814 877.349C655.002 877.349 686.739 906.82 755.782 906.82C839.802 906.82 842.687 878.167 932.752 878.167C1015.14 878.167 1080.01 914.806 1201.71 912.55" stroke="#AD8E37" stroke-width="15.24" stroke-linecap="round" stroke-linejoin="round"/>
<path d="M346.184 967.864C456.059 967.864 504.487 931.338 580.31 931.338C663.455 931.338 692.714 963.41 756.366 963.41C833.825 963.41 836.484 932.229 919.517 932.229C995.469 932.229 1055.27 972.101 1167.47 969.646" stroke="#AD8E37" stroke-width="15.24" stroke-linecap="round" stroke-linejoin="round"/>
<path d="M391.848 1021.35C478.391 1016.78 521.588 986.377 586.463 986.377C663.379 986.377 690.445 1017.58 749.328 1017.58C820.984 1017.58 823.444 987.244 900.256 987.244C968.24 987.244 1022.24 1023.56 1119.69 1023.76" stroke="#AD8E37" stroke-width="15.24" stroke-linecap="round" stroke-linejoin="round"/>
<path d="M451.033 1075.02C520.762 1068.08 557.957 1038.28 612.594 1038.28C680.404 1038.28 704.267 1071.8 756.179 1071.8C819.353 1071.8 821.521 1039.21 889.24 1039.21C944.59 1039.21 989.425 1072.48 1063.62 1077.74" stroke="#AD8E37" stroke-width="15.24" stroke-linecap="round" stroke-linejoin="round"/>
<path d="M533.061 1125.88C577.439 1116.6 605.125 1095.39 643.697 1095.39C697.841 1095.39 716.895 1125.9 758.345 1125.9C808.787 1125.9 810.519 1096.24 864.59 1096.24C903.541 1096.24 935.971 1119.76 983.677 1128.62" stroke="#AD8E37" stroke-width="15.24" stroke-linecap="round" stroke-linejoin="round"/>
<path d="M1250.43 678.002C1250.43 950.909 1029.2 1172.14 756.29 1172.14C483.382 1172.14 262.146 950.909 262.146 678.002C262.146 405.095 483.382 183.859 756.29 183.859C1029.2 183.859 1250.43 405.095 1250.43 678.002Z" stroke="#001F5F" stroke-width="50"/>
<mask id="path-9-inside-1_143_2" fill="white">
<path d="M783.488 588.445C786.272 587.122 803.5 586.247 810.536 588.445C811.406 583.695 809.277 573.1 805.056 570.662C789.648 561.774 765.473 556.785 747.917 556.533C741.207 556.433 736.452 557.125 734.808 558.354C732.087 560.376 730.449 564.961 724.892 588.445C722.518 598.542 718.172 610.019 711.696 618.183C700.396 632.412 682.934 641.539 663.351 641.539C629.26 641.539 601.663 610.819 601.625 579.821C601.6 551.633 620.214 527.835 646.248 520.471C651.01 519.129 656.44 518.001 657.794 513.762C659.067 509.769 657.001 507.577 655.143 505.51C596.598 440.435 541.424 376.813 496.744 283.757C494.803 279.712 493.216 278.868 491.616 278.591C489.708 278.264 487.628 279.013 485.683 281.533C464.139 309.406 473.298 351.729 498.892 383.95C527.1 419.451 557.777 453.856 591.023 487.103C541.745 451.771 491.605 410.871 448.392 359.383C445.564 356.013 443.863 355.603 442.27 355.723C440.379 355.874 438.591 357.083 437.356 359.943C423.623 391.621 442.546 429.592 474.628 454.007C506.155 477.938 539.396 500.52 574.413 521.672C522.357 501.3 467.831 476.407 417.168 440.118C413.678 437.598 411.951 437.623 410.478 438.12C408.721 438.719 407.309 440.306 406.824 443.317C401.451 476.696 428.595 508.166 464.946 523.58C497.387 537.256 530.936 549.476 565.626 560.185C519.2 554.433 470.143 545.627 421.646 527.637C417.697 526.157 416.078 526.616 414.805 527.467C413.3 528.481 412.38 530.339 412.695 533.312C416.185 566.225 449.897 588.997 488.197 594.225C516.669 598.042 545.626 600.669 575.069 602.068C533.739 607.031 489.438 610.325 443.568 605.708C439.46 605.273 438.049 606.111 437.06 607.226C435.877 608.562 435.46 610.558 436.493 613.292C447.901 643.603 485.444 656.856 522.993 652.384C545.405 649.65 567.918 646.097 590.545 641.714C558.596 653.644 532.694 663.263 496.026 669.48C492.039 670.135 490.924 671.288 490.282 672.604C489.519 674.167 489.639 676.15 491.32 678.462C505.556 697.416 533.197 703.571 563.497 694.48C578.066 690.116 600.416 682.595 614.557 676.932C590.917 692.15 578.69 697.662 551.981 709.907C548.404 711.539 547.648 712.925 547.37 714.329C547.055 715.992 547.66 717.864 549.858 719.589C572.541 737.365 597.895 729.396 617.397 721.97C629.548 717.347 641.63 712.358 653.649 707.212C643.495 715.085 632.981 722.707 622.065 729.996C618.89 732.112 618.38 733.548 618.336 734.934C618.286 736.572 619.168 738.234 621.518 739.571C640.528 750.373 664.062 746.486 684.742 733.718C676.919 746.909 667.029 758.121 656.269 767.027C660.288 768.565 670.38 768.023 674.625 766.379C669.542 773.912 665.573 781.672 659.923 788.791C650.525 800.614 637.807 778.064 624.843 782.404C623.999 782.688 623.255 783.059 622.67 783.884C618.286 784.753 613.272 789.591 614.563 798.107C618.273 791.947 622.803 791.411 625.901 791.593C631.747 792.608 634.727 794.378 637.618 796.293C631.362 794.637 618.399 797.603 617.555 805.502C613.87 810.913 612.49 818.043 619.37 824.62C619.999 808.859 631.861 804.526 643.237 805.143C636.283 807.166 627.754 814.138 630.261 822.327C629.41 826.711 632.138 834.485 640.528 836.494C637.429 832.582 636.68 827.506 638.33 823.543C640.976 817.206 647.88 813.735 652.85 812.557C662.626 810.233 671.319 813.086 675.143 816.96C677.133 818.988 678.292 823.719 676.276 827.65C681.883 824.846 683.351 817.602 682.386 813.615C682.733 813.249 683.029 812.739 682.784 811.75C680.849 804.014 666.834 804.027 674.047 795.744L689.882 777.59C689.568 782.447 691.904 789.054 694.632 792.884C701.573 778.05 712.786 760.689 724.773 748.292C712.66 784.084 693.548 822.256 671.791 851.258C670.153 853.437 670.09 854.577 670.323 855.566C670.6 856.757 671.469 857.759 673.22 858.225C688.325 862.244 703.595 853.248 714.65 838.144C710.347 852.254 705.365 866.345 699.557 880.304C698.474 882.88 698.669 883.995 699.128 884.89C699.676 885.954 700.741 886.678 702.549 886.623C718.763 886.1 731.884 871.794 738.864 852.764C739.651 883.523 743.249 908.279 754.19 908.279C765.132 908.279 768.716 883.524 769.509 852.764C776.495 871.794 789.616 886.099 805.83 886.623C807.632 886.679 808.702 885.955 809.251 884.89C809.704 883.995 809.905 882.88 808.822 880.304C803.008 866.345 798.026 852.254 793.729 838.144C804.784 853.249 820.054 862.244 835.153 858.225C836.898 857.759 837.78 856.757 838.057 855.566C838.284 854.578 838.221 853.437 836.589 851.258C814.831 822.256 795.72 784.084 783.607 748.292C795.594 760.689 806.8 778.049 813.742 792.884C816.469 789.054 818.813 782.447 818.498 777.59L834.321 795.744C841.547 804.027 827.525 804.014 825.598 811.75C825.352 812.739 825.647 813.249 825.994 813.615C825.031 817.602 826.492 824.846 832.092 827.65C830.089 823.719 831.248 818.988 833.238 816.96C837.049 813.086 845.755 810.233 855.531 812.557C860.501 813.735 867.405 817.206 870.043 823.543C871.7 827.506 870.945 832.582 867.851 836.494C876.229 834.485 878.957 826.711 878.119 822.327C880.626 814.138 872.097 807.166 865.143 805.143C876.519 804.526 888.374 808.859 889.004 824.62C895.888 818.043 894.51 810.913 890.819 805.502C889.981 797.602 877.017 794.636 870.762 796.293C873.654 794.378 876.633 792.608 882.466 791.593C885.565 791.411 890.107 791.946 893.817 798.107C895.108 789.59 890.088 784.753 885.71 783.884C885.118 783.059 884.38 782.688 883.53 782.404C870.566 778.064 857.849 800.614 848.45 788.791C842.8 781.672 838.837 773.912 833.754 766.379C837.994 768.022 848.091 768.564 852.097 767.027C841.333 758.121 831.456 746.902 823.632 733.712C844.319 746.48 867.852 750.373 886.863 739.57C889.212 738.234 890.094 736.571 890.043 734.933C889.999 733.547 889.489 732.111 886.315 729.995C875.398 722.706 864.886 715.085 854.731 707.211C866.749 712.357 878.832 717.346 890.982 721.969C910.484 729.396 935.838 737.365 958.522 719.588C960.72 717.863 961.325 715.992 961.01 714.329C960.733 712.924 959.977 711.538 956.398 709.907C929.691 697.662 917.464 692.15 893.823 676.931C907.965 682.594 930.313 690.115 944.884 694.48C975.189 703.569 1002.82 697.415 1017.06 678.461C1018.74 676.15 1018.87 674.165 1018.1 672.603C1017.46 671.287 1016.34 670.134 1012.35 669.479C975.686 663.262 949.784 653.643 917.834 641.713C940.461 646.097 962.974 649.65 985.387 652.383C1022.94 656.856 1060.48 643.602 1071.89 613.291C1072.92 610.557 1072.5 608.561 1071.33 607.225C1070.33 606.11 1068.92 605.273 1064.81 605.707C1018.94 610.324 974.639 607.03 933.311 602.067C962.753 600.668 991.71 598.041 1020.18 594.224C1058.48 588.996 1092.19 566.224 1095.68 533.312C1096 530.339 1095.08 528.48 1093.57 527.467C1092.3 526.615 1090.68 526.156 1086.74 527.637C1038.24 545.627 989.178 554.433 942.753 560.184C977.443 549.475 1010.99 537.255 1043.43 523.58C1079.78 508.166 1106.93 476.695 1101.55 443.317C1101.07 440.305 1099.66 438.718 1097.9 438.119C1096.43 437.622 1094.71 437.597 1091.21 440.117C1040.55 476.406 986.022 501.299 933.966 521.671C968.983 500.519 1002.22 477.937 1033.75 454.007C1065.83 429.592 1084.76 391.621 1071.02 359.942C1069.79 357.083 1068 355.872 1066.11 355.722C1064.52 355.603 1062.82 356.012 1059.99 359.382C1016.77 410.871 966.634 451.77 917.356 487.103C950.602 453.856 981.285 419.45 1009.49 383.949C1035.08 351.728 1044.24 309.405 1022.7 281.532C1020.75 279.012 1018.67 278.263 1016.77 278.59C1015.16 278.867 1013.58 279.711 1011.63 283.756C966.957 376.814 911.782 440.436 853.238 505.511C851.38 507.577 849.313 509.769 850.586 513.763C851.947 518.002 857.37 519.129 862.132 520.472C888.167 527.836 906.781 551.633 906.755 579.822C906.718 610.819 879.122 641.54 845.031 641.54C825.447 641.54 807.985 632.413 796.684 618.184C790.203 610.019 785.863 598.549 783.488 588.445ZM754.191 802.532C750.487 832.515 746.751 863.842 754.191 893.051C761.63 863.842 757.894 832.515 754.191 802.532ZM798.65 877.378C783.941 838.885 780.527 820.018 775.859 793.776C773.276 821.845 775.658 859.904 798.65 877.378ZM825.415 850.638C802.208 816.592 794.523 799.017 783.915 774.57C787.891 802.475 799.003 838.953 825.415 850.638ZM709.731 877.378C724.44 838.885 727.854 820.018 732.521 793.776C735.104 821.845 732.723 859.904 709.731 877.378ZM682.966 850.638C706.172 816.592 713.857 799.017 724.465 774.57C720.49 802.475 709.379 838.953 682.966 850.638ZM453.859 381.028C497.267 431.748 541.896 465.928 599.054 506.028C548.812 477.461 505.625 451.559 491.301 440.341C474.206 426.942 454.111 404.341 453.859 381.028ZM1054.52 381.028C1011.11 431.748 966.484 465.928 909.326 506.028C959.568 477.461 1002.75 451.559 1017.08 440.341C1034.17 426.942 1054.27 404.341 1054.52 381.028ZM871.046 731.018C854.252 718.628 842.693 706.798 829.95 691.365C838.662 710.288 849.088 728.416 871.046 731.018ZM1009.53 312.072C972.45 383.396 928.954 437.241 882.712 489.561C924.324 450.274 977.514 393.021 988.827 378.779C1002.33 361.765 1014.72 334.799 1009.53 312.072ZM935.908 711.888C912.52 701.155 895.594 689.779 876.331 674.346C891.6 695 908.74 714.263 935.908 711.888ZM995.687 677.961C951.782 667.341 932.613 658.705 906.012 646.63C929.767 666.39 965.621 687.876 995.687 677.961ZM1050.6 618.29C1006.57 620.652 983.826 619.229 922.227 610.442C945.597 620.167 963.461 627.228 989.326 630.152C1009.22 632.399 1034.68 632.394 1050.6 618.29ZM1074.94 544.61C1027.52 559.249 1003.54 564.874 931.606 571.551C958.863 573.945 991.089 576.912 1018.81 572.867C1038.84 569.951 1063.69 562.361 1074.94 544.61ZM1083.69 459.37C1029.27 495.804 993.162 511.388 926.875 535.917C980.683 522.897 1015.22 513.542 1031.98 506.481C1052 498.04 1077.33 481.795 1083.69 459.37ZM637.335 731.018C654.128 718.628 665.687 706.798 678.43 691.365C669.719 710.288 659.294 728.416 637.335 731.018ZM498.848 312.072C535.931 383.396 579.427 437.241 625.669 489.561C584.057 450.274 530.867 393.021 519.553 378.779C506.048 361.765 493.663 334.799 498.848 312.072ZM572.472 711.888C595.861 701.155 612.787 689.779 632.049 674.346C616.781 695 599.64 714.263 572.472 711.888ZM512.694 677.961C556.599 667.341 575.767 658.705 602.369 646.63C578.614 666.39 542.76 687.876 512.694 677.961ZM457.777 618.29C501.809 620.652 524.555 619.229 586.154 610.442C562.784 620.167 544.919 627.228 519.055 630.152C499.163 632.399 473.702 632.394 457.777 618.29ZM433.444 544.61C480.863 559.249 504.844 564.874 576.775 571.551C549.519 573.945 517.293 576.912 489.577 572.867C469.544 569.951 444.694 562.361 433.444 544.61ZM424.688 459.37C479.106 495.804 515.219 511.388 581.505 535.917C527.698 522.897 493.16 513.542 476.398 506.481C456.379 498.04 431.05 481.795 424.688 459.37Z"/>
</mask>
<path d="M783.488 588.445C786.272 587.122 803.5 586.247 810.536 588.445C811.406 583.695 809.277 573.1 805.056 570.662C789.648 561.774 765.473 556.785 747.917 556.533C741.207 556.433 736.452 557.125 734.808 558.354C732.087 560.376 730.449 564.961 724.892 588.445C722.518 598.542 718.172 610.019 711.696 618.183C700.396 632.412 682.934 641.539 663.351 641.539C629.26 641.539 601.663 610.819 601.625 579.821C601.6 551.633 620.214 527.835 646.248 520.471C651.01 519.129 656.44 518.001 657.794 513.762C659.067 509.769 657.001 507.577 655.143 505.51C596.598 440.435 541.424 376.813 496.744 283.757C494.803 279.712 493.216 278.868 491.616 278.591C489.708 278.264 487.628 279.013 485.683 281.533C464.139 309.406 473.298 351.729 498.892 383.95C527.1 419.451 557.777 453.856 591.023 487.103C541.745 451.771 491.605 410.871 448.392 359.383C445.564 356.013 443.863 355.603 442.27 355.723C440.379 355.874 438.591 357.083 437.356 359.943C423.623 391.621 442.546 429.592 474.628 454.007C506.155 477.938 539.396 500.52 574.413 521.672C522.357 501.3 467.831 476.407 417.168 440.118C413.678 437.598 411.951 437.623 410.478 438.12C408.721 438.719 407.309 440.306 406.824 443.317C401.451 476.696 428.595 508.166 464.946 523.58C497.387 537.256 530.936 549.476 565.626 560.185C519.2 554.433 470.143 545.627 421.646 527.637C417.697 526.157 416.078 526.616 414.805 527.467C413.3 528.481 412.38 530.339 412.695 533.312C416.185 566.225 449.897 588.997 488.197 594.225C516.669 598.042 545.626 600.669 575.069 602.068C533.739 607.031 489.438 610.325 443.568 605.708C439.46 605.273 438.049 606.111 437.06 607.226C435.877 608.562 435.46 610.558 436.493 613.292C447.901 643.603 485.444 656.856 522.993 652.384C545.405 649.65 567.918 646.097 590.545 641.714C558.596 653.644 532.694 663.263 496.026 669.48C492.039 670.135 490.924 671.288 490.282 672.604C489.519 674.167 489.639 676.15 491.32 678.462C505.556 697.416 533.197 703.571 563.497 694.48C578.066 690.116 600.416 682.595 614.557 676.932C590.917 692.15 578.69 697.662 551.981 709.907C548.404 711.539 547.648 712.925 547.37 714.329C547.055 715.992 547.66 717.864 549.858 719.589C572.541 737.365 597.895 729.396 617.397 721.97C629.548 717.347 641.63 712.358 653.649 707.212C643.495 715.085 632.981 722.707 622.065 729.996C618.89 732.112 618.38 733.548 618.336 734.934C618.286 736.572 619.168 738.234 621.518 739.571C640.528 750.373 664.062 746.486 684.742 733.718C676.919 746.909 667.029 758.121 656.269 767.027C660.288 768.565 670.38 768.023 674.625 766.379C669.542 773.912 665.573 781.672 659.923 788.791C650.525 800.614 637.807 778.064 624.843 782.404C623.999 782.688 623.255 783.059 622.67 783.884C618.286 784.753 613.272 789.591 614.563 798.107C618.273 791.947 622.803 791.411 625.901 791.593C631.747 792.608 634.727 794.378 637.618 796.293C631.362 794.637 618.399 797.603 617.555 805.502C613.87 810.913 612.49 818.043 619.37 824.62C619.999 808.859 631.861 804.526 643.237 805.143C636.283 807.166 627.754 814.138 630.261 822.327C629.41 826.711 632.138 834.485 640.528 836.494C637.429 832.582 636.68 827.506 638.33 823.543C640.976 817.206 647.88 813.735 652.85 812.557C662.626 810.233 671.319 813.086 675.143 816.96C677.133 818.988 678.292 823.719 676.276 827.65C681.883 824.846 683.351 817.602 682.386 813.615C682.733 813.249 683.029 812.739 682.784 811.75C680.849 804.014 666.834 804.027 674.047 795.744L689.882 777.59C689.568 782.447 691.904 789.054 694.632 792.884C701.573 778.05 712.786 760.689 724.773 748.292C712.66 784.084 693.548 822.256 671.791 851.258C670.153 853.437 670.09 854.577 670.323 855.566C670.6 856.757 671.469 857.759 673.22 858.225C688.325 862.244 703.595 853.248 714.65 838.144C710.347 852.254 705.365 866.345 699.557 880.304C698.474 882.88 698.669 883.995 699.128 884.89C699.676 885.954 700.741 886.678 702.549 886.623C718.763 886.1 731.884 871.794 738.864 852.764C739.651 883.523 743.249 908.279 754.19 908.279C765.132 908.279 768.716 883.524 769.509 852.764C776.495 871.794 789.616 886.099 805.83 886.623C807.632 886.679 808.702 885.955 809.251 884.89C809.704 883.995 809.905 882.88 808.822 880.304C803.008 866.345 798.026 852.254 793.729 838.144C804.784 853.249 820.054 862.244 835.153 858.225C836.898 857.759 837.78 856.757 838.057 855.566C838.284 854.578 838.221 853.437 836.589 851.258C814.831 822.256 795.72 784.084 783.607 748.292C795.594 760.689 806.8 778.049 813.742 792.884C816.469 789.054 818.813 782.447 818.498 777.59L834.321 795.744C841.547 804.027 827.525 804.014 825.598 811.75C825.352 812.739 825.647 813.249 825.994 813.615C825.031 817.602 826.492 824.846 832.092 827.65C830.089 823.719 831.248 818.988 833.238 816.96C837.049 813.086 845.755 810.233 855.531 812.557C860.501 813.735 867.405 817.206 870.043 823.543C871.7 827.506 870.945 832.582 867.851 836.494C876.229 834.485 878.957 826.711 878.119 822.327C880.626 814.138 872.097 807.166 865.143 805.143C876.519 804.526 888.374 808.859 889.004 824.62C895.888 818.043 894.51 810.913 890.819 805.502C889.981 797.602 877.017 794.636 870.762 796.293C873.654 794.378 876.633 792.608 882.466 791.593C885.565 791.411 890.107 791.946 893.817 798.107C895.108 789.59 890.088 784.753 885.71 783.884C885.118 783.059 884.38 782.688 883.53 782.404C870.566 778.064 857.849 800.614 848.45 788.791C842.8 781.672 838.837 773.912 833.754 766.379C837.994 768.022 848.091 768.564 852.097 767.027C841.333 758.121 831.456 746.902 823.632 733.712C844.319 746.48 867.852 750.373 886.863 739.57C889.212 738.234 890.094 736.571 890.043 734.933C889.999 733.547 889.489 732.111 886.315 729.995C875.398 722.706 864.886 715.085 854.731 707.211C866.749 712.357 878.832 717.346 890.982 721.969C910.484 729.396 935.838 737.365 958.522 719.588C960.72 717.863 961.325 715.992 961.01 714.329C960.733 712.924 959.977 711.538 956.398 709.907C929.691 697.662 917.464 692.15 893.823 676.931C907.965 682.594 930.313 690.115 944.884 694.48C975.189 703.569 1002.82 697.415 1017.06 678.461C1018.74 676.15 1018.87 674.165 1018.1 672.603C1017.46 671.287 1016.34 670.134 1012.35 669.479C975.686 663.262 949.784 653.643 917.834 641.713C940.461 646.097 962.974 649.65 985.387 652.383C1022.94 656.856 1060.48 643.602 1071.89 613.291C1072.92 610.557 1072.5 608.561 1071.33 607.225C1070.33 606.11 1068.92 605.273 1064.81 605.707C1018.94 610.324 974.639 607.03 933.311 602.067C962.753 600.668 991.71 598.041 1020.18 594.224C1058.48 588.996 1092.19 566.224 1095.68 533.312C1096 530.339 1095.08 528.48 1093.57 527.467C1092.3 526.615 1090.68 526.156 1086.74 527.637C1038.24 545.627 989.178 554.433 942.753 560.184C977.443 549.475 1010.99 537.255 1043.43 523.58C1079.78 508.166 1106.93 476.695 1101.55 443.317C1101.07 440.305 1099.66 438.718 1097.9 438.119C1096.43 437.622 1094.71 437.597 1091.21 440.117C1040.55 476.406 986.022 501.299 933.966 521.671C968.983 500.519 1002.22 477.937 1033.75 454.007C1065.83 429.592 1084.76 391.621 1071.02 359.942C1069.79 357.083 1068 355.872 1066.11 355.722C1064.52 355.603 1062.82 356.012 1059.99 359.382C1016.77 410.871 966.634 451.77 917.356 487.103C950.602 453.856 981.285 419.45 1009.49 383.949C1035.08 351.728 1044.24 309.405 1022.7 281.532C1020.75 279.012 1018.67 278.263 1016.77 278.59C1015.16 278.867 1013.58 279.711 1011.63 283.756C966.957 376.814 911.782 440.436 853.238 505.511C851.38 507.577 849.313 509.769 850.586 513.763C851.947 518.002 857.37 519.129 862.132 520.472C888.167 527.836 906.781 551.633 906.755 579.822C906.718 610.819 879.122 641.54 845.031 641.54C825.447 641.54 807.985 632.413 796.684 618.184C790.203 610.019 785.863 598.549 783.488 588.445ZM754.191 802.532C750.487 832.515 746.751 863.842 754.191 893.051C761.63 863.842 757.894 832.515 754.191 802.532ZM798.65 877.378C783.941 838.885 780.527 820.018 775.859 793.776C773.276 821.845 775.658 859.904 798.65 877.378ZM825.415 850.638C802.208 816.592 794.523 799.017 783.915 774.57C787.891 802.475 799.003 838.953 825.415 850.638ZM709.731 877.378C724.44 838.885 727.854 820.018 732.521 793.776C735.104 821.845 732.723 859.904 709.731 877.378ZM682.966 850.638C706.172 816.592 713.857 799.017 724.465 774.57C720.49 802.475 709.379 838.953 682.966 850.638ZM453.859 381.028C497.267 431.748 541.896 465.928 599.054 506.028C548.812 477.461 505.625 451.559 491.301 440.341C474.206 426.942 454.111 404.341 453.859 381.028ZM1054.52 381.028C1011.11 431.748 966.484 465.928 909.326 506.028C959.568 477.461 1002.75 451.559 1017.08 440.341C1034.17 426.942 1054.27 404.341 1054.52 381.028ZM871.046 731.018C854.252 718.628 842.693 706.798 829.95 691.365C838.662 710.288 849.088 728.416 871.046 731.018ZM1009.53 312.072C972.45 383.396 928.954 437.241 882.712 489.561C924.324 450.274 977.514 393.021 988.827 378.779C1002.33 361.765 1014.72 334.799 1009.53 312.072ZM935.908 711.888C912.52 701.155 895.594 689.779 876.331 674.346C891.6 695 908.74 714.263 935.908 711.888ZM995.687 677.961C951.782 667.341 932.613 658.705 906.012 646.63C929.767 666.39 965.621 687.876 995.687 677.961ZM1050.6 618.29C1006.57 620.652 983.826 619.229 922.227 610.442C945.597 620.167 963.461 627.228 989.326 630.152C1009.22 632.399 1034.68 632.394 1050.6 618.29ZM1074.94 544.61C1027.52 559.249 1003.54 564.874 931.606 571.551C958.863 573.945 991.089 576.912 1018.81 572.867C1038.84 569.951 1063.69 562.361 1074.94 544.61ZM1083.69 459.37C1029.27 495.804 993.162 511.388 926.875 535.917C980.683 522.897 1015.22 513.542 1031.98 506.481C1052 498.04 1077.33 481.795 1083.69 459.37ZM637.335 731.018C654.128 718.628 665.687 706.798 678.43 691.365C669.719 710.288 659.294 728.416 637.335 731.018ZM498.848 312.072C535.931 383.396 579.427 437.241 625.669 489.561C584.057 450.274 530.867 393.021 519.553 378.779C506.048 361.765 493.663 334.799 498.848 312.072ZM572.472 711.888C595.861 701.155 612.787 689.779 632.049 674.346C616.781 695 599.64 714.263 572.472 711.888ZM512.694 677.961C556.599 667.341 575.767 658.705 602.369 646.63C578.614 666.39 542.76 687.876 512.694 677.961ZM457.777 618.29C501.809 620.652 524.555 619.229 586.154 610.442C562.784 620.167 544.919 627.228 519.055 630.152C499.163 632.399 473.702 632.394 457.777 618.29ZM433.444 544.61C480.863 559.249 504.844 564.874 576.775 571.551C549.519 573.945 517.293 576.912 489.577 572.867C469.544 569.951 444.694 562.361 433.444 544.61ZM424.688 459.37C479.106 495.804 515.219 511.388 581.505 535.917C527.698 522.897 493.16 513.542 476.398 506.481C456.379 498.04 431.05 481.795 424.688 459.37Z" fill="#AD8E37" stroke="#AD8E37" stroke-width="4" mask="url(#path-9-inside-1_143_2)"/>
<path d="M781.766 571.874C772.228 569.269 767.17 568.505 758.404 567.721C763.551 571.62 766.761 573.458 773.459 575.508C778.235 575.329 779.955 574.459 781.766 571.874Z" fill="#AD8E37" stroke="#0A481E" stroke-width="3"/>
<path d="M357.628 962.301L329.325 981.468L325.273 975.484L353.576 956.317L357.628 962.301Z" fill="#AD8E37"/>
<path d="M377.412 988.88L350.297 1009.69L346.496 1004.74L354.507 979.846L354.355 979.647L337.289 992.747L332.888 987.015L360.003 966.201L363.865 971.232L355.796 996.026L355.979 996.264L373.032 983.174L377.412 988.88Z" fill="#AD8E37"/>
<path d="M374.735 995.478L379.201 991.533L397.787 1012.57L393.322 1016.52L386.393 1008.67L365.241 1027.36L360.512 1022.01L381.664 1003.32L374.735 995.478Z" fill="#AD8E37"/>
<path d="M376.161 1039.87L400.287 1015.65L416.603 1031.91L412.398 1036.13L401.201 1024.98L395.452 1030.75L405.81 1041.07L401.604 1045.29L391.247 1034.97L385.486 1040.75L396.731 1051.95L392.525 1056.17L376.161 1039.87Z" fill="#AD8E37"/>
<path d="M427.942 1057.58C428.317 1056.82 428.558 1056.07 428.666 1055.32C428.781 1054.57 428.759 1053.82 428.599 1053.09C428.455 1052.36 428.174 1051.64 427.756 1050.94C427.347 1050.25 426.797 1049.59 426.106 1048.96C424.816 1047.79 423.389 1047.07 421.826 1046.82C420.271 1046.58 418.663 1046.82 417.004 1047.55C415.351 1048.27 413.722 1049.51 412.118 1051.27C410.513 1053.03 409.415 1054.77 408.824 1056.49C408.234 1058.21 408.131 1059.84 408.517 1061.38C408.91 1062.92 409.773 1064.29 411.104 1065.51C412.312 1066.61 413.539 1067.34 414.784 1067.69C416.044 1068.04 417.261 1068.03 418.433 1067.65C419.613 1067.28 420.694 1066.56 421.677 1065.48L422.616 1066.63L416.105 1060.69L419.773 1056.67L430.339 1066.31L427.437 1069.5C425.412 1071.72 423.204 1073.19 420.812 1073.93C418.427 1074.67 416.019 1074.71 413.588 1074.08C411.164 1073.43 408.892 1072.14 406.771 1070.21C404.404 1068.05 402.8 1065.63 401.961 1062.95C401.129 1060.26 401.093 1057.49 401.852 1054.65C402.627 1051.8 404.23 1049.05 406.66 1046.38C408.527 1044.34 410.488 1042.78 412.542 1041.72C414.612 1040.65 416.695 1040.05 418.792 1039.92C420.889 1039.78 422.919 1040.08 424.881 1040.8C426.844 1041.52 428.66 1042.64 430.328 1044.16C431.759 1045.47 432.899 1046.89 433.75 1048.44C434.608 1049.97 435.168 1051.55 435.432 1053.18C435.704 1054.81 435.667 1056.43 435.323 1058.03C434.987 1059.62 434.335 1061.12 433.367 1062.53L427.942 1057.58Z" fill="#AD8E37"/>
<path d="M423.024 1083.76L444.016 1056.78L454.659 1065.07C456.697 1066.65 458.152 1068.37 459.025 1070.22C459.913 1072.07 460.219 1073.95 459.943 1075.86C459.682 1077.77 458.857 1079.62 457.47 1081.4C456.076 1083.19 454.491 1084.43 452.713 1085.12C450.943 1085.8 449.058 1085.92 447.058 1085.46C445.068 1085.01 443.036 1083.98 440.964 1082.37L433.838 1076.82L437.405 1072.24L443.609 1077.06C444.698 1077.91 445.718 1078.47 446.671 1078.73C447.623 1078.99 448.507 1078.96 449.323 1078.64C450.148 1078.32 450.905 1077.72 451.596 1076.83C452.293 1075.93 452.7 1075.04 452.818 1074.14C452.946 1073.26 452.768 1072.37 452.285 1071.49C451.818 1070.6 451.035 1069.73 449.937 1068.88L446.091 1065.88L428.728 1088.2L423.024 1083.76ZM447.145 1082.82L444.297 1100.31L438.001 1095.41L440.994 1078.03L447.145 1082.82Z" fill="#AD8E37"/>
<path d="M475.023 1080.15L455.408 1108.14L449.489 1103.99L469.104 1076L475.023 1080.15Z" fill="#AD8E37"/>
<path d="M476.492 1088.68L479.666 1083.64L503.425 1098.59L500.251 1103.64L491.395 1098.06L476.361 1121.95L470.316 1118.14L485.349 1094.26L476.492 1088.68Z" fill="#AD8E37"/>
<path d="M506.888 1100.34L514.004 1104.2L513.84 1120.86L514.133 1121.02L528.002 1111.79L535.118 1115.65L513.625 1129.13L507.866 1139.76L501.557 1136.34L507.316 1125.71L506.888 1100.34Z" fill="#AD8E37"/>
<path d="M968.29 1163.7L958.86 1151.98L944 1155.35L952.489 1142.97L944.621 1130.2L959.298 1134.26L969.296 1123L969.878 1137.89L983.924 1143.71L969.607 1148.85L968.29 1163.7Z" fill="#AD8E37"/>
<path d="M1023.15 1123.02L1012.53 1128.86L996.056 1098.91L1006.76 1093.02C1009.77 1091.36 1012.7 1090.54 1015.53 1090.54C1018.36 1090.53 1020.97 1091.32 1023.37 1092.91C1025.78 1094.5 1027.84 1096.84 1029.55 1099.95C1031.26 1103.07 1032.15 1106.08 1032.2 1108.97C1032.27 1111.86 1031.53 1114.5 1030 1116.91C1028.47 1119.31 1026.19 1121.34 1023.15 1123.02ZM1015.88 1119.95L1019.9 1117.74C1021.77 1116.71 1023.17 1115.51 1024.08 1114.14C1024.99 1112.76 1025.39 1111.19 1025.26 1109.44C1025.13 1107.66 1024.46 1105.66 1023.23 1103.43C1022.01 1101.22 1020.69 1099.59 1019.27 1098.54C1017.85 1097.49 1016.32 1096.99 1014.68 1097.03C1013.04 1097.07 1011.28 1097.6 1009.41 1098.63L1005.37 1100.85L1015.88 1119.95Z" fill="#AD8E37"/>
<path d="M1030.46 1079.43L1048.39 1108.53L1042.23 1112.32L1024.3 1083.22L1030.46 1079.43Z" fill="#AD8E37"/>
<path d="M1057.62 1073.75C1056.79 1072.69 1055.74 1072.11 1054.49 1072.02C1053.23 1071.93 1051.87 1072.35 1050.41 1073.28C1049.41 1073.91 1048.66 1074.58 1048.15 1075.3C1047.64 1076.01 1047.35 1076.72 1047.29 1077.44C1047.25 1078.16 1047.42 1078.83 1047.81 1079.45C1048.12 1079.98 1048.51 1080.36 1048.99 1080.6C1049.48 1080.83 1050.03 1080.95 1050.63 1080.96C1051.22 1080.97 1051.86 1080.9 1052.55 1080.75C1053.23 1080.6 1053.93 1080.39 1054.65 1080.14L1057.64 1079.11C1059.07 1078.6 1060.47 1078.24 1061.82 1078.05C1063.17 1077.85 1064.45 1077.85 1065.65 1078.05C1066.86 1078.25 1067.97 1078.68 1068.98 1079.34C1070 1080 1070.9 1080.92 1071.67 1082.12C1072.78 1083.89 1073.3 1085.71 1073.23 1087.58C1073.16 1089.42 1072.51 1091.23 1071.29 1093.01C1070.07 1094.77 1068.29 1096.39 1065.94 1097.88C1063.61 1099.35 1061.35 1100.28 1059.17 1100.66C1057 1101.04 1054.98 1100.83 1053.13 1100.04C1051.28 1099.24 1049.67 1097.81 1048.31 1095.77L1054.21 1092.03C1054.89 1092.95 1055.68 1093.59 1056.58 1093.92C1057.49 1094.25 1058.45 1094.31 1059.49 1094.12C1060.53 1093.91 1061.58 1093.47 1062.63 1092.8C1063.66 1092.15 1064.47 1091.43 1065.04 1090.65C1065.62 1089.86 1065.95 1089.06 1066.03 1088.26C1066.12 1087.45 1065.94 1086.7 1065.5 1086.01C1065.09 1085.36 1064.55 1084.94 1063.88 1084.74C1063.23 1084.54 1062.44 1084.51 1061.51 1084.66C1060.59 1084.81 1059.52 1085.09 1058.3 1085.51L1054.66 1086.71C1051.85 1087.66 1049.34 1087.95 1047.13 1087.58C1044.93 1087.21 1043.15 1085.96 1041.81 1083.82C1040.69 1082.08 1040.19 1080.25 1040.3 1078.35C1040.43 1076.44 1041.08 1074.6 1042.27 1072.82C1043.46 1071.04 1045.11 1069.48 1047.22 1068.15C1049.36 1066.79 1051.46 1065.97 1053.53 1065.7C1055.6 1065.41 1057.49 1065.64 1059.21 1066.38C1060.93 1067.12 1062.35 1068.34 1063.47 1070.05L1057.62 1073.75Z" fill="#AD8E37"/>
<path d="M1090.87 1050.19L1085.05 1054.62C1084.37 1053.95 1083.65 1053.45 1082.88 1053.11C1082.1 1052.77 1081.29 1052.59 1080.46 1052.56C1079.63 1052.54 1078.8 1052.67 1077.95 1052.96C1077.12 1053.24 1076.32 1053.68 1075.54 1054.28C1074.13 1055.35 1073.17 1056.63 1072.66 1058.13C1072.14 1059.61 1072.1 1061.24 1072.54 1063.01C1072.96 1064.76 1073.9 1066.58 1075.33 1068.47C1076.81 1070.41 1078.34 1071.82 1079.92 1072.7C1081.51 1073.57 1083.08 1073.95 1084.64 1073.82C1086.19 1073.7 1087.66 1073.12 1089.03 1072.07C1089.8 1071.48 1090.44 1070.84 1090.94 1070.14C1091.44 1069.43 1091.81 1068.68 1092.02 1067.9C1092.23 1067.11 1092.29 1066.31 1092.2 1065.48C1092.11 1064.66 1091.86 1063.83 1091.44 1063L1097.27 1058.6C1098.07 1059.96 1098.61 1061.45 1098.89 1063.07C1099.18 1064.67 1099.16 1066.31 1098.85 1067.99C1098.54 1069.66 1097.89 1071.28 1096.9 1072.87C1095.92 1074.45 1094.56 1075.9 1092.81 1077.23C1090.39 1079.07 1087.8 1080.18 1085.05 1080.54C1082.31 1080.89 1079.6 1080.45 1076.91 1079.21C1074.22 1077.97 1071.76 1075.87 1069.51 1072.91C1067.25 1069.94 1065.88 1067 1065.41 1064.07C1064.94 1061.14 1065.25 1058.4 1066.33 1055.85C1067.41 1053.3 1069.14 1051.11 1071.53 1049.29C1073.11 1048.09 1074.74 1047.2 1076.42 1046.62C1078.11 1046.03 1079.8 1045.76 1081.49 1045.82C1083.18 1045.86 1084.81 1046.25 1086.4 1046.97C1087.99 1047.68 1089.48 1048.76 1090.87 1050.19Z" fill="#AD8E37"/>
<path d="M1089.41 1034.95L1111.3 1061.2L1105.75 1065.83L1083.86 1039.58L1089.41 1034.95Z" fill="#AD8E37"/>
<path d="M1117.76 1055.79L1094.94 1030.34L1104.98 1021.34C1106.91 1019.61 1108.88 1018.5 1110.9 1018.02C1112.92 1017.53 1114.86 1017.62 1116.74 1018.28C1118.62 1018.92 1120.32 1020.09 1121.83 1021.78C1123.35 1023.47 1124.32 1025.29 1124.75 1027.24C1125.18 1029.18 1125.03 1031.14 1124.29 1033.1C1123.56 1035.05 1122.22 1036.9 1120.26 1038.66L1113.86 1044.4L1110 1040.08L1115.53 1035.13C1116.56 1034.2 1117.26 1033.25 1117.61 1032.3C1117.96 1031.32 1118.02 1030.37 1117.77 1029.43C1117.54 1028.48 1117.04 1027.59 1116.29 1026.75C1115.53 1025.91 1114.7 1025.32 1113.8 1025C1112.89 1024.66 1111.95 1024.62 1110.95 1024.88C1109.96 1025.13 1108.93 1025.73 1107.89 1026.66L1104.26 1029.92L1123.14 1050.96L1117.76 1055.79Z" fill="#AD8E37"/>
<path d="M1140.6 1033.55L1115.75 1010.08L1120.71 1004.83L1141.23 1024.21L1151.29 1013.55L1155.63 1017.65L1140.6 1033.55Z" fill="#AD8E37"/>
<path d="M1136.55 987.141L1162.5 1009.39L1157.79 1014.88L1131.85 992.627L1136.55 987.141Z" fill="#AD8E37"/>
<path d="M1159.2 959.553L1186.21 980.504L1182.38 985.436L1156.27 983.999L1156.12 984.197L1173.11 997.384L1168.68 1003.09L1141.68 982.143L1145.56 977.131L1171.59 978.65L1171.78 978.413L1154.79 965.236L1159.2 959.553Z" fill="#AD8E37"/>
<path d="M1189.78 975.406L1161.56 956.128L1174.55 937.108L1179.47 940.469L1170.55 953.521L1177.28 958.114L1185.52 946.041L1190.44 949.402L1182.2 961.475L1188.94 966.078L1197.89 952.971L1202.81 956.332L1189.78 975.406Z" fill="#AD8E37"/>
<path d="M565.29 1169.7L555.86 1157.98L541 1161.35L549.489 1148.97L541.621 1136.2L556.298 1140.26L566.296 1129L566.878 1143.89L580.924 1149.71L566.607 1154.85L565.29 1169.7Z" fill="#AD8E37"/>
<path d="M633.775 1164.62L626.732 1162.66C626.856 1161.72 626.819 1160.83 626.619 1160.02C626.422 1159.19 626.083 1158.43 625.601 1157.76C625.12 1157.08 624.509 1156.49 623.769 1156C623.039 1155.51 622.203 1155.13 621.26 1154.87C619.555 1154.4 617.953 1154.41 616.452 1154.9C614.955 1155.38 613.634 1156.33 612.49 1157.75C611.349 1159.15 610.461 1160.99 609.825 1163.28C609.172 1165.63 608.972 1167.7 609.225 1169.49C609.488 1171.28 610.138 1172.76 611.177 1173.93C612.215 1175.09 613.565 1175.91 615.227 1176.37C616.159 1176.63 617.057 1176.75 617.918 1176.72C618.791 1176.7 619.604 1176.54 620.357 1176.24C621.113 1175.93 621.79 1175.49 622.388 1174.92C622.997 1174.35 623.504 1173.64 623.909 1172.81L630.943 1174.8C630.341 1176.26 629.479 1177.59 628.36 1178.79C627.254 1179.99 625.936 1180.97 624.407 1181.73C622.892 1182.49 621.203 1182.95 619.341 1183.13C617.493 1183.3 615.513 1183.09 613.401 1182.5C610.464 1181.68 608.022 1180.29 606.077 1178.31C604.141 1176.34 602.854 1173.91 602.215 1171.02C601.587 1168.13 601.77 1164.9 602.766 1161.31C603.765 1157.72 605.29 1154.86 607.342 1152.71C609.393 1150.57 611.76 1149.16 614.443 1148.49C617.128 1147.8 619.918 1147.86 622.812 1148.67C624.72 1149.2 626.414 1149.96 627.895 1150.95C629.386 1151.94 630.621 1153.12 631.599 1154.51C632.581 1155.88 633.263 1157.41 633.644 1159.11C634.037 1160.81 634.08 1162.65 633.775 1164.62Z" fill="#AD8E37"/>
<path d="M666.764 1177.07C666.101 1180.73 664.841 1183.73 662.985 1186.05C661.14 1188.37 658.902 1190 656.269 1190.93C653.65 1191.84 650.856 1192.03 647.889 1191.5C644.9 1190.96 642.34 1189.79 640.21 1188C638.079 1186.22 636.557 1183.91 635.643 1181.09C634.728 1178.27 634.602 1175.03 635.263 1171.37C635.927 1167.7 637.181 1164.71 639.026 1162.38C640.871 1160.06 643.103 1158.44 645.723 1157.52C648.344 1156.59 651.15 1156.4 654.139 1156.94C657.106 1157.48 659.655 1158.64 661.785 1160.43C663.929 1162.2 665.457 1164.51 666.372 1167.33C667.297 1170.15 667.428 1173.4 666.764 1177.07ZM659.554 1175.76C659.984 1173.39 659.991 1171.32 659.574 1169.56C659.168 1167.8 658.401 1166.38 657.272 1165.31C656.144 1164.23 654.72 1163.54 653.001 1163.23C651.282 1162.92 649.706 1163.07 648.272 1163.68C646.839 1164.29 645.618 1165.35 644.612 1166.85C643.616 1168.36 642.903 1170.3 642.473 1172.67C642.044 1175.05 642.032 1177.12 642.437 1178.87C642.854 1180.64 643.627 1182.05 644.755 1183.13C645.884 1184.2 647.308 1184.89 649.027 1185.21C650.746 1185.52 652.322 1185.37 653.755 1184.76C655.189 1184.14 656.404 1183.09 657.4 1181.58C658.406 1180.08 659.125 1178.14 659.554 1175.76Z" fill="#AD8E37"/>
<path d="M671.849 1160.69L680.683 1161.87L686.968 1185.88L687.365 1185.93L699.74 1164.42L708.574 1165.6L704.043 1199.48L697.095 1198.55L700.044 1176.5L699.763 1176.46L688.068 1197.17L683.336 1196.54L677.507 1173.4L677.226 1173.36L674.265 1195.5L667.317 1194.57L671.849 1160.69Z" fill="#AD8E37"/>
<path d="M711.961 1166.02L720.864 1166.43L729.203 1189.81L729.603 1189.83L740.071 1167.32L748.974 1167.73L747.389 1201.88L740.387 1201.55L741.418 1179.33L741.135 1179.32L731.275 1200.96L726.507 1200.74L718.698 1178.19L718.414 1178.18L717.379 1200.49L710.377 1200.16L711.961 1166.02Z" fill="#AD8E37"/>
<path d="M759.202 1167.61L759.12 1201.79L751.893 1201.78L751.976 1167.59L759.202 1167.61Z" fill="#AD8E37"/>
<path d="M762.299 1173.66L762.099 1167.7L790.156 1166.76L790.356 1172.71L779.897 1173.07L780.846 1201.27L773.707 1201.51L772.758 1173.31L762.299 1173.66Z" fill="#AD8E37"/>
<path d="M793.36 1166.48L802.213 1165.44L814.233 1187.16L814.631 1187.11L821.309 1163.21L830.161 1162.17L834.137 1196.12L827.174 1196.94L824.587 1174.84L824.305 1174.87L818.087 1197.83L813.346 1198.39L801.983 1177.4L801.701 1177.43L804.298 1199.62L797.336 1200.43L793.36 1166.48Z" fill="#AD8E37"/>
<path d="M839.759 1195.16L833.223 1161.61L855.83 1157.2L856.97 1163.05L841.456 1166.07L843.013 1174.07L857.364 1171.27L858.503 1177.12L844.152 1179.92L845.713 1187.93L861.293 1184.89L862.432 1190.74L839.759 1195.16Z" fill="#AD8E37"/>
<path d="M886.541 1149.4L894.801 1182.57L888.744 1184.08L869.114 1166.8L868.871 1166.86L874.07 1187.73L867.058 1189.48L858.797 1156.31L864.952 1154.78L884.464 1172.07L884.755 1172L879.56 1151.14L886.541 1149.4Z" fill="#AD8E37"/>
<path d="M891.288 1153.83L889.402 1148.18L916.032 1139.29L917.918 1144.94L907.991 1148.26L916.924 1175.03L910.147 1177.29L901.215 1150.52L891.288 1153.83Z" fill="#AD8E37"/>
<path d="M987.176 1178.6C975.523 1192.46 943.755 1200.01 935.818 1220.31C935.818 1234.83 935.719 1249.35 935.719 1264.04C935.213 1266.68 933.803 1269.22 932.959 1270.21C930.257 1264.6 930.955 1255.47 923.693 1256.62C918.627 1257.12 914.244 1268.16 914.92 1280.71C916.946 1283.51 925.679 1278.26 926.354 1282.05C926.523 1290.8 918.307 1298.53 908.512 1304.3C906.824 1304.3 907.121 1305.64 911.174 1306.13C917.253 1303.33 924.401 1302.2 930.988 1300.55C932.845 1295.1 934.296 1291.31 933.452 1279.26C936.661 1276.46 938.085 1272.51 938.085 1267.89C941.294 1272.85 947.496 1276.59 954.251 1276.76C969.281 1275.77 977.184 1251.25 986.978 1242.18C986.641 1240.53 986.823 1240.68 986.485 1239.19C980.406 1238.37 974.834 1233.01 967.066 1233.51C961.831 1233.34 952.771 1243.99 950.407 1258.84C947.029 1261.98 940.789 1255.19 940.451 1250.07C940.282 1239.02 941.126 1236.82 940.451 1226.09C946.868 1213.22 957.612 1211.44 971.798 1202.2C982.944 1195.77 987.682 1184.21 987.176 1178.6ZM971.305 1239.96C976.661 1239.84 978.106 1241.74 977.515 1243.33C973.8 1253.07 964.257 1258.62 953.956 1258.45C955.813 1251.03 962.662 1240.65 968.742 1240.15C969.671 1240.05 970.54 1239.98 971.305 1239.96Z" fill="#0A481E"/>
<path d="M888.8 1250.54C892.854 1251.2 892.516 1260.94 900.622 1259.78C903.493 1265.06 899.608 1270.51 897.92 1275.79C894.373 1277.6 888.8 1274.63 884.578 1272.82C878.161 1276.94 880.357 1289.32 872.419 1291.79C868.029 1291.63 864.989 1288 860.598 1288C846.243 1306.81 813.65 1322.82 785.617 1322.82C768.222 1322.65 761.636 1316.88 762.987 1305.82C763.325 1299.88 764.169 1294.11 766.196 1289.15C767.378 1289.15 768.391 1288.99 769.573 1288.82C766.534 1301.04 771.431 1304.83 781.226 1304.83C814.663 1304.17 837.968 1298.4 857.558 1282.55C860.767 1282.22 866.171 1285.52 868.535 1283.54C872.419 1279.91 871.406 1274.47 874.277 1270.01C874.615 1269.35 878.668 1267.37 879.174 1267.21C880.694 1259.95 882.045 1254.17 888.8 1250.54Z" fill="#0A481E"/>
<path d="M816.537 1268.2C818.902 1265.39 824.644 1275.95 829.034 1279.59C830.554 1281.24 822.955 1285.2 819.577 1288.17C818.395 1288.99 811.471 1280.08 807.418 1275.95C806.743 1275.13 813.835 1271 816.537 1268.2Z" fill="#0A481E"/>
<path d="M799.747 1270.36C802.111 1267.55 807.853 1278.11 812.412 1281.91C813.763 1283.39 806.164 1287.35 802.786 1290.32C801.773 1291.15 794.849 1282.24 790.796 1278.28C790.121 1277.29 797.045 1273.16 799.747 1270.36Z" fill="#0A481E"/>
<path d="M691.743 1233.71C695.12 1231.89 696.303 1243.94 699.174 1248.89C699.849 1250.87 691.405 1251.86 687.014 1253.34C685.663 1253.84 682.624 1242.95 680.428 1237.83C680.09 1236.68 688.197 1235.36 691.743 1233.71Z" fill="#0A481E"/>
<path d="M553.52 1276.62C556.728 1274.8 558.079 1286.85 560.781 1291.8C561.626 1293.78 553.013 1294.77 548.791 1296.26C547.44 1296.75 544.4 1285.86 542.036 1280.74C541.867 1279.59 549.804 1278.27 553.52 1276.62Z" fill="#0A481E"/>
<path d="M626.679 1311.79C629.887 1310.14 631.238 1322.02 633.94 1327.13C634.785 1329.11 626.172 1329.94 621.95 1331.59C620.599 1331.92 617.559 1321.19 615.364 1315.91C615.026 1314.76 622.963 1313.6 626.679 1311.79Z" fill="#0A481E"/>
<path d="M688.745 1287.84C691.954 1286.02 693.305 1298.07 696.007 1303.02C696.851 1305 688.239 1305.99 684.017 1307.47C682.666 1307.97 679.626 1297.08 677.43 1291.8C677.093 1290.81 685.03 1289.49 688.745 1287.84Z" fill="#0A481E"/>
<path d="M706.229 1294.77C709.437 1293.12 710.788 1305 713.49 1310.11C714.335 1312.09 705.722 1312.92 701.5 1314.57C700.149 1314.9 697.109 1304.17 694.745 1298.89C694.576 1297.74 702.513 1296.58 706.229 1294.77Z" fill="#0A481E"/>
<path d="M690.651 1308.96C694.029 1307.15 695.211 1319.19 698.082 1324.14C698.926 1326.12 690.313 1327.11 685.923 1328.6C684.572 1329.09 681.532 1318.2 679.336 1313.09C678.999 1311.93 687.105 1310.61 690.651 1308.96Z" fill="#0A481E"/>
<path d="M705.184 1269.36C701.469 1273.32 697.416 1275.47 690.661 1273.49C687.115 1270.68 689.141 1265.4 685.932 1263.75C675.124 1261.6 647.597 1266.06 645.74 1276.46C651.144 1279.26 657.899 1282.07 664.316 1284.05C660.094 1286.03 651.144 1287.84 644.051 1286.36C635.1 1286.85 633.749 1278.44 639.491 1268.37C645.74 1254.01 654.184 1240.32 659.25 1225.8C655.872 1228.77 653.677 1231.57 648.78 1231.24C640.336 1252.03 632.23 1267.05 626.657 1283.06C624.63 1288.5 627.332 1299.72 636.958 1302.53C653.677 1305.83 667.356 1290.48 678.333 1286.85C678.84 1284.87 678.671 1285.37 679.177 1283.39C673.604 1280.42 661.276 1274.81 655.872 1271.84C660.939 1267.55 674.449 1269.03 681.542 1271.34C685.595 1273.16 684.413 1279.43 689.31 1280.58C695.896 1281.57 703.665 1277.78 705.691 1272.33C705.86 1271.01 705.691 1270.02 705.184 1269.36Z" fill="#0A481E"/>
<path d="M621.272 1262.44C620.766 1264.26 620.766 1263.43 620.259 1265.25C602.696 1275.98 581.08 1282.74 541.225 1261.12C517.413 1248.09 531.43 1234.06 537.847 1226.14C544.096 1248.91 575.844 1268.55 621.272 1262.44Z" fill="#0A481E"/>
<path d="M425.354 1136.52L386.156 1197.78L361.987 1182.31C357.341 1179.34 353.95 1175.92 351.816 1172.05C349.668 1168.2 348.738 1164.17 349.027 1159.94C349.282 1155.72 350.712 1151.57 353.315 1147.5C355.918 1143.44 359.092 1140.41 362.837 1138.42C366.583 1136.43 370.675 1135.64 375.116 1136.03C379.536 1136.41 384.099 1138.11 388.805 1141.12L404.21 1150.98L397.569 1161.36L384.258 1152.84C381.765 1151.25 379.437 1150.36 377.273 1150.19C375.076 1150.02 373.088 1150.44 371.308 1151.47C369.495 1152.5 367.944 1154.03 366.655 1156.04C365.354 1158.07 364.627 1160.11 364.475 1162.15C364.29 1164.19 364.747 1166.16 365.847 1168.04C366.933 1169.95 368.733 1171.7 371.245 1173.31L379.98 1178.9L412.402 1128.23L425.354 1136.52Z" fill="#0A481E"/>
<path d="M372.51 1096.83L325.024 1151.91L303.291 1133.18C299.131 1129.59 296.222 1125.79 294.565 1121.77C292.873 1117.74 292.424 1113.72 293.216 1109.68C293.975 1105.64 295.923 1101.81 299.061 1098.17C302.214 1094.51 305.716 1092.04 309.566 1090.77C313.401 1089.51 317.419 1089.47 321.619 1090.65C325.801 1091.82 330.008 1094.23 334.24 1097.88L348.791 1110.42L340.722 1119.78L328.054 1108.86C325.83 1106.94 323.72 1105.66 321.725 1105C319.729 1104.34 317.846 1104.31 316.078 1104.91C314.292 1105.5 312.618 1106.7 311.057 1108.51C309.48 1110.34 308.518 1112.2 308.171 1114.09C307.807 1115.96 308.09 1117.86 309.022 1119.79C309.92 1121.72 311.49 1123.65 313.732 1125.58L321.586 1132.35L360.864 1086.79L372.51 1096.83ZM321.152 1096.25L329.072 1059.38L341.928 1070.47L333.713 1107.08L321.152 1096.25Z" fill="#0A481E"/>
<path d="M252.102 1017.15C258.151 1012.02 264.27 1008.81 270.457 1007.5C276.63 1006.18 282.505 1006.54 288.081 1008.57C293.625 1010.61 298.471 1014.07 302.621 1018.97C306.801 1023.89 309.432 1029.27 310.516 1035.08C311.599 1040.9 310.984 1046.75 308.67 1052.62C306.356 1058.49 302.183 1063.99 296.153 1069.1C290.104 1074.23 283.993 1077.46 277.82 1078.78C271.648 1080.1 265.79 1079.75 260.246 1077.71C254.685 1075.69 249.814 1072.22 245.634 1067.29C241.485 1062.39 238.868 1057.04 237.785 1051.22C236.668 1045.4 237.267 1039.56 239.581 1033.68C241.879 1027.79 246.053 1022.28 252.102 1017.15ZM262.185 1029.04C258.266 1032.36 255.46 1035.75 253.764 1039.21C252.054 1042.65 251.399 1046.01 251.8 1049.3C252.201 1052.59 253.604 1055.66 256.008 1058.49C258.412 1061.33 261.204 1063.21 264.386 1064.14C267.568 1065.08 271.002 1064.99 274.687 1063.88C278.358 1062.76 282.152 1060.53 286.07 1057.21C289.988 1053.89 292.803 1050.51 294.513 1047.07C296.208 1043.62 296.856 1040.24 296.454 1036.95C296.053 1033.66 294.651 1030.6 292.247 1027.76C289.843 1024.93 287.05 1023.04 283.869 1022.11C280.687 1021.18 277.261 1021.27 273.591 1022.4C269.905 1023.5 266.103 1025.72 262.185 1029.04Z" fill="#0A481E"/>
<path d="M206.848 1012.52L245.375 969.187L245.03 968.607L188.529 981.686L179.823 967.032L255.154 951.44L265.275 968.476L215.573 1027.21L206.848 1012.52Z" fill="#0A481E"/>
<path d="M166.353 936.982L232.667 907.119L238.981 921.139L172.667 951.003L166.353 936.982Z" fill="#0A481E"/>
<path d="M136.119 855.889L204.88 832.202L209.206 844.759L176.233 889.583L176.407 890.087L219.685 875.178L224.693 889.716L155.931 913.403L151.536 900.645L184.556 856.067L184.348 855.463L141.104 870.36L136.119 855.889Z" fill="#0A481E"/>
<path d="M142.666 765.752L145.543 781.038C143.618 781.689 141.969 782.59 140.595 783.74C139.199 784.894 138.081 786.249 137.241 787.804C136.402 789.359 135.857 791.076 135.609 792.953C135.356 794.808 135.422 796.759 135.807 798.806C136.503 802.505 138.029 805.555 140.384 807.954C142.715 810.358 145.768 811.987 149.543 812.843C153.294 813.702 157.647 813.666 162.603 812.733C167.698 811.774 171.837 810.212 175.019 808.047C178.196 805.859 180.411 803.226 181.662 800.147C182.913 797.069 183.2 793.727 182.521 790.121C182.14 788.097 181.52 786.274 180.66 784.653C179.797 783.009 178.726 781.609 177.449 780.452C176.148 779.3 174.669 778.422 173.014 777.818C171.354 777.191 169.538 776.882 167.564 776.892L164.756 761.594C168.111 761.372 171.462 761.765 174.807 762.773C178.125 763.763 181.232 765.358 184.128 767.559C186.996 769.742 189.471 772.528 191.555 775.918C193.611 779.289 195.07 783.266 195.933 787.849C197.133 794.224 196.763 800.196 194.825 805.764C192.881 811.309 189.45 816.05 184.53 819.988C179.605 823.902 173.258 826.59 165.487 828.053C157.693 829.52 150.786 829.303 144.767 827.401C138.748 825.498 133.834 822.304 130.027 817.817C126.196 813.335 123.689 807.953 122.507 801.671C121.727 797.53 121.586 793.582 122.084 789.826C122.577 786.048 123.682 782.575 125.398 779.41C127.092 776.248 129.382 773.504 132.269 771.178C135.151 768.829 138.616 767.02 142.666 765.752Z" fill="#0A481E"/>
<path d="M114.437 736.313L187.092 733.065L187.779 748.426L115.124 751.674L114.437 736.313Z" fill="#0A481E"/>
<path d="M187.215 702.95L185.879 719.373L115.427 688.452L117.034 668.702L191.555 649.61L190.219 666.033L132.818 679.641L132.772 680.208L187.215 702.95ZM158.639 701.658L161.795 662.866L173.759 663.839L170.603 702.632L158.639 701.658Z" fill="#0A481E"/>
<path d="M191.543 633.576L120.434 618.319L123.659 603.285L182.373 615.882L188.913 585.397L201.309 588.057L191.543 633.576Z" fill="#0A481E"/>
<path d="M760.822 263.717C775.849 270.14 786.412 284.771 786.412 301.823C786.412 324.798 767.321 343.453 743.808 343.453C732.052 343.453 721.431 338.745 713.727 331.217C721.643 346.023 737.507 356.155 755.786 356.155C781.978 356.155 803.222 335.396 803.222 309.803C803.222 285.877 784.639 266.181 760.822 263.717Z" fill="#AD8E37"/>
<path d="M743.482 321.645L731.504 306.764L712.629 311.038L723.411 295.308L713.418 279.088L732.06 284.247L744.759 269.949L745.498 288.867L763.339 296.25L745.154 302.783L743.482 321.645Z" fill="#AD8E37"/>
<path d="M1304.18 464.931L1292.21 450.05L1273.33 454.324L1284.11 438.594L1274.12 422.374L1292.76 427.533L1305.46 413.234L1306.2 432.153L1324.04 439.536L1305.86 446.069L1304.18 464.931Z" fill="#0A481E"/>
<path d="M226.439 464.931L214.461 450.05L195.586 454.324L206.368 438.594L196.375 422.374L215.017 427.533L227.716 413.234L228.455 432.153L246.296 439.536L228.111 446.069L226.439 464.931Z" fill="#0A481E"/>
<path d="M1368.05 668.522C1370.86 667.872 1372.91 666.376 1374.2 664.036C1375.5 661.695 1375.91 658.694 1375.43 655.031C1375.11 652.542 1374.49 650.487 1373.56 648.864C1372.66 647.239 1371.53 646.048 1370.19 645.29C1368.86 644.557 1367.41 644.29 1365.86 644.492C1364.57 644.612 1363.48 645.028 1362.59 645.74C1361.71 646.476 1360.98 647.417 1360.41 648.565C1359.87 649.71 1359.43 651.008 1359.09 652.461C1358.78 653.91 1358.55 655.444 1358.4 657.062L1357.69 663.743C1357.4 666.981 1356.83 669.99 1356 672.772C1355.17 675.554 1354.02 678.018 1352.55 680.166C1351.09 682.314 1349.26 684.066 1347.08 685.424C1344.89 686.806 1342.3 687.704 1339.3 688.117C1334.88 688.666 1330.91 688.036 1327.38 686.226C1323.88 684.437 1320.96 681.568 1318.63 677.621C1316.33 673.694 1314.8 668.796 1314.04 662.926C1313.29 657.104 1313.52 651.917 1314.74 647.366C1315.97 642.838 1318.18 639.138 1321.36 636.266C1324.57 633.414 1328.76 631.593 1333.94 630.802L1335.85 645.557C1333.46 646.036 1331.53 646.99 1330.06 648.421C1328.63 649.873 1327.64 651.685 1327.08 653.857C1326.55 656.051 1326.46 658.462 1326.8 661.091C1327.14 663.674 1327.8 665.867 1328.8 667.671C1329.8 669.499 1331.04 670.854 1332.52 671.737C1333.99 672.62 1335.6 672.948 1337.34 672.723C1338.96 672.513 1340.26 671.855 1341.23 670.749C1342.22 669.667 1342.97 668.16 1343.51 666.228C1344.05 664.32 1344.47 662.01 1344.76 659.298L1345.71 651.189C1346.4 644.916 1348.09 639.815 1350.78 635.885C1353.47 631.955 1357.48 629.656 1362.81 628.988C1367.18 628.398 1371.14 629.065 1374.71 630.989C1378.28 632.937 1381.25 635.858 1383.62 639.752C1385.99 643.647 1387.51 648.223 1388.19 653.482C1388.89 658.835 1388.58 663.626 1387.27 667.855C1385.96 672.107 1383.81 675.56 1380.84 678.214C1377.87 680.868 1374.24 682.509 1369.95 683.137L1368.05 668.522Z" fill="#0A481E"/>
<path d="M1318.06 697.715L1390.72 700.799L1388.64 749.761L1375.97 749.223L1377.4 715.624L1360.09 714.889L1358.77 745.969L1346.1 745.431L1347.42 714.351L1330.07 713.615L1328.64 747.356L1315.97 746.818L1318.06 697.715Z" fill="#0A481E"/>
<path d="M1313.22 763.139L1384.88 775.599L1379.96 803.868C1379.02 809.279 1377.25 813.729 1374.65 817.217C1372.07 820.733 1368.84 823.188 1364.97 824.582C1361.12 826.002 1356.82 826.301 1352.09 825.478C1347.33 824.65 1343.42 822.912 1340.34 820.264C1337.3 817.619 1335.2 814.191 1334.06 809.979C1332.91 805.791 1332.82 800.945 1333.78 795.44L1337.07 776.513L1349.24 778.63L1346.38 795.108C1345.87 798.001 1345.85 800.472 1346.31 802.522C1346.77 804.573 1347.72 806.203 1349.14 807.411C1350.56 808.643 1352.45 809.464 1354.8 809.874C1357.18 810.288 1359.27 810.158 1361.07 809.486C1362.86 808.837 1364.35 807.617 1365.53 805.827C1366.72 804.065 1367.57 801.726 1368.08 798.81L1369.86 788.594L1310.59 778.289L1313.22 763.139ZM1339.1 807.504L1303.4 819.642L1306.31 802.919L1341.94 791.166L1339.1 807.504Z" fill="#0A481E"/>
<path d="M1367.39 857.215L1309.42 858.288L1309.23 858.934L1357.16 891.589L1352.29 907.925L1289.75 863.136L1295.4 844.145L1372.27 840.844L1367.39 857.215Z" fill="#0A481E"/>
<path d="M1339.77 935.385L1273.92 904.512L1280.45 890.59L1346.29 921.462L1339.77 935.385Z" fill="#0A481E"/>
<path d="M1279.82 990.749L1287.9 977.463C1289.77 978.266 1291.6 978.7 1293.39 978.764C1295.2 978.84 1296.94 978.581 1298.6 977.987C1300.27 977.392 1301.82 976.48 1303.26 975.251C1304.69 974.042 1305.94 972.548 1307.03 970.768C1308.98 967.552 1309.89 964.265 1309.74 960.907C1309.62 957.56 1308.44 954.307 1306.21 951.146C1303.99 947.998 1300.73 945.113 1296.43 942.491C1292 939.796 1287.88 938.188 1284.06 937.669C1280.24 937.17 1276.83 937.646 1273.84 939.097C1270.85 940.548 1268.4 942.84 1266.49 945.975C1265.42 947.735 1264.66 949.504 1264.22 951.284C1263.76 953.083 1263.62 954.841 1263.8 956.555C1263.99 958.282 1264.5 959.923 1265.33 961.48C1266.14 963.056 1267.29 964.501 1268.76 965.813L1260.62 979.063C1257.97 976.984 1255.75 974.45 1253.93 971.463C1252.13 968.508 1250.89 965.244 1250.21 961.671C1249.54 958.13 1249.56 954.403 1250.28 950.489C1251 946.608 1252.58 942.676 1255 938.692C1258.38 933.151 1262.65 928.959 1267.81 926.117C1272.97 923.295 1278.69 922.066 1284.98 922.431C1291.26 922.815 1297.78 925.063 1304.53 929.174C1311.3 933.297 1316.29 938.079 1319.49 943.519C1322.7 948.96 1324.21 954.621 1324.04 960.503C1323.89 966.398 1322.15 972.075 1318.83 977.535C1316.64 981.135 1314.1 984.164 1311.22 986.623C1308.33 989.102 1305.18 990.943 1301.79 992.148C1298.41 993.365 1294.88 993.873 1291.18 993.671C1287.46 993.489 1283.68 992.515 1279.82 990.749Z" fill="#0A481E"/>
<path d="M1236.12 976.172L1294.9 1018.99L1266.05 1058.6L1255.8 1051.14L1275.6 1023.96L1261.6 1013.75L1243.28 1038.9L1233.03 1031.43L1251.35 1006.29L1237.31 996.065L1217.43 1023.36L1207.18 1015.9L1236.12 976.172Z" fill="#0A481E"/>
<path d="M384.87 165.276L400.725 154.873L444.277 184.74L444.989 184.273L434.929 132.431L450.784 122.028L490.681 182.835L478.211 191.017L452.243 151.439L451.738 151.77L461.775 201.376L453.284 206.948L411.677 177.843L411.172 178.174L437.237 217.901L424.767 226.083L384.87 165.276Z" fill="#0A481E"/>
<path d="M514.854 170.356L500.123 177.739L489.981 101.471L507.696 92.5924L562.697 146.377L547.966 153.76L506.539 111.762L506.031 112.017L514.854 170.356ZM501.124 145.261L535.919 127.821L541.297 138.552L506.502 155.991L501.124 145.261Z" fill="#0A481E"/>
<path d="M609.666 56.1497L629.955 125.99L617.201 129.695L574.046 94.5648L573.535 94.7134L586.305 138.67L571.539 142.96L551.25 73.1199L564.208 69.3554L607.114 104.521L607.728 104.342L594.968 60.4195L609.666 56.1497Z" fill="#0A481E"/>
<path d="M654.931 122.776L638.632 125.195L652.79 49.5695L672.391 46.6606L707.867 114.919L691.568 117.338L665.311 64.5126L664.749 64.596L654.931 122.776ZM649.716 94.6499L688.215 88.9363L689.977 100.809L651.478 106.523L649.716 94.6499Z" fill="#0A481E"/>
<path d="M760.037 68.137C759.536 66.4099 758.835 64.8844 757.932 63.5606C757.03 62.2132 755.926 61.0793 754.622 60.1588C753.342 59.2147 751.872 58.4959 750.214 58.0024C748.579 57.5088 746.768 57.2642 744.779 57.2686C741.062 57.2768 737.797 58.2073 734.984 60.0601C732.195 61.9128 730.022 64.6046 728.468 68.1355C726.913 71.6428 726.141 75.9295 726.152 80.9958C726.163 86.0621 726.942 90.3691 728.489 93.9168C730.036 97.4645 732.22 100.17 735.041 102.034C737.862 103.875 741.191 104.791 745.026 104.782C748.506 104.775 751.476 104.153 753.935 102.916C756.418 101.656 758.308 99.888 759.605 97.6124C760.926 95.3368 761.583 92.6483 761.576 89.547L764.702 90.0017L745.952 90.0431L745.927 78.4664L776.36 78.3993L776.38 87.5612C776.394 93.9533 775.057 99.4486 772.368 104.047C769.679 108.622 765.97 112.158 761.241 114.654C756.511 117.127 751.093 118.37 744.985 118.383C738.167 118.398 732.174 116.908 727.006 113.913C721.838 110.894 717.804 106.606 714.904 101.049C712.027 95.4683 710.58 88.8426 710.563 81.1722C710.55 75.2773 711.391 70.0198 713.085 65.3996C714.803 60.7556 717.209 56.8204 720.304 53.5938C723.398 50.3673 727.003 47.9091 731.118 46.2191C735.234 44.5292 739.695 43.6789 744.5 43.6683C748.62 43.6592 752.456 44.2545 756.01 45.454C759.564 46.6299 762.716 48.3038 765.467 50.4758C768.242 52.6477 770.508 55.2351 772.267 58.2378C774.025 61.2169 775.157 64.5051 775.662 68.1025L760.037 68.137Z" fill="#0A481E"/>
<path d="M798.164 116.014L807.541 43.8939L856.138 50.2123L854.503 62.7841L821.155 58.4482L818.92 75.6331L849.769 79.6439L848.134 92.2156L817.286 88.2048L815.047 105.425L848.536 109.779L846.902 122.351L798.164 116.014Z" fill="#0A481E"/>
<path d="M889.208 53.9259L907.316 59.5549L911.937 112.161L912.751 112.414L946.382 71.6983L964.49 77.3273L942.902 146.777L928.659 142.349L942.71 97.1462L942.134 96.967L910.215 136.244L900.517 133.229L896.543 82.609L895.966 82.4298L881.862 127.802L867.62 123.375L889.208 53.9259Z" fill="#0A481E"/>
<path d="M958.477 152.182L989.429 86.3698L1033.77 107.226L1028.38 118.698L997.948 104.386L990.573 120.068L1018.72 133.307L1013.33 144.779L985.177 131.54L977.787 147.254L1008.35 161.626L1002.95 173.099L958.477 152.182Z" fill="#0A481E"/>
<path d="M1105.55 149.979L1066.41 211.278L1055.21 204.13L1053.18 148.522L1052.73 148.235L1028.1 186.816L1015.14 178.541L1054.28 117.243L1065.65 124.505L1067.49 179.95L1068.03 180.294L1092.65 141.743L1105.55 149.979Z" fill="#0A481E"/>
<path d="M1106.6 165.828L1114.68 156.054L1160.73 194.093L1152.65 203.867L1135.49 189.687L1097.24 235.984L1085.53 226.305L1123.77 180.008L1106.6 165.828Z" fill="#0A481E"/>
</svg>
