<svg width="1463" height="1398" viewBox="0 0 1463 1398" fill="none" xmlns="http://www.w3.org/2000/svg">
<circle cx="750.289" cy="720" r="665.5" fill="#AD8E37" stroke="#AD8E37" stroke-width="25"/>
<path d="M1253.02 721.645C1253.02 999.8 1027.53 1225.29 749.378 1225.29C471.222 1225.29 245.732 999.8 245.732 721.645C245.732 443.49 471.222 218 749.378 218C1027.53 218 1253.02 443.49 1253.02 721.645Z" fill="#0A481E" stroke="#001F5F" stroke-width="72"/>
<path d="M304.857 952.913C424.039 952.913 476.569 919.349 558.814 919.349C649.002 919.349 680.739 948.82 749.782 948.82C833.802 948.82 836.687 920.167 926.752 920.167C1009.14 920.167 1074.01 956.806 1195.71 954.55" stroke="#AD8E37" stroke-width="15.24" stroke-linecap="round" stroke-linejoin="round"/>
<path d="M340.184 1009.86C450.059 1009.86 498.487 973.338 574.31 973.338C657.455 973.338 686.714 1005.41 750.366 1005.41C827.825 1005.41 830.484 974.229 913.517 974.229C989.469 974.229 1049.27 1014.1 1161.47 1011.65" stroke="#AD8E37" stroke-width="15.24" stroke-linecap="round" stroke-linejoin="round"/>
<path d="M385.848 1063.35C472.391 1058.78 515.588 1028.38 580.463 1028.38C657.379 1028.38 684.445 1059.58 743.328 1059.58C814.984 1059.58 817.444 1029.24 894.256 1029.24C962.24 1029.24 1016.24 1065.56 1113.69 1065.76" stroke="#AD8E37" stroke-width="15.24" stroke-linecap="round" stroke-linejoin="round"/>
<path d="M445.033 1117.02C514.762 1110.08 551.957 1080.28 606.594 1080.28C674.404 1080.28 698.267 1113.8 750.179 1113.8C813.353 1113.8 815.521 1081.21 883.24 1081.21C938.59 1081.21 983.425 1114.48 1057.62 1119.74" stroke="#AD8E37" stroke-width="15.24" stroke-linecap="round" stroke-linejoin="round"/>
<path d="M527.061 1167.88C571.439 1158.6 599.125 1137.39 637.697 1137.39C691.841 1137.39 710.895 1167.9 752.345 1167.9C802.787 1167.9 804.519 1138.24 858.59 1138.24C897.541 1138.24 929.971 1161.76 977.677 1170.62" stroke="#AD8E37" stroke-width="15.24" stroke-linecap="round" stroke-linejoin="round"/>
<path d="M1244.43 720.002C1244.43 992.909 1023.2 1214.14 750.29 1214.14C477.382 1214.14 256.146 992.909 256.146 720.002C256.146 447.095 477.382 225.859 750.29 225.859C1023.2 225.859 1244.43 447.095 1244.43 720.002Z" stroke="#001F5F" stroke-width="50"/>
<mask id="path-9-inside-1_137_2" fill="white">
<path d="M777.488 630.445C780.272 629.122 797.5 628.247 804.536 630.445C805.406 625.695 803.277 615.1 799.056 612.662C783.649 603.774 759.473 598.785 741.917 598.533C735.207 598.433 730.452 599.125 728.808 600.354C726.087 602.376 724.449 606.961 718.892 630.445C716.518 640.542 712.172 652.019 705.696 660.183C694.396 674.412 676.934 683.539 657.351 683.539C623.26 683.539 595.663 652.819 595.625 621.821C595.6 593.633 614.214 569.835 640.248 562.471C645.01 561.129 650.44 560.001 651.794 555.762C653.067 551.769 651.001 549.577 649.143 547.51C590.598 482.435 535.424 418.813 490.744 325.757C488.803 321.712 487.216 320.868 485.616 320.591C483.708 320.264 481.628 321.013 479.683 323.533C458.139 351.406 467.298 393.729 492.892 425.95C521.1 461.451 551.777 495.856 585.023 529.103C535.745 493.771 485.605 452.871 442.392 401.383C439.564 398.013 437.863 397.603 436.27 397.723C434.379 397.874 432.591 399.083 431.356 401.943C417.623 433.621 436.546 471.592 468.628 496.007C500.155 519.938 533.396 542.52 568.413 563.672C516.357 543.3 461.831 518.407 411.168 482.118C407.678 479.598 405.951 479.623 404.478 480.12C402.721 480.719 401.309 482.306 400.824 485.317C395.451 518.696 422.595 550.166 458.946 565.58C491.387 579.256 524.936 591.476 559.626 602.185C513.2 596.433 464.143 587.627 415.646 569.637C411.697 568.157 410.078 568.616 408.805 569.467C407.3 570.481 406.38 572.339 406.695 575.312C410.185 608.225 443.897 630.997 482.197 636.225C510.669 640.042 539.626 642.669 569.069 644.068C527.739 649.031 483.438 652.325 437.568 647.708C433.46 647.273 432.049 648.111 431.06 649.226C429.877 650.562 429.46 652.558 430.493 655.292C441.901 685.603 479.444 698.856 516.993 694.384C539.405 691.65 561.918 688.097 584.545 683.714C552.596 695.644 526.694 705.263 490.026 711.48C486.039 712.135 484.924 713.288 484.282 714.604C483.519 716.167 483.639 718.15 485.32 720.462C499.556 739.416 527.197 745.571 557.497 736.48C572.066 732.116 594.416 724.595 608.557 718.932C584.917 734.15 572.69 739.662 545.981 751.907C542.404 753.539 541.648 754.925 541.37 756.329C541.055 757.992 541.66 759.864 543.858 761.589C566.541 779.365 591.895 771.396 611.397 763.97C623.548 759.347 635.63 754.358 647.649 749.212C637.495 757.085 626.981 764.707 616.065 771.996C612.89 774.112 612.38 775.548 612.336 776.934C612.286 778.572 613.168 780.235 615.518 781.571C634.528 792.373 658.062 788.486 678.742 775.718C670.919 788.909 661.029 800.121 650.269 809.027C654.288 810.565 664.38 810.023 668.625 808.379C663.542 815.912 659.573 823.672 653.923 830.791C644.525 842.614 631.807 820.064 618.843 824.404C617.999 824.688 617.255 825.059 616.67 825.884C612.286 826.753 607.272 831.591 608.563 840.107C612.273 833.947 616.803 833.411 619.901 833.593C625.747 834.608 628.727 836.378 631.618 838.293C625.362 836.637 612.399 839.603 611.555 847.502C607.87 852.913 606.49 860.043 613.37 866.62C613.999 850.859 625.861 846.526 637.237 847.143C630.283 849.166 621.754 856.138 624.261 864.327C623.41 868.711 626.138 876.485 634.528 878.494C631.429 874.582 630.68 869.506 632.33 865.543C634.976 859.206 641.88 855.735 646.85 854.557C656.626 852.233 665.319 855.086 669.143 858.96C671.133 860.988 672.292 865.719 670.276 869.65C675.883 866.846 677.351 859.602 676.386 855.614C676.733 855.249 677.029 854.739 676.784 853.75C674.849 846.014 660.834 846.027 668.047 837.744L683.882 819.59C683.568 824.447 685.904 831.054 688.632 834.884C695.573 820.05 706.786 802.689 718.773 790.292C706.66 826.084 687.548 864.256 665.791 893.258C664.153 895.437 664.09 896.577 664.323 897.566C664.6 898.757 665.469 899.759 667.22 900.225C682.325 904.244 697.595 895.248 708.65 880.144C704.347 894.254 699.365 908.345 693.557 922.304C692.474 924.88 692.669 925.995 693.128 926.89C693.676 927.954 694.741 928.678 696.549 928.623C712.763 928.1 725.884 913.794 732.864 894.764C733.651 925.523 737.249 950.279 748.19 950.279C759.132 950.279 762.716 925.524 763.509 894.764C770.495 913.794 783.616 928.099 799.83 928.623C801.632 928.679 802.702 927.955 803.251 926.89C803.704 925.995 803.905 924.88 802.822 922.304C797.008 908.345 792.025 894.254 787.729 880.144C798.784 895.249 814.054 904.244 829.153 900.225C830.898 899.759 831.78 898.757 832.057 897.566C832.284 896.578 832.221 895.437 830.589 893.258C808.831 864.256 789.72 826.084 777.607 790.292C789.594 802.689 800.8 820.049 807.742 834.884C810.469 831.054 812.813 824.447 812.498 819.59L828.321 837.744C835.547 846.027 821.525 846.014 819.598 853.75C819.352 854.739 819.647 855.249 819.994 855.614C819.031 859.602 820.492 866.846 826.092 869.65C824.089 865.719 825.248 860.988 827.238 858.96C831.049 855.086 839.755 852.233 849.531 854.557C854.501 855.735 861.405 859.206 864.043 865.543C865.7 869.506 864.945 874.582 861.851 878.494C870.229 876.485 872.957 868.711 872.119 864.327C874.626 856.138 866.097 849.166 859.143 847.143C870.519 846.526 882.374 850.859 883.004 866.62C889.888 860.043 888.51 852.913 884.819 847.502C883.981 839.602 871.017 836.636 864.762 838.293C867.654 836.378 870.633 834.608 876.466 833.593C879.565 833.411 884.107 833.946 887.817 840.107C889.108 831.59 884.088 826.753 879.71 825.884C879.118 825.059 878.38 824.688 877.53 824.404C864.566 820.064 851.849 842.614 842.45 830.791C836.8 823.672 832.837 815.912 827.754 808.379C831.994 810.022 842.091 810.564 846.097 809.027C835.333 800.121 825.456 788.902 817.632 775.712C838.319 788.48 861.852 792.373 880.863 781.57C883.212 780.234 884.094 778.571 884.043 776.933C883.999 775.547 883.489 774.111 880.315 771.995C869.398 764.706 858.886 757.085 848.731 749.211C860.749 754.357 872.832 759.346 884.982 763.969C904.484 771.396 929.838 779.365 952.522 761.588C954.72 759.863 955.325 757.992 955.01 756.329C954.733 754.924 953.977 753.538 950.398 751.907C923.691 739.662 911.464 734.15 887.823 718.931C901.965 724.594 924.313 732.115 938.884 736.48C969.189 745.569 996.823 739.416 1011.06 720.461C1012.74 718.15 1012.87 716.165 1012.1 714.603C1011.46 713.287 1010.34 712.134 1006.35 711.479C969.686 705.262 943.784 695.643 911.834 683.713C934.461 688.097 956.974 691.65 979.387 694.383C1016.94 698.856 1054.48 685.602 1065.89 655.291C1066.92 652.557 1066.5 650.561 1065.33 649.225C1064.33 648.11 1062.92 647.273 1058.81 647.707C1012.94 652.324 968.639 649.03 927.311 644.067C956.753 642.668 985.71 640.041 1014.18 636.224C1052.48 630.996 1086.19 608.224 1089.68 575.312C1090 572.339 1089.08 570.48 1087.57 569.467C1086.3 568.615 1084.68 568.156 1080.74 569.637C1032.24 587.627 983.178 596.433 936.753 602.184C971.443 591.475 1004.99 579.255 1037.43 565.58C1073.78 550.166 1100.93 518.695 1095.55 485.317C1095.07 482.305 1093.66 480.718 1091.9 480.119C1090.43 479.622 1088.71 479.597 1085.21 482.117C1034.55 518.406 980.022 543.299 927.966 563.671C962.983 542.519 996.224 519.937 1027.75 496.007C1059.83 471.592 1078.76 433.621 1065.02 401.942C1063.79 399.083 1062 397.872 1060.11 397.722C1058.52 397.603 1056.82 398.012 1053.99 401.382C1010.77 452.871 960.634 493.77 911.356 529.103C944.602 495.856 975.285 461.45 1003.49 425.949C1029.08 393.728 1038.24 351.405 1016.7 323.532C1014.75 321.012 1012.67 320.263 1010.77 320.59C1009.16 320.867 1007.58 321.711 1005.63 325.756C960.957 418.814 905.782 482.436 847.238 547.511C845.38 549.577 843.313 551.769 844.586 555.763C845.947 560.002 851.37 561.129 856.132 562.472C882.167 569.836 900.781 593.633 900.755 621.822C900.718 652.819 873.122 683.54 839.031 683.54C819.447 683.54 801.985 674.413 790.684 660.184C784.203 652.019 779.863 640.549 777.488 630.445ZM748.191 844.532C744.487 874.515 740.751 905.842 748.191 935.051C755.63 905.842 751.894 874.515 748.191 844.532ZM792.65 919.378C777.941 880.885 774.527 862.018 769.859 835.776C767.276 863.845 769.658 901.904 792.65 919.378ZM819.415 892.638C796.208 858.592 788.523 841.017 777.915 816.57C781.891 844.475 793.003 880.953 819.415 892.638ZM703.731 919.378C718.44 880.885 721.854 862.018 726.521 835.776C729.104 863.845 726.723 901.904 703.731 919.378ZM676.966 892.638C700.172 858.592 707.857 841.017 718.465 816.57C714.49 844.475 703.379 880.953 676.966 892.638ZM447.859 423.028C491.267 473.748 535.896 507.928 593.054 548.028C542.812 519.461 499.625 493.559 485.301 482.341C468.206 468.942 448.111 446.341 447.859 423.028ZM1048.52 423.028C1005.11 473.748 960.484 507.928 903.326 548.028C953.567 519.461 996.755 493.559 1011.08 482.341C1028.17 468.942 1048.27 446.341 1048.52 423.028ZM865.046 773.018C848.252 760.628 836.693 748.798 823.95 733.365C832.662 752.288 843.088 770.416 865.046 773.018ZM1003.53 354.072C966.45 425.396 922.954 479.241 876.712 531.561C918.324 492.274 971.514 435.021 982.827 420.779C996.333 403.765 1008.72 376.799 1003.53 354.072ZM929.908 753.888C906.52 743.155 889.593 731.779 870.331 716.346C885.601 737 902.74 756.263 929.908 753.888ZM989.687 719.961C945.782 709.341 926.613 700.705 900.012 688.63C923.767 708.39 959.621 729.876 989.687 719.961ZM1044.6 660.29C1000.57 662.652 977.826 661.229 916.227 652.442C939.597 662.167 957.461 669.228 983.326 672.152C1003.22 674.399 1028.68 674.394 1044.6 660.29ZM1068.94 586.61C1021.52 601.249 997.536 606.874 925.606 613.551C952.863 615.945 985.089 618.912 1012.81 614.867C1032.84 611.951 1057.69 604.361 1068.94 586.61ZM1077.69 501.37C1023.27 537.804 987.162 553.388 920.875 577.917C974.683 564.897 1009.22 555.542 1025.98 548.481C1046 540.04 1071.33 523.795 1077.69 501.37ZM631.335 773.018C648.128 760.628 659.687 748.798 672.43 733.365C663.718 752.288 653.294 770.416 631.335 773.018ZM492.848 354.072C529.931 425.396 573.427 479.241 619.669 531.561C578.057 492.274 524.867 435.021 513.553 420.779C500.048 403.765 487.663 376.799 492.848 354.072ZM566.472 753.888C589.861 743.155 606.787 731.779 626.049 716.346C610.781 737 593.64 756.263 566.472 753.888ZM506.694 719.961C550.599 709.341 569.767 700.705 596.369 688.63C572.614 708.39 536.76 729.876 506.694 719.961ZM451.777 660.29C495.809 662.652 518.555 661.229 580.154 652.442C556.784 662.167 538.919 669.228 513.055 672.152C493.163 674.399 467.702 674.394 451.777 660.29ZM427.444 586.61C474.863 601.249 498.844 606.874 570.775 613.551C543.519 615.945 511.293 618.912 483.577 614.867C463.544 611.951 438.694 604.361 427.444 586.61ZM418.688 501.37C473.106 537.804 509.219 553.388 575.505 577.917C521.698 564.897 487.16 555.542 470.398 548.481C450.379 540.04 425.05 523.795 418.688 501.37Z"/>
</mask>
<path d="M777.488 630.445C780.272 629.122 797.5 628.247 804.536 630.445C805.406 625.695 803.277 615.1 799.056 612.662C783.649 603.774 759.473 598.785 741.917 598.533C735.207 598.433 730.452 599.125 728.808 600.354C726.087 602.376 724.449 606.961 718.892 630.445C716.518 640.542 712.172 652.019 705.696 660.183C694.396 674.412 676.934 683.539 657.351 683.539C623.26 683.539 595.663 652.819 595.625 621.821C595.6 593.633 614.214 569.835 640.248 562.471C645.01 561.129 650.44 560.001 651.794 555.762C653.067 551.769 651.001 549.577 649.143 547.51C590.598 482.435 535.424 418.813 490.744 325.757C488.803 321.712 487.216 320.868 485.616 320.591C483.708 320.264 481.628 321.013 479.683 323.533C458.139 351.406 467.298 393.729 492.892 425.95C521.1 461.451 551.777 495.856 585.023 529.103C535.745 493.771 485.605 452.871 442.392 401.383C439.564 398.013 437.863 397.603 436.27 397.723C434.379 397.874 432.591 399.083 431.356 401.943C417.623 433.621 436.546 471.592 468.628 496.007C500.155 519.938 533.396 542.52 568.413 563.672C516.357 543.3 461.831 518.407 411.168 482.118C407.678 479.598 405.951 479.623 404.478 480.12C402.721 480.719 401.309 482.306 400.824 485.317C395.451 518.696 422.595 550.166 458.946 565.58C491.387 579.256 524.936 591.476 559.626 602.185C513.2 596.433 464.143 587.627 415.646 569.637C411.697 568.157 410.078 568.616 408.805 569.467C407.3 570.481 406.38 572.339 406.695 575.312C410.185 608.225 443.897 630.997 482.197 636.225C510.669 640.042 539.626 642.669 569.069 644.068C527.739 649.031 483.438 652.325 437.568 647.708C433.46 647.273 432.049 648.111 431.06 649.226C429.877 650.562 429.46 652.558 430.493 655.292C441.901 685.603 479.444 698.856 516.993 694.384C539.405 691.65 561.918 688.097 584.545 683.714C552.596 695.644 526.694 705.263 490.026 711.48C486.039 712.135 484.924 713.288 484.282 714.604C483.519 716.167 483.639 718.15 485.32 720.462C499.556 739.416 527.197 745.571 557.497 736.48C572.066 732.116 594.416 724.595 608.557 718.932C584.917 734.15 572.69 739.662 545.981 751.907C542.404 753.539 541.648 754.925 541.37 756.329C541.055 757.992 541.66 759.864 543.858 761.589C566.541 779.365 591.895 771.396 611.397 763.97C623.548 759.347 635.63 754.358 647.649 749.212C637.495 757.085 626.981 764.707 616.065 771.996C612.89 774.112 612.38 775.548 612.336 776.934C612.286 778.572 613.168 780.235 615.518 781.571C634.528 792.373 658.062 788.486 678.742 775.718C670.919 788.909 661.029 800.121 650.269 809.027C654.288 810.565 664.38 810.023 668.625 808.379C663.542 815.912 659.573 823.672 653.923 830.791C644.525 842.614 631.807 820.064 618.843 824.404C617.999 824.688 617.255 825.059 616.67 825.884C612.286 826.753 607.272 831.591 608.563 840.107C612.273 833.947 616.803 833.411 619.901 833.593C625.747 834.608 628.727 836.378 631.618 838.293C625.362 836.637 612.399 839.603 611.555 847.502C607.87 852.913 606.49 860.043 613.37 866.62C613.999 850.859 625.861 846.526 637.237 847.143C630.283 849.166 621.754 856.138 624.261 864.327C623.41 868.711 626.138 876.485 634.528 878.494C631.429 874.582 630.68 869.506 632.33 865.543C634.976 859.206 641.88 855.735 646.85 854.557C656.626 852.233 665.319 855.086 669.143 858.96C671.133 860.988 672.292 865.719 670.276 869.65C675.883 866.846 677.351 859.602 676.386 855.614C676.733 855.249 677.029 854.739 676.784 853.75C674.849 846.014 660.834 846.027 668.047 837.744L683.882 819.59C683.568 824.447 685.904 831.054 688.632 834.884C695.573 820.05 706.786 802.689 718.773 790.292C706.66 826.084 687.548 864.256 665.791 893.258C664.153 895.437 664.09 896.577 664.323 897.566C664.6 898.757 665.469 899.759 667.22 900.225C682.325 904.244 697.595 895.248 708.65 880.144C704.347 894.254 699.365 908.345 693.557 922.304C692.474 924.88 692.669 925.995 693.128 926.89C693.676 927.954 694.741 928.678 696.549 928.623C712.763 928.1 725.884 913.794 732.864 894.764C733.651 925.523 737.249 950.279 748.19 950.279C759.132 950.279 762.716 925.524 763.509 894.764C770.495 913.794 783.616 928.099 799.83 928.623C801.632 928.679 802.702 927.955 803.251 926.89C803.704 925.995 803.905 924.88 802.822 922.304C797.008 908.345 792.025 894.254 787.729 880.144C798.784 895.249 814.054 904.244 829.153 900.225C830.898 899.759 831.78 898.757 832.057 897.566C832.284 896.578 832.221 895.437 830.589 893.258C808.831 864.256 789.72 826.084 777.607 790.292C789.594 802.689 800.8 820.049 807.742 834.884C810.469 831.054 812.813 824.447 812.498 819.59L828.321 837.744C835.547 846.027 821.525 846.014 819.598 853.75C819.352 854.739 819.647 855.249 819.994 855.614C819.031 859.602 820.492 866.846 826.092 869.65C824.089 865.719 825.248 860.988 827.238 858.96C831.049 855.086 839.755 852.233 849.531 854.557C854.501 855.735 861.405 859.206 864.043 865.543C865.7 869.506 864.945 874.582 861.851 878.494C870.229 876.485 872.957 868.711 872.119 864.327C874.626 856.138 866.097 849.166 859.143 847.143C870.519 846.526 882.374 850.859 883.004 866.62C889.888 860.043 888.51 852.913 884.819 847.502C883.981 839.602 871.017 836.636 864.762 838.293C867.654 836.378 870.633 834.608 876.466 833.593C879.565 833.411 884.107 833.946 887.817 840.107C889.108 831.59 884.088 826.753 879.71 825.884C879.118 825.059 878.38 824.688 877.53 824.404C864.566 820.064 851.849 842.614 842.45 830.791C836.8 823.672 832.837 815.912 827.754 808.379C831.994 810.022 842.091 810.564 846.097 809.027C835.333 800.121 825.456 788.902 817.632 775.712C838.319 788.48 861.852 792.373 880.863 781.57C883.212 780.234 884.094 778.571 884.043 776.933C883.999 775.547 883.489 774.111 880.315 771.995C869.398 764.706 858.886 757.085 848.731 749.211C860.749 754.357 872.832 759.346 884.982 763.969C904.484 771.396 929.838 779.365 952.522 761.588C954.72 759.863 955.325 757.992 955.01 756.329C954.733 754.924 953.977 753.538 950.398 751.907C923.691 739.662 911.464 734.15 887.823 718.931C901.965 724.594 924.313 732.115 938.884 736.48C969.189 745.569 996.823 739.416 1011.06 720.461C1012.74 718.15 1012.87 716.165 1012.1 714.603C1011.46 713.287 1010.34 712.134 1006.35 711.479C969.686 705.262 943.784 695.643 911.834 683.713C934.461 688.097 956.974 691.65 979.387 694.383C1016.94 698.856 1054.48 685.602 1065.89 655.291C1066.92 652.557 1066.5 650.561 1065.33 649.225C1064.33 648.11 1062.92 647.273 1058.81 647.707C1012.94 652.324 968.639 649.03 927.311 644.067C956.753 642.668 985.71 640.041 1014.18 636.224C1052.48 630.996 1086.19 608.224 1089.68 575.312C1090 572.339 1089.08 570.48 1087.57 569.467C1086.3 568.615 1084.68 568.156 1080.74 569.637C1032.24 587.627 983.178 596.433 936.753 602.184C971.443 591.475 1004.99 579.255 1037.43 565.58C1073.78 550.166 1100.93 518.695 1095.55 485.317C1095.07 482.305 1093.66 480.718 1091.9 480.119C1090.43 479.622 1088.71 479.597 1085.21 482.117C1034.55 518.406 980.022 543.299 927.966 563.671C962.983 542.519 996.224 519.937 1027.75 496.007C1059.83 471.592 1078.76 433.621 1065.02 401.942C1063.79 399.083 1062 397.872 1060.11 397.722C1058.52 397.603 1056.82 398.012 1053.99 401.382C1010.77 452.871 960.634 493.77 911.356 529.103C944.602 495.856 975.285 461.45 1003.49 425.949C1029.08 393.728 1038.24 351.405 1016.7 323.532C1014.75 321.012 1012.67 320.263 1010.77 320.59C1009.16 320.867 1007.58 321.711 1005.63 325.756C960.957 418.814 905.782 482.436 847.238 547.511C845.38 549.577 843.313 551.769 844.586 555.763C845.947 560.002 851.37 561.129 856.132 562.472C882.167 569.836 900.781 593.633 900.755 621.822C900.718 652.819 873.122 683.54 839.031 683.54C819.447 683.54 801.985 674.413 790.684 660.184C784.203 652.019 779.863 640.549 777.488 630.445ZM748.191 844.532C744.487 874.515 740.751 905.842 748.191 935.051C755.63 905.842 751.894 874.515 748.191 844.532ZM792.65 919.378C777.941 880.885 774.527 862.018 769.859 835.776C767.276 863.845 769.658 901.904 792.65 919.378ZM819.415 892.638C796.208 858.592 788.523 841.017 777.915 816.57C781.891 844.475 793.003 880.953 819.415 892.638ZM703.731 919.378C718.44 880.885 721.854 862.018 726.521 835.776C729.104 863.845 726.723 901.904 703.731 919.378ZM676.966 892.638C700.172 858.592 707.857 841.017 718.465 816.57C714.49 844.475 703.379 880.953 676.966 892.638ZM447.859 423.028C491.267 473.748 535.896 507.928 593.054 548.028C542.812 519.461 499.625 493.559 485.301 482.341C468.206 468.942 448.111 446.341 447.859 423.028ZM1048.52 423.028C1005.11 473.748 960.484 507.928 903.326 548.028C953.567 519.461 996.755 493.559 1011.08 482.341C1028.17 468.942 1048.27 446.341 1048.52 423.028ZM865.046 773.018C848.252 760.628 836.693 748.798 823.95 733.365C832.662 752.288 843.088 770.416 865.046 773.018ZM1003.53 354.072C966.45 425.396 922.954 479.241 876.712 531.561C918.324 492.274 971.514 435.021 982.827 420.779C996.333 403.765 1008.72 376.799 1003.53 354.072ZM929.908 753.888C906.52 743.155 889.593 731.779 870.331 716.346C885.601 737 902.74 756.263 929.908 753.888ZM989.687 719.961C945.782 709.341 926.613 700.705 900.012 688.63C923.767 708.39 959.621 729.876 989.687 719.961ZM1044.6 660.29C1000.57 662.652 977.826 661.229 916.227 652.442C939.597 662.167 957.461 669.228 983.326 672.152C1003.22 674.399 1028.68 674.394 1044.6 660.29ZM1068.94 586.61C1021.52 601.249 997.536 606.874 925.606 613.551C952.863 615.945 985.089 618.912 1012.81 614.867C1032.84 611.951 1057.69 604.361 1068.94 586.61ZM1077.69 501.37C1023.27 537.804 987.162 553.388 920.875 577.917C974.683 564.897 1009.22 555.542 1025.98 548.481C1046 540.04 1071.33 523.795 1077.69 501.37ZM631.335 773.018C648.128 760.628 659.687 748.798 672.43 733.365C663.718 752.288 653.294 770.416 631.335 773.018ZM492.848 354.072C529.931 425.396 573.427 479.241 619.669 531.561C578.057 492.274 524.867 435.021 513.553 420.779C500.048 403.765 487.663 376.799 492.848 354.072ZM566.472 753.888C589.861 743.155 606.787 731.779 626.049 716.346C610.781 737 593.64 756.263 566.472 753.888ZM506.694 719.961C550.599 709.341 569.767 700.705 596.369 688.63C572.614 708.39 536.76 729.876 506.694 719.961ZM451.777 660.29C495.809 662.652 518.555 661.229 580.154 652.442C556.784 662.167 538.919 669.228 513.055 672.152C493.163 674.399 467.702 674.394 451.777 660.29ZM427.444 586.61C474.863 601.249 498.844 606.874 570.775 613.551C543.519 615.945 511.293 618.912 483.577 614.867C463.544 611.951 438.694 604.361 427.444 586.61ZM418.688 501.37C473.106 537.804 509.219 553.388 575.505 577.917C521.698 564.897 487.16 555.542 470.398 548.481C450.379 540.04 425.05 523.795 418.688 501.37Z" fill="#AD8E37" stroke="#AD8E37" stroke-width="4" mask="url(#path-9-inside-1_137_2)"/>
<path d="M775.766 613.874C766.228 611.269 761.17 610.505 752.404 609.721C757.551 613.62 760.761 615.458 767.459 617.508C772.235 617.329 773.955 616.459 775.766 613.874Z" fill="#AD8E37" stroke="#0A481E" stroke-width="3"/>
<path d="M356.017 1003.99L327.714 1023.16L323.662 1017.17L351.964 998.008L356.017 1003.99Z" fill="#AD8E37"/>
<path d="M375.8 1030.57L348.686 1051.38L344.885 1046.43L352.896 1021.54L352.743 1021.34L335.678 1034.44L331.277 1028.71L358.391 1007.89L362.253 1012.92L354.185 1037.72L354.368 1037.95L371.42 1024.87L375.8 1030.57Z" fill="#AD8E37"/>
<path d="M373.124 1037.17L377.59 1033.22L396.176 1054.26L391.71 1058.21L384.782 1050.37L363.63 1069.05L358.901 1063.7L380.053 1045.01L373.124 1037.17Z" fill="#AD8E37"/>
<path d="M374.55 1081.56L398.675 1057.35L414.992 1073.6L410.787 1077.82L399.59 1066.67L393.841 1072.44L404.199 1082.76L399.993 1086.98L389.636 1076.66L383.875 1082.44L395.119 1093.64L390.914 1097.86L374.55 1081.56Z" fill="#AD8E37"/>
<path d="M426.331 1099.27C426.706 1098.51 426.947 1097.76 427.055 1097.01C427.17 1096.26 427.147 1095.52 426.988 1094.78C426.844 1094.05 426.563 1093.33 426.145 1092.64C425.735 1091.95 425.185 1091.29 424.495 1090.66C423.204 1089.48 421.778 1088.76 420.214 1088.51C418.66 1088.27 417.052 1088.51 415.392 1089.24C413.74 1089.96 412.111 1091.2 410.506 1092.96C408.901 1094.72 407.804 1096.46 407.213 1098.18C406.622 1099.9 406.52 1101.53 406.906 1103.07C407.299 1104.61 408.161 1105.98 409.493 1107.2C410.701 1108.3 411.928 1109.03 413.173 1109.38C414.433 1109.73 415.649 1109.72 416.821 1109.34C418.002 1108.97 419.083 1108.25 420.065 1107.17L421.004 1108.32L414.494 1102.38L418.161 1098.37L428.728 1108.01L425.826 1111.19C423.801 1113.41 421.592 1114.89 419.2 1115.63C416.816 1116.36 414.408 1116.4 411.977 1115.77C409.553 1115.12 407.28 1113.83 405.16 1111.9C402.792 1109.74 401.189 1107.32 400.35 1104.64C399.518 1101.95 399.481 1099.19 400.241 1096.34C401.016 1093.49 402.619 1090.74 405.048 1088.07C406.916 1086.03 408.877 1084.47 410.931 1083.41C413.001 1082.35 415.084 1081.75 417.181 1081.61C419.278 1081.47 421.307 1081.77 423.27 1082.49C425.233 1083.21 427.048 1084.33 428.717 1085.85C430.147 1087.16 431.288 1088.58 432.138 1090.13C432.996 1091.66 433.557 1093.24 433.821 1094.87C434.092 1096.5 434.056 1098.12 433.712 1099.72C433.375 1101.31 432.723 1102.81 431.756 1104.22L426.331 1099.27Z" fill="#AD8E37"/>
<path d="M437.718 1102.38L441.378 1097.67L463.533 1114.92L459.874 1119.62L451.615 1113.19L434.282 1135.46L428.644 1131.08L445.977 1108.8L437.718 1102.38Z" fill="#AD8E37"/>
<path d="M473.412 1121.84L453.796 1149.83L447.878 1145.68L467.493 1117.69L473.412 1121.84Z" fill="#AD8E37"/>
<path d="M474.881 1130.37L478.055 1125.33L501.814 1140.28L498.64 1145.33L489.783 1139.75L474.75 1163.64L468.704 1159.83L483.738 1135.95L474.881 1130.37Z" fill="#AD8E37"/>
<path d="M505.277 1142.04L512.393 1145.89L512.229 1162.55L512.522 1162.71L526.391 1153.48L533.507 1157.34L512.014 1170.83L506.254 1181.45L499.945 1178.03L505.705 1167.4L505.277 1142.04Z" fill="#AD8E37"/>
<path d="M558.532 1203.7L552.114 1195.73L542 1198.02L547.777 1189.59L542.423 1180.9L552.412 1183.66L559.216 1176L559.612 1186.14L569.172 1190.09L559.428 1193.59L558.532 1203.7Z" fill="#AD8E37"/>
<path d="M628.764 1205.13L621.716 1203.19C621.838 1202.24 621.799 1201.36 621.597 1200.54C621.398 1199.71 621.057 1198.96 620.574 1198.29C620.091 1197.61 619.478 1197.03 618.737 1196.53C618.006 1196.04 617.169 1195.67 616.225 1195.41C614.519 1194.94 612.917 1194.95 611.418 1195.45C609.921 1195.94 608.603 1196.89 607.462 1198.31C606.324 1199.72 605.441 1201.56 604.811 1203.85C604.164 1206.2 603.968 1208.27 604.225 1210.06C604.493 1211.85 605.147 1213.33 606.188 1214.49C607.229 1215.66 608.581 1216.47 610.244 1216.93C611.177 1217.18 612.075 1217.3 612.937 1217.27C613.809 1217.24 614.621 1217.08 615.374 1216.78C616.129 1216.47 616.805 1216.03 617.402 1215.45C618.009 1214.88 618.515 1214.18 618.918 1213.34L625.957 1215.32C625.358 1216.78 624.5 1218.11 623.383 1219.32C622.28 1220.51 620.965 1221.5 619.437 1222.26C617.924 1223.02 616.236 1223.49 614.375 1223.67C612.527 1223.84 610.546 1223.64 608.433 1223.06C605.494 1222.25 603.049 1220.86 601.099 1218.89C599.159 1216.92 597.866 1214.5 597.22 1211.61C596.584 1208.72 596.76 1205.48 597.747 1201.9C598.738 1198.31 600.256 1195.44 602.302 1193.29C604.348 1191.14 606.712 1189.72 609.392 1189.04C612.076 1188.35 614.866 1188.4 617.762 1189.2C619.672 1189.73 621.368 1190.48 622.851 1191.47C624.344 1192.46 625.582 1193.64 626.564 1195.02C627.549 1196.39 628.234 1197.92 628.62 1199.62C629.017 1201.32 629.064 1203.16 628.764 1205.13Z" fill="#AD8E37"/>
<path d="M661.781 1217.5C661.127 1221.17 659.874 1224.16 658.024 1226.49C656.185 1228.82 653.95 1230.45 651.32 1231.38C648.702 1232.3 645.909 1232.5 642.941 1231.97C639.95 1231.44 637.388 1230.28 635.253 1228.5C633.118 1226.72 631.59 1224.41 630.669 1221.59C629.748 1218.77 629.614 1215.53 630.267 1211.88C630.921 1208.21 632.168 1205.21 634.008 1202.88C635.847 1200.55 638.075 1198.93 640.693 1198C643.312 1197.07 646.117 1196.87 649.107 1197.4C652.076 1197.93 654.627 1199.09 656.762 1200.87C658.91 1202.64 660.444 1204.94 661.365 1207.76C662.297 1210.58 662.436 1213.83 661.781 1217.5ZM654.568 1216.21C654.992 1213.83 654.994 1211.77 654.573 1210.01C654.163 1208.25 653.392 1206.83 652.261 1205.76C651.13 1204.69 649.704 1204 647.985 1203.69C646.265 1203.39 644.689 1203.54 643.257 1204.16C641.825 1204.77 640.607 1205.83 639.604 1207.34C638.612 1208.84 637.904 1210.79 637.48 1213.16C637.056 1215.54 637.049 1217.61 637.459 1219.36C637.88 1221.12 638.656 1222.54 639.787 1223.61C640.918 1224.68 642.344 1225.37 644.063 1225.68C645.783 1225.99 647.359 1225.83 648.791 1225.22C650.223 1224.6 651.435 1223.54 652.427 1222.03C653.431 1220.53 654.144 1218.59 654.568 1216.21Z" fill="#AD8E37"/>
<path d="M666.827 1201.1L675.664 1202.26L682.008 1226.26L682.405 1226.31L694.728 1204.77L703.564 1205.93L699.115 1239.82L692.164 1238.91L695.061 1216.85L694.779 1216.81L683.134 1237.55L678.401 1236.93L672.516 1213.8L672.235 1213.77L669.328 1235.91L662.377 1235L666.827 1201.1Z" fill="#AD8E37"/>
<path d="M706.953 1206.34L715.857 1206.73L724.252 1230.09L724.652 1230.1L735.065 1207.57L743.969 1207.97L742.468 1242.11L735.465 1241.81L736.442 1219.58L736.159 1219.57L726.351 1241.24L721.582 1241.03L713.719 1218.5L713.435 1218.48L712.454 1240.79L705.451 1240.49L706.953 1206.34Z" fill="#AD8E37"/>
<path d="M754.198 1207.82V1242H746.971V1207.82H754.198Z" fill="#AD8E37"/>
<path d="M757.309 1213.86L757.094 1207.9L785.149 1206.89L785.363 1212.85L774.905 1213.22L775.923 1241.43L768.784 1241.69L767.767 1213.48L757.309 1213.86Z" fill="#AD8E37"/>
<path d="M788.353 1206.6L797.202 1205.55L809.275 1227.23L809.673 1227.19L816.294 1203.26L825.143 1202.21L829.201 1236.15L822.24 1236.98L819.599 1214.89L819.318 1214.92L813.155 1237.9L808.416 1238.46L797.001 1217.51L796.72 1217.54L799.371 1239.71L792.41 1240.55L788.353 1206.6Z" fill="#AD8E37"/>
<path d="M834.82 1235.17L828.203 1201.63L850.799 1197.17L851.953 1203.02L836.446 1206.08L838.023 1214.07L852.367 1211.24L853.521 1217.09L839.176 1219.92L840.756 1227.92L856.329 1224.85L857.482 1230.7L834.82 1235.17Z" fill="#AD8E37"/>
<path d="M881.491 1189.3L889.832 1222.45L883.778 1223.97L864.107 1206.74L863.864 1206.8L869.114 1227.66L862.105 1229.42L853.765 1196.28L859.915 1194.73L879.469 1211.98L879.76 1211.9L874.515 1191.06L881.491 1189.3Z" fill="#AD8E37"/>
<path d="M886.249 1193.72L884.35 1188.07L910.958 1179.12L912.857 1184.77L902.939 1188.1L911.936 1214.85L905.165 1217.13L896.168 1190.38L886.249 1193.72Z" fill="#AD8E37"/>
<path d="M961.829 1193.7L951.722 1192.07L945.746 1200.55L944.391 1190.42L934.594 1187.55L943.863 1182.91L943.784 1172.67L950.868 1179.93L960.616 1176.46L955.725 1185.59L961.829 1193.7Z" fill="#AD8E37"/>
<path d="M998.144 1176.64L987.527 1182.49L971.05 1152.54L981.754 1146.65C984.766 1144.99 987.689 1144.16 990.523 1144.17C993.351 1144.16 995.965 1144.95 998.363 1146.54C1000.77 1148.12 1002.83 1150.47 1004.54 1153.58C1006.26 1156.7 1007.14 1159.7 1007.2 1162.6C1007.26 1165.48 1006.53 1168.13 1004.99 1170.53C1003.47 1172.93 1001.19 1174.97 998.144 1176.64ZM990.874 1173.58L994.895 1171.36C996.767 1170.33 998.159 1169.14 999.072 1167.77C999.988 1166.39 1000.38 1164.82 1000.25 1163.06C1000.13 1161.29 999.452 1159.29 998.224 1157.06C997.006 1154.84 995.685 1153.21 994.259 1152.17C992.844 1151.12 991.315 1150.61 989.673 1150.65C988.031 1150.69 986.274 1151.23 984.403 1152.26L980.367 1154.48L990.874 1173.58Z" fill="#AD8E37"/>
<path d="M1005.45 1133.05L1023.38 1162.15L1017.23 1165.94L999.297 1136.84L1005.45 1133.05Z" fill="#AD8E37"/>
<path d="M1032.61 1127.38C1031.78 1126.31 1030.74 1125.73 1029.48 1125.65C1028.23 1125.56 1026.87 1125.98 1025.4 1126.91C1024.4 1127.54 1023.65 1128.21 1023.14 1128.93C1022.63 1129.64 1022.35 1130.35 1022.29 1131.07C1022.24 1131.79 1022.41 1132.45 1022.81 1133.07C1023.11 1133.6 1023.51 1133.99 1023.99 1134.22C1024.48 1134.45 1025.02 1134.58 1025.62 1134.59C1026.22 1134.59 1026.86 1134.52 1027.54 1134.38C1028.22 1134.23 1028.92 1134.02 1029.64 1133.76L1032.63 1132.74C1034.07 1132.22 1035.46 1131.87 1036.81 1131.67C1038.16 1131.48 1039.44 1131.48 1040.65 1131.67C1041.85 1131.87 1042.96 1132.3 1043.97 1132.97C1045 1133.62 1045.89 1134.55 1046.66 1135.75C1047.77 1137.52 1048.29 1139.34 1048.22 1141.2C1048.15 1143.05 1047.51 1144.86 1046.29 1146.63C1045.07 1148.39 1043.28 1150.02 1040.93 1151.5C1038.6 1152.98 1036.35 1153.91 1034.16 1154.29C1031.99 1154.66 1029.98 1154.46 1028.12 1153.67C1026.27 1152.87 1024.66 1151.44 1023.3 1149.39L1029.21 1145.65C1029.89 1146.58 1030.68 1147.21 1031.58 1147.55C1032.48 1147.88 1033.45 1147.94 1034.48 1147.74C1035.52 1147.53 1036.57 1147.1 1037.62 1146.43C1038.66 1145.78 1039.46 1145.06 1040.03 1144.27C1040.61 1143.48 1040.94 1142.69 1041.03 1141.88C1041.11 1141.08 1040.93 1140.33 1040.49 1139.64C1040.08 1138.99 1039.54 1138.56 1038.88 1138.37C1038.22 1138.16 1037.43 1138.14 1036.5 1138.29C1035.58 1138.44 1034.51 1138.72 1033.3 1139.13L1029.65 1140.33C1026.84 1141.28 1024.34 1141.57 1022.13 1141.21C1019.92 1140.84 1018.15 1139.59 1016.8 1137.45C1015.69 1135.7 1015.19 1133.88 1015.3 1131.98C1015.42 1130.07 1016.08 1128.23 1017.27 1126.45C1018.46 1124.67 1020.11 1123.11 1022.21 1121.78C1024.35 1120.42 1026.46 1119.6 1028.52 1119.32C1030.59 1119.04 1032.49 1119.27 1034.21 1120.01C1035.93 1120.75 1037.35 1121.97 1038.47 1123.67L1032.61 1127.38Z" fill="#AD8E37"/>
<path d="M1065.86 1103.82L1060.05 1108.25C1059.37 1107.58 1058.64 1107.08 1057.87 1106.74C1057.09 1106.4 1056.29 1106.21 1055.46 1106.19C1054.63 1106.16 1053.79 1106.3 1052.95 1106.59C1052.12 1106.87 1051.31 1107.31 1050.53 1107.9C1049.12 1108.98 1048.17 1110.26 1047.65 1111.75C1047.13 1113.24 1047.09 1114.87 1047.53 1116.63C1047.96 1118.39 1048.89 1120.21 1050.33 1122.1C1051.8 1124.03 1053.33 1125.44 1054.91 1126.32C1056.5 1127.2 1058.07 1127.57 1059.63 1127.45C1061.19 1127.33 1062.65 1126.74 1064.02 1125.7C1064.79 1125.11 1065.43 1124.47 1065.93 1123.76C1066.44 1123.06 1066.8 1122.31 1067.02 1121.53C1067.23 1120.74 1067.29 1119.93 1067.19 1119.11C1067.1 1118.28 1066.85 1117.45 1066.43 1116.63L1072.27 1112.22C1073.07 1113.59 1073.61 1115.08 1073.89 1116.69C1074.17 1118.3 1074.16 1119.94 1073.84 1121.62C1073.53 1123.28 1072.88 1124.91 1071.9 1126.5C1070.91 1128.07 1069.55 1129.53 1067.81 1130.85C1065.38 1132.7 1062.79 1133.8 1060.05 1134.16C1057.31 1134.52 1054.59 1134.07 1051.9 1132.84C1049.22 1131.59 1046.75 1129.49 1044.5 1126.54C1042.24 1123.57 1040.88 1120.62 1040.41 1117.69C1039.94 1114.76 1040.24 1112.03 1041.33 1109.48C1042.4 1106.93 1044.14 1104.74 1046.53 1102.92C1048.1 1101.72 1049.73 1100.83 1051.41 1100.25C1053.1 1099.66 1054.8 1099.39 1056.49 1099.44C1058.17 1099.49 1059.81 1099.87 1061.39 1100.6C1062.99 1101.31 1064.48 1102.39 1065.86 1103.82Z" fill="#AD8E37"/>
<path d="M1064.4 1088.57L1086.29 1114.83L1080.74 1119.46L1058.85 1093.2L1064.4 1088.57Z" fill="#AD8E37"/>
<path d="M1092.75 1109.42L1069.93 1083.97L1079.97 1074.96C1081.9 1073.23 1083.88 1072.13 1085.9 1071.65C1087.91 1071.16 1089.85 1071.24 1091.73 1071.91C1093.61 1072.55 1095.31 1073.72 1096.83 1075.41C1098.34 1077.1 1099.31 1078.92 1099.74 1080.86C1100.17 1082.81 1100.02 1084.76 1099.28 1086.72C1098.55 1088.68 1097.21 1090.53 1095.26 1092.28L1088.86 1098.02L1084.99 1093.71L1090.52 1088.75C1091.56 1087.82 1092.25 1086.88 1092.6 1085.92C1092.95 1084.95 1093.01 1084 1092.77 1083.06C1092.53 1082.11 1092.03 1081.22 1091.28 1080.38C1090.53 1079.53 1089.7 1078.95 1088.79 1078.62C1087.89 1078.28 1086.94 1078.24 1085.95 1078.5C1084.95 1078.76 1083.93 1079.35 1082.89 1080.29L1079.26 1083.54L1098.13 1104.59L1092.75 1109.42Z" fill="#AD8E37"/>
<path d="M1115.6 1087.18L1090.74 1063.71L1095.71 1058.45L1116.23 1077.83L1126.29 1067.18L1130.62 1071.27L1115.6 1087.18Z" fill="#AD8E37"/>
<path d="M1111.55 1040.77L1137.49 1063.02L1132.79 1068.51L1106.84 1046.25L1111.55 1040.77Z" fill="#AD8E37"/>
<path d="M1134.2 1013.18L1161.2 1034.13L1157.38 1039.06L1131.26 1037.63L1131.11 1037.82L1148.11 1051.01L1143.68 1056.72L1116.67 1035.77L1120.56 1030.76L1146.59 1032.28L1146.77 1032.04L1129.79 1018.86L1134.2 1013.18Z" fill="#AD8E37"/>
<path d="M1164.78 1029.03L1136.55 1009.75L1149.54 990.735L1154.46 994.096L1145.55 1007.15L1152.27 1011.74L1160.52 999.668L1165.44 1003.03L1157.19 1015.1L1163.93 1019.7L1172.88 1006.6L1177.8 1009.96L1164.78 1029.03Z" fill="#AD8E37"/>
<path d="M981.176 1220.6C969.523 1234.46 937.755 1242.01 929.818 1262.31C929.818 1276.83 929.719 1291.36 929.719 1306.04C929.213 1308.68 927.803 1311.22 926.959 1312.21C924.257 1306.6 924.955 1297.47 917.693 1298.62C912.627 1299.12 908.244 1310.16 908.92 1322.71C910.946 1325.51 919.679 1320.26 920.354 1324.05C920.523 1332.8 912.307 1340.53 902.512 1346.3C900.824 1346.3 901.121 1347.64 905.174 1348.14C911.253 1345.33 918.401 1344.2 924.988 1342.55C926.845 1337.1 928.296 1333.31 927.452 1321.26C930.661 1318.46 932.085 1314.52 932.085 1309.89C935.294 1314.85 941.496 1318.59 948.251 1318.76C963.281 1317.77 971.184 1293.25 980.978 1284.18C980.641 1282.53 980.823 1282.68 980.485 1281.19C974.406 1280.37 968.834 1275.01 961.066 1275.51C955.831 1275.34 946.771 1285.99 944.407 1300.84C941.029 1303.98 934.789 1297.19 934.451 1292.07C934.282 1281.02 935.126 1278.82 934.451 1268.09C940.868 1255.22 951.612 1253.44 965.798 1244.2C976.944 1237.77 981.682 1226.21 981.176 1220.6ZM965.305 1281.96C970.661 1281.84 972.106 1283.74 971.515 1285.33C967.8 1295.07 958.257 1300.62 947.956 1300.46C949.813 1293.03 956.662 1282.65 962.742 1282.15C963.671 1282.05 964.54 1281.98 965.305 1281.96Z" fill="#0A481E"/>
<path d="M882.8 1292.54C886.854 1293.2 886.516 1302.94 894.622 1301.78C897.493 1307.06 893.608 1312.51 891.92 1317.79C888.373 1319.6 882.8 1316.63 878.578 1314.82C872.161 1318.94 874.357 1331.32 866.419 1333.8C862.029 1333.63 858.989 1330 854.598 1330C840.243 1348.81 807.65 1364.82 779.617 1364.82C762.222 1364.65 755.636 1358.88 756.987 1347.82C757.325 1341.88 758.169 1336.11 760.196 1331.15C761.378 1331.15 762.391 1330.99 763.573 1330.82C760.534 1343.04 765.431 1346.83 775.226 1346.83C808.663 1346.17 831.968 1340.4 851.558 1324.55C854.767 1324.22 860.171 1327.52 862.535 1325.54C866.419 1321.91 865.406 1316.47 868.277 1312.01C868.615 1311.35 872.668 1309.37 873.174 1309.21C874.694 1301.95 876.045 1296.17 882.8 1292.54Z" fill="#0A481E"/>
<path d="M810.537 1310.2C812.902 1307.39 818.644 1317.96 823.034 1321.59C824.554 1323.24 816.955 1327.2 813.577 1330.17C812.395 1330.99 805.471 1322.08 801.418 1317.96C800.743 1317.13 807.835 1313 810.537 1310.2Z" fill="#0A481E"/>
<path d="M793.747 1312.36C796.111 1309.55 801.853 1320.11 806.412 1323.91C807.763 1325.39 800.164 1329.35 796.786 1332.32C795.773 1333.15 788.849 1324.24 784.796 1320.28C784.121 1319.29 791.045 1315.16 793.747 1312.36Z" fill="#0A481E"/>
<path d="M685.743 1275.71C689.12 1273.89 690.303 1285.94 693.174 1290.89C693.849 1292.87 685.405 1293.86 681.014 1295.34C679.663 1295.84 676.624 1284.95 674.428 1279.83C674.09 1278.68 682.197 1277.36 685.743 1275.71Z" fill="#0A481E"/>
<path d="M547.52 1318.62C550.728 1316.8 552.079 1328.85 554.781 1333.8C555.626 1335.78 547.013 1336.77 542.791 1338.26C541.44 1338.75 538.4 1327.86 536.036 1322.74C535.867 1321.59 543.804 1320.27 547.52 1318.62Z" fill="#0A481E"/>
<path d="M620.679 1353.79C623.887 1352.14 625.238 1364.02 627.94 1369.13C628.785 1371.11 620.172 1371.94 615.95 1373.59C614.599 1373.92 611.559 1363.19 609.364 1357.91C609.026 1356.76 616.963 1355.6 620.679 1353.79Z" fill="#0A481E"/>
<path d="M682.745 1329.84C685.954 1328.02 687.305 1340.07 690.007 1345.02C690.851 1347 682.239 1347.99 678.017 1349.48C676.666 1349.97 673.626 1339.08 671.43 1333.8C671.093 1332.81 679.03 1331.49 682.745 1329.84Z" fill="#0A481E"/>
<path d="M700.229 1336.77C703.437 1335.12 704.788 1347 707.49 1352.11C708.335 1354.09 699.722 1354.92 695.5 1356.57C694.149 1356.9 691.109 1346.17 688.745 1340.89C688.576 1339.74 696.513 1338.58 700.229 1336.77Z" fill="#0A481E"/>
<path d="M684.651 1350.96C688.029 1349.15 689.211 1361.19 692.082 1366.14C692.926 1368.12 684.313 1369.11 679.923 1370.6C678.572 1371.09 675.532 1360.2 673.336 1355.09C672.999 1353.93 681.105 1352.61 684.651 1350.96Z" fill="#0A481E"/>
<path d="M699.184 1311.36C695.469 1315.32 691.416 1317.47 684.661 1315.49C681.115 1312.68 683.141 1307.4 679.932 1305.75C669.124 1303.61 641.597 1308.06 639.74 1318.46C645.144 1321.26 651.899 1324.07 658.316 1326.05C654.094 1328.03 645.144 1329.84 638.051 1328.36C629.1 1328.85 627.749 1320.44 633.491 1310.37C639.74 1296.01 648.184 1282.32 653.25 1267.8C649.872 1270.77 647.677 1273.57 642.78 1273.24C634.336 1294.03 626.23 1309.05 620.657 1325.06C618.63 1330.5 621.332 1341.72 630.958 1344.53C647.677 1347.83 661.356 1332.48 672.333 1328.85C672.84 1326.87 672.671 1327.37 673.177 1325.39C667.604 1322.42 655.276 1316.81 649.872 1313.84C654.939 1309.55 668.449 1311.03 675.542 1313.34C679.595 1315.16 678.413 1321.43 683.31 1322.58C689.896 1323.57 697.665 1319.78 699.691 1314.33C699.86 1313.01 699.691 1312.02 699.184 1311.36Z" fill="#0A481E"/>
<path d="M615.272 1304.44C614.766 1306.26 614.766 1305.43 614.259 1307.25C596.696 1317.98 575.08 1324.74 535.225 1303.12C511.413 1290.09 525.43 1276.06 531.847 1268.14C538.096 1290.91 569.844 1310.55 615.272 1304.44Z" fill="#0A481E"/>
<path d="M754.822 305.717C769.849 312.14 780.412 326.771 780.412 343.823C780.412 366.798 761.321 385.453 737.808 385.453C726.052 385.453 715.431 380.745 707.727 373.217C715.643 388.023 731.507 398.155 749.786 398.155C775.978 398.155 797.222 377.396 797.222 351.803C797.222 327.877 778.639 308.181 754.822 305.717Z" fill="#AD8E37"/>
<path d="M737.482 363.645L725.504 348.764L706.629 353.038L717.411 337.308L707.418 321.088L726.06 326.247L738.759 311.949L739.498 330.867L757.339 338.25L739.154 344.783L737.482 363.645Z" fill="#AD8E37"/>
<path d="M484.139 148.997L501.678 141.786L538.783 179.362L539.572 179.038L539.513 126.229L557.051 119.018L584.709 186.281L570.914 191.953L552.913 148.172L552.355 148.402L552.814 199.011L543.421 202.873L508.08 166.415L507.522 166.644L525.591 210.589L511.796 216.261L484.139 148.997Z" fill="#0A481E"/>
<path d="M610.806 178.606L594.943 183.065L599.431 106.257L618.507 100.895L662.324 164.123L646.462 168.583L613.74 119.498L613.193 119.652L610.806 178.606ZM602.078 151.365L639.546 140.832L642.795 152.387L605.326 162.92L602.078 151.365Z" fill="#0A481E"/>
<path d="M725.534 84.4264L732.227 156.845L719.002 158.067L683.284 115.399L682.753 115.448L686.966 161.028L671.654 162.443L664.962 90.0245L678.399 88.7827L713.867 131.438L714.503 131.379L710.294 85.8349L725.534 84.4264Z" fill="#0A481E"/>
<path d="M757.36 158.42L740.898 157.708L769.124 86.1337L788.921 86.9901L810.825 160.733L794.363 160.021L778.588 103.178L778.02 103.153L757.36 158.42ZM757.566 129.816L796.45 131.498L795.932 143.489L757.048 141.807L757.566 129.816Z" fill="#0A481E"/>
<path d="M870.913 124.68C870.748 122.889 870.348 121.258 869.713 119.787C869.082 118.293 868.213 116.971 867.107 115.82C866.028 114.65 864.722 113.666 863.187 112.868C861.675 112.073 859.943 111.49 857.989 111.118C854.338 110.422 850.956 110.717 847.843 112.003C844.753 113.294 842.11 115.526 839.915 118.698C837.724 121.848 836.154 125.911 835.206 130.887C834.257 135.864 834.206 140.24 835.053 144.017C835.899 147.793 837.531 150.864 839.948 153.229C842.37 155.57 845.465 157.1 849.232 157.818C852.65 158.47 855.684 158.421 858.333 157.673C861.01 156.906 863.201 155.528 864.905 153.54C866.633 151.555 867.788 149.04 868.368 145.993L871.352 147.032L852.933 143.521L855.101 132.149L884.996 137.848L883.28 146.848C882.084 153.127 879.729 158.269 876.218 162.275C872.712 166.258 868.4 169.027 863.283 170.583C858.171 172.115 852.615 172.309 846.615 171.165C839.918 169.888 834.316 167.29 829.809 163.37C825.307 159.427 822.158 154.453 820.362 148.447C818.595 142.422 818.429 135.642 819.865 128.108C820.969 122.317 822.79 117.314 825.329 113.098C827.896 108.864 831.004 105.456 834.653 102.873C838.302 100.291 842.308 98.5605 846.669 97.6807C851.03 96.801 855.571 96.811 860.292 97.7109C864.338 98.4822 867.993 99.7934 871.255 101.644C874.522 103.472 877.3 105.713 879.59 108.367C881.903 111.025 883.638 113.995 884.796 117.276C885.959 120.534 886.447 123.977 886.262 127.605L870.913 124.68Z" fill="#0A481E"/>
<path d="M899.282 178.912L922.15 109.873L968.67 125.282L964.683 137.317L932.76 126.743L927.311 143.193L956.841 152.975L952.855 165.009L923.325 155.228L917.865 171.712L949.923 182.331L945.937 194.366L899.282 178.912Z" fill="#0A481E"/>
<path d="M1000.44 135.193L1017.15 144.15L1011.72 196.679L1012.47 197.082L1053.21 163.473L1069.92 172.43L1035.57 236.533L1022.42 229.488L1044.78 187.765L1044.25 187.479L1005.47 220L996.519 215.202L1002.21 164.746L1001.67 164.461L979.23 206.34L966.084 199.295L1000.44 135.193Z" fill="#0A481E"/>
<path d="M1049.84 244.79L1092.7 186.032L1132.29 214.911L1124.82 225.153L1097.65 205.336L1087.44 219.337L1112.57 237.668L1105.1 247.911L1079.97 229.579L1069.73 243.609L1097.02 263.51L1089.55 273.752L1049.84 244.79Z" fill="#0A481E"/>
<path d="M1194.66 270.485L1144.62 323.26L1134.99 314.122L1143.52 259.135L1143.14 258.768L1111.64 291.984L1100.48 281.405L1150.52 228.63L1160.31 237.914L1151.62 292.705L1152.09 293.144L1183.56 259.954L1194.66 270.485Z" fill="#0A481E"/>
<path d="M1192.7 286.246L1202.48 278.178L1240.49 324.252L1230.71 332.32L1216.54 315.145L1170.22 353.36L1160.55 341.637L1206.87 303.421L1192.7 286.246Z" fill="#0A481E"/>
<path d="M1280.71 408.578C1282.85 406.65 1283.92 404.349 1283.92 401.673C1283.92 398.998 1282.82 396.174 1280.63 393.2C1279.14 391.18 1277.6 389.685 1276 388.714C1274.42 387.73 1272.87 387.231 1271.33 387.218C1269.8 387.224 1268.41 387.69 1267.15 388.617C1266.08 389.351 1265.32 390.245 1264.89 391.297C1264.48 392.368 1264.3 393.543 1264.36 394.822C1264.44 396.087 1264.68 397.436 1265.09 398.87C1265.52 400.289 1266.06 401.743 1266.71 403.23L1269.33 409.418C1270.64 412.393 1271.61 415.299 1272.23 418.136C1272.85 420.973 1273.04 423.685 1272.8 426.273C1272.56 428.861 1271.81 431.279 1270.55 433.527C1269.31 435.794 1267.48 437.836 1265.05 439.652C1261.46 442.273 1257.67 443.647 1253.71 443.774C1249.78 443.906 1245.84 442.809 1241.89 440.483C1237.98 438.163 1234.26 434.62 1230.75 429.855C1227.27 425.128 1224.96 420.477 1223.83 415.903C1222.71 411.348 1222.84 407.042 1224.24 402.987C1225.66 398.937 1228.45 395.312 1232.59 392.114L1241.42 404.093C1239.55 405.673 1238.33 407.443 1237.74 409.403C1237.19 411.368 1237.2 413.435 1237.77 415.603C1238.37 417.777 1239.45 419.931 1241.03 422.066C1242.57 424.163 1244.22 425.759 1245.96 426.853C1247.73 427.967 1249.47 428.552 1251.18 428.61C1252.9 428.667 1254.47 428.176 1255.88 427.137C1257.19 426.168 1258.01 424.963 1258.33 423.522C1258.66 422.099 1258.6 420.413 1258.13 418.463C1257.68 416.532 1256.92 414.309 1255.87 411.795L1252.77 404.24C1250.33 398.419 1249.34 393.138 1249.79 388.397C1250.24 383.657 1252.63 379.702 1256.97 376.534C1260.5 373.903 1264.3 372.565 1268.35 372.519C1272.42 372.492 1276.43 373.609 1280.39 375.868C1284.35 378.127 1287.9 381.392 1291.04 385.661C1294.24 390.007 1296.29 394.348 1297.2 398.683C1298.11 403.038 1297.91 407.097 1296.59 410.859C1295.28 414.622 1292.9 417.816 1289.45 420.443L1280.71 408.578Z" fill="#0A481E"/>
<path d="M1251.12 458.34L1316.18 425.829L1338.09 469.665L1326.75 475.332L1311.71 445.25L1296.21 452.997L1310.12 480.824L1298.78 486.491L1284.87 458.665L1269.34 466.427L1284.43 496.636L1273.09 502.304L1251.12 458.34Z" fill="#0A481E"/>
<path d="M1278.6 517.913L1347.31 494.091L1356.71 521.201C1358.51 526.391 1359.12 531.142 1358.53 535.454C1357.98 539.78 1356.35 543.491 1353.64 546.585C1350.96 549.695 1347.34 552.036 1342.8 553.61C1338.24 555.192 1333.97 555.569 1330 554.741C1326.06 553.904 1322.56 551.921 1319.52 548.79C1316.49 545.682 1314.06 541.488 1312.23 536.209L1305.94 518.058L1317.61 514.01L1323.09 529.813C1324.05 532.587 1325.23 534.759 1326.63 536.329C1328.02 537.9 1329.64 538.869 1331.47 539.236C1333.31 539.626 1335.36 539.429 1337.62 538.646C1339.9 537.855 1341.66 536.73 1342.91 535.27C1344.17 533.832 1344.87 532.046 1345.04 529.91C1345.23 527.789 1344.84 525.33 1343.87 522.534L1340.47 512.737L1283.64 532.441L1278.6 517.913ZM1322.73 544.181L1297.38 572.1L1291.82 556.062L1317.3 528.512L1322.73 544.181Z" fill="#0A481E"/>
<path d="M1371.57 573.955L1321.38 602.987L1321.52 603.646L1379.27 608.986L1382.93 625.634L1306.52 616.761L1302.26 597.408L1367.9 557.273L1371.57 573.955Z" fill="#0A481E"/>
<path d="M1385.28 655.723L1312.72 660.625L1311.68 645.284L1384.25 640.381L1385.28 655.723Z" fill="#0A481E"/>
<path d="M1359.67 733.203L1360.3 717.662C1362.33 717.46 1364.14 716.953 1365.73 716.142C1367.35 715.332 1368.75 714.263 1369.92 712.937C1371.08 711.61 1372 710.06 1372.66 708.286C1373.33 706.536 1373.7 704.621 1373.79 702.539C1373.94 698.778 1373.14 695.464 1371.39 692.596C1369.66 689.729 1367.05 687.455 1363.56 685.772C1360.1 684.091 1355.85 683.147 1350.81 682.941C1345.63 682.73 1341.25 683.32 1337.66 684.714C1334.07 686.131 1331.32 688.199 1329.41 690.916C1327.5 693.634 1326.47 696.826 1326.32 700.493C1326.23 702.551 1326.43 704.466 1326.9 706.239C1327.37 708.035 1328.1 709.64 1329.08 711.055C1330.09 712.47 1331.34 713.658 1332.81 714.619C1334.29 715.604 1335.99 716.313 1337.92 716.747L1337.21 732.285C1333.89 731.747 1330.71 730.61 1327.68 728.875C1324.67 727.164 1322 724.911 1319.68 722.115C1317.37 719.343 1315.59 716.071 1314.32 712.3C1313.08 708.553 1312.55 704.349 1312.74 699.689C1313 693.208 1314.71 687.472 1317.85 682.483C1320.99 677.517 1325.4 673.669 1331.08 670.939C1336.76 668.233 1343.55 667.042 1351.45 667.365C1359.37 667.689 1366.05 669.454 1371.49 672.662C1376.93 675.869 1381 680.087 1383.7 685.316C1386.42 690.545 1387.65 696.353 1387.39 702.74C1387.22 706.95 1386.47 710.829 1385.14 714.376C1383.81 717.947 1381.95 721.082 1379.57 723.78C1377.21 726.479 1374.36 728.638 1371.02 730.255C1367.68 731.895 1363.9 732.878 1359.67 733.203Z" fill="#0A481E"/>
<path d="M1314.38 741.627L1386.55 750.598L1380.51 799.23L1367.92 797.666L1372.07 764.294L1354.88 762.156L1351.04 793.026L1338.46 791.462L1342.3 760.592L1325.06 758.45L1320.9 791.963L1308.32 790.4L1314.38 741.627Z" fill="#0A481E"/>
<path d="M194.235 769.267L122.372 780.445L117.962 752.093C117.114 746.642 117.433 741.837 118.918 737.676C120.38 733.52 122.791 730.15 126.15 727.567C129.483 724.964 133.536 723.292 138.308 722.549C143.08 721.807 147.451 722.181 151.42 723.672C155.39 725.163 158.696 727.704 161.339 731.294C163.978 734.86 165.727 739.404 166.586 744.925L169.397 762.996L157.221 764.89L154.792 749.275C154.337 746.351 153.459 744.02 152.159 742.281C150.831 740.523 149.194 739.316 147.247 738.661C145.273 737.985 143.105 737.832 140.742 738.199C138.356 738.57 136.349 739.374 134.72 740.609C133.064 741.825 131.894 743.469 131.21 745.54C130.503 747.614 130.378 750.126 130.837 753.073L132.43 763.319L191.872 754.073L194.235 769.267Z" fill="#0A481E"/>
<path d="M188.995 703.389L116.273 704.267L115.926 675.576C115.86 670.084 116.786 665.385 118.704 661.479C120.598 657.55 123.32 654.545 126.87 652.466C130.396 650.364 134.562 649.284 139.367 649.226C144.196 649.168 148.364 650.159 151.869 652.2C155.35 654.242 158.038 657.228 159.932 661.159C161.826 665.066 162.806 669.813 162.874 675.4L163.106 694.61L150.749 694.759L150.547 678.035C150.511 675.099 150.079 672.666 149.251 670.734C148.423 668.803 147.198 667.374 145.577 666.446C143.956 665.495 141.949 665.034 139.558 665.063C137.144 665.092 135.114 665.602 133.468 666.592C131.823 667.559 130.586 669.03 129.757 671.005C128.905 672.957 128.496 675.412 128.532 678.371L128.657 688.74L188.809 688.014L188.995 703.389ZM155.427 664.516L188.303 646.043L188.507 663.016L155.627 681.099L155.427 664.516Z" fill="#0A481E"/>
<path d="M168.998 560.398C176.847 561.535 183.309 563.991 188.383 567.765C193.461 571.515 197.083 576.155 199.248 581.684C201.392 587.185 202.004 593.111 201.084 599.46C200.157 605.857 197.872 611.386 194.23 616.049C190.587 620.712 185.799 624.121 179.866 626.275C173.932 628.429 167.052 628.938 159.227 627.804C151.378 626.666 144.914 624.222 139.837 620.472C134.759 616.721 131.147 612.095 129.002 606.593C126.834 601.088 126.214 595.137 127.141 588.741C128.061 582.392 130.343 576.886 133.985 572.223C137.607 567.533 142.385 564.111 148.319 561.957C154.257 559.78 161.15 559.26 168.998 560.398ZM166.762 575.826C161.678 575.089 157.28 575.229 153.568 576.246C149.86 577.239 146.905 578.976 144.703 581.455C142.502 583.935 141.134 587.014 140.601 590.692C140.068 594.371 140.505 597.711 141.911 600.714C143.318 603.717 145.656 606.233 148.927 608.262C152.2 610.267 156.379 611.639 161.463 612.376C166.547 613.113 170.944 612.985 174.652 611.991C178.364 610.974 181.32 609.226 183.522 606.746C185.723 604.267 187.091 601.188 187.624 597.509C188.157 593.831 187.72 590.49 186.314 587.487C184.907 584.485 182.567 581.98 179.293 579.975C176.023 577.946 171.846 576.563 166.762 575.826Z" fill="#0A481E"/>
<path d="M142.509 523.415L200.493 523.601L200.7 522.959L153.492 489.271L158.711 473.045L220.268 519.181L214.2 538.045L137.279 539.676L142.509 523.415Z" fill="#0A481E"/>
<path d="M172.315 443.055L238.598 472.984L232.27 486.998L165.987 457.069L172.315 443.055Z" fill="#0A481E"/>
<path d="M213.077 366.709L276.352 402.563L269.805 414.118L214.381 419.08L214.118 419.544L253.944 442.11L246.363 455.488L183.088 419.635L189.74 407.894L245.011 403.13L245.326 402.574L205.531 380.026L213.077 366.709Z" fill="#0A481E"/>
<path d="M284.966 311.942L275.415 324.218C273.653 323.207 271.886 322.567 270.115 322.299C268.325 322.016 266.569 322.075 264.848 322.475C263.126 322.876 261.48 323.604 259.908 324.661C258.35 325.699 256.932 327.04 255.653 328.684C253.341 331.655 252.066 334.817 251.826 338.171C251.568 341.509 252.368 344.876 254.226 348.271C256.065 351.652 258.975 354.891 262.955 357.987C267.047 361.171 270.957 363.239 274.686 364.19C278.43 365.123 281.869 365.039 285.005 363.939C288.14 362.84 290.835 360.841 293.088 357.945C294.353 356.32 295.308 354.648 295.954 352.931C296.615 351.196 296.956 349.466 296.977 347.743C296.979 346.005 296.658 344.316 296.015 342.675C295.386 341.016 294.415 339.45 293.101 337.978L302.708 325.745C305.095 328.113 307.019 330.884 308.478 334.059C309.933 337.201 310.794 340.586 311.061 344.213C311.324 347.807 310.875 351.507 309.714 355.313C308.548 359.086 306.534 362.812 303.67 366.493C299.687 371.613 294.966 375.289 289.509 377.523C284.067 379.737 278.241 380.304 272.033 379.224C265.84 378.124 259.622 375.147 253.382 370.291C247.122 365.421 242.713 360.101 240.154 354.33C237.594 348.559 236.736 342.762 237.578 336.938C238.401 331.099 240.775 325.658 244.7 320.613C247.288 317.287 250.154 314.567 253.298 312.454C256.456 310.322 259.79 308.851 263.299 308.042C266.79 307.218 270.362 307.118 274.016 307.742C277.685 308.347 281.335 309.747 284.966 311.942Z" fill="#0A481E"/>
<path d="M288.343 271.297L338.877 323.599L327.819 334.283L277.285 281.981L288.343 271.297Z" fill="#0A481E"/>
<path d="M361.529 303.754L348.336 313.625L324.869 240.353L340.735 228.482L404.379 271.694L391.185 281.565L342.986 247.554L342.531 247.894L361.529 303.754ZM343.579 281.482L374.742 258.166L381.933 267.776L350.77 291.093L343.579 281.482Z" fill="#0A481E"/>
<path d="M416.387 261.07L380.745 197.675L394.149 190.139L423.577 242.484L450.756 227.203L456.969 238.254L416.387 261.07Z" fill="#0A481E"/>
</svg>
