<svg width="1409" height="1306" viewBox="0 0 1409 1306" fill="none" xmlns="http://www.w3.org/2000/svg">
<circle cx="697" cy="653" r="645.5" fill="#D9D9D9" stroke="#001F5F" stroke-width="15"/>
<circle cx="697" cy="653" r="485" fill="#001F5F" stroke="#AD8E37" stroke-width="30"/>
<path d="M303 948.373C406.817 948.373 452.575 927 524.217 927C602.777 927 630.422 945.767 690.565 945.767C763.753 945.767 766.265 927.521 844.719 927.521C916.484 927.521 972.991 950.852 1079 949.416" stroke="#AD8E37" stroke-width="15.24" stroke-linecap="round" stroke-linejoin="round"/>
<path d="M333.75 984.639C429.46 984.639 471.645 961.38 537.692 961.38C610.118 961.38 635.604 981.803 691.05 981.803C758.523 981.803 760.84 961.948 833.167 961.948C899.328 961.948 951.423 987.337 1049.15 985.774" stroke="#AD8E37" stroke-width="15.24" stroke-linecap="round" stroke-linejoin="round"/>
<path d="M373.545 1018.69C448.931 1015.78 486.558 996.421 543.07 996.421C610.069 996.421 633.646 1016.29 684.938 1016.29C747.356 1016.29 749.499 996.973 816.408 996.973C875.627 996.973 922.665 1020.1 1007.55 1020.22" stroke="#AD8E37" stroke-width="15.24" stroke-linecap="round" stroke-linejoin="round"/>
<path d="M425.098 1052.88C485.837 1048.46 518.237 1029.48 565.83 1029.48C624.898 1029.48 645.684 1050.82 690.904 1050.82C745.933 1050.82 747.822 1030.07 806.81 1030.07C855.024 1030.07 894.079 1051.26 958.711 1054.6" stroke="#AD8E37" stroke-width="15.24" stroke-linecap="round" stroke-linejoin="round"/>
<path d="M496.547 1085.25C535.204 1079.34 559.32 1065.84 592.919 1065.84C640.084 1065.84 656.68 1085.27 692.787 1085.27C736.726 1085.27 738.234 1066.38 785.335 1066.38C819.264 1066.38 847.513 1081.36 889.069 1087" stroke="#AD8E37" stroke-width="15.24" stroke-linecap="round" stroke-linejoin="round"/>
<circle cx="697" cy="653" r="485" stroke="#AD8E37" stroke-width="30"/>
<path d="M379.263 168.381L366.449 177.197C365.074 175.7 363.583 174.556 361.976 173.765C360.355 172.955 358.664 172.48 356.902 172.342C355.14 172.204 353.35 172.4 351.532 172.933C349.734 173.451 347.977 174.301 346.26 175.482C343.159 177.615 340.988 180.244 339.746 183.368C338.491 186.473 338.236 189.924 338.981 193.722C339.713 197.5 341.507 201.467 344.365 205.621C347.304 209.893 350.407 213.046 353.674 215.08C356.96 217.1 360.264 218.06 363.586 217.959C366.907 217.858 370.079 216.768 373.102 214.688C374.799 213.52 376.215 212.216 377.35 210.774C378.504 209.32 379.352 207.774 379.892 206.137C380.42 204.481 380.625 202.774 380.507 201.016C380.409 199.245 379.956 197.458 379.149 195.658L392.003 186.901C393.564 189.879 394.56 193.102 394.991 196.569C395.429 200.004 395.227 203.491 394.385 207.029C393.55 210.535 392.004 213.926 389.746 217.203C387.495 220.447 384.449 223.391 380.606 226.034C375.262 229.711 369.651 231.789 363.775 232.268C357.917 232.735 352.193 231.515 346.602 228.608C341.03 225.689 336.003 220.972 331.522 214.457C327.027 207.923 324.431 201.519 323.736 195.245C323.04 188.97 323.973 183.185 326.536 177.887C329.085 172.57 332.993 168.101 338.259 164.478C341.731 162.089 345.285 160.363 348.92 159.299C352.575 158.221 356.198 157.827 359.787 158.116C363.364 158.385 366.799 159.37 370.094 161.068C373.409 162.753 376.465 165.191 379.263 168.381Z" fill="#001F5F"/>
<path d="M462.834 137.318C466.357 144.424 468.008 151.136 467.786 157.456C467.585 163.766 465.825 169.382 462.505 174.305C459.196 179.196 454.668 183.066 448.92 185.917C443.13 188.788 437.281 190.05 431.375 189.702C425.468 189.354 419.943 187.351 414.799 183.692C409.654 180.033 405.326 174.661 401.813 167.577C398.29 160.472 396.629 153.764 396.829 147.455C397.03 141.145 398.785 135.545 402.094 130.654C405.392 125.742 409.937 121.85 415.727 118.979C421.475 116.128 427.302 114.877 433.209 115.225C439.126 115.541 444.657 117.528 449.801 121.188C454.966 124.836 459.31 130.213 462.834 137.318ZM448.867 144.244C446.585 139.642 443.971 136.102 441.025 133.625C438.1 131.138 434.993 129.693 431.701 129.291C428.41 128.888 425.099 129.512 421.769 131.164C418.439 132.815 415.938 135.072 414.267 137.936C412.595 140.8 411.853 144.154 412.042 147.997C412.252 151.831 413.498 156.049 415.78 160.651C418.062 165.254 420.666 168.799 423.59 171.286C426.536 173.762 429.654 175.202 432.946 175.605C436.237 176.007 439.548 175.383 442.878 173.732C446.208 172.08 448.708 169.823 450.38 166.959C452.052 164.096 452.783 160.747 452.573 156.914C452.385 153.07 451.149 148.847 448.867 144.244Z" fill="#001F5F"/>
<path d="M471.292 94.3367L489.384 88.6547L523.133 129.272L523.946 129.017L528.413 76.3969L546.505 70.7149L568.297 140.101L554.067 144.57L539.883 99.4079L539.307 99.5888L535.428 150.051L525.739 153.094L493.652 113.741L493.076 113.922L507.313 159.253L493.084 163.722L471.292 94.3367Z" fill="#001F5F"/>
<path d="M574.227 64.4509L593.012 61.8598L619.529 107.528L620.374 107.412L633.537 56.2699L652.323 53.6788L662.26 125.724L647.485 127.762L641.017 80.8693L640.419 80.9518L628.194 130.064L618.133 131.452L593.045 87.307L592.447 87.3895L598.939 134.458L584.164 136.496L574.227 64.4509Z" fill="#001F5F"/>
<path d="M692.781 53.0349L694.536 125.741L679.164 126.112L677.409 53.4061L692.781 53.0349Z" fill="#001F5F"/>
<path d="M713.342 65.1054L714.193 52.4565L773.789 56.4698L772.937 69.1187L750.721 67.6226L746.687 127.537L731.522 126.515L735.557 66.6014L713.342 65.1054Z" fill="#001F5F"/>
<path d="M797.6 59.1004L816.134 63.1078L825.384 115.1L826.217 115.28L856.12 71.7529L874.654 75.7603L859.285 146.845L844.707 143.693L854.711 97.4256L854.121 97.298L825.796 139.241L815.869 137.095L807.439 87.0235L806.849 86.8959L796.808 133.337L782.23 130.185L797.6 59.1004Z" fill="#001F5F"/>
<path d="M874.857 152.449L900.089 84.2393L946.051 101.242L941.653 113.132L910.112 101.464L904.1 117.717L933.275 128.51L928.877 140.4L899.701 129.607L893.677 145.894L925.35 157.611L920.952 169.501L874.857 152.449Z" fill="#001F5F"/>
<path d="M1023.62 139.373L990.024 203.876L978.245 197.741L971.327 142.527L970.854 142.281L949.71 182.879L936.072 175.776L969.667 111.273L981.636 117.506L988.35 172.574L988.916 172.869L1010.04 132.303L1023.62 139.373Z" fill="#001F5F"/>
<path d="M1036.3 161.874L1043.56 151.485L1092.51 185.72L1085.24 196.108L1067 183.347L1032.58 232.554L1020.12 223.843L1054.54 174.635L1036.3 161.874Z" fill="#001F5F"/>
<path d="M379.415 1184.14L416.375 1121.51L429.618 1129.32L392.657 1191.95L379.415 1184.14Z" fill="#AD8E37"/>
<path d="M308.972 1134.7L352.589 1076.5L363.217 1084.47L361.084 1140.07L361.51 1140.39L388.962 1103.76L401.266 1112.98L357.649 1171.18L346.851 1163.09L349.162 1107.66L348.651 1107.28L321.22 1143.88L308.972 1134.7Z" fill="#AD8E37"/>
<path d="M299.613 1109.75L290.605 1118.68L248.575 1076.24L257.582 1067.31L273.25 1083.13L315.917 1040.88L326.612 1051.68L283.945 1093.93L299.613 1109.75Z" fill="#AD8E37"/>
<path d="M291.716 1014.66L233.607 1058.39L204.138 1019.24L214.267 1011.61L234.49 1038.48L248.336 1028.06L229.63 1003.21L239.759 995.585L258.465 1020.44L272.34 1010L252.033 983.015L262.162 975.392L291.716 1014.66Z" fill="#AD8E37"/>
<path d="M186.627 943.396C185.349 944.661 184.343 946.006 183.611 947.431C182.858 948.867 182.389 950.378 182.203 951.963C181.985 953.539 182.055 955.174 182.413 956.866C182.76 958.538 183.41 960.247 184.364 961.992C186.146 965.254 188.523 967.678 191.494 969.265C194.454 970.831 197.856 971.454 201.701 971.134C205.525 970.825 209.66 969.457 214.106 967.028C218.552 964.598 221.964 961.857 224.342 958.804C226.721 955.751 228.056 952.54 228.346 949.171C228.616 945.814 227.831 942.452 225.993 939.086C224.324 936.032 222.359 933.72 220.099 932.15C217.806 930.57 215.35 929.753 212.731 929.7C210.101 929.627 207.425 930.333 204.703 931.82L203.61 928.856L212.6 945.311L202.441 950.861L187.849 924.154L195.89 919.761C201.499 916.697 206.966 915.247 212.29 915.414C217.594 915.592 222.472 917.162 226.923 920.125C231.354 923.1 235.034 927.267 237.962 932.628C241.231 938.611 242.784 944.588 242.62 950.559C242.435 956.541 240.594 962.133 237.096 967.335C233.567 972.527 228.436 976.963 221.705 980.64C216.532 983.467 211.511 985.238 206.642 985.956C201.742 986.664 197.135 986.429 192.823 985.251C188.51 984.073 184.629 982.08 181.179 979.271C177.729 976.462 174.852 972.948 172.547 968.731C170.572 965.116 169.263 961.461 168.62 957.766C167.956 954.082 167.922 950.513 168.517 947.058C169.1 943.583 170.291 940.356 172.089 937.377C173.867 934.41 176.216 931.845 179.135 929.684L186.627 943.396Z" fill="#AD8E37"/>
<path d="M215.891 890.985L147.598 915.992L137.732 889.049C135.843 883.891 135.154 879.152 135.664 874.83C136.144 870.495 137.712 866.756 140.369 863.615C142.996 860.46 146.565 858.056 151.078 856.404C155.613 854.743 159.873 854.293 163.857 855.052C167.819 855.82 171.347 857.743 174.44 860.821C177.525 863.876 180.029 868.027 181.95 873.273L188.556 891.314L176.951 895.563L171.2 879.857C170.191 877.1 168.974 874.949 167.551 873.403C166.128 871.856 164.497 870.916 162.66 870.58C160.815 870.222 158.769 870.454 156.524 871.276C154.256 872.107 152.511 873.262 151.289 874.744C150.058 876.203 149.381 878.001 149.256 880.139C149.101 882.264 149.532 884.715 150.55 887.494L154.115 897.231L210.604 876.547L215.891 890.985ZM171.307 865.485L196.171 837.131L202.008 853.071L177.01 881.057L171.307 865.485Z" fill="#AD8E37"/>
<path d="M119.327 827.927L189.816 810.023L193.601 824.926L123.112 842.83L119.327 827.927Z" fill="#AD8E37"/>
<path d="M126.389 804.632L113.845 806.47L105.186 747.371L117.729 745.533L120.957 767.563L180.373 758.858L182.576 773.896L123.161 782.602L126.389 804.632Z" fill="#AD8E37"/>
<path d="M103.42 727.743L103.431 710.52L134.762 693.956L134.763 693.246L103.452 676.643L103.463 659.42L150.463 685.976L176.173 685.991L176.164 701.261L150.454 701.245L103.42 727.743Z" fill="#AD8E37"/>
<path d="M1216.52 696.417L1215.68 670.649L1288.37 668.292L1289.22 694.272C1289.45 701.584 1288.2 707.925 1285.46 713.296C1282.75 718.666 1278.73 722.859 1273.4 725.874C1268.07 728.913 1261.64 730.555 1254.09 730.8C1246.52 731.045 1239.96 729.825 1234.43 727.138C1228.89 724.475 1224.59 720.529 1221.5 715.3C1218.42 710.094 1216.76 703.8 1216.52 696.417ZM1229.35 685.591L1229.67 695.351C1229.81 699.894 1230.74 703.689 1232.45 706.737C1234.19 709.807 1236.78 712.068 1240.24 713.519C1243.72 714.993 1248.17 715.642 1253.59 715.467C1258.96 715.293 1263.33 714.357 1266.68 712.662C1270.04 710.989 1272.47 708.577 1273.98 705.425C1275.49 702.274 1276.17 698.426 1276.02 693.883L1275.7 684.087L1229.35 685.591Z" fill="#AD8E37"/>
<path d="M1286.72 769.183L1214.31 762.362L1215.75 747.053L1288.16 753.875L1286.72 769.183Z" fill="#AD8E37"/>
<path d="M1255.16 829.021C1258.02 829.347 1260.45 828.624 1262.46 826.853C1264.46 825.081 1265.85 822.39 1266.63 818.78C1267.16 816.327 1267.26 814.181 1266.93 812.342C1266.62 810.508 1265.97 809.01 1264.96 807.848C1263.94 806.709 1262.67 805.974 1261.15 805.645C1259.88 805.324 1258.71 805.351 1257.64 805.725C1256.56 806.122 1255.56 806.766 1254.64 807.658C1253.75 808.555 1252.9 809.631 1252.1 810.887C1251.32 812.147 1250.58 813.515 1249.9 814.991L1247 821.049C1245.64 824 1244.1 826.647 1242.38 828.99C1240.66 831.332 1238.76 833.27 1236.66 834.803C1234.56 836.337 1232.25 837.377 1229.74 837.924C1227.22 838.495 1224.47 838.472 1221.5 837.857C1217.16 836.895 1213.63 834.971 1210.91 832.084C1208.2 829.225 1206.42 825.546 1205.55 821.047C1204.7 816.577 1204.89 811.449 1206.14 805.663C1207.38 799.924 1209.34 795.115 1212.01 791.236C1214.69 787.38 1218 784.632 1221.96 782.992C1225.95 781.38 1230.5 781.068 1235.64 782.055L1232.51 796.6C1230.09 796.248 1227.95 796.501 1226.1 797.361C1224.26 798.248 1222.71 799.622 1221.46 801.484C1220.23 803.374 1219.34 805.615 1218.78 808.207C1218.23 810.753 1218.12 813.043 1218.46 815.077C1218.79 817.134 1219.51 818.826 1220.6 820.152C1221.69 821.478 1223.1 822.325 1224.81 822.694C1226.41 823.039 1227.85 822.854 1229.14 822.139C1230.43 821.448 1231.65 820.283 1232.8 818.642C1233.95 817.025 1235.12 814.988 1236.3 812.53L1239.92 805.208C1242.67 799.529 1245.97 795.288 1249.82 792.485C1253.66 789.683 1258.21 788.859 1263.46 790.015C1267.77 790.92 1271.29 792.877 1274 795.885C1276.72 798.916 1278.54 802.662 1279.46 807.125C1280.39 811.587 1280.29 816.41 1279.18 821.594C1278.04 826.87 1276.14 831.281 1273.49 834.826C1270.83 838.394 1267.66 840.931 1263.96 842.435C1260.27 843.94 1256.3 844.271 1252.05 843.427L1255.16 829.021Z" fill="#AD8E37"/>
<path d="M1217.19 923.984L1223.01 909.562C1224.98 910.052 1226.86 910.184 1228.63 909.957C1230.43 909.739 1232.11 909.201 1233.65 908.345C1235.2 907.488 1236.58 906.337 1237.8 904.89C1239.02 903.466 1240.01 901.787 1240.79 899.856C1242.2 896.365 1242.57 892.975 1241.88 889.684C1241.21 886.402 1239.52 883.383 1236.8 880.626C1234.11 877.878 1230.42 875.56 1225.75 873.672C1220.94 871.73 1216.61 870.812 1212.77 870.918C1208.91 871.046 1205.63 872.068 1202.91 873.984C1200.2 875.901 1198.15 878.56 1196.78 881.962C1196.01 883.872 1195.55 885.741 1195.39 887.57C1195.23 889.42 1195.38 891.177 1195.83 892.84C1196.31 894.512 1197.08 896.049 1198.14 897.451C1199.2 898.874 1200.57 900.114 1202.23 901.17L1196.34 915.566C1193.4 913.942 1190.79 911.804 1188.52 909.15C1186.26 906.526 1184.5 903.507 1183.25 900.091C1182.01 896.706 1181.43 893.025 1181.51 889.046C1181.6 885.099 1182.51 880.963 1184.26 876.638C1186.69 870.624 1190.22 865.795 1194.86 862.153C1199.49 858.533 1204.94 856.393 1211.2 855.733C1217.46 855.094 1224.26 856.256 1231.59 859.217C1238.94 862.187 1244.64 866.097 1248.68 870.946C1252.72 875.796 1255.13 881.136 1255.92 886.968C1256.73 892.809 1255.93 898.693 1253.54 904.62C1251.96 908.527 1249.95 911.928 1247.5 914.821C1245.05 917.736 1242.25 920.063 1239.09 921.802C1235.96 923.55 1232.55 924.625 1228.87 925.026C1225.17 925.449 1221.28 925.101 1217.19 923.984Z" fill="#AD8E37"/>
<path d="M1221.1 968.492L1157.76 932.76L1165.31 919.368L1228.66 955.1L1221.1 968.492Z" fill="#AD8E37"/>
<path d="M1149.37 947.83L1208.1 990.731L1191.17 1013.9C1187.92 1018.35 1184.29 1021.53 1180.3 1023.42C1176.33 1025.33 1172.24 1026 1168.04 1025.46C1163.84 1024.94 1159.79 1023.26 1155.9 1020.41C1152 1017.56 1149.17 1014.21 1147.42 1010.35C1145.66 1006.48 1145.12 1002.35 1145.79 997.943C1146.44 993.554 1148.42 989.104 1151.72 984.593L1162.5 969.826L1172.45 977.095L1163.13 989.855C1161.39 992.244 1160.36 994.514 1160.05 996.662C1159.75 998.845 1160.05 1000.86 1160.96 1002.7C1161.88 1004.57 1163.31 1006.21 1165.24 1007.62C1167.19 1009.05 1169.18 1009.9 1171.2 1010.17C1173.23 1010.48 1175.22 1010.15 1177.17 1009.17C1179.14 1008.2 1181 1006.51 1182.76 1004.1L1188.88 995.732L1140.3 960.246L1149.37 947.83Z" fill="#AD8E37"/>
<path d="M1107.96 1002.01L1159.67 1053.15L1148.86 1064.08L1106.16 1021.86L1084.24 1044.03L1075.22 1035.11L1107.96 1002.01Z" fill="#AD8E37"/>
<path d="M1098.11 1110.09L1052.23 1053.66L1064.17 1043.96L1110.04 1100.39L1098.11 1110.09Z" fill="#AD8E37"/>
<path d="M1025.82 1158.66L987.482 1096.86L998.769 1089.86L1049.78 1112.08L1050.24 1111.8L1026.11 1072.9L1039.18 1064.8L1077.51 1126.6L1066.04 1133.71L1015.26 1111.39L1014.71 1111.73L1038.82 1150.6L1025.82 1158.66Z" fill="#AD8E37"/>
<path d="M972.812 1103.86L1000.49 1171.11L955.175 1189.76L950.35 1178.04L981.448 1165.24L974.853 1149.22L946.086 1161.06L941.261 1149.33L970.027 1137.49L963.418 1121.43L932.189 1134.29L927.363 1122.56L972.812 1103.86Z" fill="#AD8E37"/>
<path d="M701.359 254C715.831 260.187 726.005 274.278 726.005 290.701C726.005 312.829 707.618 330.796 684.972 330.796C673.649 330.796 663.42 326.262 656 319.011C663.624 333.271 678.903 343.03 696.509 343.03C721.734 343.03 742.196 323.036 742.196 298.387C742.196 275.343 724.298 256.373 701.359 254Z" fill="#C39F3B"/>
<path d="M684.715 309.79L673.179 295.458L655 299.574L665.384 284.425L655.76 268.803L673.715 273.771L685.945 260L686.657 278.221L703.84 285.332L686.326 291.624L684.715 309.79Z" fill="#C39F3B"/>
<path d="M1205.72 447.79L1194.18 433.458L1176 437.574L1186.38 422.425L1176.76 406.803L1194.71 411.771L1206.95 398L1207.66 416.221L1224.84 423.332L1207.33 429.624L1205.72 447.79Z" fill="#C39F3B"/>
<path d="M208.715 447.79L197.179 433.458L179 437.574L189.384 422.425L179.76 406.803L197.715 411.771L209.945 398L210.657 416.221L227.84 423.332L210.326 429.624L208.715 447.79Z" fill="#C39F3B"/>
<path d="M677.485 476.366C665.763 475.112 659.158 472.955 650.467 468.165C649.524 467.645 648.527 468.747 649.181 469.602C657.408 480.354 664.827 485.126 679.187 490.658C679.345 490.719 679.488 490.82 679.597 490.95C686.227 498.943 690.106 509.476 696.433 528.648C696.744 529.59 698.087 529.559 698.34 528.6C702.546 512.658 704.608 502.39 716.637 490.878C716.723 490.796 716.827 490.727 716.937 490.68C731.365 484.48 738.755 479.557 746.452 469.529C747.105 468.679 746.124 467.599 745.191 468.125C735.157 473.78 728.39 476.463 717.411 476.443C717.022 476.443 716.667 476.212 716.507 475.858L708.127 457.304C708.081 457.201 708.016 457.105 707.937 457.023C704.629 453.589 702.467 452.336 697.577 452.783C697.512 452.789 697.444 452.789 697.379 452.782C692.459 452.303 690.263 453.289 687.569 457.08C687.538 457.125 687.509 457.173 687.485 457.222L678.492 475.809C678.308 476.187 677.903 476.411 677.485 476.366Z" fill="url(#paint0_linear_120_224)" stroke="url(#paint1_linear_120_224)" stroke-width="5"/>
<path d="M737.157 404.8C719.04 398.625 709.632 394.196 698.259 382.054C697.841 381.608 697.118 381.632 696.728 382.103C684.905 396.382 674.998 400.358 655.967 404.802C655.841 404.831 655.716 404.888 655.61 404.963C643.317 413.723 640.404 419.416 638.467 428.009C638.243 429.002 639.5 429.633 640.211 428.903C644.62 424.38 648.733 421.966 658.01 420.446C658.173 420.419 658.347 420.434 658.504 420.489C675.197 426.32 683.385 431.013 696.886 439.934C697.233 440.163 697.695 440.153 698.033 439.91C712.266 429.655 720.71 424.728 737.151 421.676C737.245 421.658 737.345 421.654 737.439 421.664C745.338 422.499 749.266 424.592 753.711 428.746C754.474 429.459 755.721 428.721 755.393 427.73C752.36 418.554 748.6 412.829 737.414 404.931C737.336 404.876 737.247 404.831 737.157 404.8Z" fill="url(#paint2_linear_120_224)" stroke="url(#paint3_linear_120_224)" stroke-width="5"/>
<circle cx="665.054" cy="450.925" r="3.73379" fill="url(#paint4_linear_120_224)"/>
<circle cx="729.617" cy="450.925" r="3.73379" fill="url(#paint5_linear_120_224)"/>
<path d="M672.664 453.064L648.236 432.912C650.521 450.139 654.992 457.459 667.182 464.117C668.905 465.059 671.015 464.013 671.4 462.087L673.011 454.034C673.083 453.673 672.948 453.299 672.664 453.064Z" fill="url(#paint6_linear_120_224)"/>
<path d="M648.236 432.912L673.128 453.447M648.236 432.912C657.801 440.803 663.231 445.283 672.664 453.064C672.948 453.299 673.083 453.673 673.011 454.034L671.4 462.087C671.015 464.013 668.905 465.059 667.182 464.117C654.992 457.459 650.521 450.139 648.236 432.912Z" stroke="url(#paint7_linear_120_224)" stroke-width="5"/>
<path d="M722.206 453.064L746.633 432.912C744.349 450.139 739.877 457.459 727.687 464.117C725.964 465.059 723.854 464.013 723.469 462.087L721.858 454.034C721.786 453.673 721.921 453.299 722.206 453.064Z" fill="url(#paint8_linear_120_224)"/>
<path d="M746.633 432.912L721.741 453.447M746.633 432.912C737.068 440.803 731.638 445.283 722.206 453.064C721.921 453.299 721.786 453.673 721.858 454.034L723.469 462.087C723.854 464.013 725.964 465.059 727.687 464.117C739.877 457.459 744.349 450.139 746.633 432.912Z" stroke="url(#paint9_linear_120_224)" stroke-width="5"/>
<ellipse cx="664.997" cy="450.957" rx="1.2446" ry="1.2446" fill="url(#paint10_linear_120_224)"/>
<ellipse cx="729.772" cy="450.957" rx="1.2446" ry="1.2446" fill="#E8E8E7"/>
<path d="M532.72 392.359C436.607 350.404 392.542 314.303 328.564 238.253C327.36 236.822 325 237.647 325 239.516V304.034C325 304.611 325.258 305.167 325.692 305.547C391.945 363.453 432.284 389.469 513.775 411.698C514.41 411.871 514.932 412.347 515.15 412.967L517.332 419.147C517.855 420.63 516.521 422.102 514.989 421.749C443.695 405.286 402.726 381.531 333.028 327.698C331.643 326.628 329.62 327.704 329.781 329.447L332.38 357.517C332.436 358.114 332.765 358.661 333.261 358.996C402.676 405.894 443.776 425.424 522.47 435.491C523.116 435.574 523.694 435.967 523.999 436.542L527.42 443.003C528.156 444.394 527.048 446.048 525.479 445.923C450.532 439.973 407.99 425.238 336.129 382.429C334.677 381.565 332.842 382.757 333.09 384.429L339.153 425.215C339.253 425.885 339.695 426.464 340.312 426.744C403.291 455.364 444.357 465.052 532.601 463.025C533.147 463.013 533.689 463.224 534.075 463.611L540.57 470.105C541.741 471.276 541.038 473.282 539.396 473.494C465.412 483.062 422.764 477.118 350.027 454.081C348.577 453.622 347.137 454.874 347.429 456.366L357.069 505.7C357.241 506.58 357.996 507.239 358.89 507.311C441.979 513.935 485.733 512.248 550.726 491.462C551.559 491.196 552.482 491.495 552.987 492.21L558.159 499.536C558.9 500.586 558.455 502.06 557.264 502.544C494.71 527.967 453.04 535.503 373.095 538.817C371.77 538.872 370.836 540.177 371.247 541.438L388.507 594.369C388.838 595.382 389.923 595.953 390.951 595.673C467.691 574.825 508.291 559.35 569.047 521.36C570.003 520.762 571.28 521.06 571.852 522.031L576.148 529.334C576.654 530.195 576.433 531.309 575.649 531.927C514.087 580.507 475.283 600.113 405.397 629.566C404.331 630.015 403.848 631.279 404.365 632.313L433.44 690.463C434.002 691.588 435.467 691.908 436.464 691.141C498.342 643.537 533.356 613.544 592.933 552.921C593.747 552.093 595.109 552.112 595.877 552.983L602.707 560.723C603.337 561.437 603.366 562.51 602.791 563.268C551.334 631.098 518.099 666.408 455.118 724.415C454.381 725.094 454.245 726.227 454.821 727.048L498.782 789.765C499.597 790.928 501.344 790.872 502.114 789.679C552.015 712.27 579.285 666.964 622.316 585.729C622.976 584.482 624.698 584.268 625.616 585.339L634.126 595.269C634.606 595.828 634.734 596.617 634.468 597.303C600.654 684.682 577.318 735.986 530.385 828.875C530.001 829.635 530.132 830.57 530.723 831.182L596.236 899.056C597.342 900.201 599.276 899.659 599.626 898.107L662.201 620.471C662.527 619.025 664.256 618.423 665.409 619.354L678.241 629.719C678.769 630.145 679.045 630.81 678.974 631.485L646.227 942.264C646.152 942.977 646.465 943.676 647.047 944.096L698.461 981.162C699.156 981.663 700.093 981.665 700.791 981.168L752.811 944.097C753.399 943.677 753.716 942.973 753.639 942.254L720.278 631.511C720.204 630.822 720.492 630.144 721.039 629.718L734.469 619.273C735.628 618.372 737.329 618.984 737.649 620.416L799.63 898.116C799.977 899.667 801.906 900.214 803.015 899.075L869.122 831.198C869.725 830.578 869.856 829.629 869.456 828.863C827.339 748.205 804.149 696.442 764.18 597.318C763.901 596.625 764.025 595.821 764.511 595.254L773.057 585.283C773.962 584.228 775.655 584.419 776.335 585.633C823.482 669.822 850.54 715.788 897.738 789.63C898.51 790.838 900.279 790.884 901.087 789.7L943.815 727.071C944.383 726.238 944.229 725.101 943.474 724.432C880.026 668.191 848.665 631.515 797.616 563.174C797.081 562.458 797.077 561.46 797.62 560.75L803.358 553.246C804.109 552.264 805.578 552.21 806.424 553.111C866.418 616.973 901.816 646.684 964.652 689.449C965.663 690.137 967.065 689.774 967.594 688.672L995.509 630.517C996.019 629.454 995.488 628.177 994.383 627.767C929.757 603.758 891.475 582.072 822.584 532.008C821.7 531.366 821.478 530.118 822.108 529.225L827.353 521.795C827.963 520.931 829.162 520.705 830.062 521.261C907.51 569.147 946.922 584.74 1009.12 595.881C1010.07 596.052 1011.02 595.517 1011.35 594.609L1030.95 541.572C1031.43 540.279 1030.46 538.901 1029.08 538.875C949.16 537.354 908.274 528.026 843.176 502.489C842.001 502.028 841.526 500.597 842.212 499.537L846.929 492.246C847.406 491.51 848.322 491.175 849.167 491.411C923.942 512.333 966.467 516.257 1041.08 507.359C1041.93 507.258 1042.63 506.631 1042.81 505.8L1053.6 456.416C1053.93 454.916 1052.48 453.629 1051.02 454.084C977.158 476.983 934.412 479.811 860.627 473.227C859.225 473.102 858.367 471.602 858.997 470.343L862.107 464.121C862.449 463.438 863.166 463.009 863.93 463.016C952.207 463.732 997.414 458.273 1059.02 426.76C1059.59 426.468 1059.99 425.914 1060.09 425.28L1066.1 385.958C1066.36 384.241 1064.44 383.037 1062.98 383.988C1002.11 423.846 958.686 436.675 873.983 445.258C872.509 445.407 871.364 443.959 871.884 442.572L874.08 436.715C874.333 436.041 874.945 435.552 875.656 435.439C965.339 421.209 1009.12 405.484 1069.16 359.024C1069.62 358.67 1069.91 358.127 1069.94 357.549L1071.5 329.492C1071.6 327.74 1069.53 326.735 1068.18 327.86C1007.39 378.653 964.621 398.064 884.927 421.162C883.192 421.665 881.713 419.797 882.628 418.24L885.93 412.627C886.177 412.208 886.578 411.89 887.04 411.737C977.541 381.931 1019.39 359.437 1071.19 306.152C1071.55 305.779 1071.76 305.273 1071.76 304.754V239.517C1071.76 237.647 1069.39 236.831 1068.19 238.261C996.945 322.857 951.76 353.744 868.961 392.362C868.519 392.568 868.155 392.941 867.96 393.388C825.38 490.945 788.149 544.261 700.204 608.369C699.497 608.885 698.51 608.879 697.809 608.355C616.288 547.49 578.829 501.796 533.784 393.442C533.585 392.964 533.194 392.566 532.72 392.359Z" fill="url(#paint11_linear_120_224)" stroke="url(#paint12_linear_120_224)" stroke-width="5"/>
<defs>
<linearGradient id="paint0_linear_120_224" x1="697.789" y1="452.67" x2="697.789" y2="531.824" gradientUnits="userSpaceOnUse">
<stop offset="0.43" stop-color="#AD8E37"/>
<stop offset="1" stop-color="#F5F5F5"/>
</linearGradient>
<linearGradient id="paint1_linear_120_224" x1="697.789" y1="452.67" x2="697.789" y2="531.824" gradientUnits="userSpaceOnUse">
<stop offset="0.00399963" stop-color="#AD8E37"/>
<stop offset="0.389" stop-color="#AD8E37"/>
<stop offset="1" stop-color="#CBCBCB"/>
</linearGradient>
<linearGradient id="paint2_linear_120_224" x1="697.156" y1="381.2" x2="697.156" y2="440.318" gradientUnits="userSpaceOnUse">
<stop offset="0.43" stop-color="#AD8E37"/>
<stop offset="1" stop-color="#F5F5F5"/>
</linearGradient>
<linearGradient id="paint3_linear_120_224" x1="697.156" y1="381.2" x2="697.156" y2="440.318" gradientUnits="userSpaceOnUse">
<stop offset="0.00399963" stop-color="#AD8E37"/>
<stop offset="0.389" stop-color="#AD8E37"/>
<stop offset="1" stop-color="#CBCBCB"/>
</linearGradient>
<linearGradient id="paint4_linear_120_224" x1="665.054" y1="447.191" x2="665.054" y2="454.659" gradientUnits="userSpaceOnUse">
<stop offset="0.43" stop-color="#AD8E37"/>
<stop offset="1" stop-color="#F5F5F5"/>
</linearGradient>
<linearGradient id="paint5_linear_120_224" x1="729.617" y1="447.191" x2="729.617" y2="454.659" gradientUnits="userSpaceOnUse">
<stop offset="0.43" stop-color="#AD8E37"/>
<stop offset="1" stop-color="#F5F5F5"/>
</linearGradient>
<linearGradient id="paint6_linear_120_224" x1="660.682" y1="432.912" x2="660.682" y2="465.893" gradientUnits="userSpaceOnUse">
<stop offset="0.43" stop-color="#AD8E37"/>
<stop offset="1" stop-color="#F5F5F5"/>
</linearGradient>
<linearGradient id="paint7_linear_120_224" x1="660.682" y1="432.912" x2="660.682" y2="465.893" gradientUnits="userSpaceOnUse">
<stop offset="0.00399963" stop-color="#AD8E37"/>
<stop offset="0.389" stop-color="#AD8E37"/>
<stop offset="1" stop-color="#CBCBCB"/>
</linearGradient>
<linearGradient id="paint8_linear_120_224" x1="734.187" y1="432.912" x2="734.187" y2="465.893" gradientUnits="userSpaceOnUse">
<stop offset="0.43" stop-color="#AD8E37"/>
<stop offset="1" stop-color="#F5F5F5"/>
</linearGradient>
<linearGradient id="paint9_linear_120_224" x1="734.187" y1="432.912" x2="734.187" y2="465.893" gradientUnits="userSpaceOnUse">
<stop offset="0.00399963" stop-color="#AD8E37"/>
<stop offset="0.389" stop-color="#AD8E37"/>
<stop offset="1" stop-color="#CBCBCB"/>
</linearGradient>
<linearGradient id="paint10_linear_120_224" x1="664.997" y1="449.712" x2="664.997" y2="452.202" gradientUnits="userSpaceOnUse">
<stop offset="0.43" stop-color="#CBCBCB"/>
<stop offset="1" stop-color="#F5F5F5"/>
</linearGradient>
<linearGradient id="paint11_linear_120_224" x1="698.379" y1="234" x2="698.379" y2="982" gradientUnits="userSpaceOnUse">
<stop offset="0.43" stop-color="#AD8E37"/>
<stop offset="1" stop-color="#F5F5F5"/>
</linearGradient>
<linearGradient id="paint12_linear_120_224" x1="698.379" y1="234" x2="698.379" y2="982" gradientUnits="userSpaceOnUse">
<stop offset="0.00399963" stop-color="#AD8E37"/>
<stop offset="0.389" stop-color="#AD8E37"/>
<stop offset="1" stop-color="#CBCBCB"/>
</linearGradient>
</defs>
</svg>
