<svg width="1409" height="1306" viewBox="0 0 1409 1306" fill="none" xmlns="http://www.w3.org/2000/svg">
<circle cx="697" cy="653" r="645.5" fill="#D9D9D9" stroke="#001F5F" stroke-width="15"/>
<circle cx="697" cy="653" r="485" fill="#001F5F" stroke="#AD8E37" stroke-width="30"/>
<path d="M268 877.327C382.787 877.327 433.38 845 512.593 845C599.455 845 630.021 873.384 696.519 873.384C777.441 873.384 780.219 845.788 866.963 845.788C946.311 845.788 1008.79 881.076 1126 878.904" stroke="#C39F3B" stroke-width="15.24" stroke-linecap="round" stroke-linejoin="round"/>
<path d="M302 932.179C407.823 932.179 454.466 897 527.493 897C607.572 897 635.751 927.889 697.056 927.889C771.659 927.889 774.22 897.858 854.191 897.858C927.343 897.858 984.942 936.259 1093 933.895" stroke="#C39F3B" stroke-width="15.24" stroke-linecap="round" stroke-linejoin="round"/>
<path d="M346 983.679C429.352 979.281 470.956 950 533.438 950C607.518 950 633.586 980.055 690.298 980.055C759.312 980.055 761.681 950.835 835.66 950.835C901.137 950.835 953.145 985.816 1047 986" stroke="#C39F3B" stroke-width="15.24" stroke-linecap="round" stroke-linejoin="round"/>
<path d="M403 1035.39C470.157 1028.7 505.981 1000 558.603 1000C623.913 1000 646.896 1032.28 696.894 1032.28C757.738 1032.28 759.827 1000.9 825.048 1000.9C878.357 1000.9 921.538 1032.94 993 1038" stroke="#C39F3B" stroke-width="15.24" stroke-linecap="round" stroke-linejoin="round"/>
<path d="M482 1084.36C524.742 1075.42 551.407 1055 588.556 1055C640.704 1055 659.055 1084.38 698.977 1084.38C747.559 1084.38 749.227 1055.82 801.304 1055.82C838.819 1055.82 870.053 1078.47 916 1087" stroke="#C39F3B" stroke-width="15.24" stroke-linecap="round" stroke-linejoin="round"/>
<circle cx="697" cy="653" r="485" stroke="#AD8E37" stroke-width="30"/>
<mask id="path-9-inside-1_117_67" fill="white">
<path d="M724.161 560.959C726.842 559.685 743.435 558.842 750.212 560.959C751.05 556.385 748.999 546.18 744.934 543.832C730.094 535.272 706.81 530.466 689.901 530.224C683.439 530.127 678.86 530.795 677.275 531.978C674.655 533.925 673.077 538.341 667.726 560.959C665.439 570.684 661.253 581.737 655.016 589.601C644.132 603.306 627.315 612.096 608.453 612.096C575.619 612.096 549.04 582.508 549.003 552.653C548.979 525.504 566.907 502.584 591.981 495.492C596.568 494.2 601.797 493.113 603.102 489.03C604.328 485.184 602.338 483.073 600.548 481.083C544.162 418.407 491.022 357.131 447.989 267.506C446.12 263.61 444.591 262.797 443.051 262.53C441.213 262.215 439.21 262.937 437.336 265.364C416.587 292.209 425.408 332.972 450.058 364.004C477.226 398.197 506.772 431.333 538.793 463.355C491.332 429.325 443.04 389.933 401.42 340.343C398.696 337.097 397.058 336.703 395.524 336.818C393.703 336.964 391.98 338.129 390.791 340.883C377.565 371.393 395.79 407.964 426.689 431.479C457.054 454.527 489.068 476.276 522.795 496.648C472.658 477.028 420.143 453.053 371.347 418.101C367.986 415.675 366.323 415.699 364.904 416.177C363.211 416.754 361.852 418.283 361.385 421.183C356.21 453.331 382.353 483.641 417.364 498.487C448.609 511.658 480.921 523.427 514.331 533.741C469.618 528.202 422.369 519.721 375.66 502.394C371.857 500.968 370.297 501.41 369.072 502.23C367.622 503.207 366.736 504.996 367.04 507.86C370.401 539.559 402.87 561.491 439.758 566.526C467.18 570.202 495.069 572.733 523.426 574.08C483.621 578.86 440.953 582.033 396.774 577.586C392.818 577.167 391.459 577.974 390.506 579.048C389.366 580.335 388.965 582.257 389.96 584.89C400.948 614.084 437.106 626.848 473.271 622.541C494.857 619.908 516.539 616.486 538.332 612.264C507.561 623.754 482.614 633.019 447.298 639.006C443.458 639.637 442.384 640.748 441.765 642.015C441.031 643.52 441.146 645.431 442.766 647.657C456.477 665.913 483.098 671.84 512.281 663.085C526.313 658.881 547.839 651.637 561.459 646.183C538.69 660.841 526.914 666.149 501.19 677.943C497.744 679.515 497.016 680.849 496.749 682.202C496.446 683.804 497.028 685.606 499.145 687.268C520.991 704.388 545.411 696.714 564.194 689.561C575.897 685.108 587.534 680.303 599.109 675.347C589.329 682.929 579.204 690.271 568.69 697.291C565.632 699.329 565.14 700.712 565.099 702.047C565.05 703.624 565.899 705.226 568.163 706.513C586.472 716.917 609.138 713.173 629.056 700.876C621.521 713.58 611.996 724.379 601.633 732.957C605.504 734.438 615.223 733.916 619.312 732.332C614.416 739.588 610.594 747.062 605.152 753.918C596.1 765.305 583.852 743.586 571.365 747.767C570.553 748.04 569.836 748.397 569.272 749.192C565.05 750.029 560.221 754.689 561.464 762.89C565.038 756.958 569.4 756.442 572.385 756.617C578.015 757.594 580.885 759.299 583.669 761.143C577.644 759.548 565.159 762.405 564.346 770.013C560.797 775.224 559.468 782.092 566.094 788.426C566.7 773.247 578.125 769.073 589.081 769.667C582.384 771.615 574.169 778.331 576.584 786.218C575.764 790.44 578.392 797.927 586.472 799.862C583.488 796.095 582.766 791.205 584.355 787.389C586.904 781.285 593.553 777.942 598.34 776.808C607.755 774.569 616.128 777.318 619.811 781.048C621.727 783.001 622.844 787.558 620.902 791.344C626.302 788.643 627.716 781.667 626.787 777.826C627.121 777.475 627.406 776.983 627.17 776.031C625.307 768.58 611.808 768.593 618.755 760.615L634.007 743.13C633.704 747.808 635.954 754.171 638.581 757.86C645.267 743.573 656.066 726.853 667.611 714.912C655.944 749.384 637.538 786.149 616.582 814.081C615.005 816.181 614.944 817.278 615.168 818.231C615.436 819.378 616.272 820.343 617.959 820.792C632.507 824.663 647.213 815.999 657.861 801.451C653.717 815.041 648.918 828.612 643.325 842.056C642.281 844.538 642.469 845.611 642.912 846.474C643.439 847.499 644.465 848.196 646.206 848.142C661.823 847.639 674.46 833.861 681.182 815.533C681.94 845.157 685.405 869 695.943 869C706.482 869 709.933 845.158 710.697 815.533C717.426 833.861 730.064 847.638 745.679 848.142C747.415 848.197 748.445 847.499 748.974 846.474C749.411 845.612 749.604 844.538 748.561 842.056C742.961 828.613 738.163 815.041 734.025 801.451C744.672 815.999 759.378 824.663 773.921 820.792C775.602 820.343 776.451 819.378 776.718 818.231C776.937 817.279 776.876 816.181 775.304 814.081C754.349 786.149 735.942 749.384 724.275 714.912C735.821 726.853 746.614 743.572 753.3 757.86C755.926 754.171 758.183 747.808 757.88 743.13L773.12 760.615C780.079 768.593 766.574 768.58 764.718 776.031C764.482 776.983 764.766 777.474 765.1 777.826C764.172 781.667 765.579 788.643 770.973 791.344C769.044 787.558 770.16 783.001 772.077 781.048C775.747 777.318 784.132 774.569 793.548 776.808C798.335 777.942 804.984 781.285 807.525 787.389C809.121 791.205 808.393 796.095 805.414 799.862C813.483 797.927 816.11 790.44 815.303 786.218C817.718 778.331 809.503 771.615 802.805 769.667C813.762 769.073 825.18 773.247 825.786 788.426C832.417 782.092 831.089 775.225 827.534 770.013C826.727 762.404 814.242 759.548 808.217 761.143C811.002 759.299 813.872 757.594 819.49 756.617C822.474 756.442 826.849 756.957 830.422 762.89C831.666 754.688 826.83 750.029 822.614 749.192C822.043 748.398 821.334 748.04 820.514 747.767C808.029 743.586 795.78 765.305 786.728 753.918C781.286 747.062 777.469 739.588 772.574 732.332C776.658 733.915 786.383 734.437 790.241 732.957C779.873 724.379 770.36 713.574 762.825 700.87C782.749 713.168 805.415 716.916 823.724 706.512C825.987 705.225 826.836 703.623 826.788 702.046C826.745 700.711 826.254 699.328 823.197 697.29C812.683 690.27 802.558 682.93 792.777 675.346C804.352 680.302 815.99 685.107 827.692 689.56C846.475 696.713 870.894 704.388 892.741 687.267C894.858 685.605 895.441 683.803 895.137 682.201C894.871 680.848 894.143 679.514 890.696 677.942C864.973 666.149 853.197 660.84 830.428 646.183C844.048 651.637 865.573 658.88 879.606 663.084C908.794 671.839 935.409 665.912 949.12 647.657C950.741 645.43 950.862 643.519 950.122 642.015C949.503 640.747 948.429 639.636 944.588 639.006C909.272 633.018 884.326 623.753 853.554 612.263C875.347 616.486 897.03 619.908 918.616 622.54C954.78 626.848 990.939 614.083 1001.93 584.89C1002.92 582.256 1002.52 580.333 1001.39 579.047C1000.43 577.973 999.068 577.167 995.113 577.585C950.933 582.032 908.265 578.859 868.46 574.079C896.816 572.732 924.705 570.202 952.128 566.526C989.015 561.49 1021.48 539.558 1024.85 507.859C1025.15 504.995 1024.26 503.206 1022.81 502.229C1021.59 501.41 1020.03 500.967 1016.23 502.393C969.516 519.72 922.268 528.201 877.554 533.74C910.964 523.426 943.277 511.657 974.521 498.486C1009.53 483.64 1035.68 453.33 1030.5 421.182C1030.03 418.282 1028.67 416.753 1026.98 416.177C1025.56 415.698 1023.91 415.674 1020.54 418.101C971.743 453.051 919.228 477.027 869.091 496.648C902.817 476.275 934.832 454.526 965.197 431.478C996.095 407.963 1014.32 371.392 1001.09 340.882C999.905 338.128 998.182 336.962 996.362 336.818C994.828 336.702 993.189 337.097 990.465 340.343C948.847 389.933 900.554 429.324 853.093 463.354C885.114 431.333 914.666 398.196 941.827 364.003C966.477 332.971 975.299 292.208 954.55 265.363C952.675 262.936 950.673 262.215 948.841 262.53C947.294 262.797 945.765 263.609 943.896 267.505C900.865 357.132 847.725 418.407 791.34 481.083C789.55 483.073 787.559 485.184 788.785 489.031C790.096 493.114 795.319 494.2 799.905 495.492C824.98 502.585 842.908 525.505 842.884 552.654C842.848 582.508 816.268 612.097 783.434 612.097C764.573 612.097 747.755 603.306 736.871 589.601C730.628 581.738 726.448 570.691 724.161 560.959ZM695.944 767.152C692.377 796.03 688.779 826.201 695.944 854.333C703.109 826.201 699.511 796.03 695.944 767.152ZM738.764 839.238C724.597 802.165 721.309 783.994 716.814 758.72C714.326 785.753 716.62 822.409 738.764 839.238ZM764.542 813.485C742.191 780.694 734.789 763.767 724.573 740.221C728.402 767.098 739.104 802.231 764.542 813.485ZM653.123 839.238C667.29 802.165 670.578 783.994 675.073 758.72C677.561 785.753 675.268 822.409 653.123 839.238ZM627.345 813.485C649.696 780.694 657.097 763.767 667.314 740.221C663.486 767.098 652.784 802.231 627.345 813.485ZM406.686 361.191C448.493 410.041 491.477 442.96 546.527 481.581C498.138 454.067 456.543 429.121 442.747 418.316C426.282 405.412 406.929 383.644 406.686 361.191ZM985.201 361.191C943.395 410.041 900.41 442.96 845.359 481.581C893.748 454.067 935.343 429.121 949.139 418.316C965.605 405.412 984.958 383.644 985.201 361.191ZM808.49 698.276C792.316 686.342 781.183 674.949 768.91 660.085C777.301 678.31 787.342 695.77 808.49 698.276ZM941.871 294.777C906.156 363.471 864.263 415.33 819.727 465.722C859.804 427.883 911.033 372.741 921.929 359.024C934.937 342.638 946.865 316.666 941.871 294.777ZM870.962 679.851C848.435 669.513 832.133 658.557 813.581 643.693C828.287 663.586 844.795 682.138 870.962 679.851ZM928.536 647.175C886.25 636.947 867.788 628.628 842.168 616.999C865.046 636.031 899.579 656.724 928.536 647.175ZM981.428 589.703C939.02 591.979 917.112 590.608 857.785 582.145C880.293 591.511 897.499 598.313 922.409 601.128C941.568 603.293 966.09 603.288 981.428 589.703ZM1004.86 518.741C959.193 532.84 936.096 538.258 866.818 544.688C893.069 546.994 924.108 549.851 950.802 545.956C970.094 543.147 994.028 535.837 1004.86 518.741ZM1013.3 436.644C960.885 471.735 926.104 486.744 862.261 510.368C914.085 497.828 947.349 488.818 963.493 482.017C982.774 473.888 1007.17 458.242 1013.3 436.644ZM583.397 698.276C599.571 686.342 610.704 674.949 622.977 660.085C614.586 678.31 604.546 695.77 583.397 698.276ZM450.016 294.777C485.731 363.471 527.624 415.33 572.161 465.722C532.083 427.883 480.854 372.741 469.958 359.024C456.95 342.638 445.022 316.666 450.016 294.777ZM520.925 679.851C543.452 669.513 559.754 658.557 578.306 643.693C563.6 663.586 547.092 682.138 520.925 679.851ZM463.351 647.175C505.638 636.947 524.099 628.628 549.72 616.999C526.84 636.031 492.309 656.724 463.351 647.175ZM410.46 589.703C452.867 591.979 474.775 590.608 534.103 582.145C511.595 591.511 494.388 598.313 469.478 601.128C450.319 603.293 425.797 603.288 410.46 589.703ZM387.023 518.741C432.694 532.84 455.791 538.258 525.07 544.688C498.818 546.994 467.781 549.851 441.086 545.956C421.793 543.147 397.859 535.837 387.023 518.741ZM378.59 436.644C431.002 471.735 465.783 486.744 529.626 510.368C477.802 497.828 444.538 488.818 428.394 482.017C409.113 473.888 384.717 458.242 378.59 436.644Z"/>
</mask>
<path d="M724.161 560.959C726.842 559.685 743.435 558.842 750.212 560.959C751.05 556.385 748.999 546.18 744.934 543.832C730.094 535.272 706.81 530.466 689.901 530.224C683.439 530.127 678.86 530.795 677.275 531.978C674.655 533.925 673.077 538.341 667.726 560.959C665.439 570.684 661.253 581.737 655.016 589.601C644.132 603.306 627.315 612.096 608.453 612.096C575.619 612.096 549.04 582.508 549.003 552.653C548.979 525.504 566.907 502.584 591.981 495.492C596.568 494.2 601.797 493.113 603.102 489.03C604.328 485.184 602.338 483.073 600.548 481.083C544.162 418.407 491.022 357.131 447.989 267.506C446.12 263.61 444.591 262.797 443.051 262.53C441.213 262.215 439.21 262.937 437.336 265.364C416.587 292.209 425.408 332.972 450.058 364.004C477.226 398.197 506.772 431.333 538.793 463.355C491.332 429.325 443.04 389.933 401.42 340.343C398.696 337.097 397.058 336.703 395.524 336.818C393.703 336.964 391.98 338.129 390.791 340.883C377.565 371.393 395.79 407.964 426.689 431.479C457.054 454.527 489.068 476.276 522.795 496.648C472.658 477.028 420.143 453.053 371.347 418.101C367.986 415.675 366.323 415.699 364.904 416.177C363.211 416.754 361.852 418.283 361.385 421.183C356.21 453.331 382.353 483.641 417.364 498.487C448.609 511.658 480.921 523.427 514.331 533.741C469.618 528.202 422.369 519.721 375.66 502.394C371.857 500.968 370.297 501.41 369.072 502.23C367.622 503.207 366.736 504.996 367.04 507.86C370.401 539.559 402.87 561.491 439.758 566.526C467.18 570.202 495.069 572.733 523.426 574.08C483.621 578.86 440.953 582.033 396.774 577.586C392.818 577.167 391.459 577.974 390.506 579.048C389.366 580.335 388.965 582.257 389.96 584.89C400.948 614.084 437.106 626.848 473.271 622.541C494.857 619.908 516.539 616.486 538.332 612.264C507.561 623.754 482.614 633.019 447.298 639.006C443.458 639.637 442.384 640.748 441.765 642.015C441.031 643.52 441.146 645.431 442.766 647.657C456.477 665.913 483.098 671.84 512.281 663.085C526.313 658.881 547.839 651.637 561.459 646.183C538.69 660.841 526.914 666.149 501.19 677.943C497.744 679.515 497.016 680.849 496.749 682.202C496.446 683.804 497.028 685.606 499.145 687.268C520.991 704.388 545.411 696.714 564.194 689.561C575.897 685.108 587.534 680.303 599.109 675.347C589.329 682.929 579.204 690.271 568.69 697.291C565.632 699.329 565.14 700.712 565.099 702.047C565.05 703.624 565.899 705.226 568.163 706.513C586.472 716.917 609.138 713.173 629.056 700.876C621.521 713.58 611.996 724.379 601.633 732.957C605.504 734.438 615.223 733.916 619.312 732.332C614.416 739.588 610.594 747.062 605.152 753.918C596.1 765.305 583.852 743.586 571.365 747.767C570.553 748.04 569.836 748.397 569.272 749.192C565.05 750.029 560.221 754.689 561.464 762.89C565.038 756.958 569.4 756.442 572.385 756.617C578.015 757.594 580.885 759.299 583.669 761.143C577.644 759.548 565.159 762.405 564.346 770.013C560.797 775.224 559.468 782.092 566.094 788.426C566.7 773.247 578.125 769.073 589.081 769.667C582.384 771.615 574.169 778.331 576.584 786.218C575.764 790.44 578.392 797.927 586.472 799.862C583.488 796.095 582.766 791.205 584.355 787.389C586.904 781.285 593.553 777.942 598.34 776.808C607.755 774.569 616.128 777.318 619.811 781.048C621.727 783.001 622.844 787.558 620.902 791.344C626.302 788.643 627.716 781.667 626.787 777.826C627.121 777.475 627.406 776.983 627.17 776.031C625.307 768.58 611.808 768.593 618.755 760.615L634.007 743.13C633.704 747.808 635.954 754.171 638.581 757.86C645.267 743.573 656.066 726.853 667.611 714.912C655.944 749.384 637.538 786.149 616.582 814.081C615.005 816.181 614.944 817.278 615.168 818.231C615.436 819.378 616.272 820.343 617.959 820.792C632.507 824.663 647.213 815.999 657.861 801.451C653.717 815.041 648.918 828.612 643.325 842.056C642.281 844.538 642.469 845.611 642.912 846.474C643.439 847.499 644.465 848.196 646.206 848.142C661.823 847.639 674.46 833.861 681.182 815.533C681.94 845.157 685.405 869 695.943 869C706.482 869 709.933 845.158 710.697 815.533C717.426 833.861 730.064 847.638 745.679 848.142C747.415 848.197 748.445 847.499 748.974 846.474C749.411 845.612 749.604 844.538 748.561 842.056C742.961 828.613 738.163 815.041 734.025 801.451C744.672 815.999 759.378 824.663 773.921 820.792C775.602 820.343 776.451 819.378 776.718 818.231C776.937 817.279 776.876 816.181 775.304 814.081C754.349 786.149 735.942 749.384 724.275 714.912C735.821 726.853 746.614 743.572 753.3 757.86C755.926 754.171 758.183 747.808 757.88 743.13L773.12 760.615C780.079 768.593 766.574 768.58 764.718 776.031C764.482 776.983 764.766 777.474 765.1 777.826C764.172 781.667 765.579 788.643 770.973 791.344C769.044 787.558 770.16 783.001 772.077 781.048C775.747 777.318 784.132 774.569 793.548 776.808C798.335 777.942 804.984 781.285 807.525 787.389C809.121 791.205 808.393 796.095 805.414 799.862C813.483 797.927 816.11 790.44 815.303 786.218C817.718 778.331 809.503 771.615 802.805 769.667C813.762 769.073 825.18 773.247 825.786 788.426C832.417 782.092 831.089 775.225 827.534 770.013C826.727 762.404 814.242 759.548 808.217 761.143C811.002 759.299 813.872 757.594 819.49 756.617C822.474 756.442 826.849 756.957 830.422 762.89C831.666 754.688 826.83 750.029 822.614 749.192C822.043 748.398 821.334 748.04 820.514 747.767C808.029 743.586 795.78 765.305 786.728 753.918C781.286 747.062 777.469 739.588 772.574 732.332C776.658 733.915 786.383 734.437 790.241 732.957C779.873 724.379 770.36 713.574 762.825 700.87C782.749 713.168 805.415 716.916 823.724 706.512C825.987 705.225 826.836 703.623 826.788 702.046C826.745 700.711 826.254 699.328 823.197 697.29C812.683 690.27 802.558 682.93 792.777 675.346C804.352 680.302 815.99 685.107 827.692 689.56C846.475 696.713 870.894 704.388 892.741 687.267C894.858 685.605 895.441 683.803 895.137 682.201C894.871 680.848 894.143 679.514 890.696 677.942C864.973 666.149 853.197 660.84 830.428 646.183C844.048 651.637 865.573 658.88 879.606 663.084C908.794 671.839 935.409 665.912 949.12 647.657C950.741 645.43 950.862 643.519 950.122 642.015C949.503 640.747 948.429 639.636 944.588 639.006C909.272 633.018 884.326 623.753 853.554 612.263C875.347 616.486 897.03 619.908 918.616 622.54C954.78 626.848 990.939 614.083 1001.93 584.89C1002.92 582.256 1002.52 580.333 1001.39 579.047C1000.43 577.973 999.068 577.167 995.113 577.585C950.933 582.032 908.265 578.859 868.46 574.079C896.816 572.732 924.705 570.202 952.128 566.526C989.015 561.49 1021.48 539.558 1024.85 507.859C1025.15 504.995 1024.26 503.206 1022.81 502.229C1021.59 501.41 1020.03 500.967 1016.23 502.393C969.516 519.72 922.268 528.201 877.554 533.74C910.964 523.426 943.277 511.657 974.521 498.486C1009.53 483.64 1035.68 453.33 1030.5 421.182C1030.03 418.282 1028.67 416.753 1026.98 416.177C1025.56 415.698 1023.91 415.674 1020.54 418.101C971.743 453.051 919.228 477.027 869.091 496.648C902.817 476.275 934.832 454.526 965.197 431.478C996.095 407.963 1014.32 371.392 1001.09 340.882C999.905 338.128 998.182 336.962 996.362 336.818C994.828 336.702 993.189 337.097 990.465 340.343C948.847 389.933 900.554 429.324 853.093 463.354C885.114 431.333 914.666 398.196 941.827 364.003C966.477 332.971 975.299 292.208 954.55 265.363C952.675 262.936 950.673 262.215 948.841 262.53C947.294 262.797 945.765 263.609 943.896 267.505C900.865 357.132 847.725 418.407 791.34 481.083C789.55 483.073 787.559 485.184 788.785 489.031C790.096 493.114 795.319 494.2 799.905 495.492C824.98 502.585 842.908 525.505 842.884 552.654C842.848 582.508 816.268 612.097 783.434 612.097C764.573 612.097 747.755 603.306 736.871 589.601C730.628 581.738 726.448 570.691 724.161 560.959ZM695.944 767.152C692.377 796.03 688.779 826.201 695.944 854.333C703.109 826.201 699.511 796.03 695.944 767.152ZM738.764 839.238C724.597 802.165 721.309 783.994 716.814 758.72C714.326 785.753 716.62 822.409 738.764 839.238ZM764.542 813.485C742.191 780.694 734.789 763.767 724.573 740.221C728.402 767.098 739.104 802.231 764.542 813.485ZM653.123 839.238C667.29 802.165 670.578 783.994 675.073 758.72C677.561 785.753 675.268 822.409 653.123 839.238ZM627.345 813.485C649.696 780.694 657.097 763.767 667.314 740.221C663.486 767.098 652.784 802.231 627.345 813.485ZM406.686 361.191C448.493 410.041 491.477 442.96 546.527 481.581C498.138 454.067 456.543 429.121 442.747 418.316C426.282 405.412 406.929 383.644 406.686 361.191ZM985.201 361.191C943.395 410.041 900.41 442.96 845.359 481.581C893.748 454.067 935.343 429.121 949.139 418.316C965.605 405.412 984.958 383.644 985.201 361.191ZM808.49 698.276C792.316 686.342 781.183 674.949 768.91 660.085C777.301 678.31 787.342 695.77 808.49 698.276ZM941.871 294.777C906.156 363.471 864.263 415.33 819.727 465.722C859.804 427.883 911.033 372.741 921.929 359.024C934.937 342.638 946.865 316.666 941.871 294.777ZM870.962 679.851C848.435 669.513 832.133 658.557 813.581 643.693C828.287 663.586 844.795 682.138 870.962 679.851ZM928.536 647.175C886.25 636.947 867.788 628.628 842.168 616.999C865.046 636.031 899.579 656.724 928.536 647.175ZM981.428 589.703C939.02 591.979 917.112 590.608 857.785 582.145C880.293 591.511 897.499 598.313 922.409 601.128C941.568 603.293 966.09 603.288 981.428 589.703ZM1004.86 518.741C959.193 532.84 936.096 538.258 866.818 544.688C893.069 546.994 924.108 549.851 950.802 545.956C970.094 543.147 994.028 535.837 1004.86 518.741ZM1013.3 436.644C960.885 471.735 926.104 486.744 862.261 510.368C914.085 497.828 947.349 488.818 963.493 482.017C982.774 473.888 1007.17 458.242 1013.3 436.644ZM583.397 698.276C599.571 686.342 610.704 674.949 622.977 660.085C614.586 678.31 604.546 695.77 583.397 698.276ZM450.016 294.777C485.731 363.471 527.624 415.33 572.161 465.722C532.083 427.883 480.854 372.741 469.958 359.024C456.95 342.638 445.022 316.666 450.016 294.777ZM520.925 679.851C543.452 669.513 559.754 658.557 578.306 643.693C563.6 663.586 547.092 682.138 520.925 679.851ZM463.351 647.175C505.638 636.947 524.099 628.628 549.72 616.999C526.84 636.031 492.309 656.724 463.351 647.175ZM410.46 589.703C452.867 591.979 474.775 590.608 534.103 582.145C511.595 591.511 494.388 598.313 469.478 601.128C450.319 603.293 425.797 603.288 410.46 589.703ZM387.023 518.741C432.694 532.84 455.791 538.258 525.07 544.688C498.818 546.994 467.781 549.851 441.086 545.956C421.793 543.147 397.859 535.837 387.023 518.741ZM378.59 436.644C431.002 471.735 465.783 486.744 529.626 510.368C477.802 497.828 444.538 488.818 428.394 482.017C409.113 473.888 384.717 458.242 378.59 436.644Z" fill="#AD8E37" stroke="#AD8E37" stroke-width="4" mask="url(#path-9-inside-1_117_67)"/>
<path d="M722.5 545C713.314 542.491 708.442 541.755 700 541C704.957 544.756 708.048 546.525 714.5 548.5C719.099 548.328 720.756 547.49 722.5 545Z" fill="#AD8E37" stroke="#001F5F" stroke-width="3"/>
<path d="M919.399 1121C908.177 1134.35 877.58 1141.62 869.935 1161.17C869.935 1175.16 869.84 1189.14 869.84 1203.29C869.352 1205.83 867.995 1208.27 867.182 1209.23C864.58 1203.82 865.252 1195.03 858.258 1196.15C853.378 1196.62 849.157 1207.26 849.808 1219.34C851.76 1222.04 860.17 1216.98 860.821 1220.64C860.984 1229.06 853.07 1236.5 843.637 1242.07C842.01 1242.07 842.297 1243.35 846.2 1243.83C852.056 1241.13 858.94 1240.04 865.283 1238.45C867.072 1233.2 868.47 1229.55 867.657 1217.95C870.747 1215.24 872.119 1211.45 872.119 1207C875.209 1211.77 881.183 1215.38 887.689 1215.53C902.165 1214.58 909.776 1190.97 919.209 1182.23C918.884 1180.64 919.06 1180.78 918.735 1179.35C912.879 1178.56 907.513 1173.4 900.031 1173.88C894.989 1173.72 886.264 1183.97 883.986 1198.28C880.734 1201.3 874.723 1194.76 874.397 1189.84C874.235 1179.19 875.048 1177.07 874.397 1166.74C880.578 1154.34 890.926 1152.63 904.589 1143.73C915.323 1137.53 919.887 1126.4 919.399 1121ZM904.114 1180.1C909.273 1179.98 910.664 1181.81 910.095 1183.34C906.517 1192.72 897.326 1198.07 887.404 1197.91C889.193 1190.76 895.79 1180.76 901.645 1180.28C902.54 1180.18 903.377 1180.11 904.114 1180.1Z" fill="#C39F3B"/>
<path d="M824.588 1190.29C828.492 1190.92 828.167 1200.3 835.974 1199.19C838.739 1204.27 834.998 1209.52 833.372 1214.6C829.956 1216.35 824.588 1213.49 820.522 1211.74C814.342 1215.72 816.456 1227.64 808.811 1230.02C804.583 1229.86 801.655 1226.37 797.426 1226.37C783.601 1244.48 752.209 1259.9 725.21 1259.9C708.457 1259.74 702.113 1254.18 703.414 1243.53C703.74 1237.81 704.553 1232.25 706.505 1227.48C707.643 1227.48 708.619 1227.32 709.758 1227.16C706.83 1238.92 711.547 1242.58 720.981 1242.58C753.185 1241.94 775.631 1236.38 794.498 1221.12C797.589 1220.8 802.793 1223.98 805.071 1222.07C808.811 1218.58 807.836 1213.33 810.601 1209.04C810.926 1208.41 814.829 1206.5 815.317 1206.34C816.781 1199.35 818.082 1193.78 824.588 1190.29Z" fill="#C39F3B"/>
<path d="M754.973 1207.29C757.25 1204.59 762.78 1214.76 767.009 1218.26C768.473 1219.85 761.154 1223.66 757.901 1226.53C756.762 1227.32 750.094 1218.74 746.19 1214.76C745.539 1213.97 752.371 1210 754.973 1207.29Z" fill="#C39F3B"/>
<path d="M738.872 1209.37C741.149 1206.66 746.679 1216.84 751.071 1220.49C752.372 1221.92 745.053 1225.74 741.8 1228.6C740.824 1229.39 734.155 1220.81 730.251 1216.99C729.601 1216.04 736.27 1212.07 738.872 1209.37Z" fill="#C39F3B"/>
<path d="M634.786 1174.07C638.039 1172.32 639.178 1183.92 641.943 1188.69C642.593 1190.6 634.461 1191.55 630.232 1192.98C628.931 1193.46 626.003 1182.97 623.889 1178.04C623.563 1176.93 631.371 1175.66 634.786 1174.07Z" fill="#C39F3B"/>
<path d="M501.733 1215.4C504.823 1213.65 506.124 1225.25 508.727 1230.02C509.54 1231.92 501.245 1232.88 497.178 1234.31C495.877 1234.79 492.95 1224.3 490.672 1219.37C490.51 1218.26 498.154 1216.98 501.733 1215.4Z" fill="#C39F3B"/>
<path d="M572.163 1249.27C575.254 1247.68 576.555 1259.13 579.157 1264.05C579.971 1265.96 571.675 1266.75 567.609 1268.34C566.308 1268.66 563.38 1258.33 561.266 1253.24C560.941 1252.13 568.585 1251.02 572.163 1249.27Z" fill="#C39F3B"/>
<path d="M631.984 1226.21C635.074 1224.46 636.375 1236.07 638.978 1240.83C639.791 1242.74 631.496 1243.69 627.43 1245.13C626.128 1245.6 623.201 1235.11 621.086 1230.03C620.761 1229.07 628.405 1227.8 631.984 1226.21Z" fill="#C39F3B"/>
<path d="M648.778 1232.88C651.868 1231.3 653.169 1242.74 655.772 1247.67C656.585 1249.57 648.29 1250.37 644.223 1251.96C642.922 1252.27 639.994 1241.94 637.717 1236.86C637.555 1235.75 645.199 1234.63 648.778 1232.88Z" fill="#C39F3B"/>
<path d="M633.792 1246.55C637.045 1244.81 638.184 1256.41 640.949 1261.18C641.762 1263.08 633.467 1264.04 629.238 1265.47C627.937 1265.94 625.009 1255.46 622.895 1250.53C622.569 1249.42 630.377 1248.14 633.792 1246.55Z" fill="#C39F3B"/>
<path d="M647.777 1208.41C644.199 1212.22 640.295 1214.29 633.789 1212.38C630.374 1209.68 632.325 1204.59 629.235 1203C618.826 1200.94 592.314 1205.23 590.524 1215.24C595.729 1217.94 602.235 1220.64 608.416 1222.55C604.35 1224.46 595.729 1226.21 588.898 1224.78C580.278 1225.25 578.976 1217.15 584.506 1207.45C590.525 1193.62 598.657 1180.43 603.536 1166.45C600.283 1169.31 598.169 1172.01 593.452 1171.69C585.32 1191.72 577.513 1206.18 572.145 1221.6C570.193 1226.84 572.796 1237.65 582.067 1240.35C598.169 1243.53 611.344 1228.75 621.916 1225.25C622.404 1223.35 622.241 1223.82 622.729 1221.92C617.362 1219.05 605.488 1213.65 600.283 1210.79C605.163 1206.66 618.175 1208.09 625.006 1210.31C628.91 1212.06 627.771 1218.1 632.488 1219.21C638.831 1220.17 646.313 1216.51 648.265 1211.27C648.428 1210 648.265 1209.04 647.777 1208.41Z" fill="#C39F3B"/>
<path d="M566.953 1201.74C566.465 1203.49 566.465 1202.7 565.977 1204.45C549.062 1214.78 528.243 1221.29 489.857 1200.47C466.924 1187.92 480.424 1174.41 486.604 1166.78C492.622 1188.71 523.201 1207.63 566.953 1201.74Z" fill="#C39F3B"/>
<path d="M379.263 168.381L366.449 177.197C365.074 175.7 363.583 174.556 361.976 173.765C360.355 172.955 358.664 172.48 356.902 172.342C355.14 172.204 353.35 172.4 351.532 172.933C349.734 173.451 347.977 174.301 346.26 175.482C343.159 177.615 340.988 180.244 339.746 183.368C338.491 186.473 338.236 189.924 338.981 193.722C339.713 197.5 341.507 201.467 344.365 205.621C347.304 209.893 350.407 213.046 353.674 215.08C356.96 217.1 360.264 218.06 363.586 217.959C366.907 217.858 370.079 216.768 373.102 214.688C374.799 213.52 376.215 212.216 377.35 210.774C378.504 209.32 379.352 207.774 379.892 206.137C380.42 204.481 380.625 202.774 380.507 201.016C380.409 199.245 379.956 197.458 379.149 195.658L392.003 186.901C393.564 189.879 394.56 193.102 394.991 196.569C395.429 200.004 395.227 203.491 394.385 207.029C393.55 210.535 392.004 213.926 389.746 217.203C387.495 220.447 384.449 223.391 380.606 226.034C375.262 229.711 369.651 231.789 363.775 232.268C357.917 232.735 352.193 231.515 346.602 228.608C341.03 225.689 336.003 220.972 331.522 214.457C327.027 207.923 324.431 201.519 323.736 195.245C323.04 188.97 323.973 183.185 326.536 177.887C329.085 172.57 332.993 168.101 338.259 164.478C341.731 162.089 345.285 160.363 348.92 159.299C352.575 158.221 356.198 157.827 359.787 158.116C363.364 158.385 366.799 159.37 370.094 161.068C373.409 162.753 376.465 165.191 379.263 168.381Z" fill="#001F5F"/>
<path d="M462.834 137.318C466.357 144.424 468.008 151.136 467.786 157.456C467.585 163.766 465.825 169.382 462.505 174.305C459.196 179.196 454.668 183.066 448.92 185.917C443.13 188.788 437.281 190.05 431.375 189.702C425.468 189.354 419.943 187.351 414.799 183.692C409.654 180.033 405.326 174.661 401.813 167.577C398.29 160.472 396.629 153.764 396.829 147.455C397.03 141.145 398.785 135.545 402.094 130.654C405.392 125.742 409.937 121.85 415.727 118.979C421.475 116.128 427.302 114.877 433.209 115.225C439.126 115.541 444.657 117.528 449.801 121.188C454.966 124.836 459.31 130.213 462.834 137.318ZM448.867 144.244C446.585 139.642 443.971 136.102 441.025 133.625C438.1 131.138 434.993 129.693 431.701 129.291C428.41 128.888 425.099 129.512 421.769 131.164C418.439 132.815 415.938 135.072 414.267 137.936C412.595 140.8 411.853 144.154 412.042 147.997C412.252 151.831 413.498 156.049 415.78 160.651C418.062 165.254 420.666 168.799 423.59 171.286C426.536 173.762 429.654 175.202 432.946 175.605C436.237 176.007 439.548 175.383 442.878 173.732C446.208 172.08 448.708 169.823 450.38 166.959C452.052 164.096 452.783 160.747 452.573 156.914C452.385 153.07 451.149 148.847 448.867 144.244Z" fill="#001F5F"/>
<path d="M471.292 94.3367L489.384 88.6547L523.133 129.272L523.946 129.017L528.413 76.3969L546.505 70.7149L568.297 140.101L554.067 144.57L539.883 99.4079L539.307 99.5888L535.428 150.051L525.739 153.094L493.652 113.741L493.076 113.922L507.313 159.253L493.084 163.722L471.292 94.3367Z" fill="#001F5F"/>
<path d="M574.227 64.4509L593.012 61.8598L619.529 107.528L620.374 107.412L633.537 56.2699L652.323 53.6788L662.26 125.724L647.485 127.762L641.017 80.8693L640.419 80.9518L628.194 130.064L618.133 131.452L593.045 87.307L592.447 87.3895L598.939 134.458L584.164 136.496L574.227 64.4509Z" fill="#001F5F"/>
<path d="M692.781 53.0349L694.536 125.741L679.164 126.112L677.409 53.4061L692.781 53.0349Z" fill="#001F5F"/>
<path d="M713.342 65.1054L714.193 52.4565L773.789 56.4698L772.937 69.1187L750.721 67.6226L746.687 127.537L731.522 126.515L735.557 66.6014L713.342 65.1054Z" fill="#001F5F"/>
<path d="M797.6 59.1004L816.134 63.1078L825.384 115.1L826.217 115.28L856.12 71.7529L874.654 75.7603L859.285 146.845L844.707 143.693L854.711 97.4256L854.121 97.298L825.796 139.241L815.869 137.095L807.439 87.0235L806.849 86.8959L796.808 133.337L782.23 130.185L797.6 59.1004Z" fill="#001F5F"/>
<path d="M874.857 152.449L900.089 84.2393L946.051 101.242L941.653 113.132L910.112 101.464L904.1 117.717L933.275 128.51L928.877 140.4L899.701 129.607L893.677 145.894L925.35 157.611L920.952 169.501L874.857 152.449Z" fill="#001F5F"/>
<path d="M1023.62 139.373L990.024 203.876L978.245 197.741L971.327 142.527L970.854 142.281L949.71 182.879L936.072 175.776L969.667 111.273L981.636 117.506L988.35 172.574L988.916 172.869L1010.04 132.303L1023.62 139.373Z" fill="#001F5F"/>
<path d="M1036.3 161.874L1043.56 151.485L1092.51 185.72L1085.24 196.108L1067 183.347L1032.58 232.554L1020.12 223.843L1054.54 174.635L1036.3 161.874Z" fill="#001F5F"/>
<path d="M379.415 1184.14L416.375 1121.51L429.618 1129.32L392.657 1191.96L379.415 1184.14Z" fill="#001F5F"/>
<path d="M308.972 1134.7L352.589 1076.5L363.217 1084.47L361.084 1140.07L361.51 1140.39L388.962 1103.76L401.266 1112.98L357.649 1171.18L346.851 1163.09L349.162 1107.66L348.651 1107.28L321.22 1143.88L308.972 1134.7Z" fill="#001F5F"/>
<path d="M299.613 1109.75L290.605 1118.68L248.575 1076.24L257.582 1067.31L273.25 1083.13L315.917 1040.88L326.612 1051.68L283.945 1093.93L299.613 1109.75Z" fill="#001F5F"/>
<path d="M291.716 1014.66L233.607 1058.39L204.138 1019.24L214.267 1011.61L234.49 1038.48L248.336 1028.06L229.63 1003.21L239.759 995.585L258.465 1020.44L272.34 1010L252.033 983.015L262.162 975.392L291.716 1014.66Z" fill="#001F5F"/>
<path d="M186.627 943.396C185.349 944.661 184.343 946.006 183.611 947.431C182.858 948.867 182.389 950.378 182.203 951.963C181.985 953.539 182.055 955.174 182.413 956.866C182.76 958.538 183.41 960.247 184.364 961.992C186.146 965.254 188.523 967.678 191.494 969.265C194.454 970.831 197.856 971.454 201.701 971.134C205.525 970.825 209.66 969.457 214.106 967.028C218.552 964.598 221.964 961.857 224.342 958.804C226.721 955.751 228.056 952.54 228.346 949.171C228.616 945.814 227.831 942.452 225.993 939.086C224.324 936.032 222.359 933.72 220.099 932.15C217.806 930.57 215.35 929.753 212.731 929.7C210.101 929.627 207.425 930.333 204.703 931.82L203.61 928.856L212.6 945.311L202.441 950.861L187.849 924.154L195.89 919.761C201.499 916.697 206.966 915.247 212.29 915.414C217.594 915.592 222.472 917.162 226.923 920.125C231.354 923.1 235.034 927.267 237.962 932.628C241.231 938.611 242.784 944.588 242.62 950.559C242.435 956.541 240.594 962.133 237.096 967.335C233.567 972.527 228.436 976.963 221.705 980.64C216.532 983.467 211.511 985.238 206.642 985.956C201.742 986.664 197.135 986.429 192.823 985.251C188.51 984.073 184.629 982.08 181.179 979.271C177.729 976.462 174.852 972.948 172.547 968.731C170.572 965.116 169.263 961.461 168.62 957.766C167.956 954.082 167.922 950.513 168.517 947.058C169.1 943.583 170.291 940.356 172.089 937.377C173.867 934.41 176.216 931.845 179.135 929.684L186.627 943.396Z" fill="#001F5F"/>
<path d="M215.891 890.985L147.598 915.992L137.732 889.048C135.843 883.891 135.154 879.151 135.664 874.83C136.144 870.494 137.712 866.756 140.369 863.615C142.996 860.46 146.565 858.056 151.078 856.403C155.613 854.743 159.873 854.292 163.857 855.052C167.819 855.82 171.347 857.743 174.44 860.82C177.525 863.875 180.029 868.026 181.95 873.273L188.556 891.313L176.951 895.562L171.2 879.856C170.191 877.1 168.974 874.948 167.551 873.402C166.128 871.856 164.497 870.915 162.66 870.579C160.815 870.221 158.769 870.454 156.524 871.276C154.256 872.106 152.511 873.262 151.289 874.743C150.058 876.202 149.381 878.001 149.256 880.139C149.101 882.263 149.532 884.715 150.55 887.493L154.115 897.23L210.604 876.546L215.891 890.985ZM171.307 865.484L196.171 837.131L202.008 853.07L177.01 881.057L171.307 865.484Z" fill="#001F5F"/>
<path d="M119.327 827.928L189.816 810.024L193.601 824.927L123.112 842.831L119.327 827.928Z" fill="#001F5F"/>
<path d="M126.389 804.631L113.845 806.469L105.186 747.37L117.729 745.532L120.957 767.563L180.373 758.857L182.576 773.895L123.161 782.601L126.389 804.631Z" fill="#001F5F"/>
<path d="M103.42 727.743L103.431 710.52L134.762 693.956L134.763 693.246L103.452 676.643L103.463 659.42L150.463 685.976L176.173 685.991L176.164 701.261L150.454 701.245L103.42 727.743Z" fill="#001F5F"/>
<path d="M1216.52 696.418L1215.68 670.65L1288.37 668.292L1289.22 694.273C1289.45 701.584 1288.2 707.925 1285.46 713.296C1282.75 718.667 1278.73 722.859 1273.4 725.875C1268.07 728.913 1261.64 730.555 1254.09 730.8C1246.52 731.046 1239.96 729.825 1234.43 727.139C1228.89 724.476 1224.59 720.53 1221.5 715.3C1218.42 710.094 1216.76 703.8 1216.52 696.418ZM1229.35 685.591L1229.67 695.352C1229.81 699.895 1230.74 703.69 1232.45 706.737C1234.19 709.808 1236.78 712.069 1240.24 713.52C1243.72 714.994 1248.17 715.643 1253.59 715.467C1258.96 715.293 1263.33 714.358 1266.68 712.662C1270.04 710.99 1272.47 708.578 1273.98 705.426C1275.49 702.274 1276.17 698.427 1276.02 693.884L1275.7 684.088L1229.35 685.591Z" fill="#001F5F"/>
<path d="M1286.72 769.184L1214.31 762.362L1215.75 747.054L1288.16 753.875L1286.72 769.184Z" fill="#001F5F"/>
<path d="M1255.16 829.021C1258.02 829.347 1260.45 828.624 1262.46 826.853C1264.46 825.081 1265.85 822.39 1266.63 818.78C1267.16 816.327 1267.26 814.181 1266.93 812.342C1266.62 810.508 1265.97 809.01 1264.96 807.848C1263.94 806.709 1262.67 805.974 1261.15 805.645C1259.88 805.324 1258.71 805.351 1257.64 805.725C1256.56 806.122 1255.56 806.766 1254.64 807.658C1253.75 808.555 1252.9 809.631 1252.1 810.887C1251.32 812.147 1250.58 813.515 1249.9 814.991L1247 821.049C1245.64 824 1244.1 826.647 1242.38 828.99C1240.66 831.332 1238.76 833.27 1236.66 834.803C1234.56 836.337 1232.25 837.377 1229.74 837.924C1227.22 838.495 1224.47 838.472 1221.5 837.857C1217.16 836.895 1213.63 834.971 1210.91 832.084C1208.2 829.225 1206.42 825.546 1205.55 821.047C1204.7 816.577 1204.89 811.449 1206.14 805.663C1207.38 799.924 1209.34 795.115 1212.01 791.236C1214.69 787.38 1218 784.632 1221.96 782.992C1225.95 781.38 1230.5 781.068 1235.64 782.055L1232.51 796.6C1230.09 796.248 1227.95 796.501 1226.1 797.361C1224.26 798.248 1222.71 799.622 1221.46 801.484C1220.23 803.374 1219.34 805.615 1218.78 808.207C1218.23 810.753 1218.12 813.043 1218.46 815.077C1218.79 817.134 1219.51 818.826 1220.6 820.152C1221.69 821.478 1223.1 822.325 1224.81 822.694C1226.41 823.039 1227.85 822.854 1229.14 822.139C1230.43 821.448 1231.65 820.283 1232.8 818.642C1233.95 817.025 1235.12 814.988 1236.3 812.53L1239.92 805.208C1242.67 799.529 1245.97 795.288 1249.82 792.485C1253.66 789.683 1258.21 788.859 1263.46 790.015C1267.77 790.92 1271.29 792.877 1274 795.885C1276.72 798.916 1278.54 802.662 1279.46 807.125C1280.39 811.587 1280.29 816.41 1279.18 821.594C1278.04 826.87 1276.14 831.281 1273.49 834.826C1270.83 838.394 1267.66 840.931 1263.96 842.435C1260.27 843.94 1256.3 844.271 1252.05 843.427L1255.16 829.021Z" fill="#001F5F"/>
<path d="M1217.19 923.984L1223.01 909.562C1224.98 910.052 1226.86 910.184 1228.63 909.957C1230.43 909.739 1232.11 909.201 1233.65 908.345C1235.2 907.488 1236.58 906.337 1237.8 904.89C1239.02 903.466 1240.01 901.787 1240.79 899.856C1242.2 896.365 1242.57 892.975 1241.88 889.684C1241.21 886.402 1239.52 883.383 1236.8 880.626C1234.11 877.878 1230.42 875.56 1225.75 873.672C1220.94 871.73 1216.61 870.812 1212.77 870.918C1208.91 871.046 1205.63 872.068 1202.91 873.984C1200.2 875.901 1198.15 878.56 1196.78 881.962C1196.01 883.872 1195.55 885.741 1195.39 887.57C1195.23 889.42 1195.38 891.177 1195.83 892.84C1196.31 894.512 1197.08 896.049 1198.14 897.451C1199.2 898.874 1200.57 900.114 1202.23 901.17L1196.34 915.566C1193.4 913.942 1190.79 911.804 1188.52 909.15C1186.26 906.526 1184.5 903.507 1183.25 900.091C1182.01 896.706 1181.43 893.025 1181.51 889.046C1181.6 885.099 1182.51 880.963 1184.26 876.638C1186.69 870.624 1190.22 865.795 1194.86 862.153C1199.49 858.533 1204.94 856.393 1211.2 855.733C1217.46 855.094 1224.26 856.256 1231.59 859.217C1238.94 862.187 1244.64 866.097 1248.68 870.946C1252.72 875.796 1255.13 881.136 1255.92 886.968C1256.73 892.809 1255.93 898.693 1253.54 904.62C1251.96 908.527 1249.95 911.928 1247.5 914.821C1245.05 917.736 1242.25 920.063 1239.09 921.802C1235.96 923.55 1232.55 924.625 1228.87 925.026C1225.17 925.449 1221.28 925.101 1217.19 923.984Z" fill="#001F5F"/>
<path d="M1221.1 968.493L1157.76 932.761L1165.31 919.368L1228.66 955.1L1221.1 968.493Z" fill="#001F5F"/>
<path d="M1149.37 947.829L1208.1 990.731L1191.17 1013.9C1187.92 1018.35 1184.29 1021.53 1180.3 1023.42C1176.33 1025.33 1172.24 1026 1168.04 1025.46C1163.84 1024.94 1159.79 1023.26 1155.9 1020.41C1152 1017.56 1149.17 1014.21 1147.42 1010.34C1145.66 1006.48 1145.12 1002.35 1145.79 997.942C1146.44 993.554 1148.42 989.104 1151.72 984.593L1162.5 969.825L1172.45 977.094L1163.13 989.854C1161.39 992.244 1160.36 994.513 1160.05 996.662C1159.75 998.844 1160.05 1000.86 1160.96 1002.7C1161.88 1004.57 1163.31 1006.21 1165.24 1007.62C1167.19 1009.04 1169.18 1009.9 1171.2 1010.17C1173.23 1010.48 1175.22 1010.15 1177.17 1009.17C1179.14 1008.2 1181 1006.51 1182.76 1004.1L1188.88 995.731L1140.3 960.245L1149.37 947.829Z" fill="#001F5F"/>
<path d="M1107.96 1002.01L1159.67 1053.15L1148.86 1064.08L1106.16 1021.86L1084.24 1044.03L1075.22 1035.11L1107.96 1002.01Z" fill="#001F5F"/>
<path d="M1098.11 1110.09L1052.23 1053.66L1064.17 1043.96L1110.04 1100.39L1098.11 1110.09Z" fill="#001F5F"/>
<path d="M1025.82 1158.66L987.482 1096.86L998.769 1089.86L1049.78 1112.08L1050.24 1111.8L1026.11 1072.9L1039.18 1064.8L1077.51 1126.6L1066.04 1133.71L1015.26 1111.39L1014.71 1111.73L1038.82 1150.6L1025.82 1158.66Z" fill="#001F5F"/>
<path d="M972.812 1103.86L1000.49 1171.11L955.175 1189.76L950.35 1178.04L981.448 1165.24L974.853 1149.22L946.086 1161.06L941.261 1149.33L970.027 1137.49L963.418 1121.43L932.189 1134.29L927.363 1122.56L972.812 1103.86Z" fill="#001F5F"/>
<path d="M701.359 254C715.831 260.187 726.005 274.278 726.005 290.701C726.005 312.829 707.618 330.796 684.972 330.796C673.649 330.796 663.42 326.262 656 319.011C663.624 333.271 678.903 343.03 696.509 343.03C721.734 343.03 742.196 323.036 742.196 298.387C742.196 275.343 724.298 256.373 701.359 254Z" fill="#C39F3B"/>
<path d="M684.715 309.79L673.179 295.458L655 299.574L665.384 284.425L655.76 268.803L673.715 273.771L685.945 260L686.657 278.221L703.84 285.332L686.326 291.624L684.715 309.79Z" fill="#C39F3B"/>
<path d="M1205.72 447.79L1194.18 433.458L1176 437.574L1186.38 422.425L1176.76 406.803L1194.71 411.771L1206.95 398L1207.66 416.221L1224.84 423.332L1207.33 429.624L1205.72 447.79Z" fill="#C39F3B"/>
<path d="M208.715 447.79L197.179 433.458L179 437.574L189.384 422.425L179.76 406.803L197.715 411.771L209.945 398L210.657 416.221L227.84 423.332L210.326 429.624L208.715 447.79Z" fill="#C39F3B"/>
</svg>
