<svg width="37" height="28" viewBox="0 0 37 28" fill="none" xmlns="http://www.w3.org/2000/svg">
<path d="M25.6606 16.8295C24.8479 16.2815 23.8916 16.4369 23.0451 16.9239C22.1986 17.411 17.3329 21.553 17.3329 21.553H12.5432C12.4231 21.5399 12.3113 21.4859 12.2266 21.4002C12.142 21.3145 12.0898 21.2023 12.0788 21.0827C12.0815 20.9611 12.1313 20.8451 12.2178 20.7591C12.3043 20.6731 12.4209 20.6235 12.5432 20.6209H15.4732C16.4991 20.6209 17.6474 19.9554 17.6474 18.7755C17.6474 17.5159 16.4991 16.9302 15.4732 16.9302C13.6937 16.9302 13.3475 16.9302 13.3475 16.9302C12.634 16.9302 11.912 16.8883 11.3547 16.5922C10.5766 16.1991 9.71548 15.9961 8.84272 16.0002C8.1296 15.9936 7.42231 16.1285 6.76226 16.397C6.1022 16.6656 5.50265 17.0624 4.9987 17.5642L0 22.462L5.56866 28L7.42417 26.1547H16.8242C17.7581 26.1535 18.6592 25.8122 19.3573 25.1953L25.7218 18.0954C25.8141 18.0152 25.887 17.9153 25.9351 17.8031C25.9831 17.691 26.005 17.5695 25.9991 17.4477C25.9932 17.3259 25.9597 17.2071 25.901 17.1C25.8424 16.9929 25.7602 16.9005 25.6606 16.8295Z" fill="white"/>
<path d="M11.3394 11.1705C12.1521 11.7185 13.1084 11.5631 13.9549 11.0761C14.8014 10.589 19.6671 6.44704 19.6671 6.44704H24.4568C24.5769 6.46011 24.6887 6.51407 24.7734 6.59977C24.858 6.68548 24.9102 6.79766 24.9212 6.91729C24.9185 7.03894 24.8687 7.15487 24.7822 7.24091C24.6957 7.32695 24.5791 7.37647 24.4568 7.37914H21.5268C20.5009 7.37914 19.3526 8.04463 19.3526 9.22445C19.3526 10.4841 20.5009 11.0698 21.5268 11.0698C23.3063 11.0698 23.6525 11.0698 23.6525 11.0698C24.366 11.0698 25.088 11.1117 25.6453 11.4078C26.4234 11.8009 27.2845 12.0039 28.1573 11.9998C28.8704 12.0064 29.5777 11.8715 30.2377 11.603C30.8978 11.3344 31.4973 10.9376 32.0013 10.4358L37 5.53803L31.4313 2.92716e-07L29.5758 1.84531H20.1758C19.2419 1.84648 18.3408 2.18778 17.6427 2.8047L11.2782 9.90464C11.1859 9.98481 11.113 10.0847 11.0649 10.1969C11.0169 10.309 10.995 10.4305 11.0009 10.5523C11.0068 10.6741 11.0403 10.7929 11.099 10.9C11.1576 11.0071 11.2398 11.0995 11.3394 11.1705Z" fill="white"/>
</svg>
