<svg class="svg-icon" style="width: 1em; height: 1em;vertical-align: middle;fill: currentColor;overflow: hidden;" viewBox="0 0 1024 1024" version="1.1" xmlns="http://www.w3.org/2000/svg"><path d="M59.807131 401.406183c22.783913 43.940768 128.990816 139.073452 296.27068 139.073452l71.594595 0-42.270732 42.279942c4.77884 6.269797 10.032494 12.311397 15.759939 18.047028 68.850088 68.833715 180.463118 68.833715 249.321392 0 5.719258-5.736655 10.963703-11.777231 15.742543-18.047028l-42.271756-42.279942 71.595618 0c167.279864 0 273.486768-95.132684 296.269657-139.073452L667.039076 401.406183c-64.164369 0-77.797877 22.859637-91.684142 52.853765-11.895935 25.672706-28.028357 51.125401-49.541323 73.924663-21.511943-22.800285-37.644365-48.25298-49.5403-73.924663-13.887288-29.994128-27.519774-52.853765-91.684142-52.853765L59.807131 401.406183 59.807131 401.406183zM489.788116 462.418768c8.243755 7.29515 17.216103 12.878309 29.773094 19.200294C504.886999 492.149906 493.37992 469.985094 489.788116 462.418768L489.788116 462.418768zM561.840128 462.418768c-8.243755 7.29515-17.217127 12.878309-29.773094 19.200294C546.742269 492.149906 558.248324 469.985094 561.840128 462.418768L561.840128 462.418768z"  /></svg>