<svg class="svg-icon" style="width: 1em; height: 1em;vertical-align: middle;fill: currentColor;overflow: hidden;" viewBox="0 0 1024 1024" version="1.1" xmlns="http://www.w3.org/2000/svg"><path d="M515.149736 729.924311c-13.646811 0-18.135032-30.893614-19.111267-69.263503-8.715499 23.738657-25.090445 41.594327-45.315068 42.240033-2.24411 0.070608-3.582595-0.822738-4.261047-2.164293-0.576121-1.111311-0.817622-2.499937 0.520863-5.715165 7.262404-17.410532 13.469779-34.991955 18.841114-52.601009-13.795191 18.850323-32.845059 30.061666-51.686173 25.052582-2.183735-0.576121-3.275603-1.829671-3.619434-3.308349-0.288572-1.249457-0.208754-2.65855 1.835811-5.380544 22.692838-30.252001 43.076074-63.943334 57.981553-101.764732-5.282307 4.270257-10.04989 8.033977-14.008039 11.002588-4.967128 3.740184-13.3214 7.011694-23.855314 6.039553-4.16281 4.833075-7.610328 8.782014-9.497305 10.775414-8.001231 8.465812 6.52767 8.893554 8.05649 17.089214 0.190335 1.045819-0.144286 1.570775-0.520863 1.938142 0.748037 4.218068-1.217734 11.773138-7.206122 14.528901 2.326998-4.042059 1.417279-9.069563-0.515746-11.253298-3.721765-4.191462-12.564154-7.461949-22.833031-5.342682-5.227048 1.073448-12.600993 4.502547-15.736403 11.053754-1.965771 4.111644-1.486864 9.450233 1.472538 13.660114-8.558933-2.38328-10.900258-10.621918-9.757225-15.20326-2.099824-8.674567 7.1744-15.71389 14.510482-17.610076-11.759835-1.013073-24.309662 3.15076-25.940812 19.667945-6.727215-7.132444-4.859681-14.570857-0.696872-20.12741 1.356904-8.262174 14.980179-10.942213 21.355377-9.014304-2.867304-2.095731-5.849218-4.052293-11.834536-5.305843-3.215228-0.283456-7.944949 0.116657-12.169157 6.463202-0.817622-8.977465 4.683672-13.897521 9.278317-14.669094 0.669242-0.841158 1.450025-1.203408 2.355651-1.468444 13.697977-4.139274 25.51307 19.914562 35.967166 7.834432 1.88186-2.170432 4.107551-5.54325 6.477528-9.576099-5.120624-4.460592-8.428973-11.946077-0.678452-23.738657l18.334577-27.906583c-1.274016 0.864694-2.564405 1.704828-3.889587 2.523473-13.84124 8.563026-29.104875 14.650675-42.797735 14.687514-8.293897 0.027629-4.967128-6.481621-1.031493-9.984399 27.906583-25.313525 33.835619-32.608675 51.444673-49.284473-18.562774 12.326746-38.84368 31.738865-56.546877 46.543036-4.02364 3.354398-8.312316 6.207375-12.866029 8.878205-14.022365 8.257058-29.421077 13.999852-43.11803 13.734816-9.826809-0.199545-3.080152-8.131191 0.678452-11.593036 34.090423-31.55774 52.616358-47.52848 71.638597-64.890916-21.35947 12.257162-52.392254 42.909276-75.080999 61.159942-6.202259 4.971222-12.498662 9.766434-19.505239 13.600763-14.273075 7.80578-29.843702 13.069667-43.527352 12.372795-9.357112-0.473791-3.517103-7.202029 0.13917-10.603499 34.438347-31.91078 63.566758-58.604746 104.678084-92.969415-16.597003 9.590426-78.030168 61.936631-111.354134 91.919503-8.734942 7.856945-17.786085 14.501272-28.468378 19.620873-14.673188 7.04444-30.498618 11.467169-44.121893 10.045797-8.27957-0.86367-4.208858-6.27696-0.445138-9.69685 35.498492-32.840966 106.034988-93.532233 167.449733-145.050584-17.047258 8.540514-126.409015 100.761891-170.925904 140.03229-9.952676 8.776897-18.561751 14.994506-31.05632 20.300348-14.976086 6.370081-30.986735 10.073426-44.531216 8.03807-5.617951-0.850367-6.635117-3.373841-0.799202-9.041934 35.242665-32.66905 166.939103-141.579529 243.887636-205.625194-15.276938 6.602372-172.319647 135.134747-231.281527 185.547927-12.624529 10.788717-22.87908 17.158798-38.898939 22.930245-15.305591 5.514597-31.506575 8.312316-44.907793 5.519714-5.570879-1.157359-6.578836-3.917216-0.301875-9.074679 34.754548-34.545794 310.962288-274.336112 357.27201-266.673595 21.201881 2.220574 16.34527 25.921369 10.807137 41.757033-28.347628 80.986499 61.457724 93.062536 78.337159 43.267433 2.611477-8.257058 4.043083-15.589047 4.814656-19.830651 5.064342-25.986861 14.635325-37.658691 34.295084-38.416961 12.851703-0.488117 27.28339 1.417279 42.053792 7.072069 24.082488 1.007957 28.640294 12.762675 28.106128 24.546046-6.797823-3.066849-23.855314-2.936889-31.330566 6.797823 0.77055 4.241604 2.202155 11.573593 4.813632 19.830651 16.879436 49.795103 106.684788 37.719066 78.337159-43.267433-5.538133-15.835663-10.393721-39.536458 10.807137-41.757033 46.310745-7.662517 322.518484 232.127801 357.273033 266.673595 6.277984 5.157463 5.269004 7.91732-0.301875 9.074679-13.401218 2.792603-29.602202-0.005117-44.907793-5.519714-16.019859-5.771447-26.27441-12.141528-38.898939-22.930245-58.96188-50.41318-216.004589-178.946578-231.281527-185.547927 76.948533 64.045665 208.644971 172.956144 243.887636 205.625194 5.835915 5.668093 4.817726 8.191566-0.799202 9.041934-13.544481 2.035356-29.55513-1.667989-44.530193-8.03807-12.494569-5.305843-21.103644-11.523451-31.05632-20.300348-44.51689-39.270399-153.878646-131.491777-170.925904-140.03229C745.544057 468.38976 816.080553 529.081027 851.579045 561.92097c3.76372 3.419889 7.833409 8.832156-0.446162 9.69685-13.623275 1.421372-29.448706-3.001357-44.121893-10.045797-10.68127-5.119601-19.733437-11.763928-28.468378-19.620873-33.322943-29.982872-94.758154-82.329077-111.354134-91.919503 41.111327 34.364669 70.238714 61.058634 104.678084 92.969415 3.656273 3.40147 9.497305 10.128685 0.13917 10.603499-13.68365 0.696872-29.253254-4.568039-43.527352-12.372795-7.006578-3.833305-13.302981-8.628518-19.505239-13.600763-22.688745-18.250666-53.721529-48.903803-75.080999-61.159942 19.023262 17.36346 37.548174 33.333176 71.638597 64.890916 3.758604 3.461845 10.505261 11.393491 0.678452 11.593036-13.697977 0.264013-29.095665-5.477758-43.11803-13.734816-4.553713-2.670829-8.842389-5.523807-12.866029-8.878205-17.703197-14.804171-37.984103-34.216289-56.545854-46.543036 17.609053 16.675798 23.538089 23.970948 51.444673 49.284473 3.935636 3.502777 7.262404 10.013051-1.031493 9.984399-13.69286-0.036839-28.956495-6.124488-42.797735-14.687514-1.324158-0.817622-2.615571-1.658779-3.889587-2.523473l18.334577 27.906583c7.750521 11.792581 4.442172 19.278065-0.678452 23.738657 2.369977 4.033873 4.595668 7.405667 6.477528 9.576099 10.454096 12.081153 22.270213-11.973706 35.967166-7.834432 0.906649 0.265036 1.686409 0.627287 2.355651 1.468444 4.595668 0.77055 10.096962 5.691629 9.278317 14.669094-4.223185-6.346545-8.952906-6.746658-12.169157-6.463202-5.984295 1.254573-8.967232 3.211135-11.834536 5.305843 6.374174-1.927909 19.998473 0.75213 21.355377 9.014304 4.16281 5.556553 6.030343 12.994965-0.696872 20.12741-1.63115-16.517185-14.180977-20.681018-25.940812-19.667945 7.337105 1.895163 16.610306 8.934486 14.510482 17.610076 1.143033 4.581342-1.199315 12.818957-9.757225 15.20326 2.959402-4.209882 3.438309-9.54847 1.473561-13.660114-3.136433-6.551206-10.510378-9.980305-15.737426-11.053754-10.268878-2.119267-19.111267 1.151219-22.833031 5.342682-1.933025 2.182712-2.842745 7.211239-0.515746 11.253298-5.989411-2.755764-7.954159-10.30981-7.206122-14.528901-0.376577-0.367367-0.711198-0.892323-0.520863-1.938142 1.528819-8.196683 16.057721-8.623401 8.05649-17.089214-1.885953-1.992377-5.333472-5.942339-9.497305-10.775414-10.533914 0.971118-18.887163-2.299369-23.854291-6.039553-3.959172-2.968611-8.725732-6.732331-14.009062-11.002588 14.905478 37.821397 35.288714 71.51273 57.981553 101.764732 2.044566 2.723018 2.124384 4.131087 1.835811 5.380544-0.343831 1.477654-1.435699 2.732228-3.619434 3.308349-18.841114 5.008061-37.890982-6.202259-51.686173-25.052582 5.371334 17.610076 11.57871 35.1915 18.841114 52.601009 1.338485 3.215228 1.096984 4.604878 0.51984 5.715165-0.678452 1.342578-2.016937 2.234901-4.261047 2.164293-20.225647-0.645706-36.598546-18.501376-45.315068-42.240033C533.284769 699.030697 528.796548 729.924311 515.149736 729.924311L515.149736 729.924311zM518.299473 342.524121c10.905374 0.088004 24.343431 2.578732 30.628578 5.668093-2.048659 3.358491-5.788843 4.557806-9.794064 3.954055C531.588127 351.017562 525.483082 347.012342 518.299473 342.524121L518.299473 342.524121z"  /></svg>