<svg width="1294" height="681" viewBox="0 0 1294 681" fill="none" xmlns="http://www.w3.org/2000/svg">
<mask id="path-1-outside-1_11_21" maskUnits="userSpaceOnUse" x="672" y="534" width="593" height="118" fill="black">
<rect fill="white" x="672" y="534" width="593" height="118"/>
<path d="M678.531 561.245V540.545H767.663V561.245H735.687V646H710.559V561.245H678.531ZM789.753 646H762.359L797.94 540.545H831.873L867.453 646H840.06L815.293 567.115H814.469L789.753 646ZM786.097 604.498H843.355V623.859H786.097V604.498ZM878.807 646V540.545H904.296V625.3H948.166V646H878.807ZM961.361 646V540.545H1034.89V561.245H986.849V582.871H1031.13V603.623H986.849V625.3H1034.89V646H961.361ZM1050.85 646V540.545H1124.38V561.245H1076.34V582.871H1120.62V603.623H1076.34V625.3H1124.38V646H1050.85ZM1140.35 540.545H1171.91L1198.69 605.837H1199.92L1226.7 540.545H1258.26V646H1233.44V581.224H1232.57L1207.23 645.331H1191.37L1166.04 580.863H1165.16V646H1140.35V540.545Z"/>
</mask>
<path d="M678.531 561.245V540.545H767.663V561.245H735.687V646H710.559V561.245H678.531ZM789.753 646H762.359L797.94 540.545H831.873L867.453 646H840.06L815.293 567.115H814.469L789.753 646ZM786.097 604.498H843.355V623.859H786.097V604.498ZM878.807 646V540.545H904.296V625.3H948.166V646H878.807ZM961.361 646V540.545H1034.89V561.245H986.849V582.871H1031.13V603.623H986.849V625.3H1034.89V646H961.361ZM1050.85 646V540.545H1124.38V561.245H1076.34V582.871H1120.62V603.623H1076.34V625.3H1124.38V646H1050.85ZM1140.35 540.545H1171.91L1198.69 605.837H1199.92L1226.7 540.545H1258.26V646H1233.44V581.224H1232.57L1207.23 645.331H1191.37L1166.04 580.863H1165.16V646H1140.35V540.545Z" fill="#1D3768"/>
<path d="M678.531 561.245H672.531V567.245H678.531V561.245ZM678.531 540.545V534.545H672.531V540.545H678.531ZM767.663 540.545H773.663V534.545H767.663V540.545ZM767.663 561.245V567.245H773.663V561.245H767.663ZM735.687 561.245V555.245H729.687V561.245H735.687ZM735.687 646V652H741.687V646H735.687ZM710.559 646H704.559V652H710.559V646ZM710.559 561.245H716.559V555.245H710.559V561.245ZM684.531 561.245V540.545H672.531V561.245H684.531ZM678.531 546.545H767.663V534.545H678.531V546.545ZM761.663 540.545V561.245H773.663V540.545H761.663ZM767.663 555.245H735.687V567.245H767.663V555.245ZM729.687 561.245V646H741.687V561.245H729.687ZM735.687 640H710.559V652H735.687V640ZM716.559 646V561.245H704.559V646H716.559ZM710.559 555.245H678.531V567.245H710.559V555.245ZM789.753 646V652H794.161L795.478 647.794L789.753 646ZM762.359 646L756.674 644.082L754.003 652H762.359V646ZM797.94 540.545V534.545H793.632L792.255 538.627L797.94 540.545ZM831.873 540.545L837.558 538.627L836.181 534.545H831.873V540.545ZM867.453 646V652H875.81L873.139 644.082L867.453 646ZM840.06 646L834.336 647.797L835.655 652H840.06V646ZM815.293 567.115L821.017 565.318L819.698 561.115H815.293V567.115ZM814.469 567.115V561.115H810.061L808.743 565.321L814.469 567.115ZM786.097 604.498V598.498H780.097V604.498H786.097ZM843.355 604.498H849.355V598.498H843.355V604.498ZM843.355 623.859V629.859H849.355V623.859H843.355ZM786.097 623.859H780.097V629.859H786.097V623.859ZM789.753 640H762.359V652H789.753V640ZM768.044 647.918L803.625 542.464L792.255 538.627L756.674 644.082L768.044 647.918ZM797.94 546.545H831.873V534.545H797.94V546.545ZM826.188 542.464L861.768 647.918L873.139 644.082L837.558 538.627L826.188 542.464ZM867.453 640H840.06V652H867.453V640ZM845.784 644.203L821.017 565.318L809.568 568.912L834.336 647.797L845.784 644.203ZM815.293 561.115H814.469V573.115H815.293V561.115ZM808.743 565.321L784.027 644.206L795.478 647.794L820.194 568.909L808.743 565.321ZM786.097 610.498H843.355V598.498H786.097V610.498ZM837.355 604.498V623.859H849.355V604.498H837.355ZM843.355 617.859H786.097V629.859H843.355V617.859ZM792.097 623.859V604.498H780.097V623.859H792.097ZM878.807 646H872.807V652H878.807V646ZM878.807 540.545V534.545H872.807V540.545H878.807ZM904.296 540.545H910.296V534.545H904.296V540.545ZM904.296 625.3H898.296V631.3H904.296V625.3ZM948.166 625.3H954.166V619.3H948.166V625.3ZM948.166 646V652H954.166V646H948.166ZM884.807 646V540.545H872.807V646H884.807ZM878.807 546.545H904.296V534.545H878.807V546.545ZM898.296 540.545V625.3H910.296V540.545H898.296ZM904.296 631.3H948.166V619.3H904.296V631.3ZM942.166 625.3V646H954.166V625.3H942.166ZM948.166 640H878.807V652H948.166V640ZM961.361 646H955.361V652H961.361V646ZM961.361 540.545V534.545H955.361V540.545H961.361ZM1034.89 540.545H1040.89V534.545H1034.89V540.545ZM1034.89 561.245V567.245H1040.89V561.245H1034.89ZM986.849 561.245V555.245H980.849V561.245H986.849ZM986.849 582.871H980.849V588.871H986.849V582.871ZM1031.13 582.871H1037.13V576.871H1031.13V582.871ZM1031.13 603.623V609.623H1037.13V603.623H1031.13ZM986.849 603.623V597.623H980.849V603.623H986.849ZM986.849 625.3H980.849V631.3H986.849V625.3ZM1034.89 625.3H1040.89V619.3H1034.89V625.3ZM1034.89 646V652H1040.89V646H1034.89ZM967.361 646V540.545H955.361V646H967.361ZM961.361 546.545H1034.89V534.545H961.361V546.545ZM1028.89 540.545V561.245H1040.89V540.545H1028.89ZM1034.89 555.245H986.849V567.245H1034.89V555.245ZM980.849 561.245V582.871H992.849V561.245H980.849ZM986.849 588.871H1031.13V576.871H986.849V588.871ZM1025.13 582.871V603.623H1037.13V582.871H1025.13ZM1031.13 597.623H986.849V609.623H1031.13V597.623ZM980.849 603.623V625.3H992.849V603.623H980.849ZM986.849 631.3H1034.89V619.3H986.849V631.3ZM1028.89 625.3V646H1040.89V625.3H1028.89ZM1034.89 640H961.361V652H1034.89V640ZM1050.85 646H1044.85V652H1050.85V646ZM1050.85 540.545V534.545H1044.85V540.545H1050.85ZM1124.38 540.545H1130.38V534.545H1124.38V540.545ZM1124.38 561.245V567.245H1130.38V561.245H1124.38ZM1076.34 561.245V555.245H1070.34V561.245H1076.34ZM1076.34 582.871H1070.34V588.871H1076.34V582.871ZM1120.62 582.871H1126.62V576.871H1120.62V582.871ZM1120.62 603.623V609.623H1126.62V603.623H1120.62ZM1076.34 603.623V597.623H1070.34V603.623H1076.34ZM1076.34 625.3H1070.34V631.3H1076.34V625.3ZM1124.38 625.3H1130.38V619.3H1124.38V625.3ZM1124.38 646V652H1130.38V646H1124.38ZM1056.85 646V540.545H1044.85V646H1056.85ZM1050.85 546.545H1124.38V534.545H1050.85V546.545ZM1118.38 540.545V561.245H1130.38V540.545H1118.38ZM1124.38 555.245H1076.34V567.245H1124.38V555.245ZM1070.34 561.245V582.871H1082.34V561.245H1070.34ZM1076.34 588.871H1120.62V576.871H1076.34V588.871ZM1114.62 582.871V603.623H1126.62V582.871H1114.62ZM1120.62 597.623H1076.34V609.623H1120.62V597.623ZM1070.34 603.623V625.3H1082.34V603.623H1070.34ZM1076.34 631.3H1124.38V619.3H1076.34V631.3ZM1118.38 625.3V646H1130.38V625.3H1118.38ZM1124.38 640H1050.85V652H1124.38V640ZM1140.35 540.545V534.545H1134.35V540.545H1140.35ZM1171.91 540.545L1177.46 538.269L1175.93 534.545H1171.91V540.545ZM1198.69 605.837L1193.13 608.113L1194.66 611.837H1198.69V605.837ZM1199.92 605.837V611.837H1203.95L1205.47 608.113L1199.92 605.837ZM1226.7 540.545V534.545H1222.67L1221.15 538.269L1226.7 540.545ZM1258.26 540.545H1264.26V534.545H1258.26V540.545ZM1258.26 646V652H1264.26V646H1258.26ZM1233.44 646H1227.44V652H1233.44V646ZM1233.44 581.224H1239.44V575.224H1233.44V581.224ZM1232.57 581.224V575.224H1228.49L1226.99 579.019L1232.57 581.224ZM1207.23 645.331V651.331H1211.31L1212.81 647.536L1207.23 645.331ZM1191.37 645.331L1185.79 647.525L1187.28 651.331H1191.37V645.331ZM1166.04 580.863L1171.62 578.669L1170.13 574.863H1166.04V580.863ZM1165.16 580.863V574.863H1159.16V580.863H1165.16ZM1165.16 646V652H1171.16V646H1165.16ZM1140.35 646H1134.35V652H1140.35V646ZM1140.35 546.545H1171.91V534.545H1140.35V546.545ZM1166.36 542.822L1193.13 608.113L1204.24 603.56L1177.46 538.269L1166.36 542.822ZM1198.69 611.837H1199.92V599.837H1198.69V611.837ZM1205.47 608.113L1232.25 542.822L1221.15 538.269L1194.37 603.56L1205.47 608.113ZM1226.7 546.545H1258.26V534.545H1226.7V546.545ZM1252.26 540.545V646H1264.26V540.545H1252.26ZM1258.26 640H1233.44V652H1258.26V640ZM1239.44 646V581.224H1227.44V646H1239.44ZM1233.44 575.224H1232.57V587.224H1233.44V575.224ZM1226.99 579.019L1201.65 643.125L1212.81 647.536L1238.15 583.429L1226.99 579.019ZM1207.23 639.331H1191.37V651.331H1207.23V639.331ZM1196.96 643.136L1171.62 578.669L1160.46 583.058L1185.79 647.525L1196.96 643.136ZM1166.04 574.863H1165.16V586.863H1166.04V574.863ZM1159.16 580.863V646H1171.16V580.863H1159.16ZM1165.16 640H1140.35V652H1165.16V640ZM1146.35 646V540.545H1134.35V646H1146.35Z" fill="#AD8E37" mask="url(#path-1-outside-1_11_21)"/>
<path d="M1259.5 483.578V352.043C1259.5 306.543 1173.5 294.543 1173.5 352.043V418.564C1173.5 432.923 1161.91 444.543 1147.55 444.543H872.5C840 444.543 832.381 403.625 872.5 400.043H1031.89C1034.57 400.043 1037.17 400.868 1039.36 402.404L1053.2 412.121C1055.85 413.982 1059.5 412.086 1059.5 408.847V355.543C1059.5 338.975 1046.07 325.543 1029.5 325.543H791.5C774.379 325.543 760.5 339.422 760.5 356.543V400.043C762.65 409.675 767.321 420.103 771.662 428.441C775.344 435.515 770.352 444.543 762.378 444.543H681.5C675.977 444.543 671.5 440.072 671.5 434.549V142.543C671.5 68.5427 582 76.5426 582 142.543V434.575C582 440.098 577.523 444.543 572 444.543H508C502.477 444.543 498 440.066 498 434.543V332.543C463.304 341.773 444.1 342.015 411 332.543V444.543H268.5C259.111 444.543 251.5 436.932 251.5 427.543V370.043C251.5 339.668 226.876 315.043 196.5 315.043H29C22.9249 315.043 18 319.968 18 326.043V542.543C19.8224 557.704 16.0315 564.776 0 574.543C55.1974 577.302 79.227 562.708 110.5 509.543H238.5C245.68 509.543 251.5 503.723 251.5 496.543V473.543L283 509.543H488C493.523 509.543 498 505.066 498 499.543V473.543L514.761 498.171C519.602 505.286 527.65 509.543 536.255 509.543H657.5C665.232 509.543 671.5 503.275 671.5 495.543V473.543C689.45 498.972 698.786 510.861 708.5 509.543H1233.5C1247.86 509.543 1259.5 497.938 1259.5 483.578Z" fill="#AD8E37"/>
<path d="M148 386H101V442.5H172V410C172 396.745 161.255 386 148 386Z" fill="#F5F5F5" stroke="#F5F5F5" stroke-width="2" stroke-linecap="round"/>
<circle cx="1181" cy="252" r="31.5" fill="#AD8E37" stroke="#AD8E37" stroke-width="7"/>
<circle cx="1259" cy="252" r="31.5" fill="#AD8E37" stroke="#AD8E37" stroke-width="7"/>
<circle cx="377" cy="594" r="32" fill="#AD8E37" stroke="#AD8E37" stroke-width="6"/>
<circle cx="452" cy="594" r="32" fill="#AD8E37" stroke="#AD8E37" stroke-width="6"/>
<path d="M452.487 276.552L451.5 207C441.17 235.311 431.808 247.353 412 265.5C420.616 288.015 420.174 300.366 412 322C445.167 335.356 463.908 335.621 497.5 323C487.77 300.314 488.583 287.743 497.5 265.5C475.925 248.271 467.439 234.538 455 207L455.987 276.573C455.994 277.087 456.413 277.5 456.927 277.5C459.176 277.5 461 279.324 461 281.573V286.438C461 287.577 460.077 288.5 458.938 288.5H449.562C448.423 288.5 447.5 287.577 447.5 286.438V281.552C447.5 279.314 449.314 277.5 451.552 277.5C452.073 277.5 452.494 277.073 452.487 276.552Z" fill="#AD8E37" stroke="#AD8E37"/>
<path d="M553 19.5L628.5 1L703 19.5L628.5 39L566 22.8576V97C571.24 102.531 570.97 104.999 566 108.5L569.5 122H558L562.5 108.5C557.204 104.337 556.918 101.84 562.5 97V21.9536L553 19.5Z" fill="#AD8E37"/>
<path d="M582.5 100V35.5L608.5 43V82C597.531 86.064 591.919 90.3009 582.5 100Z" fill="#AD8E37"/>
<path d="M672.5 35.5L645 43V82C656.576 85.433 662.52 89.7008 672.5 100V35.5Z" fill="#AD8E37"/>
<path d="M641 43H613.5V82C624.241 79.2953 630.259 79.1409 641 82V43Z" fill="#AD8E37"/>
<path d="M562.5 21.9536L553 19.5L628.5 1L703 19.5L628.5 39L566 22.8576M562.5 21.9536V97C556.918 101.84 557.204 104.337 562.5 108.5L558 122H569.5L566 108.5C570.97 104.999 571.24 102.531 566 97V22.8576M562.5 21.9536L566 22.8576M582.5 35.5V100C591.919 90.3009 597.531 86.064 608.5 82V43L582.5 35.5ZM645 43L672.5 35.5V100C662.52 89.7008 656.576 85.433 645 82V43ZM613.5 43H641V82C630.259 79.1409 624.241 79.2953 613.5 82V43Z" stroke="#AD8E37"/>
<path d="M802 272L826.5 246C826.5 246 841.289 246.346 856.208 248.991C871.065 251.625 883.138 261.28 893.163 272.558L906 287C870.792 269.374 847.873 266.411 802 272Z" fill="#AD8E37" stroke="#AD8E37" stroke-width="2" stroke-linecap="round"/>
<path d="M1021 272L996.5 246C996.5 246 981.711 246.346 966.792 248.991C951.935 251.625 939.862 261.281 929.837 272.558L917 287C952.208 269.374 975.127 266.411 1021 272Z" fill="#AD8E37" stroke="#AD8E37" stroke-width="2" stroke-linecap="round"/>
<path d="M871 217C871 217 832.203 224.594 835.5 224C838.797 223.406 890.648 251.401 909 282C906.483 257.751 899.735 243.66 871 217Z" fill="#AD8E37" stroke="#AD8E37" stroke-width="2" stroke-linecap="round"/>
<path d="M952 217C952 217 990.797 224.594 987.5 224C984.203 223.406 932.352 251.401 914 282C916.517 257.75 923.266 243.66 952 217Z" fill="#AD8E37" stroke="#AD8E37" stroke-width="2" stroke-linecap="round"/>
<path d="M794 286C847.589 274.101 872.889 279.036 911 305C948.853 279.209 974.382 275.217 1027.5 286" stroke="#AD8E37" stroke-width="9" stroke-linecap="round"/>
</svg>
