<svg width="2327" height="1781" viewBox="0 0 2327 1781" fill="none" xmlns="http://www.w3.org/2000/svg">
<path d="M1164.3 2C736.782 2 390.256 340.609 390.256 758.359C390.256 1176.11 736.782 1514.72 1164.3 1514.72C1591.82 1514.72 1938.34 1176.11 1938.34 758.359C1938.34 340.609 1591.82 2 1164.3 2ZM1164.3 61.9553C1557.89 61.9553 1876.99 373.764 1876.99 758.359C1876.99 1142.95 1557.89 1454.76 1164.3 1454.76C770.712 1454.76 451.613 1142.95 451.613 758.359C451.613 373.764 770.712 61.9553 1164.3 61.9553Z" fill="#0A481E" stroke="#0A481E" stroke-width="4" stroke-linecap="round"/>
<path d="M415 726.555C614.205 726.555 702.006 660 839.474 660C990.217 660 1043.26 718.439 1158.66 718.439C1299.1 718.439 1303.92 661.623 1454.46 661.623C1592.16 661.623 1700.59 734.275 1904 729.802" stroke="#0A481E" stroke-width="28.24" stroke-linecap="round" stroke-linejoin="round"/>
<path d="M415 838.26C614.205 838.26 702.006 766 839.474 766C990.217 766 1043.26 829.448 1158.66 829.448C1299.1 829.448 1303.92 767.762 1454.46 767.762C1592.16 767.762 1700.59 846.641 1904 841.785" stroke="#0A481E" stroke-width="28.24" stroke-linecap="round" stroke-linejoin="round"/>
<path d="M428 942.293C602.196 933.376 689.141 874 819.722 874C974.539 874 1029.02 934.944 1147.54 934.944C1291.77 934.944 1296.72 875.693 1451.33 875.693C1588.17 875.693 1696.86 946.626 1893 947" stroke="#0A481E" stroke-width="28.24" stroke-linecap="round" stroke-linejoin="round"/>
<path d="M472 1048.77C629.763 1035.4 713.919 978 837.536 978C990.959 978 1044.95 1042.57 1162.4 1042.57C1305.33 1042.57 1310.24 979.793 1463.46 979.793C1588.69 979.793 1690.13 1043.88 1858 1054" stroke="#0A481E" stroke-width="28.24" stroke-linecap="round" stroke-linejoin="round"/>
<path d="M513 1148.55C640.439 1130.12 719.941 1088 830.704 1088C986.187 1088 1040.9 1148.6 1159.93 1148.6C1304.78 1148.6 1309.75 1089.68 1465.03 1089.68C1576.88 1089.68 1670.01 1136.41 1807 1154" stroke="#0A481E" stroke-width="28.24" stroke-linecap="round" stroke-linejoin="round"/>
<path d="M1140 165.483C1197.89 190.232 1238.59 246.6 1238.59 312.297C1238.59 400.816 1165.03 472.69 1074.45 472.69C1029.15 472.69 988.232 454.551 958.549 425.546C989.049 482.589 1050.17 521.628 1120.59 521.628C1221.5 521.628 1303.35 441.647 1303.35 343.043C1303.35 250.863 1231.76 174.976 1140 165.483Z" fill="#0A481E"/>
<path d="M1055.13 365.054L1020.27 321.746L965.338 334.185L996.717 288.405L967.635 241.199L1021.89 256.214L1058.85 214.6L1061 269.659L1112.92 291.146L1060 310.16L1055.13 365.054Z" fill="#0A481E"/>
<path d="M338.025 754.918L324.697 867.946L338.025 754.918Z" fill="white"/>
<path d="M338.025 754.918L324.697 867.946" stroke="#0A481E" stroke-width="5.8" stroke-linecap="round"/>
<path d="M365.428 862.377L348.646 966.914L365.428 862.377Z" fill="white"/>
<path d="M365.428 862.377L348.646 966.914" stroke="#0A481E" stroke-width="5.8" stroke-linecap="round"/>
<path d="M218.59 778.336L212.297 889.023L218.59 778.336Z" fill="white"/>
<path d="M218.59 778.336L212.297 889.023" stroke="#0A481E" stroke-width="5.8" stroke-linecap="round"/>
<path d="M159.857 834.26L167.877 950.765L159.857 834.26Z" fill="white"/>
<path d="M159.857 834.26L167.877 950.765" stroke="#0A481E" stroke-width="5.8" stroke-linecap="round"/>
<path d="M271.658 855.172L293.631 680.176L271.658 855.172Z" fill="white"/>
<path d="M271.658 855.172L293.631 680.176" stroke="#0A481E" stroke-width="5.8" stroke-linecap="round"/>
<path d="M378.144 927.057L355.557 1038.26L378.144 927.057Z" fill="white"/>
<path d="M378.144 927.057L355.557 1038.26" stroke="#0A481E" stroke-width="5.8" stroke-linecap="round"/>
<path d="M161.946 1048.04L134.676 978.351L161.946 1048.04Z" fill="white"/>
<path d="M161.946 1048.04L134.676 978.351" stroke="#0A481E" stroke-width="5.8" stroke-linecap="round"/>
<path d="M326.618 857.253C348.753 925.296 303.059 1002.45 277.322 1025.33C278.391 973.097 278.538 876.312 326.618 857.253Z" fill="white" stroke="#0A481E" stroke-width="5.8"/>
<path d="M349.696 953.59C277.508 971.998 291.622 1028.53 278.375 1092.97C313.68 1063.08 359.545 1048.37 349.696 953.59Z" fill="white" stroke="#0A481E" stroke-width="5.8"/>
<path d="M214.397 872.622C171.856 919.957 214.779 983.135 235.374 1025.33C259.448 971.789 262.597 901.715 214.397 872.622Z" fill="white" stroke="#0A481E" stroke-width="5.8"/>
<path d="M167.207 941.29C168.411 1016.2 187.199 1078.02 246.919 1109.37C241.722 1022.02 222.518 955.191 167.207 941.29Z" fill="white" stroke="#0A481E" stroke-width="5.8"/>
<path d="M273.132 839.828C225.155 890.336 243.064 970.266 272.083 1009.96C286.49 969.115 311.483 882.578 273.132 839.828Z" fill="white" stroke="#0A481E" stroke-width="5.8"/>
<path d="M258.455 944.364C294.208 1000.02 301.011 1077.97 260.553 1133.97C217.142 1082.86 229.047 999.907 258.455 944.364Z" fill="white" stroke="#0A481E" stroke-width="5.8"/>
<path d="M257.409 1166.76C248.392 1116.3 286.495 1058.88 357.049 1028.41C358.13 1130.45 312.217 1179.41 257.409 1166.76Z" fill="white" stroke="#0A481E" stroke-width="5.8"/>
<path d="M276.021 1168.8C196.947 1164.76 172.18 1109.82 159.727 1040.69C215.99 1057.46 253.321 1100.09 276.021 1168.8Z" fill="white" stroke="#0A481E" stroke-width="5.8" stroke-linejoin="round"/>
<path d="M3 1174.27L84.8095 1280.86L3 1174.27Z" fill="white"/>
<path d="M3 1174.27L84.8095 1280.86" stroke="#0A481E" stroke-width="5.8" stroke-linecap="round"/>
<path d="M23.7598 1094.11L76.2018 1194.55L23.7598 1094.11Z" fill="white"/>
<path d="M23.7598 1094.11L76.2018 1194.55" stroke="#0A481E" stroke-width="5.8" stroke-linecap="round"/>
<path d="M114.95 1130.43L14.2617 974.645L114.95 1130.43Z" fill="white"/>
<path d="M114.95 1130.43L14.2617 974.645" stroke="#0A481E" stroke-width="5.8" stroke-linecap="round"/>
<path d="M92.7168 1333.08L176.624 1367.93L92.7168 1333.08Z" fill="white"/>
<path d="M92.7168 1333.08L176.624 1367.93" stroke="#0A481E" stroke-width="5.8" stroke-linecap="round"/>
<path d="M158.737 1087.96L106.295 1001.87L158.737 1087.96Z" fill="white"/>
<path d="M158.737 1087.96L106.295 1001.87" stroke="#0A481E" stroke-width="5.8" stroke-linecap="round"/>
<path d="M236.957 1154.03L211.785 1088.44L236.957 1154.03Z" fill="white"/>
<path d="M236.957 1154.03L211.785 1088.44" stroke="#0A481E" stroke-width="5.8" stroke-linecap="round"/>
<path d="M302.006 1216.14L262.572 1144.7L302.006 1216.14Z" fill="white"/>
<path d="M302.006 1216.14L262.572 1144.7" stroke="#0A481E" stroke-width="5.8" stroke-linecap="round"/>
<path d="M68.6225 1181.4C115.659 1165.43 164.25 1179.1 173.506 1281.83C109.844 1266.45 68.0777 1232.24 68.6225 1181.4Z" fill="white" stroke="#0A481E" stroke-width="5.8"/>
<path d="M156.73 1084.03C224.212 1117.71 246.032 1200.16 230.891 1253.81C173.596 1232.76 135.351 1153.46 156.73 1084.03Z" fill="white" stroke="#0A481E" stroke-width="5.8"/>
<path d="M236.438 1149.63C199.075 1215.91 227.526 1275.97 276.294 1334.1C284.621 1268.7 300.955 1201.85 236.438 1149.63Z" fill="white" stroke="#0A481E" stroke-width="5.8"/>
<path d="M99.0418 1107.6C84.7033 1152.08 133.368 1251.7 208.121 1241.86C195.376 1179.16 153.74 1120.09 99.0418 1107.6Z" fill="white" stroke="#0A481E" stroke-width="5.8"/>
<path d="M74.9141 1269.54C109.478 1341.26 178.902 1350.1 249.021 1357.68C195.265 1304.6 144.683 1233.95 74.9141 1269.54Z" fill="white" stroke="#0A481E" stroke-width="5.8"/>
<path d="M158.824 1213.17C227.85 1232.87 278.026 1274.34 285.734 1364.85C210.281 1344.09 164.393 1296.75 158.824 1213.17Z" fill="white" stroke="#0A481E" stroke-width="5.8"/>
<path d="M300.411 1211.12C263.531 1293.62 269.9 1360.55 339.218 1404.82C370.553 1315.29 340.956 1260.12 300.411 1211.12Z" fill="white" stroke="#0A481E" stroke-width="5.8"/>
<path d="M160.922 1361.78C232.38 1330.32 298.514 1334.25 356.006 1395.6C275.744 1427.63 210.419 1417.2 160.922 1361.78Z" fill="white" stroke="#0A481E" stroke-width="5.8"/>
<path d="M210.201 1460.16C673.882 1273.92 612.512 1650.76 896.143 1590.32C712.055 1575.56 612.733 1184.88 210.201 1460.16Z" fill="white" stroke="#0A481E" stroke-width="5.8"/>
<path d="M1359.73 1769.67C1373.01 1781.76 1378.95 1777.88 1390.15 1769.67C1400.52 1762.07 1408.39 1750.6 1389.1 1740.98C1312.22 1702.62 1224.78 1595.44 944.394 1595.44L609.801 1591.09L574.141 1627.99L933.906 1624.14C1082.07 1622.55 1232.89 1654.17 1359.73 1769.67Z" fill="white" stroke="#0A481E" stroke-width="5.8"/>
<path d="M344.416 1676.36L447.573 1672.51L344.416 1676.36Z" fill="white"/>
<path d="M344.416 1676.36L447.573 1672.51" stroke="#0A481E" stroke-width="5.8" stroke-linecap="round"/>
<path d="M216.5 1581.1L346.556 1631.14L216.5 1581.1Z" fill="white"/>
<path d="M216.5 1581.1L346.556 1631.14" stroke="#0A481E" stroke-width="5.8" stroke-linecap="round"/>
<path d="M111.621 1365.87L285.728 1478.61L111.621 1365.87Z" fill="white"/>
<path d="M111.621 1365.87L285.728 1478.61" stroke="#0A481E" stroke-width="5.8" stroke-linecap="round"/>
<path d="M425.876 1434.49L367.141 1377.1L425.876 1434.49Z" fill="white"/>
<path d="M425.876 1434.49L367.141 1377.1" stroke="#0A481E" stroke-width="5.8" stroke-linecap="round"/>
<path d="M527.208 1460.53L459.213 1410.74L527.208 1460.53Z" fill="white"/>
<path d="M527.208 1460.53L459.213 1410.74" stroke="#0A481E" stroke-width="1.8" stroke-linecap="round"/>
<path d="M185.029 1482.71L297.435 1551.2L185.029 1482.71Z" fill="white"/>
<path d="M185.029 1482.71L297.435 1551.2" stroke="#0A481E" stroke-width="5.8" stroke-linecap="round"/>
<path d="M279.541 1540.77C348.78 1496.08 427.559 1537.71 427.869 1573.38C380.096 1590.24 315.757 1606.73 279.541 1540.77Z" fill="white" stroke="#0A481E" stroke-width="5.8"/>
<path d="M316.624 1411.77C314.315 1480.23 379.527 1532.57 451.603 1526.28C434.663 1452.15 353.951 1408.46 316.624 1411.77Z" fill="white" stroke="#0A481E" stroke-width="5.8"/>
<path d="M270.645 1468.3C280.878 1521.64 366.232 1546.72 426.389 1529.17C415.293 1474.69 308.404 1448.05 270.645 1468.3Z" fill="white" stroke="#0A481E" stroke-width="5.8"/>
<path d="M420.457 1426.99C497.602 1435.17 523.795 1502.35 532.445 1553.81C464.393 1539.09 394.827 1513.45 420.457 1426.99Z" fill="white" stroke="#0A481E" stroke-width="5.8"/>
<path d="M319.605 1620.49C367.888 1559.31 438.573 1569.27 518.366 1608.17C456.86 1669.11 388.946 1653.33 319.605 1620.49Z" fill="white" stroke="#0A481E" stroke-width="5.8"/>
<path d="M377.444 1518.31C448.469 1491.32 549.654 1529.69 556.18 1597.3C484.016 1616.48 372.56 1599.15 377.444 1518.31Z" fill="white" stroke="#0A481E" stroke-width="5.8"/>
<path d="M515.395 1451.63C574.552 1480.21 637.875 1504.59 631.832 1598.75C510.885 1627.51 515.84 1529.26 515.395 1451.63Z" fill="white" stroke="#0A481E" stroke-width="5.8"/>
<path d="M422.949 1673.73C504.189 1687.64 575.165 1671.71 631.722 1600.72C570.243 1579.65 474.209 1593.65 422.949 1673.73Z" fill="white" stroke="#0A481E" stroke-width="5.8" stroke-linejoin="round"/>
<path d="M318.036 1414.09L273.984 1368.99L318.036 1414.09Z" fill="white"/>
<path d="M318.036 1414.09L273.984 1368.99" stroke="#0A481E" stroke-width="5.8" stroke-linecap="round"/>
<path d="M654.912 1675.38H753.503C844.426 1611.68 880.43 1538.32 1034.59 1531.9C1090.83 1529.55 1143.25 1580.66 1154.16 1603.64C1080.49 1564.96 1023.52 1577.99 940.197 1667.18C900.257 1709.93 848.352 1736.4 778.675 1740.97C685.389 1747.1 686.91 1702.55 654.912 1675.38Z" fill="white" stroke="#0A481E" stroke-width="5.8"/>
<path d="M1988.84 754.918L2002.17 867.946L1988.84 754.918Z" fill="white"/>
<path d="M1988.84 754.918L2002.17 867.946" stroke="#0A481E" stroke-width="5.8" stroke-linecap="round"/>
<path d="M1961.44 862.377L1978.22 966.914L1961.44 862.377Z" fill="white"/>
<path d="M1961.44 862.377L1978.22 966.914" stroke="#0A481E" stroke-width="5.8" stroke-linecap="round"/>
<path d="M2108.28 778.336L2114.57 889.023L2108.28 778.336Z" fill="white"/>
<path d="M2108.28 778.336L2114.57 889.023" stroke="#0A481E" stroke-width="5.8" stroke-linecap="round"/>
<path d="M2167.02 834.26L2158.72 949.228L2167.02 834.26Z" fill="white"/>
<path d="M2167.02 834.26L2158.72 949.228" stroke="#0A481E" stroke-width="5.8" stroke-linecap="round"/>
<path d="M2055.23 855.172L2033.26 680.176L2055.23 855.172Z" fill="white"/>
<path d="M2055.23 855.172L2033.26 680.176" stroke="#0A481E" stroke-width="5.8" stroke-linecap="round"/>
<path d="M1948.73 927.057L1971.32 1038.26L1948.73 927.057Z" fill="white"/>
<path d="M1948.73 927.057L1971.32 1038.26" stroke="#0A481E" stroke-width="5.8" stroke-linecap="round"/>
<path d="M2163.08 1051.48L2190.35 978.717L2163.08 1051.48Z" fill="white"/>
<path d="M2163.08 1051.48L2190.35 978.717" stroke="#0A481E" stroke-width="5.8" stroke-linecap="round"/>
<path d="M2000.25 857.253C1978.11 925.296 2023.81 1002.45 2049.54 1025.33C2048.48 973.097 2048.33 876.312 2000.25 857.253Z" fill="white" stroke="#0A481E" stroke-width="5.8"/>
<path d="M1977.17 953.59C2049.36 971.998 2035.25 1028.53 2048.49 1092.97C2013.19 1063.08 1967.32 1048.37 1977.17 953.59Z" fill="white" stroke="#0A481E" stroke-width="5.8"/>
<path d="M2112.47 872.622C2155.01 919.957 2112.09 983.135 2091.49 1025.33C2067.42 971.789 2064.27 901.715 2112.47 872.622Z" fill="white" stroke="#0A481E" stroke-width="5.8"/>
<path d="M2159.66 941.29C2158.46 1016.2 2139.67 1078.02 2079.95 1109.37C2085.15 1022.02 2104.35 955.191 2159.66 941.29Z" fill="white" stroke="#0A481E" stroke-width="5.8"/>
<path d="M2053.73 839.828C2101.71 890.336 2083.8 970.266 2054.78 1009.96C2040.38 969.115 2015.38 882.578 2053.73 839.828Z" fill="white" stroke="#0A481E" stroke-width="5.8"/>
<path d="M2068.41 944.364C2032.66 1000.02 2025.86 1077.97 2066.31 1133.97C2109.73 1082.86 2097.82 999.907 2068.41 944.364Z" fill="white" stroke="#0A481E" stroke-width="5.8"/>
<path d="M2069.46 1166.76C2078.48 1116.3 2040.37 1058.88 1969.82 1028.41C1968.74 1130.45 2014.65 1179.41 2069.46 1166.76Z" fill="white" stroke="#0A481E" stroke-width="5.8"/>
<path d="M2050.85 1168.8C2129.92 1164.76 2154.69 1109.82 2167.14 1040.69C2110.88 1057.46 2073.55 1100.09 2050.85 1168.8Z" fill="white" stroke="#0A481E" stroke-width="5.8" stroke-linejoin="round"/>
<path d="M2323.88 1174.27L2242.07 1280.86L2323.88 1174.27Z" fill="white"/>
<path d="M2323.88 1174.27L2242.07 1280.86" stroke="#0A481E" stroke-width="5.8" stroke-linecap="round"/>
<path d="M2303.11 1094.11L2250.67 1194.55L2303.11 1094.11Z" fill="white"/>
<path d="M2303.11 1094.11L2250.67 1194.55" stroke="#0A481E" stroke-width="5.8" stroke-linecap="round"/>
<path d="M2211.92 1130.43L2312.61 974.645L2211.92 1130.43Z" fill="white"/>
<path d="M2211.92 1130.43L2312.61 974.645" stroke="#0A481E" stroke-width="5.8" stroke-linecap="round"/>
<path d="M2234.15 1333.08L2150.25 1367.93L2234.15 1333.08Z" fill="white"/>
<path d="M2234.15 1333.08L2150.25 1367.93" stroke="#0A481E" stroke-width="5.8" stroke-linecap="round"/>
<path d="M2168.13 1087.96L2220.57 1001.87L2168.13 1087.96Z" fill="white"/>
<path d="M2168.13 1087.96L2220.57 1001.87" stroke="#0A481E" stroke-width="5.8" stroke-linecap="round"/>
<path d="M2089.92 1154.03L2115.09 1088.44L2089.92 1154.03Z" fill="white"/>
<path d="M2089.92 1154.03L2115.09 1088.44" stroke="#0A481E" stroke-width="5.8" stroke-linecap="round"/>
<path d="M2021.71 1217.16L2070.05 1147.26L2021.71 1217.16Z" fill="white"/>
<path d="M2021.71 1217.16L2070.05 1147.26" stroke="#0A481E" stroke-width="5.8" stroke-linecap="round"/>
<path d="M2258.26 1181.4C2211.22 1165.43 2162.63 1179.1 2153.37 1281.83C2217.03 1266.45 2258.8 1232.24 2258.26 1181.4Z" fill="white" stroke="#0A481E" stroke-width="5.8"/>
<path d="M2170.15 1084.03C2102.67 1117.71 2080.85 1200.16 2095.99 1253.81C2153.28 1232.76 2191.53 1153.46 2170.15 1084.03Z" fill="white" stroke="#0A481E" stroke-width="5.8"/>
<path d="M2090.44 1149.63C2127.8 1215.91 2099.35 1275.97 2050.58 1334.1C2042.26 1268.7 2025.92 1201.85 2090.44 1149.63Z" fill="white" stroke="#0A481E" stroke-width="5.8"/>
<path d="M2227.84 1107.6C2242.18 1152.08 2193.51 1251.7 2118.76 1241.86C2131.5 1179.16 2173.14 1120.09 2227.84 1107.6Z" fill="white" stroke="#0A481E" stroke-width="5.8"/>
<path d="M2251.96 1269.54C2217.4 1341.26 2147.98 1350.1 2077.86 1357.68C2131.61 1304.6 2182.2 1233.95 2251.96 1269.54Z" fill="white" stroke="#0A481E" stroke-width="5.8"/>
<path d="M2168.05 1213.17C2099.03 1232.87 2048.85 1274.34 2041.15 1364.85C2116.6 1344.09 2162.49 1296.75 2168.05 1213.17Z" fill="white" stroke="#0A481E" stroke-width="5.8"/>
<path d="M2026.47 1211.12C2063.35 1293.62 2056.98 1360.55 1987.66 1404.82C1956.33 1315.29 1985.92 1260.12 2026.47 1211.12Z" fill="white" stroke="#0A481E" stroke-width="5.8"/>
<path d="M2165.96 1361.78C2094.5 1330.32 2028.37 1334.25 1970.87 1395.6C2051.14 1427.63 2116.46 1417.2 2165.96 1361.78Z" fill="white" stroke="#0A481E" stroke-width="5.8"/>
<path d="M2116.66 1460.16C1652.98 1273.92 1714.35 1650.76 1430.72 1590.32C1614.8 1575.56 1714.13 1184.88 2116.66 1460.16Z" fill="white" stroke="#0A481E" stroke-width="5.8"/>
<path d="M967.134 1769.67C953.861 1781.76 947.922 1777.88 936.717 1769.67C926.349 1762.07 918.475 1750.6 937.766 1740.98C1014.65 1702.62 1102.09 1595.44 1382.47 1595.44L1717.07 1591.09L1752.73 1627.99L1392.96 1624.14C1244.8 1622.55 1093.98 1654.17 967.134 1769.67Z" fill="white" stroke="#0A481E" stroke-width="5.8"/>
<path d="M1982.46 1676.36L1879.67 1669.7L1982.46 1676.36Z" fill="white"/>
<path d="M1982.46 1676.36L1879.67 1669.7" stroke="#0A481E" stroke-width="5.8" stroke-linecap="round"/>
<path d="M2110.37 1581.1L1981.88 1631.83L2110.37 1581.1Z" fill="white"/>
<path d="M2110.37 1581.1L1981.88 1631.83" stroke="#0A481E" stroke-width="5.8" stroke-linecap="round"/>
<path d="M2215.26 1365.87L2041.15 1478.61L2215.26 1365.87Z" fill="white"/>
<path d="M2215.26 1365.87L2041.15 1478.61" stroke="#0A481E" stroke-width="5.8" stroke-linecap="round"/>
<path d="M1900.98 1434.49L1959.72 1377.1L1900.98 1434.49Z" fill="white"/>
<path d="M1900.98 1434.49L1959.72 1377.1" stroke="#0A481E" stroke-width="5.8" stroke-linecap="round"/>
<path d="M1797.39 1463.01L1867.66 1410.74L1797.39 1463.01Z" fill="white"/>
<path d="M1797.39 1463.01L1867.66 1410.74" stroke="#0A481E" stroke-width="5.8" stroke-linecap="round"/>
<path d="M2141.84 1482.71L2028.04 1550.86L2141.84 1482.71Z" fill="white"/>
<path d="M2141.84 1482.71L2028.04 1550.86" stroke="#0A481E" stroke-width="5.8" stroke-linecap="round"/>
<path d="M2047.34 1540.77C1978.1 1496.08 1899.32 1537.71 1899.01 1573.38C1946.78 1590.24 2011.12 1606.73 2047.34 1540.77Z" fill="white" stroke="#0A481E" stroke-width="5.8"/>
<path d="M2010.26 1411.77C2012.57 1480.23 1947.35 1532.57 1875.28 1526.28C1892.22 1452.15 1972.93 1408.46 2010.26 1411.77Z" fill="white" stroke="#0A481E" stroke-width="5.8"/>
<path d="M2056.24 1468.3C2046 1521.64 1960.65 1546.72 1900.49 1529.17C1911.59 1474.69 2018.48 1448.05 2056.24 1468.3Z" fill="white" stroke="#0A481E" stroke-width="5.8"/>
<path d="M1906.43 1426.99C1829.28 1435.17 1803.09 1502.35 1794.44 1553.81C1862.49 1539.09 1932.06 1513.45 1906.43 1426.99Z" fill="white" stroke="#0A481E" stroke-width="5.8"/>
<path d="M2007.28 1620.49C1958.99 1559.31 1888.31 1569.27 1808.52 1608.17C1870.02 1669.11 1937.94 1653.33 2007.28 1620.49Z" fill="white" stroke="#0A481E" stroke-width="5.8"/>
<path d="M1949.44 1518.31C1878.41 1491.32 1777.23 1529.69 1770.7 1597.3C1842.86 1616.48 1954.32 1599.15 1949.44 1518.31Z" fill="white" stroke="#0A481E" stroke-width="5.8"/>
<path d="M1811.49 1451.63C1752.33 1480.21 1689.01 1504.59 1695.05 1598.75C1816 1627.51 1811.04 1529.26 1811.49 1451.63Z" fill="white" stroke="#0A481E" stroke-width="5.8"/>
<path d="M1904.2 1671.94C1822.96 1685.85 1747.44 1674.02 1695.2 1601.41C1767.26 1569.68 1852.94 1591.86 1904.2 1671.94Z" fill="white" stroke="#0A481E" stroke-width="5.8" stroke-linejoin="round"/>
<path d="M2008.83 1414.09L2052.88 1368.99L2008.83 1414.09Z" fill="white"/>
<path d="M2008.83 1414.09L2052.88 1368.99" stroke="#0A481E" stroke-width="5.8" stroke-linecap="round"/>
<path d="M1671.96 1675.38H1573.37C1482.45 1611.68 1446.44 1538.32 1292.28 1531.9C1236.04 1529.55 1183.62 1580.66 1172.71 1603.64C1246.38 1564.96 1303.35 1577.99 1386.67 1667.18C1426.61 1709.93 1478.52 1736.39 1548.2 1740.97C1641.48 1747.1 1639.96 1702.55 1671.96 1675.38Z" fill="white" stroke="#0A481E" stroke-width="5.8"/>
<path d="M1516.72 1126.87C1498.79 1148.2 1449.92 1159.81 1437.71 1191.03C1437.71 1213.37 1437.56 1235.72 1437.56 1258.31C1436.78 1262.37 1434.61 1266.27 1433.31 1267.79C1429.16 1259.16 1430.23 1245.12 1419.06 1246.9C1411.26 1247.66 1404.52 1264.65 1405.56 1283.94C1408.68 1288.26 1422.11 1280.18 1423.15 1286.02C1423.41 1299.47 1410.77 1311.36 1395.7 1320.25C1393.11 1320.25 1393.56 1322.3 1399.8 1323.06C1409.15 1318.75 1420.15 1317.01 1430.28 1314.47C1433.14 1306.09 1435.37 1300.25 1434.07 1281.72C1439.01 1277.41 1441.2 1271.34 1441.2 1264.24C1446.13 1271.85 1455.68 1277.61 1466.07 1277.87C1489.19 1276.35 1501.35 1238.63 1516.41 1224.67C1515.89 1222.13 1516.17 1222.36 1515.65 1220.08C1506.3 1218.81 1497.73 1210.57 1485.78 1211.34C1477.73 1211.08 1463.79 1227.46 1460.15 1250.31C1454.96 1255.13 1445.36 1244.69 1444.84 1236.82C1444.58 1219.81 1445.88 1216.43 1444.84 1199.93C1454.71 1180.12 1471.24 1177.39 1493.06 1163.18C1510.21 1153.28 1517.5 1135.5 1516.72 1126.87ZM1492.3 1221.26C1500.54 1221.08 1502.76 1224.01 1501.86 1226.45C1496.14 1241.43 1481.46 1249.97 1465.61 1249.71C1468.47 1238.29 1479.01 1222.32 1488.36 1221.56C1489.79 1221.4 1491.12 1221.29 1492.3 1221.26Z" fill="#0A481E"/>
<path d="M1365.27 1237.56C1371.5 1238.57 1370.98 1253.55 1383.45 1251.77C1387.87 1259.9 1381.89 1268.27 1379.3 1276.4C1373.84 1279.19 1365.27 1274.62 1358.77 1271.83C1348.9 1278.17 1352.28 1297.21 1340.07 1301.02C1333.31 1300.77 1328.64 1295.18 1321.88 1295.18C1299.8 1324.12 1249.66 1348.75 1206.53 1348.75C1179.78 1348.49 1169.64 1339.61 1171.72 1322.6C1172.24 1313.46 1173.54 1304.57 1176.66 1296.96C1178.48 1296.96 1180.04 1296.7 1181.85 1296.45C1177.18 1315.24 1184.71 1321.07 1199.78 1321.07C1251.22 1320.06 1287.07 1311.17 1317.21 1286.8C1322.14 1286.3 1330.46 1291.37 1334.09 1288.33C1340.07 1282.74 1338.51 1274.36 1342.93 1267.51C1343.45 1266.5 1349.68 1263.45 1350.46 1263.2C1352.8 1252.03 1354.88 1243.14 1365.27 1237.56Z" fill="#0A481E"/>
<path d="M1254.08 1264.72C1257.72 1260.4 1266.55 1276.65 1273.31 1282.23C1275.64 1284.77 1263.95 1290.86 1258.76 1295.43C1256.94 1296.7 1246.29 1282.99 1240.05 1276.65C1239.01 1275.38 1249.92 1269.03 1254.08 1264.72Z" fill="#0A481E"/>
<path d="M1228.36 1268.02C1232 1263.7 1240.83 1279.95 1247.85 1285.79C1249.92 1288.07 1238.23 1294.16 1233.04 1298.73C1231.48 1300 1220.83 1286.29 1214.59 1280.2C1213.55 1278.68 1224.2 1272.33 1228.36 1268.02Z" fill="#0A481E"/>
<path d="M1062.1 1211.66C1067.29 1208.87 1069.11 1227.4 1073.53 1235.02C1074.57 1238.06 1061.58 1239.59 1054.82 1241.87C1052.74 1242.63 1048.07 1225.88 1044.69 1218.01C1044.17 1216.23 1056.64 1214.2 1062.1 1211.66Z" fill="#0A481E"/>
<path d="M849.576 1277.66C854.512 1274.87 856.591 1293.4 860.747 1301.02C862.046 1304.07 848.797 1305.59 842.302 1307.87C840.224 1308.63 835.547 1291.88 831.91 1284.01C831.651 1282.23 843.861 1280.2 849.576 1277.66Z" fill="#0A481E"/>
<path d="M962.123 1331.75C967.059 1329.21 969.138 1347.49 973.294 1355.36C974.593 1358.4 961.344 1359.67 954.849 1362.21C952.771 1362.72 948.095 1346.22 944.717 1338.1C944.198 1336.32 956.408 1334.54 962.123 1331.75Z" fill="#0A481E"/>
<path d="M1057.67 1294.93C1062.61 1292.13 1064.69 1310.67 1068.85 1318.28C1070.14 1321.33 1056.89 1322.85 1050.4 1325.14C1048.32 1325.9 1043.65 1309.14 1040.27 1301.02C1039.75 1299.5 1051.96 1297.47 1057.67 1294.93Z" fill="#0A481E"/>
<path d="M1084.44 1305.59C1089.38 1303.05 1091.45 1321.33 1095.61 1329.2C1096.91 1332.24 1083.66 1333.51 1077.17 1336.05C1075.09 1336.56 1070.41 1320.06 1066.77 1311.93C1066.51 1310.16 1078.72 1308.38 1084.44 1305.59Z" fill="#0A481E"/>
<path d="M1060.53 1327.42C1065.73 1324.62 1067.55 1343.15 1071.96 1350.77C1073.26 1353.82 1060.01 1355.34 1053.26 1357.62C1051.18 1358.39 1046.5 1341.63 1043.13 1333.76C1042.61 1331.99 1055.08 1329.95 1060.53 1327.42Z" fill="#0A481E"/>
<path d="M1082.87 1266.49C1077.16 1272.59 1070.92 1275.89 1060.53 1272.84C1055.07 1268.53 1058.19 1260.4 1053.25 1257.86C1036.63 1254.56 994.281 1261.42 991.423 1277.41C999.737 1281.73 1010.13 1286.04 1020 1289.09C1013.51 1292.13 999.737 1294.93 988.825 1292.64C975.056 1293.4 972.978 1280.46 981.811 1264.97C991.423 1242.89 1004.41 1221.82 1012.21 1199.48C1007.01 1204.05 1003.63 1208.36 996.1 1207.85C983.11 1239.84 970.64 1262.94 962.067 1287.57C958.949 1295.94 963.106 1313.2 977.914 1317.52C1003.63 1322.6 1024.68 1298.99 1041.56 1293.4C1042.34 1290.36 1042.08 1291.12 1042.86 1288.07C1034.29 1283.5 1015.32 1274.87 1007.01 1270.3C1014.8 1263.7 1035.59 1265.99 1046.5 1269.54C1052.73 1272.33 1050.92 1281.98 1058.45 1283.76C1068.58 1285.28 1080.53 1279.44 1083.65 1271.06C1083.91 1269.03 1083.65 1267.51 1082.87 1266.49Z" fill="#0A481E"/>
<path d="M953.764 1255.83C952.985 1258.62 952.985 1257.35 952.206 1260.14C925.187 1276.65 891.934 1287.05 830.622 1253.8C793.992 1233.74 815.554 1212.17 825.427 1199.98C835.039 1235.01 883.88 1265.22 953.764 1255.83Z" fill="#0A481E"/>
</svg>
