<svg width="1646" height="450" viewBox="0 0 1646 450" fill="none" xmlns="http://www.w3.org/2000/svg">
<path d="M424.097 381V345.364H438.157C440.86 345.364 443.163 345.88 445.065 346.912C446.967 347.933 448.417 349.354 449.415 351.175C450.424 352.985 450.929 355.073 450.929 357.44C450.929 359.806 450.419 361.894 449.398 363.704C448.377 365.513 446.898 366.923 444.961 367.932C443.035 368.941 440.703 369.446 437.966 369.446H429.004V363.408H436.748C438.198 363.408 439.392 363.159 440.332 362.66C441.283 362.149 441.991 361.448 442.455 360.554C442.931 359.65 443.168 358.611 443.168 357.44C443.168 356.256 442.931 355.224 442.455 354.342C441.991 353.449 441.283 352.759 440.332 352.272C439.381 351.773 438.174 351.523 436.713 351.523H431.632V381H424.097ZM455.823 345.364H465.115L474.929 369.307H475.346L485.16 345.364H494.452V381H487.144V357.805H486.848L477.626 380.826H472.649L463.427 357.718H463.131V381H455.823V345.364ZM508.194 345.364V381H500.66V345.364H508.194ZM536.405 345.364H543.939V368.506C543.939 371.105 543.319 373.379 542.078 375.327C540.848 377.276 539.125 378.796 536.91 379.886C534.694 380.965 532.113 381.505 529.166 381.505C526.208 381.505 523.621 380.965 521.406 379.886C519.19 378.796 517.467 377.276 516.238 375.327C515.008 373.379 514.393 371.105 514.393 368.506V345.364H521.928V367.863C521.928 369.22 522.223 370.426 522.815 371.482C523.418 372.538 524.265 373.367 525.356 373.97C526.446 374.573 527.716 374.875 529.166 374.875C530.628 374.875 531.898 374.573 532.977 373.97C534.067 373.367 534.908 372.538 535.5 371.482C536.103 370.426 536.405 369.22 536.405 367.863V345.364ZM561.479 381V345.364H575.539C578.242 345.364 580.544 345.88 582.447 346.912C584.349 347.933 585.799 349.354 586.797 351.175C587.806 352.985 588.311 355.073 588.311 357.44C588.311 359.806 587.8 361.894 586.78 363.704C585.759 365.513 584.28 366.923 582.342 367.932C580.417 368.941 578.085 369.446 575.347 369.446H566.386V363.408H574.129C575.579 363.408 576.774 363.159 577.714 362.66C578.665 362.149 579.373 361.448 579.837 360.554C580.312 359.65 580.55 358.611 580.55 357.44C580.55 356.256 580.312 355.224 579.837 354.342C579.373 353.449 578.665 352.759 577.714 352.272C576.763 351.773 575.556 351.523 574.095 351.523H569.014V381H561.479ZM593.205 381V345.364H617.218V351.576H600.739V360.067H615.982V366.279H600.739V374.788H617.287V381H593.205ZM642.54 355.613C642.4 354.209 641.803 353.118 640.747 352.341C639.692 351.564 638.259 351.175 636.449 351.175C635.22 351.175 634.182 351.349 633.335 351.697C632.488 352.034 631.838 352.504 631.386 353.107C630.945 353.71 630.725 354.395 630.725 355.16C630.701 355.798 630.835 356.355 631.125 356.831C631.427 357.306 631.838 357.718 632.36 358.066C632.882 358.402 633.486 358.698 634.17 358.953C634.854 359.197 635.585 359.406 636.362 359.58L639.564 360.346C641.119 360.694 642.545 361.158 643.845 361.738C645.144 362.318 646.269 363.031 647.22 363.878C648.172 364.725 648.908 365.722 649.43 366.871C649.964 368.019 650.237 369.336 650.248 370.821C650.237 373.002 649.68 374.892 648.578 376.493C647.487 378.083 645.91 379.318 643.845 380.2C641.791 381.07 639.315 381.505 636.415 381.505C633.538 381.505 631.032 381.064 628.898 380.182C626.775 379.301 625.116 377.996 623.921 376.267C622.738 374.527 622.117 372.375 622.059 369.811H629.35C629.431 371.006 629.773 372.004 630.377 372.804C630.992 373.593 631.809 374.191 632.83 374.597C633.863 374.991 635.028 375.188 636.328 375.188C637.604 375.188 638.712 375.003 639.651 374.631C640.602 374.26 641.339 373.744 641.861 373.083C642.383 372.422 642.644 371.662 642.644 370.803C642.644 370.003 642.406 369.33 641.931 368.785C641.467 368.24 640.782 367.776 639.877 367.393C638.984 367.01 637.888 366.662 636.589 366.349L632.708 365.374C629.704 364.643 627.332 363.501 625.592 361.946C623.851 360.392 622.987 358.298 622.999 355.665C622.987 353.507 623.561 351.622 624.722 350.01C625.893 348.397 627.5 347.138 629.541 346.234C631.583 345.329 633.903 344.876 636.502 344.876C639.147 344.876 641.455 345.329 643.427 346.234C645.411 347.138 646.954 348.397 648.056 350.01C649.158 351.622 649.726 353.49 649.761 355.613H642.54ZM655.316 381V345.364H669.376C672.067 345.364 674.364 345.845 676.266 346.808C678.18 347.759 679.636 349.111 680.634 350.862C681.643 352.602 682.148 354.65 682.148 357.005C682.148 359.371 681.637 361.407 680.616 363.112C679.596 364.806 678.117 366.105 676.179 367.01C674.254 367.915 671.922 368.367 669.184 368.367H659.771V362.312H667.966C669.405 362.312 670.6 362.115 671.551 361.72C672.502 361.326 673.21 360.734 673.674 359.945C674.149 359.156 674.387 358.176 674.387 357.005C674.387 355.821 674.149 354.824 673.674 354.012C673.21 353.2 672.496 352.585 671.533 352.167C670.582 351.738 669.382 351.523 667.931 351.523H662.85V381H655.316ZM674.561 364.783L683.418 381H675.1L666.435 364.783H674.561ZM687.472 381V345.364H701.532C704.235 345.364 706.538 345.88 708.44 346.912C710.342 347.933 711.792 349.354 712.79 351.175C713.799 352.985 714.304 355.073 714.304 357.44C714.304 359.806 713.794 361.894 712.773 363.704C711.752 365.513 710.273 366.923 708.336 367.932C706.41 368.941 704.078 369.446 701.341 369.446H692.379V363.408H700.123C701.573 363.408 702.767 363.159 703.707 362.66C704.658 362.149 705.366 361.448 705.83 360.554C706.306 359.65 706.543 358.611 706.543 357.44C706.543 356.256 706.306 355.224 705.83 354.342C705.366 353.449 704.658 352.759 703.707 352.272C702.756 351.773 701.549 351.523 700.088 351.523H695.007V381H687.472ZM734.802 360.241V366.123H718.55V360.241H734.802ZM760.589 355.613C760.45 354.209 759.853 353.118 758.797 352.341C757.742 351.564 756.309 351.175 754.499 351.175C753.27 351.175 752.231 351.349 751.385 351.697C750.538 352.034 749.888 352.504 749.436 353.107C748.995 353.71 748.775 354.395 748.775 355.16C748.751 355.798 748.885 356.355 749.175 356.831C749.476 357.306 749.888 357.718 750.41 358.066C750.932 358.402 751.535 358.698 752.22 358.953C752.904 359.197 753.635 359.406 754.412 359.58L757.614 360.346C759.168 360.694 760.595 361.158 761.895 361.738C763.194 362.318 764.319 363.031 765.27 363.878C766.221 364.725 766.958 365.722 767.48 366.871C768.014 368.019 768.286 369.336 768.298 370.821C768.286 373.002 767.73 374.892 766.627 376.493C765.537 378.083 763.959 379.318 761.895 380.2C759.841 381.07 757.365 381.505 754.464 381.505C751.588 381.505 749.082 381.064 746.947 380.182C744.825 379.301 743.166 377.996 741.971 376.267C740.788 374.527 740.167 372.375 740.109 369.811H747.4C747.481 371.006 747.823 372.004 748.426 372.804C749.041 373.593 749.859 374.191 750.88 374.597C751.912 374.991 753.078 375.188 754.377 375.188C755.654 375.188 756.761 375.003 757.701 374.631C758.652 374.26 759.389 373.744 759.911 373.083C760.433 372.422 760.694 371.662 760.694 370.803C760.694 370.003 760.456 369.33 759.98 368.785C759.516 368.24 758.832 367.776 757.927 367.393C757.034 367.01 755.938 366.662 754.638 366.349L750.758 365.374C747.754 364.643 745.381 363.501 743.641 361.946C741.901 360.392 741.037 358.298 741.049 355.665C741.037 353.507 741.611 351.622 742.771 350.01C743.943 348.397 745.55 347.138 747.591 346.234C749.633 345.329 751.953 344.876 754.551 344.876C757.196 344.876 759.505 345.329 761.477 346.234C763.461 347.138 765.003 348.397 766.105 350.01C767.208 351.622 767.776 353.49 767.811 355.613H760.589ZM785.303 381.522C782.565 381.522 780.21 380.942 778.238 379.782C776.278 378.61 774.77 376.986 773.714 374.91C772.67 372.833 772.148 370.444 772.148 367.741C772.148 365.003 772.676 362.602 773.731 360.537C774.799 358.46 776.312 356.842 778.273 355.682C780.233 354.511 782.565 353.925 785.268 353.925C787.6 353.925 789.641 354.348 791.393 355.195C793.145 356.042 794.531 357.231 795.552 358.762C796.572 360.293 797.135 362.091 797.239 364.156H790.244C790.047 362.822 789.525 361.749 788.678 360.937C787.843 360.114 786.747 359.702 785.39 359.702C784.241 359.702 783.238 360.015 782.379 360.641C781.533 361.256 780.871 362.155 780.396 363.338C779.92 364.522 779.682 365.954 779.682 367.636C779.682 369.342 779.914 370.792 780.378 371.987C780.854 373.181 781.521 374.092 782.379 374.718C783.238 375.345 784.241 375.658 785.39 375.658C786.236 375.658 786.996 375.484 787.669 375.136C788.354 374.788 788.916 374.283 789.357 373.622C789.809 372.949 790.105 372.143 790.244 371.203H797.239C797.123 373.245 796.567 375.043 795.569 376.598C794.583 378.141 793.22 379.347 791.48 380.217C789.74 381.087 787.681 381.522 785.303 381.522ZM809.398 365.548V381H801.985V345.364H809.189V358.988H809.502C810.106 357.411 811.08 356.175 812.426 355.282C813.771 354.377 815.459 353.925 817.489 353.925C819.345 353.925 820.964 354.331 822.344 355.143C823.736 355.943 824.815 357.097 825.581 358.605C826.358 360.102 826.741 361.894 826.729 363.982V381H819.316V365.305C819.328 363.657 818.91 362.376 818.064 361.459C817.228 360.543 816.057 360.085 814.549 360.085C813.539 360.085 812.646 360.299 811.869 360.728C811.103 361.158 810.5 361.784 810.059 362.608C809.63 363.42 809.41 364.4 809.398 365.548ZM844.639 381.522C841.936 381.522 839.598 380.948 837.626 379.799C835.666 378.639 834.152 377.027 833.085 374.962C832.017 372.886 831.484 370.478 831.484 367.741C831.484 364.98 832.017 362.567 833.085 360.502C834.152 358.426 835.666 356.813 837.626 355.665C839.598 354.505 841.936 353.925 844.639 353.925C847.341 353.925 849.673 354.505 851.634 355.665C853.606 356.813 855.125 358.426 856.193 360.502C857.26 362.567 857.793 364.98 857.793 367.741C857.793 370.478 857.26 372.886 856.193 374.962C855.125 377.027 853.606 378.639 851.634 379.799C849.673 380.948 847.341 381.522 844.639 381.522ZM844.673 375.78C845.903 375.78 846.93 375.432 847.753 374.736C848.577 374.028 849.198 373.065 849.615 371.847C850.044 370.629 850.259 369.243 850.259 367.689C850.259 366.134 850.044 364.748 849.615 363.53C849.198 362.312 848.577 361.349 847.753 360.641C846.93 359.934 845.903 359.58 844.673 359.58C843.432 359.58 842.388 359.934 841.541 360.641C840.706 361.349 840.074 362.312 839.645 363.53C839.227 364.748 839.018 366.134 839.018 367.689C839.018 369.243 839.227 370.629 839.645 371.847C840.074 373.065 840.706 374.028 841.541 374.736C842.388 375.432 843.432 375.78 844.673 375.78ZM874.689 381.522C871.986 381.522 869.649 380.948 867.677 379.799C865.716 378.639 864.203 377.027 863.135 374.962C862.068 372.886 861.535 370.478 861.535 367.741C861.535 364.98 862.068 362.567 863.135 360.502C864.203 358.426 865.716 356.813 867.677 355.665C869.649 354.505 871.986 353.925 874.689 353.925C877.392 353.925 879.724 354.505 881.684 355.665C883.656 356.813 885.176 358.426 886.243 360.502C887.311 362.567 887.844 364.98 887.844 367.741C887.844 370.478 887.311 372.886 886.243 374.962C885.176 377.027 883.656 378.639 881.684 379.799C879.724 380.948 877.392 381.522 874.689 381.522ZM874.724 375.78C875.954 375.78 876.98 375.432 877.804 374.736C878.628 374.028 879.248 373.065 879.666 371.847C880.095 370.629 880.31 369.243 880.31 367.689C880.31 366.134 880.095 364.748 879.666 363.53C879.248 362.312 878.628 361.349 877.804 360.641C876.98 359.934 875.954 359.58 874.724 359.58C873.483 359.58 872.439 359.934 871.592 360.641C870.757 361.349 870.125 362.312 869.695 363.53C869.278 364.748 869.069 366.134 869.069 367.689C869.069 369.243 869.278 370.629 869.695 371.847C870.125 373.065 870.757 374.028 871.592 374.736C872.439 375.432 873.483 375.78 874.724 375.78ZM900.077 345.364V381H892.664V345.364H900.077ZM917.495 381V345.364H941.508V351.576H925.029V360.067H940.272V366.279H925.029V374.788H941.577V381H917.495ZM957.207 381.435C955.177 381.435 953.338 380.913 951.691 379.869C950.056 378.813 948.756 377.265 947.794 375.223C946.842 373.17 946.367 370.652 946.367 367.671C946.367 364.609 946.86 362.062 947.846 360.032C948.832 357.991 950.143 356.465 951.778 355.456C953.425 354.435 955.229 353.925 957.19 353.925C958.686 353.925 959.933 354.18 960.931 354.69C961.94 355.189 962.752 355.816 963.367 356.57C963.993 357.312 964.469 358.043 964.794 358.762H965.02V345.364H972.415V381H965.107V376.719H964.794C964.446 377.462 963.953 378.199 963.315 378.929C962.688 379.649 961.871 380.246 960.861 380.722C959.864 381.197 958.646 381.435 957.207 381.435ZM959.556 375.536C960.751 375.536 961.76 375.211 962.584 374.562C963.419 373.901 964.057 372.978 964.498 371.795C964.95 370.612 965.177 369.226 965.177 367.636C965.177 366.047 964.956 364.667 964.515 363.495C964.075 362.323 963.437 361.419 962.601 360.781C961.766 360.143 960.751 359.824 959.556 359.824C958.338 359.824 957.312 360.154 956.476 360.815C955.641 361.477 955.009 362.393 954.58 363.565C954.151 364.736 953.936 366.094 953.936 367.636C953.936 369.191 954.151 370.565 954.58 371.76C955.021 372.944 955.653 373.872 956.476 374.544C957.312 375.206 958.338 375.536 959.556 375.536ZM995.649 369.62V354.273H1003.06V381H995.945V376.145H995.667C995.064 377.711 994.06 378.97 992.657 379.921C991.264 380.872 989.565 381.348 987.558 381.348C985.772 381.348 984.2 380.942 982.843 380.13C981.485 379.318 980.424 378.164 979.658 376.667C978.904 375.171 978.521 373.379 978.51 371.29V354.273H985.922V369.968C985.934 371.546 986.358 372.793 987.193 373.709C988.028 374.626 989.147 375.084 990.551 375.084C991.444 375.084 992.28 374.881 993.057 374.475C993.834 374.057 994.46 373.442 994.936 372.63C995.423 371.818 995.661 370.815 995.649 369.62ZM1021.07 381.522C1018.33 381.522 1015.97 380.942 1014 379.782C1012.04 378.61 1010.53 376.986 1009.48 374.91C1008.43 372.833 1007.91 370.444 1007.91 367.741C1007.91 365.003 1008.44 362.602 1009.5 360.537C1010.56 358.46 1012.08 356.842 1014.04 355.682C1016 354.511 1018.33 353.925 1021.03 353.925C1023.36 353.925 1025.41 354.348 1027.16 355.195C1028.91 356.042 1030.3 357.231 1031.32 358.762C1032.34 360.293 1032.9 362.091 1033 364.156H1026.01C1025.81 362.822 1025.29 361.749 1024.44 360.937C1023.61 360.114 1022.51 359.702 1021.15 359.702C1020.01 359.702 1019 360.015 1018.14 360.641C1017.3 361.256 1016.64 362.155 1016.16 363.338C1015.68 364.522 1015.45 365.954 1015.45 367.636C1015.45 369.342 1015.68 370.792 1016.14 371.987C1016.62 373.181 1017.29 374.092 1018.14 374.718C1019 375.345 1020.01 375.658 1021.15 375.658C1022 375.658 1022.76 375.484 1023.43 375.136C1024.12 374.788 1024.68 374.283 1025.12 373.622C1025.57 372.949 1025.87 372.143 1026.01 371.203H1033C1032.89 373.245 1032.33 375.043 1031.33 376.598C1030.35 378.141 1028.98 379.347 1027.24 380.217C1025.5 381.087 1023.45 381.522 1021.07 381.522ZM1045.37 381.505C1043.67 381.505 1042.15 381.209 1040.81 380.617C1039.48 380.014 1038.42 379.127 1037.65 377.955C1036.88 376.772 1036.5 375.298 1036.5 373.535C1036.5 372.05 1036.77 370.803 1037.32 369.794C1037.86 368.785 1038.6 367.973 1039.54 367.358C1040.48 366.743 1041.55 366.279 1042.74 365.966C1043.95 365.653 1045.21 365.432 1046.54 365.305C1048.09 365.142 1049.34 364.991 1050.3 364.852C1051.25 364.701 1051.94 364.481 1052.37 364.191C1052.8 363.901 1053.01 363.472 1053.01 362.903V362.799C1053.01 361.697 1052.66 360.844 1051.97 360.241C1051.28 359.638 1050.31 359.336 1049.04 359.336C1047.71 359.336 1046.65 359.632 1045.86 360.224C1045.07 360.804 1044.55 361.535 1044.29 362.416L1037.44 361.859C1037.78 360.235 1038.47 358.832 1039.49 357.648C1040.51 356.454 1041.83 355.537 1043.44 354.899C1045.06 354.25 1046.94 353.925 1049.08 353.925C1050.56 353.925 1051.98 354.099 1053.34 354.447C1054.71 354.795 1055.92 355.334 1056.98 356.065C1058.04 356.796 1058.89 357.735 1059.5 358.884C1060.12 360.021 1060.42 361.384 1060.42 362.973V381H1053.39V377.294H1053.18C1052.76 378.129 1052.18 378.866 1051.46 379.504C1050.74 380.13 1049.88 380.623 1048.87 380.983C1047.86 381.331 1046.69 381.505 1045.37 381.505ZM1047.49 376.389C1048.58 376.389 1049.55 376.174 1050.38 375.745C1051.22 375.304 1051.87 374.713 1052.35 373.97C1052.82 373.228 1053.06 372.387 1053.06 371.447V368.611C1052.83 368.762 1052.51 368.901 1052.11 369.028C1051.71 369.144 1051.26 369.255 1050.77 369.359C1050.27 369.452 1049.77 369.539 1049.27 369.62C1048.77 369.69 1048.32 369.753 1047.91 369.811C1047.04 369.939 1046.28 370.142 1045.63 370.42C1044.98 370.699 1044.48 371.076 1044.12 371.551C1043.76 372.016 1043.58 372.596 1043.58 373.292C1043.58 374.301 1043.94 375.072 1044.68 375.606C1045.42 376.128 1046.36 376.389 1047.49 376.389ZM1080.39 354.273V359.841H1064.29V354.273H1080.39ZM1067.95 347.869H1075.36V372.787C1075.36 373.471 1075.47 374.005 1075.67 374.388C1075.88 374.759 1076.17 375.02 1076.54 375.171C1076.93 375.322 1077.37 375.397 1077.87 375.397C1078.22 375.397 1078.56 375.368 1078.91 375.31C1079.26 375.24 1079.53 375.188 1079.71 375.153L1080.88 380.669C1080.51 380.785 1079.98 380.919 1079.31 381.07C1078.64 381.232 1077.82 381.331 1076.86 381.365C1075.07 381.435 1073.51 381.197 1072.16 380.652C1070.83 380.107 1069.79 379.26 1069.05 378.112C1068.3 376.963 1067.94 375.513 1067.95 373.761V347.869ZM1085.22 381V354.273H1092.63V381H1085.22ZM1088.94 350.827C1087.84 350.827 1086.9 350.462 1086.11 349.731C1085.33 348.989 1084.94 348.101 1084.94 347.069C1084.94 346.048 1085.33 345.172 1086.11 344.441C1086.9 343.699 1087.84 343.328 1088.94 343.328C1090.04 343.328 1090.98 343.699 1091.76 344.441C1092.55 345.172 1092.94 346.048 1092.94 347.069C1092.94 348.101 1092.55 348.989 1091.76 349.731C1090.98 350.462 1090.04 350.827 1088.94 350.827ZM1110.65 381.522C1107.94 381.522 1105.61 380.948 1103.63 379.799C1101.67 378.639 1100.16 377.027 1099.09 374.962C1098.02 372.886 1097.49 370.478 1097.49 367.741C1097.49 364.98 1098.02 362.567 1099.09 360.502C1100.16 358.426 1101.67 356.813 1103.63 355.665C1105.61 354.505 1107.94 353.925 1110.65 353.925C1113.35 353.925 1115.68 354.505 1117.64 355.665C1119.61 356.813 1121.13 358.426 1122.2 360.502C1123.27 362.567 1123.8 364.98 1123.8 367.741C1123.8 370.478 1123.27 372.886 1122.2 374.962C1121.13 377.027 1119.61 378.639 1117.64 379.799C1115.68 380.948 1113.35 381.522 1110.65 381.522ZM1110.68 375.78C1111.91 375.78 1112.94 375.432 1113.76 374.736C1114.58 374.028 1115.2 373.065 1115.62 371.847C1116.05 370.629 1116.27 369.243 1116.27 367.689C1116.27 366.134 1116.05 364.748 1115.62 363.53C1115.2 362.312 1114.58 361.349 1113.76 360.641C1112.94 359.934 1111.91 359.58 1110.68 359.58C1109.44 359.58 1108.39 359.934 1107.55 360.641C1106.71 361.349 1106.08 362.312 1105.65 363.53C1105.23 364.748 1105.03 366.134 1105.03 367.689C1105.03 369.243 1105.23 370.629 1105.65 371.847C1106.08 373.065 1106.71 374.028 1107.55 374.736C1108.39 375.432 1109.44 375.78 1110.68 375.78ZM1136.03 365.548V381H1128.62V354.273H1135.68V358.988H1136C1136.59 357.434 1137.58 356.204 1138.97 355.299C1140.37 354.383 1142.05 353.925 1144.04 353.925C1145.89 353.925 1147.51 354.331 1148.89 355.143C1150.27 355.955 1151.35 357.115 1152.11 358.623C1152.88 360.119 1153.26 361.906 1153.26 363.982V381H1145.85V365.305C1145.86 363.669 1145.44 362.393 1144.59 361.477C1143.75 360.549 1142.58 360.085 1141.1 360.085C1140.1 360.085 1139.22 360.299 1138.45 360.728C1137.7 361.158 1137.11 361.784 1136.68 362.608C1136.26 363.42 1136.04 364.4 1136.03 365.548ZM1183.21 381H1170.58V345.364H1183.32C1186.9 345.364 1189.99 346.077 1192.58 347.504C1195.16 348.919 1197.15 350.955 1198.54 353.612C1199.95 356.268 1200.65 359.446 1200.65 363.147C1200.65 366.859 1199.95 370.049 1198.54 372.717C1197.15 375.385 1195.15 377.433 1192.54 378.86C1189.94 380.287 1186.83 381 1183.21 381ZM1178.12 374.544H1182.9C1185.13 374.544 1187 374.15 1188.52 373.361C1190.05 372.561 1191.2 371.325 1191.97 369.655C1192.74 367.973 1193.13 365.804 1193.13 363.147C1193.13 360.514 1192.74 358.362 1191.97 356.691C1191.2 355.021 1190.06 353.791 1188.54 353.002C1187.02 352.214 1185.15 351.819 1182.92 351.819H1178.12V374.544ZM1218.27 381.522C1215.52 381.522 1213.16 380.965 1211.17 379.852C1209.2 378.726 1207.68 377.137 1206.61 375.084C1205.55 373.019 1205.01 370.577 1205.01 367.758C1205.01 365.009 1205.55 362.596 1206.61 360.52C1207.68 358.443 1209.18 356.825 1211.12 355.665C1213.07 354.505 1215.35 353.925 1217.98 353.925C1219.74 353.925 1221.38 354.209 1222.9 354.777C1224.43 355.334 1225.77 356.175 1226.9 357.3C1228.05 358.426 1228.94 359.841 1229.58 361.546C1230.22 363.24 1230.54 365.223 1230.54 367.497V369.533H1207.97V364.939H1223.56C1223.56 363.872 1223.33 362.927 1222.87 362.103C1222.4 361.279 1221.76 360.636 1220.93 360.172C1220.12 359.696 1219.18 359.458 1218.1 359.458C1216.97 359.458 1215.98 359.719 1215.11 360.241C1214.25 360.752 1213.57 361.442 1213.09 362.312C1212.6 363.17 1212.35 364.127 1212.34 365.183V369.55C1212.34 370.873 1212.58 372.016 1213.07 372.978C1213.57 373.941 1214.27 374.684 1215.17 375.206C1216.08 375.728 1217.15 375.989 1218.39 375.989C1219.22 375.989 1219.97 375.873 1220.66 375.641C1221.34 375.409 1221.93 375.061 1222.41 374.597C1222.9 374.133 1223.27 373.564 1223.53 372.891L1230.38 373.344C1230.04 374.991 1229.32 376.429 1228.24 377.659C1227.18 378.877 1225.8 379.828 1224.1 380.513C1222.42 381.186 1220.48 381.522 1218.27 381.522ZM1235.38 391.023V354.273H1242.69V358.762H1243.02C1243.34 358.043 1243.81 357.312 1244.43 356.57C1245.05 355.816 1245.86 355.189 1246.86 354.69C1247.87 354.18 1249.12 353.925 1250.62 353.925C1252.57 353.925 1254.37 354.435 1256.01 355.456C1257.66 356.465 1258.98 357.991 1259.96 360.032C1260.95 362.062 1261.44 364.609 1261.44 367.671C1261.44 370.652 1260.96 373.17 1260 375.223C1259.05 377.265 1257.75 378.813 1256.1 379.869C1254.47 380.913 1252.63 381.435 1250.6 381.435C1249.16 381.435 1247.94 381.197 1246.93 380.722C1245.93 380.246 1245.12 379.649 1244.48 378.929C1243.84 378.199 1243.35 377.462 1243.02 376.719H1242.79V391.023H1235.38ZM1242.63 367.636C1242.63 369.226 1242.85 370.612 1243.29 371.795C1243.74 372.978 1244.37 373.901 1245.21 374.562C1246.04 375.211 1247.06 375.536 1248.25 375.536C1249.46 375.536 1250.48 375.206 1251.32 374.544C1252.15 373.872 1252.78 372.944 1253.21 371.76C1253.65 370.565 1253.87 369.191 1253.87 367.636C1253.87 366.094 1253.66 364.736 1253.23 363.565C1252.8 362.393 1252.17 361.477 1251.33 360.815C1250.5 360.154 1249.47 359.824 1248.25 359.824C1247.05 359.824 1246.03 360.143 1245.19 360.781C1244.37 361.419 1243.74 362.323 1243.29 363.495C1242.85 364.667 1242.63 366.047 1242.63 367.636ZM1274.01 381.505C1272.3 381.505 1270.78 381.209 1269.45 380.617C1268.11 380.014 1267.06 379.127 1266.28 377.955C1265.51 376.772 1265.13 375.298 1265.13 373.535C1265.13 372.05 1265.4 370.803 1265.95 369.794C1266.5 368.785 1267.24 367.973 1268.18 367.358C1269.12 366.743 1270.18 366.279 1271.38 365.966C1272.59 365.653 1273.85 365.432 1275.17 365.305C1276.73 365.142 1277.98 364.991 1278.93 364.852C1279.88 364.701 1280.57 364.481 1281 364.191C1281.43 363.901 1281.65 363.472 1281.65 362.903V362.799C1281.65 361.697 1281.3 360.844 1280.6 360.241C1279.92 359.638 1278.94 359.336 1277.68 359.336C1276.34 359.336 1275.28 359.632 1274.49 360.224C1273.7 360.804 1273.18 361.535 1272.93 362.416L1266.07 361.859C1266.42 360.235 1267.1 358.832 1268.12 357.648C1269.15 356.454 1270.46 355.537 1272.07 354.899C1273.7 354.25 1275.58 353.925 1277.71 353.925C1279.2 353.925 1280.62 354.099 1281.98 354.447C1283.34 354.795 1284.56 355.334 1285.61 356.065C1286.68 356.796 1287.52 357.735 1288.14 358.884C1288.75 360.021 1289.06 361.384 1289.06 362.973V381H1282.03V377.294H1281.82C1281.39 378.129 1280.82 378.866 1280.1 379.504C1279.38 380.13 1278.51 380.623 1277.5 380.983C1276.49 381.331 1275.33 381.505 1274.01 381.505ZM1276.13 376.389C1277.22 376.389 1278.18 376.174 1279.02 375.745C1279.85 375.304 1280.51 374.713 1280.98 373.97C1281.46 373.228 1281.7 372.387 1281.7 371.447V368.611C1281.47 368.762 1281.15 368.901 1280.74 369.028C1280.35 369.144 1279.9 369.255 1279.4 369.359C1278.9 369.452 1278.4 369.539 1277.9 369.62C1277.41 369.69 1276.95 369.753 1276.55 369.811C1275.68 369.939 1274.92 370.142 1274.27 370.42C1273.62 370.699 1273.11 371.076 1272.75 371.551C1272.39 372.016 1272.21 372.596 1272.21 373.292C1272.21 374.301 1272.58 375.072 1273.31 375.606C1274.05 376.128 1274.99 376.389 1276.13 376.389ZM1294.81 381V354.273H1302V358.936H1302.27C1302.76 357.277 1303.58 356.024 1304.73 355.178C1305.88 354.319 1307.2 353.89 1308.69 353.89C1309.07 353.89 1309.47 353.913 1309.89 353.96C1310.32 354.006 1310.7 354.07 1311.03 354.151V360.728C1310.68 360.624 1310.2 360.531 1309.58 360.45C1308.97 360.369 1308.4 360.328 1307.89 360.328C1306.8 360.328 1305.83 360.566 1304.97 361.042C1304.12 361.506 1303.45 362.155 1302.95 362.99C1302.46 363.826 1302.22 364.788 1302.22 365.879V381H1294.81ZM1330.41 354.273V359.841H1314.32V354.273H1330.41ZM1317.97 347.869H1325.39V372.787C1325.39 373.471 1325.49 374.005 1325.7 374.388C1325.91 374.759 1326.2 375.02 1326.57 375.171C1326.95 375.322 1327.39 375.397 1327.89 375.397C1328.24 375.397 1328.59 375.368 1328.94 375.31C1329.28 375.24 1329.55 375.188 1329.74 375.153L1330.9 380.669C1330.53 380.785 1330.01 380.919 1329.34 381.07C1328.66 381.232 1327.85 381.331 1326.88 381.365C1325.1 381.435 1323.53 381.197 1322.18 380.652C1320.85 380.107 1319.81 379.26 1319.07 378.112C1318.33 376.963 1317.96 375.513 1317.97 373.761V347.869ZM1335.24 381V354.273H1342.31V358.988H1342.62C1343.18 357.422 1344.11 356.187 1345.41 355.282C1346.7 354.377 1348.26 353.925 1350.07 353.925C1351.9 353.925 1353.46 354.383 1354.75 355.299C1356.04 356.204 1356.9 357.434 1357.32 358.988H1357.6C1358.15 357.457 1359.13 356.233 1360.56 355.317C1362 354.389 1363.7 353.925 1365.66 353.925C1368.15 353.925 1370.18 354.719 1371.73 356.309C1373.3 357.886 1374.08 360.125 1374.08 363.025V381H1366.69V364.487C1366.69 363.002 1366.29 361.888 1365.5 361.146C1364.71 360.404 1363.73 360.032 1362.54 360.032C1361.2 360.032 1360.15 360.462 1359.4 361.32C1358.64 362.167 1358.26 363.286 1358.26 364.678V381H1351.08V364.33C1351.08 363.019 1350.7 361.975 1349.95 361.198C1349.2 360.421 1348.22 360.032 1347.01 360.032C1346.18 360.032 1345.44 360.241 1344.78 360.659C1344.13 361.065 1343.61 361.639 1343.23 362.381C1342.85 363.112 1342.66 363.971 1342.66 364.957V381H1335.24ZM1392.12 381.522C1389.37 381.522 1387 380.965 1385.02 379.852C1383.05 378.726 1381.53 377.137 1380.46 375.084C1379.39 373.019 1378.86 370.577 1378.86 367.758C1378.86 365.009 1379.39 362.596 1380.46 360.52C1381.53 358.443 1383.03 356.825 1384.97 355.665C1386.91 354.505 1389.2 353.925 1391.82 353.925C1393.58 353.925 1395.23 354.209 1396.75 354.777C1398.28 355.334 1399.61 356.175 1400.75 357.3C1401.9 358.426 1402.79 359.841 1403.43 361.546C1404.07 363.24 1404.38 365.223 1404.38 367.497V369.533H1381.82V364.939H1397.41C1397.41 363.872 1397.17 362.927 1396.71 362.103C1396.25 361.279 1395.6 360.636 1394.78 360.172C1393.97 359.696 1393.02 359.458 1391.94 359.458C1390.82 359.458 1389.82 359.719 1388.95 360.241C1388.09 360.752 1387.42 361.442 1386.93 362.312C1386.44 363.17 1386.2 364.127 1386.18 365.183V369.55C1386.18 370.873 1386.43 372.016 1386.91 372.978C1387.41 373.941 1388.11 374.684 1389.02 375.206C1389.92 375.728 1391 375.989 1392.24 375.989C1393.06 375.989 1393.82 375.873 1394.5 375.641C1395.19 375.409 1395.77 375.061 1396.26 374.597C1396.75 374.133 1397.12 373.564 1397.37 372.891L1404.23 373.344C1403.88 374.991 1403.17 376.429 1402.09 377.659C1401.02 378.877 1399.64 379.828 1397.95 380.513C1396.26 381.186 1394.32 381.522 1392.12 381.522ZM1416.63 365.548V381H1409.22V354.273H1416.29V358.988H1416.6C1417.19 357.434 1418.18 356.204 1419.58 355.299C1420.97 354.383 1422.66 353.925 1424.64 353.925C1426.49 353.925 1428.11 354.331 1429.49 355.143C1430.87 355.955 1431.95 357.115 1432.71 358.623C1433.48 360.119 1433.86 361.906 1433.86 363.982V381H1426.45V365.305C1426.46 363.669 1426.04 362.393 1425.2 361.477C1424.35 360.549 1423.18 360.085 1421.7 360.085C1420.7 360.085 1419.82 360.299 1419.05 360.728C1418.3 361.158 1417.71 361.784 1417.28 362.608C1416.86 363.42 1416.65 364.4 1416.63 365.548ZM1453.92 354.273V359.841H1437.82V354.273H1453.92ZM1441.48 347.869H1448.89V372.787C1448.89 373.471 1449 374.005 1449.2 374.388C1449.41 374.759 1449.7 375.02 1450.07 375.171C1450.46 375.322 1450.9 375.397 1451.4 375.397C1451.74 375.397 1452.09 375.368 1452.44 375.31C1452.79 375.24 1453.06 375.188 1453.24 375.153L1454.41 380.669C1454.04 380.785 1453.51 380.919 1452.84 381.07C1452.17 381.232 1451.35 381.331 1450.39 381.365C1448.6 381.435 1447.03 381.197 1445.69 380.652C1444.35 380.107 1443.32 379.26 1442.57 378.112C1441.83 376.963 1441.47 375.513 1441.48 373.761V347.869ZM1466.8 376.128L1466.61 378.042C1466.46 379.573 1466.17 381.099 1465.74 382.618C1465.33 384.15 1464.88 385.536 1464.42 386.777C1463.97 388.018 1463.6 388.993 1463.32 389.7H1458.52C1458.7 389.016 1458.93 388.059 1459.24 386.829C1459.54 385.611 1459.82 384.242 1460.09 382.723C1460.35 381.203 1460.52 379.654 1460.59 378.077L1460.68 376.128H1466.8ZM1483.39 381V345.364H1497.45C1500.15 345.364 1502.45 345.88 1504.36 346.912C1506.26 347.933 1507.71 349.354 1508.71 351.175C1509.71 352.985 1510.22 355.073 1510.22 357.44C1510.22 359.806 1509.71 361.894 1508.69 363.704C1507.67 365.513 1506.19 366.923 1504.25 367.932C1502.32 368.941 1499.99 369.446 1497.26 369.446H1488.29V363.408H1496.04C1497.49 363.408 1498.68 363.159 1499.62 362.66C1500.57 362.149 1501.28 361.448 1501.74 360.554C1502.22 359.65 1502.46 358.611 1502.46 357.44C1502.46 356.256 1502.22 355.224 1501.74 354.342C1501.28 353.449 1500.57 352.759 1499.62 352.272C1498.67 351.773 1497.46 351.523 1496 351.523H1490.92V381H1483.39ZM1532.11 369.62V354.273H1539.53V381H1532.41V376.145H1532.13C1531.53 377.711 1530.52 378.97 1529.12 379.921C1527.73 380.872 1526.03 381.348 1524.02 381.348C1522.24 381.348 1520.66 380.942 1519.31 380.13C1517.95 379.318 1516.89 378.164 1516.12 376.667C1515.37 375.171 1514.99 373.379 1514.97 371.29V354.273H1522.39V369.968C1522.4 371.546 1522.82 372.793 1523.66 373.709C1524.49 374.626 1525.61 375.084 1527.01 375.084C1527.91 375.084 1528.74 374.881 1529.52 374.475C1530.3 374.057 1530.92 373.442 1531.4 372.63C1531.89 371.818 1532.12 370.815 1532.11 369.62ZM1552.87 365.548V381H1545.46V354.273H1552.52V358.988H1552.83C1553.42 357.434 1554.42 356.204 1555.81 355.299C1557.2 354.383 1558.89 353.925 1560.87 353.925C1562.73 353.925 1564.35 354.331 1565.73 355.143C1567.11 355.955 1568.18 357.115 1568.95 358.623C1569.71 360.119 1570.09 361.906 1570.09 363.982V381H1562.68V365.305C1562.69 363.669 1562.28 362.393 1561.43 361.477C1560.58 360.549 1559.42 360.085 1557.93 360.085C1556.93 360.085 1556.05 360.299 1555.29 360.728C1554.53 361.158 1553.94 361.784 1553.51 362.608C1553.09 363.42 1552.88 364.4 1552.87 365.548ZM1575.94 354.273H1583.35V382.322C1583.35 384.387 1582.94 386.058 1582.13 387.334C1581.32 388.61 1580.15 389.544 1578.63 390.135C1577.13 390.727 1575.32 391.023 1573.22 391.023C1572.97 391.023 1572.72 391.017 1572.49 391.005C1572.25 391.005 1571.99 391 1571.73 390.988V385.194C1571.92 385.205 1572.1 385.211 1572.25 385.211C1572.39 385.223 1572.54 385.228 1572.7 385.228C1573.89 385.228 1574.73 384.973 1575.21 384.463C1575.69 383.964 1575.94 383.21 1575.94 382.201V354.273ZM1579.63 350.827C1578.54 350.827 1577.6 350.462 1576.81 349.731C1576.02 348.989 1575.62 348.101 1575.62 347.069C1575.62 346.048 1576.02 345.172 1576.81 344.441C1577.6 343.699 1578.54 343.328 1579.63 343.328C1580.74 343.328 1581.68 343.699 1582.46 344.441C1583.25 345.172 1583.65 346.048 1583.65 347.069C1583.65 348.101 1583.25 348.989 1582.46 349.731C1581.68 350.462 1580.74 350.827 1579.63 350.827ZM1596.91 381.505C1595.2 381.505 1593.68 381.209 1592.35 380.617C1591.02 380.014 1589.96 379.127 1589.18 377.955C1588.42 376.772 1588.03 375.298 1588.03 373.535C1588.03 372.05 1588.31 370.803 1588.85 369.794C1589.4 368.785 1590.14 367.973 1591.08 367.358C1592.02 366.743 1593.09 366.279 1594.28 365.966C1595.49 365.653 1596.75 365.432 1598.07 365.305C1599.63 365.142 1600.88 364.991 1601.83 364.852C1602.78 364.701 1603.47 364.481 1603.9 364.191C1604.33 363.901 1604.55 363.472 1604.55 362.903V362.799C1604.55 361.697 1604.2 360.844 1603.5 360.241C1602.82 359.638 1601.84 359.336 1600.58 359.336C1599.25 359.336 1598.18 359.632 1597.4 360.224C1596.61 360.804 1596.09 361.535 1595.83 362.416L1588.97 361.859C1589.32 360.235 1590.01 358.832 1591.03 357.648C1592.05 356.454 1593.36 355.537 1594.98 354.899C1596.6 354.25 1598.48 353.925 1600.61 353.925C1602.1 353.925 1603.52 354.099 1604.88 354.447C1606.25 354.795 1607.46 355.334 1608.51 356.065C1609.58 356.796 1610.42 357.735 1611.04 358.884C1611.65 360.021 1611.96 361.384 1611.96 362.973V381H1604.93V377.294H1604.72C1604.29 378.129 1603.72 378.866 1603 379.504C1602.28 380.13 1601.42 380.623 1600.41 380.983C1599.4 381.331 1598.23 381.505 1596.91 381.505ZM1599.03 376.389C1600.12 376.389 1601.08 376.174 1601.92 375.745C1602.76 375.304 1603.41 374.713 1603.89 373.97C1604.36 373.228 1604.6 372.387 1604.6 371.447V368.611C1604.37 368.762 1604.05 368.901 1603.64 369.028C1603.25 369.144 1602.8 369.255 1602.3 369.359C1601.8 369.452 1601.31 369.539 1600.81 369.62C1600.31 369.69 1599.86 369.753 1599.45 369.811C1598.58 369.939 1597.82 370.142 1597.17 370.42C1596.52 370.699 1596.02 371.076 1595.66 371.551C1595.3 372.016 1595.12 372.596 1595.12 373.292C1595.12 374.301 1595.48 375.072 1596.21 375.606C1596.96 376.128 1597.89 376.389 1599.03 376.389ZM1617.85 381V345.364H1625.26V358.762H1625.49C1625.81 358.043 1626.28 357.312 1626.9 356.57C1627.52 355.816 1628.34 355.189 1629.33 354.69C1630.34 354.18 1631.6 353.925 1633.09 353.925C1635.04 353.925 1636.84 354.435 1638.49 355.456C1640.13 356.465 1641.45 357.991 1642.44 360.032C1643.42 362.062 1643.92 364.609 1643.92 367.671C1643.92 370.652 1643.43 373.17 1642.47 375.223C1641.52 377.265 1640.22 378.813 1638.57 379.869C1636.94 380.913 1635.11 381.435 1633.08 381.435C1631.64 381.435 1630.41 381.197 1629.4 380.722C1628.41 380.246 1627.59 379.649 1626.95 378.929C1626.31 378.199 1625.83 377.462 1625.49 376.719H1625.16V381H1617.85ZM1625.11 367.636C1625.11 369.226 1625.33 370.612 1625.77 371.795C1626.21 372.978 1626.85 373.901 1627.68 374.562C1628.52 375.211 1629.53 375.536 1630.73 375.536C1631.93 375.536 1632.95 375.206 1633.79 374.544C1634.62 373.872 1635.26 372.944 1635.69 371.76C1636.13 370.565 1636.35 369.191 1636.35 367.636C1636.35 366.094 1636.13 364.736 1635.7 363.565C1635.27 362.393 1634.64 361.477 1633.81 360.815C1632.97 360.154 1631.94 359.824 1630.73 359.824C1629.52 359.824 1628.5 360.143 1627.66 360.781C1626.84 361.419 1626.21 362.323 1625.77 363.495C1625.33 364.667 1625.11 366.047 1625.11 367.636Z" fill="#4E8A91"/>
<path d="M558.513 284L603.514 139.68H642.964L686.875 284H652.48L625.222 186.564C624.429 183.855 623.768 181.509 623.239 179.526C622.777 177.478 622.347 175.76 621.951 174.372H621.752C621.356 175.76 620.893 177.478 620.365 179.526C619.836 181.509 619.208 183.855 618.481 186.564L592.512 284H558.513ZM584.285 255.453L588.943 232.457H655.454L660.509 255.453H584.285ZM675.972 167.632V139.68H786.987V167.632H749.42V284H713.737V167.632H675.972ZM775.985 284L820.986 139.68H860.436L904.347 284H869.952L842.693 186.564C841.9 183.855 841.24 181.509 840.711 179.526C840.248 177.478 839.819 175.76 839.422 174.372H839.224C838.828 175.76 838.365 177.478 837.836 179.526C837.308 181.509 836.68 183.855 835.953 186.564L809.983 284H775.985ZM801.756 255.453L806.415 232.457H872.925L877.98 255.453H801.756ZM955.989 215.706V207.974C955.989 182.93 961.44 164.956 972.344 154.052C983.247 143.149 997.454 137.697 1014.97 137.697C1031.75 137.697 1044.8 141.695 1054.12 149.691C1063.44 157.687 1068.09 169.879 1068.09 186.267V195.386H1034.89V182.996C1034.89 176.189 1033.27 171.002 1030.03 167.434C1026.79 163.799 1022 161.982 1015.66 161.982C1008.59 161.982 1003.1 164.856 999.206 170.605C995.373 176.288 993.457 185.308 993.457 197.666V226.014C993.457 238.503 995.439 247.656 999.404 253.471C1003.43 259.22 1008.95 262.094 1015.96 262.094C1022.23 262.094 1026.96 260.211 1030.13 256.444C1033.3 252.678 1034.89 246.631 1034.89 238.305V228.79H1068.09V239.792C1068.16 254.33 1063.54 265.663 1054.22 273.791C1044.97 281.852 1031.85 285.883 1014.87 285.883C996.562 285.883 982.157 280.333 971.65 269.231C961.209 258.129 955.989 240.288 955.989 215.706ZM1080.68 284V139.68H1173.46V167.632H1114.38V198.558H1164.74V223.14H1114.38V256.94H1174.95V284H1080.68ZM1184.17 284V139.68H1219.45L1255.43 218.184C1256.29 220.298 1257.12 222.611 1257.91 225.122C1258.77 227.633 1259.46 229.946 1259.99 232.061H1260.49C1260.36 229.814 1260.29 227.468 1260.29 225.023C1260.36 222.578 1260.39 220.232 1260.39 217.985V139.68H1290.23V284H1256.03L1218.76 204.505C1217.9 202.522 1217.07 200.375 1216.28 198.062C1215.49 195.749 1214.83 193.535 1214.3 191.421H1213.7C1213.9 193.668 1214 195.848 1214 197.963C1214 200.011 1214 202.192 1214 204.505V284H1184.17Z" fill="#6D767A"/>
<path d="M1418.43 284V139.68H1511.2V167.632H1452.13V198.558H1502.48V223.14H1452.13V256.94H1512.69V284H1418.43ZM1521.91 284V139.68H1580.69C1594.5 139.68 1605.4 143.876 1613.4 152.268C1621.46 160.594 1625.49 171.531 1625.49 185.077C1625.49 198.954 1621.23 210.32 1612.7 219.175C1604.18 228.03 1593.37 232.457 1580.29 232.457H1557.1V284H1521.91ZM1557.1 209.659H1572.26C1578.8 209.659 1583.36 207.578 1585.94 203.415C1588.58 199.185 1589.9 193.767 1589.9 187.159C1589.9 180.551 1588.58 175.165 1585.94 171.002C1583.36 166.773 1578.8 164.625 1572.26 164.559H1557.1V209.659ZM1593.08 284L1567.01 221.355L1597.83 212.137L1631.34 284H1593.08Z" fill="#6D767A"/>
<mask id="path-4-inside-1_569_389" fill="white">
<path fill-rule="evenodd" clip-rule="evenodd" d="M51 127.5H64H206H219V140.5V258.65C228.771 263.125 235.534 272.794 235.534 284C235.534 299.464 222.655 312 206.767 312C190.879 312 178 299.464 178 284C178 273.39 184.063 264.159 193 259.409V153.5H77V271.65C86.7706 276.125 93.5342 285.794 93.5342 297C93.5342 312.464 80.6548 325 64.7671 325C48.8795 325 36 312.464 36 297C36 286.39 42.0627 277.159 51 272.409V140.5V127.5Z"/>
</mask>
<path d="M51 127.5V114.5H38V127.5H51ZM219 127.5H232V114.5H219V127.5ZM219 258.65H206V266.995L213.587 270.47L219 258.65ZM193 259.409L199.101 270.888L206 267.221V259.409H193ZM193 153.5H206V140.5H193V153.5ZM77 153.5V140.5H64V153.5H77ZM77 271.65H64V279.995L71.5871 283.47L77 271.65ZM51 272.409L57.1013 283.888L64 280.221V272.409H51ZM64 114.5H51V140.5H64V114.5ZM206 114.5H64V140.5H206V114.5ZM219 114.5H206V140.5H219V114.5ZM232 140.5V127.5H206V140.5H232ZM232 258.65V140.5H206V258.65H232ZM248.534 284C248.534 267.376 238.496 253.28 224.413 246.831L213.587 270.47C219.046 272.97 222.534 278.212 222.534 284H248.534ZM206.767 325C229.501 325 248.534 306.973 248.534 284H222.534C222.534 291.955 215.809 299 206.767 299V325ZM165 284C165 306.973 184.033 325 206.767 325V299C197.726 299 191 291.955 191 284H165ZM186.899 247.929C174.003 254.784 165 268.267 165 284H191C191 278.514 194.123 273.534 199.101 270.888L186.899 247.929ZM180 153.5V259.409H206V153.5H180ZM77 166.5H193V140.5H77V166.5ZM90 271.65V153.5H64V271.65H90ZM71.5871 283.47C77.0457 285.97 80.5342 291.212 80.5342 297H106.534C106.534 280.376 96.4955 266.28 82.4129 259.831L71.5871 283.47ZM80.5342 297C80.5342 304.955 73.8085 312 64.7671 312V338C87.501 338 106.534 319.973 106.534 297H80.5342ZM64.7671 312C55.7257 312 49 304.955 49 297H23C23 319.973 42.0332 338 64.7671 338V312ZM49 297C49 291.514 52.1228 286.534 57.1013 283.888L44.8987 260.929C32.0026 267.784 23 281.267 23 297H49ZM38 140.5V272.409H64V140.5H38ZM38 127.5V140.5H64V127.5H38Z" fill="#4E8A91" mask="url(#path-4-inside-1_569_389)"/>
<mask id="path-6-inside-2_569_389" fill="white">
<path fill-rule="evenodd" clip-rule="evenodd" d="M297.5 111C309.785 111 319 101.417 319 90.5C319 79.5831 309.785 70 297.5 70C285.215 70 276 79.5831 276 90.5C276 101.417 285.215 111 297.5 111ZM297.5 127C318.211 127 335 110.658 335 90.5C335 70.3416 318.211 54 297.5 54C282.282 54 269.181 62.8229 263.303 75.5H13H0V88.5V436.5V449.5H13H360.5H373.5V436.5V194.5V181.5H360.5H116H103V194.5V367.5V380.5H116H288H301V367.5V307.171C314.511 301.653 324 288.655 324 273.5C324 253.342 307.211 237 286.5 237C265.789 237 249 253.342 249 273.5C249 289.754 259.915 303.526 275 308.252V354.5H129V207.5H347.5V423.5H26V101.5H261.733C266.527 116.283 280.728 127 297.5 127ZM308 273.5C308 284.417 298.785 294 286.5 294C274.215 294 265 284.417 265 273.5C265 262.583 274.215 253 286.5 253C298.785 253 308 262.583 308 273.5Z"/>
</mask>
<path fill-rule="evenodd" clip-rule="evenodd" d="M297.5 111C309.785 111 319 101.417 319 90.5C319 79.5831 309.785 70 297.5 70C285.215 70 276 79.5831 276 90.5C276 101.417 285.215 111 297.5 111ZM297.5 127C318.211 127 335 110.658 335 90.5C335 70.3416 318.211 54 297.5 54C282.282 54 269.181 62.8229 263.303 75.5H13H0V88.5V436.5V449.5H13H360.5H373.5V436.5V194.5V181.5H360.5H116H103V194.5V367.5V380.5H116H288H301V367.5V307.171C314.511 301.653 324 288.655 324 273.5C324 253.342 307.211 237 286.5 237C265.789 237 249 253.342 249 273.5C249 289.754 259.915 303.526 275 308.252V354.5H129V207.5H347.5V423.5H26V101.5H261.733C266.527 116.283 280.728 127 297.5 127ZM308 273.5C308 284.417 298.785 294 286.5 294C274.215 294 265 284.417 265 273.5C265 262.583 274.215 253 286.5 253C298.785 253 308 262.583 308 273.5Z" fill="#D9D9D9"/>
<path d="M263.303 75.5V91.5H273.52L277.818 82.231L263.303 75.5ZM0 75.5V59.5H-16V75.5H0ZM0 449.5H-16V465.5H0V449.5ZM373.5 449.5V465.5H389.5V449.5H373.5ZM373.5 181.5H389.5V165.5H373.5V181.5ZM103 181.5V165.5H87V181.5H103ZM103 380.5H87V396.5H103V380.5ZM301 380.5V396.5H317V380.5H301ZM301 307.171L294.95 292.359L285 296.423V307.171H301ZM275 308.252H291V296.497L279.783 292.983L275 308.252ZM275 354.5V370.5H291V354.5H275ZM129 354.5H113V370.5H129V354.5ZM129 207.5V191.5H113V207.5H129ZM347.5 207.5H363.5V191.5H347.5V207.5ZM347.5 423.5V439.5H363.5V423.5H347.5ZM26 423.5H10V439.5H26V423.5ZM26 101.5V85.5H10V101.5H26ZM261.733 101.5L276.953 96.564L273.364 85.5H261.733V101.5ZM303 90.5C303 92.2682 301.263 95 297.5 95V127C318.306 127 335 110.566 335 90.5H303ZM297.5 86C301.263 86 303 88.7318 303 90.5H335C335 70.4344 318.306 54 297.5 54V86ZM292 90.5C292 88.7318 293.737 86 297.5 86V54C276.694 54 260 70.4344 260 90.5H292ZM297.5 95C293.737 95 292 92.2682 292 90.5H260C260 110.566 276.694 127 297.5 127V95ZM319 90.5C319 101.417 309.785 111 297.5 111V143C326.637 143 351 119.9 351 90.5H319ZM297.5 70C309.785 70 319 79.5831 319 90.5H351C351 61.1001 326.637 38 297.5 38V70ZM277.818 82.231C281.095 75.1648 288.558 70 297.5 70V38C276.006 38 257.268 50.4811 248.788 68.769L277.818 82.231ZM13 91.5H263.303V59.5H13V91.5ZM0 91.5H13V59.5H0V91.5ZM16 88.5V75.5H-16V88.5H16ZM16 436.5V88.5H-16V436.5H16ZM16 449.5V436.5H-16V449.5H16ZM13 433.5H0V465.5H13V433.5ZM360.5 433.5H13V465.5H360.5V433.5ZM373.5 433.5H360.5V465.5H373.5V433.5ZM357.5 436.5V449.5H389.5V436.5H357.5ZM357.5 194.5V436.5H389.5V194.5H357.5ZM357.5 181.5V194.5H389.5V181.5H357.5ZM360.5 197.5H373.5V165.5H360.5V197.5ZM116 197.5H360.5V165.5H116V197.5ZM103 197.5H116V165.5H103V197.5ZM119 194.5V181.5H87V194.5H119ZM119 367.5V194.5H87V367.5H119ZM119 380.5V367.5H87V380.5H119ZM116 364.5H103V396.5H116V364.5ZM288 364.5H116V396.5H288V364.5ZM301 364.5H288V396.5H301V364.5ZM285 367.5V380.5H317V367.5H285ZM285 307.171V367.5H317V307.171H285ZM307.05 321.983C326.178 314.171 340 295.577 340 273.5H308C308 281.733 302.844 289.135 294.95 292.359L307.05 321.983ZM340 273.5C340 244.1 315.637 221 286.5 221V253C298.785 253 308 262.583 308 273.5H340ZM286.5 221C257.363 221 233 244.1 233 273.5H265C265 262.583 274.215 253 286.5 253V221ZM233 273.5C233 297.186 248.886 316.838 270.217 323.52L279.783 292.983C270.945 290.215 265 282.322 265 273.5H233ZM291 354.5V308.252H259V354.5H291ZM129 370.5H275V338.5H129V370.5ZM113 207.5V354.5H145V207.5H113ZM347.5 191.5H129V223.5H347.5V191.5ZM363.5 423.5V207.5H331.5V423.5H363.5ZM26 439.5H347.5V407.5H26V439.5ZM10 101.5V423.5H42V101.5H10ZM261.733 85.5H26V117.5H261.733V85.5ZM297.5 111C287.626 111 279.596 104.715 276.953 96.564L246.513 106.436C253.458 127.85 273.83 143 297.5 143V111ZM286.5 310C307.306 310 324 293.566 324 273.5H292C292 275.268 290.263 278 286.5 278V310ZM249 273.5C249 293.566 265.694 310 286.5 310V278C282.737 278 281 275.268 281 273.5H249ZM286.5 237C265.694 237 249 253.434 249 273.5H281C281 271.732 282.737 269 286.5 269V237ZM324 273.5C324 253.434 307.306 237 286.5 237V269C290.263 269 292 271.732 292 273.5H324Z" fill="#6D767A" mask="url(#path-6-inside-2_569_389)"/>
<rect x="1299" y="139.699" width="111" height="27.7" fill="#4E8A91"/>
<path d="M1369.13 216.8C1357.71 213.351 1350.99 213.4 1339.31 216.807C1338.56 217.025 1338.05 217.711 1338.05 218.488C1338.05 219.613 1339.09 220.448 1340.2 220.225C1350.89 218.061 1357.75 218 1368.21 220.202C1369.31 220.434 1370.36 219.599 1370.36 218.47C1370.36 217.702 1369.86 217.022 1369.13 216.8Z" fill="#6D767A"/>
<path d="M1342 213.417V195.672H1365.9V213.417C1357 211.206 1351.77 211.201 1342 213.417Z" fill="#4E8A91" stroke="#4E8A91"/>
<rect width="17.5684" height="17.5694" transform="matrix(0.698809 0.715308 -0.698809 0.715308 1353.29 160.061)" fill="#6D767A"/>
<rect width="17.5684" height="17.5694" transform="matrix(0.698809 0.715308 -0.698809 0.715308 1353.22 167.707)" fill="#4E8A91"/>
<rect width="17.5684" height="17.5694" transform="matrix(0.698809 0.715308 -0.698809 0.715308 1354.27 175.775)" fill="#D9D9D9"/>
<rect width="17.5684" height="17.5694" transform="matrix(0.698809 0.715308 -0.698809 0.715308 1353.8 182.766)" fill="#6D767A"/>
<rect width="6.90351" height="6.90392" transform="matrix(0.698809 0.715308 -0.698809 0.715308 1369.94 186.092)" fill="#6D767A"/>
<rect width="6.90351" height="6.90392" transform="matrix(0.698809 0.715308 -0.698809 0.715308 1336.84 179.539)" fill="#6D767A"/>
<rect width="6.90351" height="6.90392" transform="matrix(0.698809 0.715308 -0.698809 0.715308 1369.94 171.473)" fill="#4E8A91"/>
<path fill-rule="evenodd" clip-rule="evenodd" d="M1332.38 248.01C1336.13 241.01 1338.02 236.041 1340.08 223.24C1345.64 222.001 1350.02 221.375 1354.34 221.369C1358.66 221.363 1362.96 221.977 1368.37 223.24C1370.48 233.765 1371.78 239.072 1377.09 248.005C1370.5 253.971 1366.51 259.389 1363.86 265.389C1361.22 271.366 1359.91 277.894 1358.65 286.048H1357.72L1356.95 258.486C1358.37 257.651 1359.33 256.083 1359.33 254.286C1359.33 251.613 1357.21 249.446 1354.6 249.446C1351.99 249.446 1349.88 251.613 1349.88 254.286C1349.88 256.093 1350.84 257.668 1352.28 258.5L1353.05 286.048H1351.63C1350.53 278.071 1348.95 271.774 1346.03 265.866C1343.09 259.934 1338.82 254.424 1332.38 248.01ZM1353.29 258.936L1354.06 286.534L1354.07 287.048H1353.56H1351.2H1350.76L1350.7 286.615C1349.6 278.488 1348.04 272.189 1345.13 266.309C1342.22 260.43 1337.96 254.94 1331.41 248.457L1331.14 248.193L1331.32 247.864C1335.16 240.741 1337.05 235.906 1339.14 222.748L1339.2 222.413L1339.53 222.339C1345.29 221.042 1349.83 220.376 1354.34 220.369C1358.85 220.363 1363.31 221.017 1368.91 222.34L1369.22 222.413L1369.28 222.728C1371.46 233.562 1372.7 238.752 1378.15 247.844L1378.37 248.198L1378.06 248.474C1371.37 254.476 1367.4 259.857 1364.78 265.794C1362.15 271.742 1360.86 278.277 1359.57 286.624L1359.5 287.048H1359.08H1357.24H1356.75L1356.74 286.562L1355.97 258.922C1355.53 259.054 1355.08 259.126 1354.6 259.126C1354.15 259.126 1353.71 259.059 1353.29 258.936Z" fill="#4E8A91"/>
<path d="M1340.08 223.24L1339.97 222.752L1339.64 222.826L1339.58 223.161L1340.08 223.24ZM1332.38 248.01L1331.93 247.773L1331.76 248.101L1332.02 248.364L1332.38 248.01ZM1354.34 221.369L1354.34 221.869L1354.34 221.869L1354.34 221.369ZM1368.37 223.24L1368.86 223.141L1368.79 222.826L1368.48 222.753L1368.37 223.24ZM1377.09 248.005L1377.42 248.376L1377.72 248.101L1377.51 247.75L1377.09 248.005ZM1363.86 265.389L1363.4 265.187L1363.4 265.187L1363.86 265.389ZM1358.65 286.048V286.548H1359.08L1359.14 286.125L1358.65 286.048ZM1357.72 286.048L1357.22 286.062L1357.24 286.548H1357.72V286.048ZM1356.95 258.486L1356.7 258.055L1356.45 258.205L1356.45 258.5L1356.95 258.486ZM1352.28 258.5L1352.78 258.486L1352.77 258.207L1352.53 258.067L1352.28 258.5ZM1353.05 286.048V286.548H1353.56L1353.55 286.034L1353.05 286.048ZM1351.63 286.048L1351.14 286.117L1351.2 286.548H1351.63V286.048ZM1346.03 265.866L1346.47 265.645L1346.47 265.645L1346.03 265.866ZM1353.29 258.936L1353.43 258.457L1352.77 258.261L1352.79 258.95L1353.29 258.936ZM1354.06 286.534L1353.56 286.548L1353.56 286.548L1354.06 286.534ZM1354.07 287.048V287.548H1354.59L1354.57 287.034L1354.07 287.048ZM1350.76 287.048L1350.26 287.115L1350.32 287.548H1350.76V287.048ZM1350.7 286.615L1351.2 286.548L1351.2 286.548L1350.7 286.615ZM1345.13 266.309L1344.68 266.531L1344.68 266.531L1345.13 266.309ZM1331.41 248.457L1331.76 248.101L1331.76 248.101L1331.41 248.457ZM1331.14 248.193L1330.7 247.956L1330.52 248.285L1330.79 248.549L1331.14 248.193ZM1331.32 247.864L1330.88 247.627L1330.88 247.627L1331.32 247.864ZM1339.14 222.748L1338.65 222.669L1338.65 222.669L1339.14 222.748ZM1339.2 222.413L1339.09 221.925L1338.76 222L1338.7 222.334L1339.2 222.413ZM1339.53 222.339L1339.42 221.851L1339.42 221.851L1339.53 222.339ZM1354.34 220.369L1354.34 219.869L1354.34 220.369ZM1368.91 222.34L1369.02 221.853L1369.02 221.853L1368.91 222.34ZM1369.22 222.413L1369.71 222.315L1369.65 222.001L1369.34 221.927L1369.22 222.413ZM1369.28 222.728L1369.77 222.63L1369.77 222.63L1369.28 222.728ZM1378.15 247.844L1378.58 247.587L1378.58 247.587L1378.15 247.844ZM1378.37 248.198L1378.7 248.57L1379.01 248.295L1378.79 247.941L1378.37 248.198ZM1378.06 248.474L1378.39 248.846L1378.39 248.846L1378.06 248.474ZM1364.78 265.794L1365.23 265.996L1365.23 265.996L1364.78 265.794ZM1359.57 286.624L1359.08 286.548L1359.08 286.548L1359.57 286.624ZM1359.5 287.048V287.548H1359.93L1360 287.124L1359.5 287.048ZM1356.75 287.048L1356.25 287.062L1356.26 287.548H1356.75V287.048ZM1356.74 286.562L1356.24 286.576L1356.24 286.576L1356.74 286.562ZM1355.97 258.922L1356.47 258.908L1356.45 258.251L1355.82 258.444L1355.97 258.922ZM1339.58 223.161C1337.53 235.917 1335.66 240.83 1331.93 247.773L1332.82 248.246C1336.6 241.189 1338.51 236.166 1340.57 223.32L1339.58 223.161ZM1354.34 220.869C1349.97 220.875 1345.56 221.509 1339.97 222.752L1340.19 223.728C1345.73 222.493 1350.07 221.875 1354.34 221.869L1354.34 220.869ZM1368.48 222.753C1363.05 221.485 1358.71 220.863 1354.34 220.869L1354.34 221.869C1358.61 221.863 1362.87 222.469 1368.25 223.727L1368.48 222.753ZM1377.51 247.75C1372.25 238.888 1370.97 233.646 1368.86 223.141L1367.88 223.338C1370 233.885 1371.31 239.256 1376.66 248.26L1377.51 247.75ZM1364.32 265.592C1366.94 259.668 1370.87 254.305 1377.42 248.376L1376.75 247.634C1370.12 253.638 1366.09 259.111 1363.4 265.187L1364.32 265.592ZM1359.14 286.125C1360.41 277.975 1361.71 271.504 1364.32 265.592L1363.4 265.187C1360.73 271.229 1359.42 277.813 1358.15 285.971L1359.14 286.125ZM1357.72 286.548H1358.65V285.548H1357.72V286.548ZM1356.45 258.5L1357.22 286.062L1358.22 286.034L1357.45 258.472L1356.45 258.5ZM1358.83 254.286C1358.83 255.902 1357.97 257.308 1356.7 258.055L1357.21 258.917C1358.78 257.994 1359.83 256.264 1359.83 254.286H1358.83ZM1354.6 249.946C1356.93 249.946 1358.83 251.878 1358.83 254.286H1359.83C1359.83 251.348 1357.5 248.946 1354.6 248.946V249.946ZM1350.38 254.286C1350.38 251.878 1352.28 249.946 1354.6 249.946V248.946C1351.71 248.946 1349.38 251.348 1349.38 254.286H1350.38ZM1352.53 258.067C1351.25 257.324 1350.38 255.911 1350.38 254.286H1349.38C1349.38 256.274 1350.44 258.013 1352.03 258.932L1352.53 258.067ZM1353.55 286.034L1352.78 258.486L1351.78 258.514L1352.55 286.062L1353.55 286.034ZM1351.63 286.548H1353.05V285.548H1351.63V286.548ZM1345.58 266.088C1348.47 271.929 1350.03 278.169 1351.14 286.117L1352.13 285.979C1351.02 277.974 1349.43 271.619 1346.47 265.645L1345.58 266.088ZM1332.02 248.364C1338.45 254.756 1342.68 260.221 1345.58 266.088L1346.47 265.645C1343.51 259.646 1339.2 254.093 1332.73 247.655L1332.02 248.364ZM1352.79 258.95L1353.56 286.548L1354.56 286.52L1353.79 258.922L1352.79 258.95ZM1353.56 286.548L1353.57 287.062L1354.57 287.034L1354.56 286.52L1353.56 286.548ZM1354.07 286.548H1353.56V287.548H1354.07V286.548ZM1353.56 286.548H1351.2V287.548H1353.56V286.548ZM1351.2 286.548H1350.76V287.548H1351.2V286.548ZM1351.25 286.981L1351.2 286.548L1350.2 286.682L1350.26 287.115L1351.25 286.981ZM1351.2 286.548C1350.09 278.393 1348.52 272.035 1345.58 266.088L1344.68 266.531C1347.55 272.343 1349.11 278.583 1350.2 286.682L1351.2 286.548ZM1345.58 266.088C1342.64 260.141 1338.33 254.607 1331.76 248.101L1331.05 248.812C1337.58 255.273 1341.81 260.718 1344.68 266.531L1345.58 266.088ZM1331.76 248.101L1331.49 247.838L1330.79 248.549L1331.05 248.812L1331.76 248.101ZM1331.58 248.431L1331.76 248.101L1330.88 247.627L1330.7 247.956L1331.58 248.431ZM1331.76 248.101C1335.63 240.921 1337.53 236.032 1339.64 222.826L1338.65 222.669C1336.56 235.781 1334.69 240.56 1330.88 247.627L1331.76 248.101ZM1339.64 222.826L1339.69 222.492L1338.7 222.334L1338.65 222.669L1339.64 222.826ZM1339.31 222.901L1339.64 222.826L1339.42 221.851L1339.09 221.925L1339.31 222.901ZM1339.64 222.826C1345.38 221.534 1349.88 220.875 1354.34 220.869L1354.34 219.869C1349.78 219.876 1345.2 220.55 1339.42 221.851L1339.64 222.826ZM1354.34 220.869C1358.8 220.863 1363.21 221.509 1368.79 222.826L1369.02 221.853C1363.4 220.525 1358.9 219.863 1354.34 219.869L1354.34 220.869ZM1368.79 222.826L1369.11 222.9L1369.34 221.927L1369.02 221.853L1368.79 222.826ZM1368.73 222.512L1368.79 222.826L1369.77 222.63L1369.71 222.315L1368.73 222.512ZM1368.79 222.826C1370.97 233.681 1372.23 238.936 1377.72 248.101L1378.58 247.587C1373.17 238.567 1371.94 233.443 1369.77 222.63L1368.79 222.826ZM1377.72 248.101L1377.94 248.455L1378.79 247.941L1378.58 247.587L1377.72 248.101ZM1378.03 247.826L1377.72 248.101L1378.39 248.846L1378.7 248.57L1378.03 247.826ZM1377.72 248.101C1371 254.14 1366.98 259.577 1364.32 265.592L1365.23 265.996C1367.82 260.137 1371.75 254.811 1378.39 248.846L1377.72 248.101ZM1364.32 265.592C1361.66 271.606 1360.36 278.198 1359.08 286.548L1360.06 286.7C1361.35 278.356 1362.63 271.879 1365.23 265.996L1364.32 265.592ZM1359.08 286.548L1359.01 286.972L1360 287.124L1360.06 286.7L1359.08 286.548ZM1359.5 286.548H1359.08V287.548H1359.5V286.548ZM1359.08 286.548H1357.24V287.548H1359.08V286.548ZM1357.24 286.548H1356.75V287.548H1357.24V286.548ZM1357.25 287.034L1357.24 286.548L1356.24 286.576L1356.25 287.062L1357.25 287.034ZM1357.24 286.548L1356.47 258.908L1355.47 258.936L1356.24 286.576L1357.24 286.548ZM1355.82 258.444C1355.43 258.562 1355.03 258.626 1354.6 258.626V259.626C1355.13 259.626 1355.63 259.547 1356.11 259.4L1355.82 258.444ZM1354.6 258.626C1354.2 258.626 1353.8 258.566 1353.43 258.457L1353.15 259.416C1353.61 259.552 1354.1 259.626 1354.6 259.626V258.626Z" fill="#4E8A91"/>
<path d="M347 12.314L296.163 1L246 12.314L296.163 24.2397L338.247 14.3675V59.7107C334.719 63.0931 334.9 64.6024 338.247 66.7438L335.89 75H343.633L340.603 66.7438C344.169 64.1978 344.362 62.6706 340.603 59.7107V13.8146L347 12.314Z" fill="#4E8A91"/>
<path d="M327.137 61.5455V22.0992L309.63 26.6859V50.5372C317.016 53.0226 320.794 55.6138 327.137 61.5455Z" fill="#4E8A91"/>
<path d="M266.537 22.0992L285.053 26.6859V50.5372C277.259 52.6367 273.256 55.2468 266.537 61.5455V22.0992Z" fill="#4E8A91"/>
<path d="M287.747 26.6859H306.263V49.7317C299.031 48.0776 294.979 47.9831 287.747 49.7317V26.6859Z" fill="#4E8A91"/>
<path d="M340.603 13.8146L347 12.314L296.163 1L246 12.314L296.163 24.2397L338.247 14.3675M340.603 13.8146V59.7107C344.362 62.6706 344.169 64.1978 340.603 66.7438L343.633 75H335.89L338.247 66.7438C334.9 64.6024 334.719 63.0931 338.247 59.7107V14.3675M340.603 13.8146L338.247 14.3675M327.137 22.0992V61.5455C320.794 55.6138 317.016 53.0226 309.63 50.5372V26.686L327.137 22.0992ZM285.053 26.686L266.537 22.0992V61.5455C273.256 55.2468 277.259 52.6367 285.053 50.5372V26.686ZM306.263 26.686H287.747V49.7317C294.979 47.9831 299.031 48.0776 306.263 49.7317V26.686Z" stroke="#4E8A91"/>
<path d="M454.996 257.711V186.587C454.996 178.857 448.729 172.589 440.998 172.589C433.267 172.589 427 178.857 427 186.587V284H506C531.957 284 553 262.957 553 237V193.302C553 163.864 529.136 140 499.698 140H487.738C480.628 140 474.864 145.764 474.864 152.875C474.864 159.985 480.628 165.749 487.738 165.749L506.062 165.749C516.568 165.749 525.085 174.266 525.085 184.773V232.711C525.085 246.518 513.893 257.711 500.085 257.711H454.996Z" fill="#4E8A91" stroke="#4E8A91"/>
<path d="M464 279C502.725 247.991 505.232 237.435 483.156 196.213C482.604 195.182 484.012 194.13 484.835 194.96C518.599 229.013 538.157 240.355 503.707 279H464Z" fill="#6D767A" stroke="#6D767A" stroke-width="11"/>
<ellipse cx="474.364" cy="181.313" rx="7.36425" ry="7.31347" fill="#FAC308"/>
<path d="M420 154.74L441.14 150L462 154.74L441.14 159.736L423.64 155.6V174.595C425.107 176.012 425.032 176.644 423.64 177.541L424.62 181H421.4L422.66 177.541C421.177 176.475 421.097 175.835 422.66 174.595V155.368L420 154.74Z" fill="#4E8A91"/>
<path d="M428.26 175.364V158.839L435.54 160.76V170.752C432.469 171.793 430.897 172.879 428.26 175.364Z" fill="#4E8A91"/>
<path d="M453.46 158.839L445.76 160.76V170.752C449.001 171.632 450.666 172.725 453.46 175.364V158.839Z" fill="#4E8A91"/>
<path d="M444.64 160.76H436.94V170.415C439.947 169.722 441.632 169.682 444.64 170.415V160.76Z" fill="#4E8A91"/>
<path d="M422.66 155.368L420 154.74L441.14 150L462 154.74L441.14 159.736L423.64 155.6M422.66 155.368V174.595C421.097 175.835 421.177 176.475 422.66 177.541L421.4 181H424.62L423.64 177.541C425.032 176.644 425.107 176.012 423.64 174.595V155.6M422.66 155.368L423.64 155.6M428.26 158.839V175.364C430.897 172.879 432.469 171.793 435.54 170.752V160.76L428.26 158.839ZM445.76 160.76L453.46 158.839V175.364C450.666 172.725 449.001 171.632 445.76 170.752V160.76ZM436.94 160.76H444.64V170.415C441.632 169.682 439.947 169.722 436.94 170.415V160.76Z" stroke="#4E8A91"/>
</svg>
