<svg width="11893" height="2302" viewBox="0 0 11893 2302" fill="none" xmlns="http://www.w3.org/2000/svg">
<path d="M11309.7 736.913L10784.3 1117.49L11102.9 1655.35H10846.4L10254.8 700.02L9735.57 1094.19L10072.7 1655.35H9764.53L9181.2 717.496L8666.13 1113.61L9001.24 1655.35H8322.75L7708.39 661.186H11276.6L10867.1 1H6535.53L7540.84 1635.93H6370.04L5805.33 692.253L5275.78 1088.36L5600.54 1635.93H4640.74L4022.24 630.118L3426.5 1080.6L3809.18 1606.8H2392.22L1500.68 2274.76H4262.19L4609.71 2008.74L4812.43 2274.76H6022.53L6370.04 2008.74L6572.76 2274.76H7985.58L8322.75 2008.74L8517.2 2274.76H9445.98L9816.25 2008.74L10000.3 2274.76H10494.7L10846.4 2008.74L11059.4 2300L11891 1674.77L11309.7 736.913Z" fill="black" stroke="black" stroke-width="2" stroke-linecap="round"/>
<path d="M1151.11 2286.26L3405.83 579.495H2257.79L925.642 1569.77V1222.2H1V2286.26H1151.11Z" fill="black" stroke="black" stroke-width="2" stroke-linecap="round"/>
<path d="M5256.9 484.569C5256.9 710.536 5061.74 893.772 4820.93 893.772C4580.13 893.772 4384.97 710.536 4384.97 484.569C4384.97 258.603 4580.13 75.3672 4820.93 75.3672C5061.74 75.3672 5256.9 258.603 5256.9 484.569Z" fill="#FDCF08" stroke="black"/>
</svg>
