<svg width="1576" height="396" viewBox="0 0 1576 396" fill="none" xmlns="http://www.w3.org/2000/svg">
<path d="M423.077 292.033C422.847 289.713 421.859 287.91 420.114 286.625C418.369 285.341 416.001 284.698 413.01 284.698C410.977 284.698 409.261 284.986 407.861 285.561C406.461 286.117 405.387 286.894 404.639 287.891C403.911 288.888 403.546 290.02 403.546 291.285C403.508 292.34 403.728 293.26 404.208 294.047C404.706 294.833 405.387 295.513 406.25 296.089C407.113 296.645 408.11 297.134 409.241 297.556C410.373 297.958 411.581 298.304 412.866 298.591L418.158 299.857C420.728 300.432 423.087 301.199 425.234 302.158C427.382 303.117 429.242 304.296 430.815 305.696C432.387 307.096 433.605 308.745 434.468 310.643C435.35 312.542 435.8 314.718 435.82 317.173C435.8 320.778 434.88 323.904 433.058 326.55C431.256 329.177 428.648 331.219 425.234 332.677C421.84 334.115 417.746 334.834 412.952 334.834C408.196 334.834 404.054 334.105 400.526 332.648C397.017 331.191 394.275 329.033 392.299 326.176C390.343 323.3 389.317 319.743 389.222 315.505H401.274C401.408 317.48 401.974 319.129 402.971 320.452C403.987 321.756 405.339 322.744 407.027 323.415C408.733 324.067 410.661 324.393 412.808 324.393C414.918 324.393 416.749 324.086 418.302 323.472C419.875 322.859 421.092 322.005 421.955 320.912C422.818 319.819 423.25 318.563 423.25 317.144C423.25 315.821 422.857 314.709 422.07 313.808C421.303 312.906 420.172 312.139 418.676 311.506C417.2 310.874 415.387 310.298 413.24 309.781L406.825 308.17C401.859 306.962 397.937 305.073 395.061 302.503C392.184 299.934 390.756 296.472 390.775 292.119C390.756 288.553 391.705 285.436 393.623 282.771C395.559 280.105 398.215 278.025 401.59 276.529C404.965 275.033 408.8 274.286 413.096 274.286C417.468 274.286 421.284 275.033 424.544 276.529C427.823 278.025 430.374 280.105 432.195 282.771C434.017 285.436 434.957 288.524 435.014 292.033H423.077ZM463.929 334.863C459.404 334.863 455.511 333.904 452.251 331.987C449.01 330.05 446.517 327.365 444.772 323.933C443.047 320.5 442.184 316.55 442.184 312.082C442.184 307.556 443.056 303.587 444.801 300.173C446.565 296.741 449.068 294.066 452.309 292.148C455.549 290.211 459.404 289.243 463.872 289.243C467.726 289.243 471.101 289.943 473.997 291.343C476.892 292.743 479.184 294.708 480.872 297.239C482.559 299.771 483.489 302.743 483.662 306.156H472.098C471.772 303.951 470.91 302.177 469.51 300.835C468.129 299.473 466.317 298.793 464.073 298.793C462.175 298.793 460.516 299.31 459.097 300.346C457.697 301.362 456.604 302.848 455.818 304.804C455.032 306.76 454.639 309.129 454.639 311.909C454.639 314.728 455.022 317.125 455.789 319.1C456.575 321.075 457.678 322.581 459.097 323.616C460.516 324.652 462.175 325.169 464.073 325.169C465.473 325.169 466.729 324.882 467.841 324.306C468.973 323.731 469.903 322.897 470.631 321.804C471.379 320.692 471.868 319.359 472.098 317.806H483.662C483.47 321.181 482.549 324.153 480.9 326.723C479.27 329.273 477.017 331.267 474.141 332.706C471.264 334.144 467.861 334.863 463.929 334.863ZM503.761 308.457V334H491.507V275.091H503.415V297.613H503.933C504.93 295.005 506.541 292.963 508.766 291.487C510.99 289.991 513.78 289.243 517.136 289.243C520.204 289.243 522.879 289.914 525.161 291.256C527.462 292.58 529.246 294.488 530.511 296.98C531.796 299.454 532.429 302.417 532.41 305.869V334H520.156V308.055C520.175 305.332 519.485 303.213 518.085 301.698C516.705 300.183 514.768 299.425 512.275 299.425C510.607 299.425 509.13 299.78 507.845 300.49C506.58 301.199 505.582 302.235 504.854 303.596C504.144 304.939 503.78 306.559 503.761 308.457ZM562.015 334.863C557.547 334.863 553.683 333.914 550.423 332.015C547.183 330.098 544.68 327.432 542.916 324.019C541.152 320.586 540.27 316.607 540.27 312.082C540.27 307.518 541.152 303.529 542.916 300.116C544.68 296.683 547.183 294.018 550.423 292.119C553.683 290.202 557.547 289.243 562.015 289.243C566.483 289.243 570.338 290.202 573.579 292.119C576.839 294.018 579.351 296.683 581.115 300.116C582.879 303.529 583.761 307.518 583.761 312.082C583.761 316.607 582.879 320.586 581.115 324.019C579.351 327.432 576.839 330.098 573.579 332.015C570.338 333.914 566.483 334.863 562.015 334.863ZM562.073 325.371C564.106 325.371 565.803 324.795 567.164 323.645C568.526 322.475 569.552 320.884 570.242 318.87C570.951 316.857 571.306 314.565 571.306 311.995C571.306 309.426 570.951 307.134 570.242 305.121C569.552 303.107 568.526 301.516 567.164 300.346C565.803 299.176 564.106 298.591 562.073 298.591C560.021 298.591 558.295 299.176 556.895 300.346C555.515 301.516 554.47 303.107 553.76 305.121C553.07 307.134 552.725 309.426 552.725 311.995C552.725 314.565 553.07 316.857 553.76 318.87C554.47 320.884 555.515 322.475 556.895 323.645C558.295 324.795 560.021 325.371 562.073 325.371ZM611.691 334.863C607.223 334.863 603.359 333.914 600.099 332.015C596.858 330.098 594.356 327.432 592.592 324.019C590.828 320.586 589.945 316.607 589.945 312.082C589.945 307.518 590.828 303.529 592.592 300.116C594.356 296.683 596.858 294.018 600.099 292.119C603.359 290.202 607.223 289.243 611.691 289.243C616.159 289.243 620.014 290.202 623.254 292.119C626.514 294.018 629.026 296.683 630.791 300.116C632.555 303.529 633.437 307.518 633.437 312.082C633.437 316.607 632.555 320.586 630.791 324.019C629.026 327.432 626.514 330.098 623.254 332.015C620.014 333.914 616.159 334.863 611.691 334.863ZM611.749 325.371C613.781 325.371 615.478 324.795 616.84 323.645C618.201 322.475 619.227 320.884 619.918 318.87C620.627 316.857 620.982 314.565 620.982 311.995C620.982 309.426 620.627 307.134 619.918 305.121C619.227 303.107 618.201 301.516 616.84 300.346C615.478 299.176 613.781 298.591 611.749 298.591C609.697 298.591 607.971 299.176 606.571 300.346C605.19 301.516 604.145 303.107 603.436 305.121C602.745 307.134 602.4 309.426 602.4 311.995C602.4 314.565 602.745 316.857 603.436 318.87C604.145 320.884 605.19 322.475 606.571 323.645C607.971 324.795 609.697 325.371 611.749 325.371ZM653.658 275.091V334H641.405V275.091H653.658ZM682.451 334V275.091H722.146V285.36H694.906V299.397H720.103V309.665H694.906V323.731H722.261V334H682.451ZM748.098 334.719C744.742 334.719 741.703 333.856 738.98 332.13C736.276 330.385 734.128 327.825 732.537 324.45C730.964 321.056 730.178 316.895 730.178 311.967C730.178 306.904 730.993 302.695 732.623 299.339C734.253 295.964 736.42 293.442 739.124 291.774C741.847 290.087 744.829 289.243 748.069 289.243C750.543 289.243 752.605 289.665 754.254 290.509C755.922 291.333 757.264 292.369 758.281 293.615C759.316 294.842 760.102 296.05 760.639 297.239H761.013V275.091H773.238V334H761.157V326.924H760.639C760.064 328.151 759.249 329.369 758.194 330.577C757.159 331.766 755.807 332.754 754.139 333.54C752.49 334.326 750.476 334.719 748.098 334.719ZM751.981 324.968C753.956 324.968 755.625 324.431 756.986 323.357C758.367 322.264 759.422 320.74 760.15 318.784C760.898 316.828 761.272 314.536 761.272 311.909C761.272 309.282 760.908 307 760.179 305.063C759.45 303.126 758.396 301.631 757.015 300.576C755.634 299.521 753.956 298.994 751.981 298.994C749.968 298.994 748.271 299.54 746.89 300.634C745.509 301.727 744.464 303.241 743.755 305.178C743.045 307.115 742.691 309.359 742.691 311.909C742.691 314.479 743.045 316.751 743.755 318.726C744.483 320.682 745.529 322.216 746.89 323.328C748.271 324.422 749.968 324.968 751.981 324.968ZM811.646 315.188V289.818H823.899V334H812.134V325.975H811.674C810.677 328.564 809.018 330.644 806.698 332.217C804.397 333.789 801.588 334.575 798.27 334.575C795.317 334.575 792.719 333.904 790.475 332.562C788.231 331.219 786.477 329.311 785.211 326.838C783.965 324.364 783.332 321.401 783.313 317.95V289.818H795.566V315.763C795.585 318.371 796.285 320.433 797.666 321.948C799.047 323.463 800.897 324.22 803.218 324.22C804.694 324.22 806.075 323.885 807.36 323.213C808.644 322.523 809.68 321.507 810.466 320.164C811.272 318.822 811.665 317.163 811.646 315.188ZM853.663 334.863C849.137 334.863 845.244 333.904 841.985 331.987C838.744 330.05 836.251 327.365 834.506 323.933C832.78 320.5 831.917 316.55 831.917 312.082C831.917 307.556 832.79 303.587 834.535 300.173C836.299 296.741 838.801 294.066 842.042 292.148C845.283 290.211 849.137 289.243 853.605 289.243C857.46 289.243 860.835 289.943 863.73 291.343C866.626 292.743 868.917 294.708 870.605 297.239C872.292 299.771 873.222 302.743 873.395 306.156H861.832C861.506 303.951 860.643 302.177 859.243 300.835C857.862 299.473 856.05 298.793 853.807 298.793C851.908 298.793 850.249 299.31 848.83 300.346C847.431 301.362 846.338 302.848 845.551 304.804C844.765 306.76 844.372 309.129 844.372 311.909C844.372 314.728 844.756 317.125 845.523 319.1C846.309 321.075 847.411 322.581 848.83 323.616C850.249 324.652 851.908 325.169 853.807 325.169C855.206 325.169 856.463 324.882 857.575 324.306C858.706 323.731 859.636 322.897 860.365 321.804C861.113 320.692 861.602 319.359 861.832 317.806H873.395C873.203 321.181 872.283 324.153 870.634 326.723C869.004 329.273 866.751 331.267 863.874 332.706C860.998 334.144 857.594 334.863 853.663 334.863ZM893.839 334.834C891.02 334.834 888.508 334.345 886.303 333.367C884.098 332.37 882.353 330.903 881.068 328.966C879.802 327.01 879.169 324.575 879.169 321.66C879.169 319.206 879.62 317.144 880.521 315.476C881.423 313.808 882.65 312.465 884.203 311.449C885.756 310.433 887.521 309.665 889.496 309.148C891.49 308.63 893.58 308.266 895.766 308.055C898.336 307.786 900.407 307.537 901.979 307.307C903.552 307.058 904.693 306.693 905.402 306.214C906.112 305.734 906.467 305.025 906.467 304.085V303.913C906.467 302.091 905.891 300.681 904.741 299.684C903.609 298.687 901.999 298.189 899.908 298.189C897.703 298.189 895.949 298.678 894.645 299.656C893.341 300.614 892.478 301.822 892.056 303.28L880.723 302.359C881.298 299.675 882.429 297.354 884.117 295.398C885.804 293.423 887.981 291.908 890.646 290.854C893.331 289.78 896.438 289.243 899.966 289.243C902.421 289.243 904.77 289.531 907.013 290.106C909.276 290.681 911.28 291.573 913.025 292.781C914.789 293.989 916.179 295.542 917.196 297.441C918.212 299.32 918.72 301.573 918.72 304.2V334H907.1V327.873H906.754C906.045 329.254 905.096 330.472 903.907 331.526C902.718 332.562 901.289 333.377 899.621 333.971C897.953 334.547 896.025 334.834 893.839 334.834ZM897.348 326.377C899.151 326.377 900.743 326.023 902.123 325.313C903.504 324.585 904.587 323.607 905.374 322.379C906.16 321.152 906.553 319.762 906.553 318.208V313.52C906.169 313.769 905.642 313.999 904.971 314.21C904.319 314.402 903.581 314.584 902.756 314.757C901.932 314.91 901.107 315.054 900.282 315.188C899.458 315.303 898.71 315.409 898.039 315.505C896.601 315.716 895.345 316.051 894.271 316.511C893.197 316.972 892.363 317.595 891.768 318.381C891.174 319.148 890.877 320.107 890.877 321.257C890.877 322.926 891.481 324.201 892.689 325.083C893.916 325.946 895.469 326.377 897.348 326.377ZM951.727 289.818V299.023H925.12V289.818H951.727ZM931.161 279.233H943.414V320.423C943.414 321.555 943.587 322.437 943.932 323.07C944.277 323.683 944.757 324.115 945.37 324.364C946.003 324.613 946.732 324.738 947.556 324.738C948.132 324.738 948.707 324.69 949.282 324.594C949.858 324.479 950.299 324.393 950.605 324.335L952.533 333.453C951.919 333.645 951.056 333.866 949.944 334.115C948.832 334.384 947.48 334.547 945.888 334.604C942.935 334.719 940.346 334.326 938.122 333.425C935.916 332.523 934.2 331.124 932.973 329.225C931.746 327.327 931.142 324.93 931.161 322.034V279.233ZM959.709 334V289.818H971.963V334H959.709ZM965.865 284.123C964.043 284.123 962.48 283.519 961.176 282.311C959.891 281.083 959.249 279.616 959.249 277.91C959.249 276.222 959.891 274.775 961.176 273.566C962.48 272.339 964.043 271.725 965.865 271.725C967.687 271.725 969.24 272.339 970.525 273.566C971.829 274.775 972.481 276.222 972.481 277.91C972.481 279.616 971.829 281.083 970.525 282.311C969.24 283.519 967.687 284.123 965.865 284.123ZM1001.74 334.863C997.273 334.863 993.409 333.914 990.149 332.015C986.908 330.098 984.406 327.432 982.642 324.019C980.877 320.586 979.995 316.607 979.995 312.082C979.995 307.518 980.877 303.529 982.642 300.116C984.406 296.683 986.908 294.018 990.149 292.119C993.409 290.202 997.273 289.243 1001.74 289.243C1006.21 289.243 1010.06 290.202 1013.3 292.119C1016.56 294.018 1019.08 296.683 1020.84 300.116C1022.6 303.529 1023.49 307.518 1023.49 312.082C1023.49 316.607 1022.6 320.586 1020.84 324.019C1019.08 327.432 1016.56 330.098 1013.3 332.015C1010.06 333.914 1006.21 334.863 1001.74 334.863ZM1001.8 325.371C1003.83 325.371 1005.53 324.795 1006.89 323.645C1008.25 322.475 1009.28 320.884 1009.97 318.87C1010.68 316.857 1011.03 314.565 1011.03 311.995C1011.03 309.426 1010.68 307.134 1009.97 305.121C1009.28 303.107 1008.25 301.516 1006.89 300.346C1005.53 299.176 1003.83 298.591 1001.8 298.591C999.747 298.591 998.021 299.176 996.621 300.346C995.24 301.516 994.195 303.107 993.486 305.121C992.795 307.134 992.45 309.426 992.45 311.995C992.45 314.565 992.795 316.857 993.486 318.87C994.195 320.884 995.24 322.475 996.621 323.645C998.021 324.795 999.747 325.371 1001.8 325.371ZM1043.71 308.457V334H1031.45V289.818H1043.13V297.613H1043.65C1044.63 295.044 1046.27 293.011 1048.57 291.515C1050.87 290 1053.66 289.243 1056.94 289.243C1060.01 289.243 1062.68 289.914 1064.96 291.256C1067.25 292.599 1069.02 294.516 1070.29 297.009C1071.55 299.483 1072.18 302.436 1072.18 305.869V334H1059.93V308.055C1059.95 305.351 1059.26 303.241 1057.86 301.727C1056.46 300.192 1054.53 299.425 1052.08 299.425C1050.43 299.425 1048.97 299.78 1047.71 300.49C1046.46 301.199 1045.48 302.235 1044.77 303.596C1044.08 304.939 1043.73 306.559 1043.71 308.457ZM1121.7 334H1100.82V275.091H1121.87C1127.8 275.091 1132.9 276.27 1137.18 278.629C1141.45 280.968 1144.74 284.334 1147.04 288.725C1149.36 293.116 1150.52 298.371 1150.52 304.488C1150.52 310.624 1149.36 315.898 1147.04 320.308C1144.74 324.719 1141.43 328.103 1137.12 330.462C1132.82 332.821 1127.69 334 1121.7 334ZM1113.27 323.328H1121.18C1124.87 323.328 1127.96 322.676 1130.48 321.373C1133.01 320.049 1134.9 318.007 1136.17 315.246C1137.46 312.465 1138.1 308.879 1138.1 304.488C1138.1 300.135 1137.46 296.578 1136.17 293.816C1134.9 291.055 1133.02 289.022 1130.5 287.718C1127.99 286.414 1124.89 285.762 1121.21 285.762H1113.27V323.328ZM1179.65 334.863C1175.11 334.863 1171.2 333.942 1167.92 332.102C1164.66 330.241 1162.15 327.614 1160.38 324.22C1158.62 320.807 1157.74 316.77 1157.74 312.11C1157.74 307.566 1158.62 303.577 1160.38 300.145C1162.15 296.712 1164.63 294.037 1167.83 292.119C1171.05 290.202 1174.83 289.243 1179.17 289.243C1182.08 289.243 1184.79 289.713 1187.31 290.652C1189.84 291.573 1192.04 292.963 1193.92 294.823C1195.82 296.683 1197.3 299.023 1198.35 301.842C1199.41 304.641 1199.93 307.92 1199.93 311.679V315.044H1162.63V307.451H1188.4C1188.4 305.686 1188.02 304.124 1187.25 302.762C1186.48 301.401 1185.42 300.336 1184.06 299.569C1182.71 298.783 1181.15 298.39 1179.37 298.39C1177.51 298.39 1175.86 298.821 1174.42 299.684C1173 300.528 1171.89 301.669 1171.08 303.107C1170.28 304.526 1169.87 306.108 1169.85 307.853V315.073C1169.85 317.259 1170.25 319.148 1171.05 320.74C1171.88 322.331 1173.04 323.559 1174.53 324.422C1176.03 325.284 1177.8 325.716 1179.86 325.716C1181.22 325.716 1182.46 325.524 1183.6 325.141C1184.73 324.757 1185.7 324.182 1186.5 323.415C1187.31 322.648 1187.92 321.708 1188.34 320.596L1199.67 321.344C1199.1 324.067 1197.92 326.445 1196.14 328.477C1194.37 330.491 1192.09 332.063 1189.29 333.195C1186.51 334.307 1183.3 334.863 1179.65 334.863ZM1207.93 350.568V289.818H1220.01V297.239H1220.56C1221.09 296.05 1221.87 294.842 1222.89 293.615C1223.92 292.369 1225.27 291.333 1226.91 290.509C1228.58 289.665 1230.65 289.243 1233.13 289.243C1236.35 289.243 1239.32 290.087 1242.04 291.774C1244.77 293.442 1246.94 295.964 1248.57 299.339C1250.2 302.695 1251.02 306.904 1251.02 311.967C1251.02 316.895 1250.22 321.056 1248.63 324.45C1247.06 327.825 1244.91 330.385 1242.19 332.13C1239.48 333.856 1236.45 334.719 1233.1 334.719C1230.72 334.719 1228.7 334.326 1227.03 333.54C1225.38 332.754 1224.03 331.766 1222.97 330.577C1221.92 329.369 1221.11 328.151 1220.56 326.924H1220.18V350.568H1207.93ZM1219.92 311.909C1219.92 314.536 1220.29 316.828 1221.02 318.784C1221.75 320.74 1222.8 322.264 1224.18 323.357C1225.56 324.431 1227.24 324.968 1229.22 324.968C1231.21 324.968 1232.9 324.422 1234.28 323.328C1235.66 322.216 1236.7 320.682 1237.41 318.726C1238.14 316.751 1238.51 314.479 1238.51 311.909C1238.51 309.359 1238.15 307.115 1237.44 305.178C1236.73 303.241 1235.69 301.727 1234.31 300.634C1232.93 299.54 1231.23 298.994 1229.22 298.994C1227.22 298.994 1225.53 299.521 1224.15 300.576C1222.79 301.631 1221.75 303.126 1221.02 305.063C1220.29 307 1219.92 309.282 1219.92 311.909ZM1271.79 334.834C1268.97 334.834 1266.46 334.345 1264.25 333.367C1262.05 332.37 1260.3 330.903 1259.02 328.966C1257.75 327.01 1257.12 324.575 1257.12 321.66C1257.12 319.206 1257.57 317.144 1258.47 315.476C1259.37 313.808 1260.6 312.465 1262.15 311.449C1263.7 310.433 1265.47 309.665 1267.44 309.148C1269.44 308.63 1271.53 308.266 1273.71 308.055C1276.28 307.786 1278.35 307.537 1279.93 307.307C1281.5 307.058 1282.64 306.693 1283.35 306.214C1284.06 305.734 1284.41 305.025 1284.41 304.085V303.913C1284.41 302.091 1283.84 300.681 1282.69 299.684C1281.56 298.687 1279.95 298.189 1277.86 298.189C1275.65 298.189 1273.9 298.678 1272.59 299.656C1271.29 300.614 1270.42 301.822 1270 303.28L1258.67 302.359C1259.25 299.675 1260.38 297.354 1262.06 295.398C1263.75 293.423 1265.93 291.908 1268.59 290.854C1271.28 289.78 1274.38 289.243 1277.91 289.243C1280.37 289.243 1282.72 289.531 1284.96 290.106C1287.22 290.681 1289.23 291.573 1290.97 292.781C1292.74 293.989 1294.13 295.542 1295.14 297.441C1296.16 299.32 1296.67 301.573 1296.67 304.2V334H1285.05V327.873H1284.7C1283.99 329.254 1283.04 330.472 1281.85 331.526C1280.67 332.562 1279.24 333.377 1277.57 333.971C1275.9 334.547 1273.97 334.834 1271.79 334.834ZM1275.3 326.377C1277.1 326.377 1278.69 326.023 1280.07 325.313C1281.45 324.585 1282.53 323.607 1283.32 322.379C1284.11 321.152 1284.5 319.762 1284.5 318.208V313.52C1284.12 313.769 1283.59 313.999 1282.92 314.21C1282.27 314.402 1281.53 314.584 1280.7 314.757C1279.88 314.91 1279.05 315.054 1278.23 315.188C1277.41 315.303 1276.66 315.409 1275.99 315.505C1274.55 315.716 1273.29 316.051 1272.22 316.511C1271.14 316.972 1270.31 317.595 1269.72 318.381C1269.12 319.148 1268.82 320.107 1268.82 321.257C1268.82 322.926 1269.43 324.201 1270.64 325.083C1271.86 325.946 1273.42 326.377 1275.3 326.377ZM1306.17 334V289.818H1318.05V297.527H1318.51C1319.32 294.785 1320.67 292.714 1322.57 291.314C1324.47 289.895 1326.65 289.185 1329.13 289.185C1329.74 289.185 1330.4 289.224 1331.11 289.3C1331.82 289.377 1332.45 289.483 1332.98 289.617V300.49C1332.41 300.317 1331.61 300.164 1330.59 300.029C1329.58 299.895 1328.65 299.828 1327.8 299.828C1326 299.828 1324.39 300.221 1322.97 301.007C1321.57 301.775 1320.46 302.848 1319.64 304.229C1318.83 305.61 1318.43 307.201 1318.43 309.004V334H1306.17ZM1365.03 289.818V299.023H1338.43V289.818H1365.03ZM1344.47 279.233H1356.72V320.423C1356.72 321.555 1356.89 322.437 1357.24 323.07C1357.58 323.683 1358.06 324.115 1358.68 324.364C1359.31 324.613 1360.04 324.738 1360.86 324.738C1361.44 324.738 1362.01 324.69 1362.59 324.594C1363.16 324.479 1363.6 324.393 1363.91 324.335L1365.84 333.453C1365.22 333.645 1364.36 333.866 1363.25 334.115C1362.14 334.384 1360.79 334.547 1359.19 334.604C1356.24 334.719 1353.65 334.326 1351.43 333.425C1349.22 332.523 1347.51 331.124 1346.28 329.225C1345.05 327.327 1344.45 324.93 1344.47 322.034V279.233ZM1373.01 334V289.818H1384.69V297.613H1385.21C1386.13 295.025 1387.67 292.982 1389.81 291.487C1391.96 289.991 1394.53 289.243 1397.52 289.243C1400.55 289.243 1403.13 290 1405.26 291.515C1407.39 293.011 1408.81 295.044 1409.52 297.613H1409.98C1410.88 295.082 1412.51 293.059 1414.87 291.544C1417.24 290.01 1420.05 289.243 1423.29 289.243C1427.42 289.243 1430.76 290.556 1433.33 293.184C1435.92 295.792 1437.22 299.493 1437.22 304.287V334H1424.99V306.703C1424.99 304.248 1424.34 302.407 1423.04 301.18C1421.73 299.953 1420.1 299.339 1418.15 299.339C1415.92 299.339 1414.19 300.049 1412.94 301.468C1411.69 302.868 1411.07 304.718 1411.07 307.019V334H1399.19V306.444C1399.19 304.277 1398.57 302.551 1397.32 301.266C1396.09 299.982 1394.47 299.339 1392.46 299.339C1391.1 299.339 1389.87 299.684 1388.78 300.375C1387.7 301.046 1386.85 301.995 1386.22 303.222C1385.58 304.43 1385.27 305.849 1385.27 307.479V334H1373.01ZM1467.03 334.863C1462.49 334.863 1458.57 333.942 1455.29 332.102C1452.03 330.241 1449.52 327.614 1447.76 324.22C1445.99 320.807 1445.11 316.77 1445.11 312.11C1445.11 307.566 1445.99 303.577 1447.76 300.145C1449.52 296.712 1452.01 294.037 1455.21 292.119C1458.43 290.202 1462.21 289.243 1466.54 289.243C1469.46 289.243 1472.17 289.713 1474.68 290.652C1477.21 291.573 1479.42 292.963 1481.3 294.823C1483.2 296.683 1484.67 299.023 1485.73 301.842C1486.78 304.641 1487.31 307.92 1487.31 311.679V315.044H1450V307.451H1475.78C1475.78 305.686 1475.39 304.124 1474.62 302.762C1473.86 301.401 1472.79 300.336 1471.43 299.569C1470.09 298.783 1468.53 298.39 1466.74 298.39C1464.88 298.39 1463.23 298.821 1461.8 299.684C1460.38 300.528 1459.26 301.669 1458.46 303.107C1457.65 304.526 1457.24 306.108 1457.22 307.853V315.073C1457.22 317.259 1457.62 319.148 1458.43 320.74C1459.25 322.331 1460.41 323.559 1461.91 324.422C1463.41 325.284 1465.18 325.716 1467.23 325.716C1468.59 325.716 1469.84 325.524 1470.97 325.141C1472.1 324.757 1473.07 324.182 1473.88 323.415C1474.68 322.648 1475.3 321.708 1475.72 320.596L1487.05 321.344C1486.48 324.067 1485.3 326.445 1483.51 328.477C1481.75 330.491 1479.47 332.063 1476.67 333.195C1473.89 334.307 1470.67 334.863 1467.03 334.863ZM1507.56 308.457V334H1495.31V289.818H1506.98V297.613H1507.5C1508.48 295.044 1510.12 293.011 1512.42 291.515C1514.72 290 1517.51 289.243 1520.79 289.243C1523.86 289.243 1526.53 289.914 1528.82 291.256C1531.1 292.599 1532.87 294.516 1534.14 297.009C1535.4 299.483 1536.04 302.436 1536.04 305.869V334H1523.78V308.055C1523.8 305.351 1523.11 303.241 1521.71 301.727C1520.31 300.192 1518.38 299.425 1515.93 299.425C1514.28 299.425 1512.82 299.78 1511.56 300.49C1510.31 301.199 1509.33 302.235 1508.62 303.596C1507.93 304.939 1507.58 306.559 1507.56 308.457ZM1569.19 289.818V299.023H1542.59V289.818H1569.19ZM1548.63 279.233H1560.88V320.423C1560.88 321.555 1561.05 322.437 1561.4 323.07C1561.74 323.683 1562.22 324.115 1562.84 324.364C1563.47 324.613 1564.2 324.738 1565.02 324.738C1565.6 324.738 1566.17 324.69 1566.75 324.594C1567.32 324.479 1567.77 324.393 1568.07 324.335L1570 333.453C1569.39 333.645 1568.52 333.866 1567.41 334.115C1566.3 334.384 1564.95 334.547 1563.35 334.604C1560.4 334.719 1557.81 334.326 1555.59 333.425C1553.38 332.523 1551.67 331.124 1550.44 329.225C1549.21 327.327 1548.61 324.93 1548.63 322.034V279.233Z" fill="#AD8E37"/>
<path d="M394.425 230V85.6797H445.175C463.678 85.6797 477.984 91.66 488.095 103.621C498.271 115.515 503.359 132.201 503.359 153.677V161.408C503.359 182.818 498.304 199.603 488.194 211.762C478.083 223.921 463.744 230 445.175 230H394.425ZM428.622 205.616H441.508C450.032 205.616 456.541 202.378 461.035 195.902C465.594 189.36 467.874 179.58 467.874 166.562V149.315C467.874 136.099 465.528 126.418 460.836 120.273C456.211 114.127 449.768 111.022 441.508 110.956H428.622V205.616ZM502.269 230L547.27 85.6797H586.72L630.631 230H596.236L568.978 132.564C568.185 129.855 567.524 127.509 566.995 125.526C566.533 123.478 566.103 121.76 565.707 120.372H565.508C565.112 121.76 564.649 123.478 564.121 125.526C563.592 127.509 562.964 129.855 562.237 132.564L536.268 230H502.269ZM528.041 201.453L532.699 178.457H599.209L604.265 201.453H528.041ZM619.728 113.632V85.6797H730.743V113.632H693.176V230H657.493V113.632H619.728ZM719.741 230L764.742 85.6797H804.192L848.103 230H813.708L786.449 132.564C785.656 129.855 784.995 127.509 784.467 125.526C784.004 123.478 783.575 121.76 783.178 120.372H782.98C782.583 121.76 782.121 123.478 781.592 125.526C781.064 127.509 780.436 129.855 779.709 132.564L753.739 230H719.741ZM745.512 201.453L750.171 178.457H816.681L821.736 201.453H745.512ZM899.745 161.706V153.974C899.745 128.93 905.196 110.956 916.1 100.052C927.003 89.1489 941.21 83.6973 958.722 83.6973C975.506 83.6973 988.557 87.6951 997.875 95.6909C1007.19 103.687 1011.85 115.879 1011.85 132.267V141.386H978.645V128.996C978.645 122.189 977.026 117.002 973.788 113.434C970.55 109.799 965.759 107.982 959.416 107.982C952.345 107.982 946.86 110.856 942.961 116.605C939.129 122.288 937.212 131.308 937.212 143.666V172.014C937.212 184.503 939.195 193.656 943.16 199.471C947.191 205.22 952.708 208.094 959.713 208.094C965.991 208.094 970.715 206.211 973.887 202.444C977.059 198.678 978.645 192.631 978.645 184.305V174.79H1011.85V185.792C1011.92 200.33 1007.29 211.663 997.974 219.791C988.722 227.852 975.605 231.883 958.623 231.883C940.318 231.883 925.913 226.333 915.406 215.231C904.965 204.129 899.745 186.288 899.745 161.706ZM1024.44 230V85.6797H1117.22V113.632H1058.14V144.558H1108.49V169.14H1058.14V202.94H1118.7V230H1024.44ZM1127.92 230V85.6797H1163.21L1199.19 164.184C1200.05 166.298 1200.87 168.611 1201.67 171.122C1202.53 173.633 1203.22 175.946 1203.75 178.061H1204.24C1204.11 175.814 1204.05 173.468 1204.05 171.023C1204.11 168.578 1204.15 166.232 1204.15 163.985V85.6797H1233.98V230H1199.78L1162.51 150.505C1161.66 148.522 1160.83 146.375 1160.04 144.062C1159.24 141.749 1158.58 139.535 1158.05 137.421H1157.46C1157.66 139.668 1157.76 141.848 1157.76 143.963C1157.76 146.011 1157.76 148.192 1157.76 150.505V230H1127.92Z" fill="#001F5F"/>
<path d="M1362.43 230V85.6797H1455.2V113.632H1396.13V144.558H1446.48V169.14H1396.13V202.94H1456.69V230H1362.43ZM1465.91 230V85.6797H1524.69C1538.5 85.6797 1549.4 89.8758 1557.4 98.2681C1565.46 106.594 1569.49 117.531 1569.49 131.077C1569.49 144.954 1565.23 156.32 1556.7 165.175C1548.18 174.03 1537.37 178.457 1524.29 178.457H1501.1V230H1465.91ZM1501.1 155.659H1516.26C1522.8 155.659 1527.36 153.578 1529.94 149.415C1532.58 145.185 1533.9 139.767 1533.9 133.159C1533.9 126.551 1532.58 121.165 1529.94 117.002C1527.36 112.773 1522.8 110.625 1516.26 110.559H1501.1V155.659ZM1537.08 230L1511.01 167.355L1541.83 158.137L1575.34 230H1537.08Z" fill="#001F5F"/>
<mask id="path-4-inside-1_546_535" fill="white">
<path fill-rule="evenodd" clip-rule="evenodd" d="M51 73.5H64H206H219V86.5V204.65C228.771 209.125 235.534 218.794 235.534 230C235.534 245.464 222.655 258 206.767 258C190.879 258 178 245.464 178 230C178 219.39 184.063 210.159 193 205.409V99.5H77V217.65C86.7706 222.125 93.5342 231.794 93.5342 243C93.5342 258.464 80.6548 271 64.7671 271C48.8795 271 36 258.464 36 243C36 232.39 42.0627 223.159 51 218.409V86.5V73.5Z"/>
</mask>
<path d="M51 73.5V60.5H38V73.5H51ZM219 73.5H232V60.5H219V73.5ZM219 204.65H206V212.995L213.587 216.47L219 204.65ZM193 205.409L199.101 216.888L206 213.221V205.409H193ZM193 99.5H206V86.5H193V99.5ZM77 99.5V86.5H64V99.5H77ZM77 217.65H64V225.995L71.5871 229.47L77 217.65ZM51 218.409L57.1013 229.888L64 226.221V218.409H51ZM64 60.5H51V86.5H64V60.5ZM206 60.5H64V86.5H206V60.5ZM219 60.5H206V86.5H219V60.5ZM232 86.5V73.5H206V86.5H232ZM232 204.65V86.5H206V204.65H232ZM248.534 230C248.534 213.376 238.496 199.28 224.413 192.831L213.587 216.47C219.046 218.97 222.534 224.212 222.534 230H248.534ZM206.767 271C229.501 271 248.534 252.973 248.534 230H222.534C222.534 237.955 215.809 245 206.767 245V271ZM165 230C165 252.973 184.033 271 206.767 271V245C197.726 245 191 237.955 191 230H165ZM186.899 193.929C174.003 200.784 165 214.267 165 230H191C191 224.514 194.123 219.534 199.101 216.888L186.899 193.929ZM180 99.5V205.409H206V99.5H180ZM77 112.5H193V86.5H77V112.5ZM90 217.65V99.5H64V217.65H90ZM71.5871 229.47C77.0457 231.97 80.5342 237.212 80.5342 243H106.534C106.534 226.376 96.4955 212.28 82.4129 205.831L71.5871 229.47ZM80.5342 243C80.5342 250.955 73.8085 258 64.7671 258V284C87.501 284 106.534 265.973 106.534 243H80.5342ZM64.7671 258C55.7257 258 49 250.955 49 243H23C23 265.973 42.0332 284 64.7671 284V258ZM49 243C49 237.514 52.1228 232.534 57.1013 229.888L44.8987 206.929C32.0026 213.784 23 227.267 23 243H49ZM38 86.5V218.409H64V86.5H38ZM38 73.5V86.5H64V73.5H38Z" fill="#AD8E37" mask="url(#path-4-inside-1_546_535)"/>
<mask id="path-6-inside-2_546_535" fill="white">
<path fill-rule="evenodd" clip-rule="evenodd" d="M297.5 57C309.785 57 319 47.4169 319 36.5C319 25.5831 309.785 16 297.5 16C285.215 16 276 25.5831 276 36.5C276 47.4169 285.215 57 297.5 57ZM297.5 73C318.211 73 335 56.6584 335 36.5C335 16.3416 318.211 0 297.5 0C282.282 0 269.181 8.82292 263.303 21.5H13H0V34.5V382.5V395.5H13H360.5H373.5V382.5V140.5V127.5H360.5H116H103V140.5V313.5V326.5H116H288H301V313.5V253.171C314.511 247.653 324 234.655 324 219.5C324 199.342 307.211 183 286.5 183C265.789 183 249 199.342 249 219.5C249 235.754 259.915 249.526 275 254.252V300.5H129V153.5H347.5V369.5H26V47.5H261.733C266.527 62.2826 280.728 73 297.5 73ZM308 219.5C308 230.417 298.785 240 286.5 240C274.215 240 265 230.417 265 219.5C265 208.583 274.215 199 286.5 199C298.785 199 308 208.583 308 219.5Z"/>
</mask>
<path fill-rule="evenodd" clip-rule="evenodd" d="M297.5 57C309.785 57 319 47.4169 319 36.5C319 25.5831 309.785 16 297.5 16C285.215 16 276 25.5831 276 36.5C276 47.4169 285.215 57 297.5 57ZM297.5 73C318.211 73 335 56.6584 335 36.5C335 16.3416 318.211 0 297.5 0C282.282 0 269.181 8.82292 263.303 21.5H13H0V34.5V382.5V395.5H13H360.5H373.5V382.5V140.5V127.5H360.5H116H103V140.5V313.5V326.5H116H288H301V313.5V253.171C314.511 247.653 324 234.655 324 219.5C324 199.342 307.211 183 286.5 183C265.789 183 249 199.342 249 219.5C249 235.754 259.915 249.526 275 254.252V300.5H129V153.5H347.5V369.5H26V47.5H261.733C266.527 62.2826 280.728 73 297.5 73ZM308 219.5C308 230.417 298.785 240 286.5 240C274.215 240 265 230.417 265 219.5C265 208.583 274.215 199 286.5 199C298.785 199 308 208.583 308 219.5Z" fill="#D9D9D9"/>
<path d="M263.303 21.5V37.5H273.52L277.818 28.231L263.303 21.5ZM0 21.5V5.5H-16V21.5H0ZM0 395.5H-16V411.5H0V395.5ZM373.5 395.5V411.5H389.5V395.5H373.5ZM373.5 127.5H389.5V111.5H373.5V127.5ZM103 127.5V111.5H87V127.5H103ZM103 326.5H87V342.5H103V326.5ZM301 326.5V342.5H317V326.5H301ZM301 253.171L294.95 238.359L285 242.423V253.171H301ZM275 254.252H291V242.497L279.783 238.983L275 254.252ZM275 300.5V316.5H291V300.5H275ZM129 300.5H113V316.5H129V300.5ZM129 153.5V137.5H113V153.5H129ZM347.5 153.5H363.5V137.5H347.5V153.5ZM347.5 369.5V385.5H363.5V369.5H347.5ZM26 369.5H10V385.5H26V369.5ZM26 47.5V31.5H10V47.5H26ZM261.733 47.5L276.953 42.564L273.364 31.5H261.733V47.5ZM303 36.5C303 38.2682 301.263 41 297.5 41V73C318.306 73 335 56.5656 335 36.5H303ZM297.5 32C301.263 32 303 34.7318 303 36.5H335C335 16.4344 318.306 0 297.5 0V32ZM292 36.5C292 34.7318 293.737 32 297.5 32V0C276.694 0 260 16.4344 260 36.5H292ZM297.5 41C293.737 41 292 38.2682 292 36.5H260C260 56.5656 276.694 73 297.5 73V41ZM319 36.5C319 47.4169 309.785 57 297.5 57V89C326.637 89 351 65.8999 351 36.5H319ZM297.5 16C309.785 16 319 25.5831 319 36.5H351C351 7.10014 326.637 -16 297.5 -16V16ZM277.818 28.231C281.095 21.1648 288.558 16 297.5 16V-16C276.006 -16 257.268 -3.51894 248.788 14.769L277.818 28.231ZM13 37.5H263.303V5.5H13V37.5ZM0 37.5H13V5.5H0V37.5ZM16 34.5V21.5H-16V34.5H16ZM16 382.5V34.5H-16V382.5H16ZM16 395.5V382.5H-16V395.5H16ZM13 379.5H0V411.5H13V379.5ZM360.5 379.5H13V411.5H360.5V379.5ZM373.5 379.5H360.5V411.5H373.5V379.5ZM357.5 382.5V395.5H389.5V382.5H357.5ZM357.5 140.5V382.5H389.5V140.5H357.5ZM357.5 127.5V140.5H389.5V127.5H357.5ZM360.5 143.5H373.5V111.5H360.5V143.5ZM116 143.5H360.5V111.5H116V143.5ZM103 143.5H116V111.5H103V143.5ZM119 140.5V127.5H87V140.5H119ZM119 313.5V140.5H87V313.5H119ZM119 326.5V313.5H87V326.5H119ZM116 310.5H103V342.5H116V310.5ZM288 310.5H116V342.5H288V310.5ZM301 310.5H288V342.5H301V310.5ZM285 313.5V326.5H317V313.5H285ZM285 253.171V313.5H317V253.171H285ZM307.05 267.983C326.178 260.171 340 241.577 340 219.5H308C308 227.733 302.844 235.135 294.95 238.359L307.05 267.983ZM340 219.5C340 190.1 315.637 167 286.5 167V199C298.785 199 308 208.583 308 219.5H340ZM286.5 167C257.363 167 233 190.1 233 219.5H265C265 208.583 274.215 199 286.5 199V167ZM233 219.5C233 243.186 248.886 262.838 270.217 269.52L279.783 238.983C270.945 236.215 265 228.322 265 219.5H233ZM291 300.5V254.252H259V300.5H291ZM129 316.5H275V284.5H129V316.5ZM113 153.5V300.5H145V153.5H113ZM347.5 137.5H129V169.5H347.5V137.5ZM363.5 369.5V153.5H331.5V369.5H363.5ZM26 385.5H347.5V353.5H26V385.5ZM10 47.5V369.5H42V47.5H10ZM261.733 31.5H26V63.5H261.733V31.5ZM297.5 57C287.626 57 279.596 50.7149 276.953 42.564L246.513 52.436C253.458 73.8503 273.83 89 297.5 89V57ZM286.5 256C307.306 256 324 239.566 324 219.5H292C292 221.268 290.263 224 286.5 224V256ZM249 219.5C249 239.566 265.694 256 286.5 256V224C282.737 224 281 221.268 281 219.5H249ZM286.5 183C265.694 183 249 199.434 249 219.5H281C281 217.732 282.737 215 286.5 215V183ZM324 219.5C324 199.434 307.306 183 286.5 183V215C290.263 215 292 217.732 292 219.5H324Z" fill="#001F5F" mask="url(#path-6-inside-2_546_535)"/>
<rect x="1243" y="85.6992" width="111" height="27.7" fill="#AD8E37"/>
<path d="M1313.13 162.8C1301.71 159.351 1294.99 159.4 1283.31 162.807C1282.56 163.025 1282.05 163.711 1282.05 164.488C1282.05 165.613 1283.09 166.448 1284.2 166.225C1294.89 164.061 1301.75 164 1312.21 166.202C1313.31 166.434 1314.36 165.599 1314.36 164.47C1314.36 163.702 1313.86 163.022 1313.13 162.8Z" fill="#001F5F"/>
<path d="M1286 159.417V141.672H1309.9V159.417C1301 157.206 1295.77 157.201 1286 159.417Z" fill="#AD8E37" stroke="#AD8E37"/>
<rect width="17.5684" height="17.5694" transform="matrix(0.698809 0.715308 -0.698809 0.715308 1297.29 106.061)" fill="#001F5F"/>
<rect width="17.5684" height="17.5694" transform="matrix(0.698809 0.715308 -0.698809 0.715308 1297.22 113.707)" fill="#AD8E37"/>
<rect width="17.5684" height="17.5694" transform="matrix(0.698809 0.715308 -0.698809 0.715308 1298.27 121.775)" fill="#D9D9D9"/>
<rect width="17.5684" height="17.5694" transform="matrix(0.698809 0.715308 -0.698809 0.715308 1297.8 128.766)" fill="#001F5F"/>
<rect width="6.90351" height="6.90392" transform="matrix(0.698809 0.715308 -0.698809 0.715308 1313.94 132.092)" fill="#001F5F"/>
<rect width="6.90351" height="6.90392" transform="matrix(0.698809 0.715308 -0.698809 0.715308 1280.84 125.539)" fill="#001F5F"/>
<rect width="6.90351" height="6.90392" transform="matrix(0.698809 0.715308 -0.698809 0.715308 1313.94 117.473)" fill="#AD8E37"/>
<path fill-rule="evenodd" clip-rule="evenodd" d="M1276.38 194.01C1280.13 187.01 1282.02 182.041 1284.08 169.24C1289.64 168.001 1294.02 167.375 1298.34 167.369C1302.66 167.363 1306.96 167.977 1312.37 169.24C1314.48 179.765 1315.78 185.072 1321.09 194.005C1314.5 199.971 1310.51 205.389 1307.86 211.389C1305.22 217.366 1303.91 223.894 1302.65 232.048H1301.72L1300.95 204.486C1302.37 203.651 1303.33 202.083 1303.33 200.286C1303.33 197.613 1301.21 195.446 1298.6 195.446C1295.99 195.446 1293.88 197.613 1293.88 200.286C1293.88 202.093 1294.84 203.668 1296.28 204.5L1297.05 232.048H1295.63C1294.53 224.071 1292.95 217.774 1290.03 211.866C1287.09 205.934 1282.82 200.424 1276.38 194.01ZM1297.29 204.936L1298.06 232.534L1298.07 233.048H1297.56H1295.2H1294.76L1294.7 232.615C1293.6 224.488 1292.04 218.189 1289.13 212.309C1286.22 206.43 1281.96 200.94 1275.41 194.457L1275.14 194.193L1275.32 193.864C1279.16 186.741 1281.05 181.906 1283.14 168.748L1283.2 168.413L1283.53 168.339C1289.29 167.042 1293.83 166.376 1298.34 166.369C1302.85 166.363 1307.31 167.017 1312.91 168.34L1313.22 168.413L1313.28 168.728C1315.46 179.562 1316.7 184.752 1322.15 193.844L1322.37 194.198L1322.06 194.474C1315.37 200.476 1311.4 205.857 1308.78 211.794C1306.15 217.742 1304.86 224.277 1303.57 232.624L1303.5 233.048H1303.08H1301.24H1300.75L1300.74 232.562L1299.97 204.922C1299.53 205.054 1299.08 205.126 1298.6 205.126C1298.15 205.126 1297.71 205.059 1297.29 204.936Z" fill="#AD8E37"/>
<path d="M1284.08 169.24L1283.97 168.752L1283.64 168.826L1283.58 169.161L1284.08 169.24ZM1276.38 194.01L1275.93 193.773L1275.76 194.101L1276.02 194.364L1276.38 194.01ZM1298.34 167.369L1298.34 166.869L1298.34 166.869L1298.34 167.369ZM1312.37 169.24L1312.86 169.141L1312.79 168.826L1312.48 168.753L1312.37 169.24ZM1321.09 194.005L1321.42 194.376L1321.72 194.101L1321.51 193.75L1321.09 194.005ZM1307.86 211.389L1307.4 211.187L1307.4 211.187L1307.86 211.389ZM1302.65 232.048V232.548H1303.08L1303.14 232.125L1302.65 232.048ZM1301.72 232.048L1301.22 232.062L1301.24 232.548H1301.72V232.048ZM1300.95 204.486L1300.7 204.055L1300.45 204.205L1300.45 204.5L1300.95 204.486ZM1296.28 204.5L1296.78 204.486L1296.77 204.207L1296.53 204.067L1296.28 204.5ZM1297.05 232.048V232.548H1297.56L1297.55 232.034L1297.05 232.048ZM1295.63 232.048L1295.14 232.117L1295.2 232.548H1295.63V232.048ZM1290.03 211.866L1289.58 212.088L1289.58 212.088L1290.03 211.866ZM1297.29 204.936L1297.43 204.457L1296.77 204.261L1296.79 204.95L1297.29 204.936ZM1298.06 232.534L1297.56 232.548L1297.56 232.548L1298.06 232.534ZM1298.07 233.048V233.548H1298.59L1298.57 233.034L1298.07 233.048ZM1294.76 233.048L1294.26 233.115L1294.32 233.548H1294.76V233.048ZM1294.7 232.615L1295.2 232.548L1295.2 232.548L1294.7 232.615ZM1289.13 212.309L1288.68 212.531L1288.68 212.531L1289.13 212.309ZM1275.41 194.457L1275.76 194.101L1275.76 194.101L1275.41 194.457ZM1275.14 194.193L1274.7 193.956L1274.52 194.285L1274.79 194.549L1275.14 194.193ZM1275.32 193.864L1274.88 193.627L1274.88 193.627L1275.32 193.864ZM1283.14 168.748L1282.65 168.669L1282.65 168.669L1283.14 168.748ZM1283.2 168.413L1283.09 167.925L1282.76 168L1282.7 168.334L1283.2 168.413ZM1283.53 168.339L1283.42 167.851L1283.42 167.851L1283.53 168.339ZM1298.34 166.369L1298.34 165.869L1298.34 166.369ZM1312.91 168.34L1313.02 167.853L1313.02 167.853L1312.91 168.34ZM1313.22 168.413L1313.71 168.315L1313.65 168.001L1313.34 167.927L1313.22 168.413ZM1313.28 168.728L1313.77 168.63L1313.77 168.63L1313.28 168.728ZM1322.15 193.844L1322.58 193.587L1322.58 193.587L1322.15 193.844ZM1322.37 194.198L1322.7 194.57L1323.01 194.295L1322.79 193.941L1322.37 194.198ZM1322.06 194.474L1322.39 194.846L1322.39 194.846L1322.06 194.474ZM1308.78 211.794L1309.23 211.996L1309.23 211.996L1308.78 211.794ZM1303.57 232.624L1303.08 232.548L1303.08 232.548L1303.57 232.624ZM1303.5 233.048V233.548H1303.93L1304 233.124L1303.5 233.048ZM1300.75 233.048L1300.25 233.062L1300.26 233.548H1300.75V233.048ZM1300.74 232.562L1300.24 232.576L1300.24 232.576L1300.74 232.562ZM1299.97 204.922L1300.47 204.908L1300.45 204.251L1299.82 204.444L1299.97 204.922ZM1283.58 169.161C1281.53 181.917 1279.66 186.83 1275.93 193.773L1276.82 194.246C1280.6 187.189 1282.51 182.166 1284.57 169.32L1283.58 169.161ZM1298.34 166.869C1293.97 166.875 1289.56 167.509 1283.97 168.752L1284.19 169.728C1289.73 168.493 1294.07 167.875 1298.34 167.869L1298.34 166.869ZM1312.48 168.753C1307.05 167.485 1302.71 166.863 1298.34 166.869L1298.34 167.869C1302.61 167.863 1306.87 168.469 1312.25 169.727L1312.48 168.753ZM1321.51 193.75C1316.25 184.888 1314.97 179.646 1312.86 169.141L1311.88 169.338C1314 179.885 1315.31 185.256 1320.66 194.26L1321.51 193.75ZM1308.32 211.592C1310.94 205.668 1314.87 200.305 1321.42 194.376L1320.75 193.634C1314.12 199.638 1310.09 205.111 1307.4 211.187L1308.32 211.592ZM1303.14 232.125C1304.41 223.975 1305.71 217.504 1308.32 211.592L1307.4 211.187C1304.73 217.229 1303.42 223.813 1302.15 231.971L1303.14 232.125ZM1301.72 232.548H1302.65V231.548H1301.72V232.548ZM1300.45 204.5L1301.22 232.062L1302.22 232.034L1301.45 204.472L1300.45 204.5ZM1302.83 200.286C1302.83 201.902 1301.97 203.308 1300.7 204.055L1301.21 204.917C1302.78 203.994 1303.83 202.264 1303.83 200.286H1302.83ZM1298.6 195.946C1300.93 195.946 1302.83 197.878 1302.83 200.286H1303.83C1303.83 197.348 1301.5 194.946 1298.6 194.946V195.946ZM1294.38 200.286C1294.38 197.878 1296.28 195.946 1298.6 195.946V194.946C1295.71 194.946 1293.38 197.348 1293.38 200.286H1294.38ZM1296.53 204.067C1295.25 203.324 1294.38 201.911 1294.38 200.286H1293.38C1293.38 202.274 1294.44 204.013 1296.03 204.932L1296.53 204.067ZM1297.55 232.034L1296.78 204.486L1295.78 204.514L1296.55 232.062L1297.55 232.034ZM1295.63 232.548H1297.05V231.548H1295.63V232.548ZM1289.58 212.088C1292.47 217.929 1294.03 224.169 1295.14 232.117L1296.13 231.979C1295.02 223.974 1293.43 217.619 1290.47 211.645L1289.58 212.088ZM1276.02 194.364C1282.45 200.756 1286.68 206.221 1289.58 212.088L1290.47 211.645C1287.51 205.646 1283.2 200.093 1276.73 193.655L1276.02 194.364ZM1296.79 204.95L1297.56 232.548L1298.56 232.52L1297.79 204.922L1296.79 204.95ZM1297.56 232.548L1297.57 233.062L1298.57 233.034L1298.56 232.52L1297.56 232.548ZM1298.07 232.548H1297.56V233.548H1298.07V232.548ZM1297.56 232.548H1295.2V233.548H1297.56V232.548ZM1295.2 232.548H1294.76V233.548H1295.2V232.548ZM1295.25 232.981L1295.2 232.548L1294.2 232.682L1294.26 233.115L1295.25 232.981ZM1295.2 232.548C1294.09 224.393 1292.52 218.035 1289.58 212.088L1288.68 212.531C1291.55 218.343 1293.11 224.583 1294.2 232.682L1295.2 232.548ZM1289.58 212.088C1286.64 206.141 1282.33 200.607 1275.76 194.101L1275.05 194.812C1281.58 201.273 1285.81 206.718 1288.68 212.531L1289.58 212.088ZM1275.76 194.101L1275.49 193.838L1274.79 194.549L1275.05 194.812L1275.76 194.101ZM1275.58 194.431L1275.76 194.101L1274.88 193.627L1274.7 193.956L1275.58 194.431ZM1275.76 194.101C1279.63 186.921 1281.53 182.032 1283.64 168.826L1282.65 168.669C1280.56 181.781 1278.69 186.56 1274.88 193.627L1275.76 194.101ZM1283.64 168.826L1283.69 168.492L1282.7 168.334L1282.65 168.669L1283.64 168.826ZM1283.31 168.901L1283.64 168.826L1283.42 167.851L1283.09 167.925L1283.31 168.901ZM1283.64 168.826C1289.38 167.534 1293.88 166.875 1298.34 166.869L1298.34 165.869C1293.78 165.876 1289.2 166.55 1283.42 167.851L1283.64 168.826ZM1298.34 166.869C1302.8 166.863 1307.21 167.509 1312.79 168.826L1313.02 167.853C1307.4 166.525 1302.9 165.863 1298.34 165.869L1298.34 166.869ZM1312.79 168.826L1313.11 168.9L1313.34 167.927L1313.02 167.853L1312.79 168.826ZM1312.73 168.512L1312.79 168.826L1313.77 168.63L1313.71 168.315L1312.73 168.512ZM1312.79 168.826C1314.97 179.681 1316.23 184.936 1321.72 194.101L1322.58 193.587C1317.17 184.567 1315.94 179.443 1313.77 168.63L1312.79 168.826ZM1321.72 194.101L1321.94 194.455L1322.79 193.941L1322.58 193.587L1321.72 194.101ZM1322.03 193.826L1321.72 194.101L1322.39 194.846L1322.7 194.57L1322.03 193.826ZM1321.72 194.101C1315 200.14 1310.98 205.577 1308.32 211.592L1309.23 211.996C1311.82 206.137 1315.75 200.811 1322.39 194.846L1321.72 194.101ZM1308.32 211.592C1305.66 217.606 1304.36 224.198 1303.08 232.548L1304.06 232.7C1305.35 224.356 1306.63 217.879 1309.23 211.996L1308.32 211.592ZM1303.08 232.548L1303.01 232.972L1304 233.124L1304.06 232.7L1303.08 232.548ZM1303.5 232.548H1303.08V233.548H1303.5V232.548ZM1303.08 232.548H1301.24V233.548H1303.08V232.548ZM1301.24 232.548H1300.75V233.548H1301.24V232.548ZM1301.25 233.034L1301.24 232.548L1300.24 232.576L1300.25 233.062L1301.25 233.034ZM1301.24 232.548L1300.47 204.908L1299.47 204.936L1300.24 232.576L1301.24 232.548ZM1299.82 204.444C1299.43 204.562 1299.03 204.626 1298.6 204.626V205.626C1299.13 205.626 1299.63 205.547 1300.11 205.4L1299.82 204.444ZM1298.6 204.626C1298.2 204.626 1297.8 204.566 1297.43 204.457L1297.15 205.416C1297.61 205.552 1298.1 205.626 1298.6 205.626V204.626Z" fill="#AD8E37"/>
</svg>
