<svg width="512" height="512" viewBox="0 0 512 512" fill="none" xmlns="http://www.w3.org/2000/svg">
<path d="M458.93 239.882L439.05 254.282L451.105 274.633H441.4L419.015 238.486L399.369 253.401L412.125 274.633H400.465L378.393 239.147L358.904 254.135L371.584 274.633H345.912L322.666 237.017H457.677L442.183 212.037H278.288L316.326 273.899H272.026L250.659 238.192L230.622 253.18L242.91 273.899H206.594L183.191 235.841L160.65 252.886L175.13 272.796H121.516L87.7822 298.07H192.271L205.42 288.005L213.09 298.07H258.877L272.026 288.005L279.696 298.07H333.154L345.912 288.005L353.269 298.07H388.412L402.422 288.005L409.386 298.07H428.092L441.4 288.005L449.459 299.025L480.925 275.368L458.93 239.882Z" fill="black" stroke="black" stroke-width="2" stroke-linecap="round"/>
<path d="M74.5552 298.505L159.868 233.926H116.429L66.0241 271.395V258.244H31.0381V298.505H74.5552Z" fill="black" stroke="black" stroke-width="2" stroke-linecap="round"/>
<path d="M229.908 230.335C229.908 238.885 222.523 245.818 213.412 245.818C204.3 245.818 196.916 238.885 196.916 230.335C196.916 221.785 204.3 214.852 213.412 214.852C222.523 214.852 229.908 221.785 229.908 230.335Z" fill="#FDCF08"/>
</svg>
