<svg width="565" height="552" viewBox="0 0 565 552" fill="none" xmlns="http://www.w3.org/2000/svg">
<path fill-rule="evenodd" clip-rule="evenodd" d="M177.986 220.8H63.7331C46.9687 220.674 30.8356 226.636 18.8835 237.373C6.93088 248.111 0.138182 262.745 0 278.056V494.753C0.310206 526.627 28.8386 552.241 63.7331 551.973H177.986C194.749 552.101 210.883 546.14 222.836 535.403C234.789 524.666 241.582 510.031 241.719 494.717V278.056C241.582 262.745 234.789 248.111 222.836 237.373C210.883 226.636 194.749 220.674 177.986 220.8Z" fill="#999999"/>
<path fill-rule="evenodd" clip-rule="evenodd" d="M177.986 0.0222121H63.7331C29.5404 -0.843989 1.03093 23.7312 0 54.9601V92.2722C1.03093 123.501 29.5404 148.077 63.7331 147.21H177.986C212.177 148.077 240.687 123.501 241.719 92.2722V54.9601C240.687 23.7312 212.177 -0.843989 177.986 0.0222121Z" fill="#999999"/>
<path fill-rule="evenodd" clip-rule="evenodd" d="M386.026 331.199H500.238C517.009 331.335 533.152 325.377 545.113 314.64C557.074 303.899 563.875 289.261 564.012 273.943V57.2806C563.875 41.9686 557.082 27.3337 545.129 16.596C533.176 5.85826 517.042 -0.102858 500.278 0.0244592H386.026C369.263 -0.102858 353.128 5.85826 341.175 16.596C329.222 27.3337 322.43 41.9686 322.293 57.2806V273.943C322.43 289.254 329.222 303.888 341.175 314.625C353.128 325.363 369.263 331.324 386.026 331.199Z" fill="#999999"/>
<path fill-rule="evenodd" clip-rule="evenodd" d="M386.026 551.977H500.238C534.445 552.863 562.98 528.283 564.012 497.039V459.727C562.98 428.497 534.47 403.924 500.278 404.789H386.026C351.835 403.924 323.324 428.497 322.293 459.727V497.002C323.3 528.246 351.819 552.841 386.026 551.977Z" fill="#999999"/>
</svg>
