<svg width="47" height="53" viewBox="0 0 47 53" fill="none" xmlns="http://www.w3.org/2000/svg">
<path d="M2.40628 11.2586L6.79864 13.5095L27.1846 2.6839C27.3325 2.604 27.4256 2.43475 27.4229 2.2508C27.4204 2.06657 27.3226 1.90097 27.1724 1.82633L23.5796 0.0404892C23.4709 -0.0134964 23.347 -0.0134964 23.2382 0.0404892L2.41062 10.3971C2.25909 10.4725 2.16113 10.6404 2.16016 10.8263C2.1592 11.0121 2.25548 11.1814 2.40628 11.2586Z" fill="white"/>
<path d="M22.1254 23.9238L14.304 19.8736V32.2386C14.304 32.3541 14.2511 32.4619 14.1636 32.5239C14.1147 32.5586 14.059 32.576 14.0032 32.576C13.9589 32.576 13.9146 32.5649 13.8733 32.543L5.5842 28.1398C5.47961 28.0837 5.41318 27.9653 5.41318 27.8354V15.3877L0.596342 12.889C0.466002 12.8221 0.314238 12.8342 0.193525 12.9211C0.0729331 13.0082 0 13.1579 0 13.3185V41.4914C0 41.6765 0.096161 41.8444 0.246119 41.9213L21.7753 52.957C21.8312 52.9855 21.8909 52.9996 21.9505 52.9996C22.03 52.9996 22.1091 52.9742 22.1782 52.9246C22.2988 52.8376 22.3717 52.6879 22.3717 52.5272V24.3536C22.3717 24.1688 22.2755 24.0008 22.1254 23.9238Z" fill="white"/>
<path d="M46.6232 12.9213C46.5027 12.8344 46.3508 12.8225 46.2204 12.8892L24.6924 23.9238C24.5424 24.0007 24.4463 24.1686 24.4463 24.3537V52.5276C24.4463 52.6883 24.5192 52.8383 24.6398 52.925C24.7087 52.9746 24.7878 52.9999 24.8675 52.9999C24.9271 52.9999 24.9868 52.9859 25.0426 52.9574L46.5707 41.9217C46.7206 41.845 46.8168 41.677 46.8168 41.4918V13.3187C46.8169 13.158 46.7438 13.0082 46.6232 12.9213Z" fill="white"/>
<path d="M44.6593 10.8262C44.6582 10.6403 44.5602 10.4724 44.4087 10.397L37.1657 6.79602C37.0528 6.73961 36.9234 6.74217 36.8121 6.8021L15.9004 18.003L23.2338 21.9328C23.2894 21.9613 23.3491 21.9754 23.4089 21.9754C23.4687 21.9754 23.5284 21.9613 23.584 21.9328L44.4128 11.2582C44.5638 11.1813 44.6602 11.012 44.6593 10.8262Z" fill="white"/>
</svg>
