<svg xmlns="http://www.w3.org/2000/svg" xmlns:xlink="http://www.w3.org/1999/xlink" version="1.1" x="0px" y="0px" viewBox="0 0 72 90" style="enable-background:new 0 0 72 72;" xml:space="preserve"><g><g><path d="M63.9585648,66.1962204h-8.0448914c-0.072113-0.3699112-0.3698044-0.6673889-0.7485275-0.7125244    c-8.319828-1.3866425-10.5374908-10.3650589-3.9233093-11.1293945c0.6957779-0.0752678,1.0673409-0.9000778,0.5953903-1.4699707    c-0.6764183-0.8208618-2.6065826-2.0382805-5.1138611-0.8479462c-1.1174698-1.1555786-2.8283501-1.2250252-4.392086-0.883831    c-1.8580093-8.1105919-2.7089386-15.5056381-2.902626-22.8933659c2.9895706-0.6656742,2.5909081-5.04245-0.4490738-5.1858616    v-3.8475609h0.42276c0.4980659,0,0.9018898-0.4038258,0.9018898-0.9018898s-0.4038239-0.9018898-0.9018898-0.9018898    c-0.0917053,0-1.4757957,0-1.3849792,0v-2.7155752h0.7367477c0.4980659,0,0.9018898-0.4038239,0.9018898-0.9018888    s-0.4038239-0.9018888-0.9018898-0.9018888h-0.9882011v-1.1511421c0-1.5186348-0.9904137-2.9135857-2.5788422-3.3393679V4.9018893    C35.1870651,4.4038243,34.7832413,4,34.2851791,4c-0.4980659,0-0.9018898,0.4038243-0.9018898,0.9018893v3.5113339    c-1.4759197,0.3998613-2.5704727,1.7377224-2.5704727,3.3382673v1.1511421h-0.988203    c-0.498064,0-0.9018898,0.4038239-0.9018898,0.9018888s0.4038258,0.9018888,0.9018898,0.9018888h0.7363071v2.7155752    c-0.0908146,0-1.4753551,0-1.3845406,0c-0.498064,0-0.9018879,0.4038258-0.9018879,0.9018898    s0.4038239,0.9018898,0.9018879,0.9018898h0.4227619v3.8753052c-2.920372,0.3970032-3.0685596,4.5301266-0.2153454,5.1594391    c-0.2062778,7.6401901-1.1063881,15.0123024-2.9077988,22.910099c-1.564476-0.3558884-3.3186493-0.3098602-4.4372234,0.8477211    c-2.4892235-1.1542244-4.3923073,0.0451393-5.0687237,0.8660011c-0.455862,0.5744247-0.0931435,1.3934174,0.5953884,1.4699707    c6.6817188,0.7687607,4.3253193,9.7561264-3.914279,11.1293945c-0.3877506,0.0541611-0.6854439,0.3426132-0.757556,0.7125244    H8.0414362c-0.4960828,0-0.9018888,0.4058075-0.9018888,0.9018936C7.1395473,67.6032181,7.5453534,68,8.0414362,68    c10.6128397,0,40.4199562,0,55.9171295,0c0.4960785,0,0.901886-0.3967819,0.901886-0.901886    C64.8604507,66.6020279,64.4546432,66.1962204,63.9585648,66.1962204z M28.6586094,53.8672485    c0.4542294,1.9763565,0.6868782,4.5170364,0.4689999,6.8544426c-0.8361702-0.9113388-2.5924931-0.8454704-3.3820839,0.4148369    c-1.0122738,1.667614-2.3724232,3.6257477-3.7428627,5.0596924h-0.5862503    c3.0757446-3.8342667,5.1184788-9.1945648,2.0202236-13.0144157C24.854744,52.2363968,27.0259151,53.14505,28.6586094,53.8672485z     M37.822052,46.8877335c0-0.0004387-0.0002174-0.0006599-0.0002174-0.0010986    c-0.3061714-1.5692787-0.5251503-3.2534943-0.6799393-4.963253h1.6282883    c0.2378006,1.6514091,0.5076408,3.3036957,0.8193169,4.963253c0,0.0004387,0.0002213,0.0006599,0.0002213,0.0010986H37.822052z     M33.4819336,41.9233818h1.8434105c0.1480751,1.67519,0.3619881,3.3572044,0.6656265,4.963253    c0,0.0004387,0.0002213,0.0006599,0.0002213,0.0010986h-3.175106c0-0.0004387,0.0002174-0.0006599,0.0002174-0.0010986    C33.1199455,45.2805862,33.3338547,43.5985718,33.4819336,41.9233818z M35.2346268,28.3292084    c-0.0679283,1.0452309-0.1626091,2.8331566-0.1931038,5.0220413h-1.2757683    c-0.0304947-2.1888847-0.1251755-3.9768105-0.1931038-5.0220413H35.2346268z M38.5286369,40.1196022h-1.5266724    c-0.1083336-1.6866379-0.1590843-3.3677711-0.1687737-4.9645729h1.1685371    C38.1411057,36.8143654,38.3172569,38.4681931,38.5286369,40.1196022z M33.7746735,35.1550293h1.2579308    c0.0062752,1.5525436,0.0507545,3.2376404,0.1579857,4.9645729h-1.5739021    C33.7239189,38.3926697,33.7683983,36.7075729,33.7746735,35.1550293z M31.8053131,40.1196022h-1.5233688    c0.2122612-1.6509666,0.3897324-3.3045769,0.5306511-4.9645729h1.1614914    C31.9643993,36.7518311,31.9136448,38.4329643,31.8053131,40.1196022z M36.8393555,33.3512497    c0.0238914-1.9151917,0.1001854-3.64785,0.1970673-5.0220413h0.5891151    c0.0441475,1.6864185,0.1182404,3.3596249,0.2319679,5.0220413H36.8393555z M31.770853,28.3292084    c0.0968838,1.3741913,0.1731777,3.1068497,0.1970692,5.0220413h-1.0092316    c0.1152687-1.6617565,0.1912327-3.3351822,0.2372532-5.0220413H31.770853z M30.0390759,41.9233818h1.6263084    c-0.1547928,1.7097588-0.3737698,3.3939743-0.6799412,4.963253c0,0.0004387-0.0002193,0.0006599-0.0002193,0.0010986H29.217556    c0-0.0004387,0.0002193-0.0006599,0.0002193-0.0010986C29.5297813,45.22752,29.8003922,43.5752296,30.0390759,41.9233818z     M32.4283333,48.6915131h3.9506111c0.2344971,0.973671,0.5140266,1.8933945,0.8385849,2.7587318    c-1.9029732-0.631279-3.7789726-0.649334-5.609726-0.0361099C31.9233341,50.5668526,32.1938324,49.6471291,32.4283333,48.6915131z     M45.3074493,53.1818047c-3.1136475,3.8078041-1.052906,9.2116318,2.0382767,13.0144157h-0.5320854    c-1.4175453-1.4580841-2.8192024-3.453804-3.8691368-5.1858597c-0.7712746-1.2408333-2.4830894-1.368-3.3640289-0.4870567    c-0.1863899-2.1877937,0.0597343-4.6518631,0.5051079-6.6560555    C41.435009,53.2525101,44.2593918,52.1305428,45.3074493,53.1818047z M36.4690018,61.7316933    c-0.1615486-1.1295204-1.1449623-1.9841118-2.2818069-1.9841118c-1.1454163,0-2.1195297,0.8479424-2.2818069,1.9841118    l-0.631279,4.4645271h-1.7316666c1.3603477-2.8568649,2.0093555-7.12817,1.0371952-11.9771118l0.0631943-0.4238625    c2.4350567-1.3708878,4.8971958-1.3708878,7.5216122,0.0090294l0.0270844,0.2884445    c-0.8279953,3.8639755-0.6900597,8.5310707,1.001194,12.1035004h-2.083416L36.4690018,61.7316933z M39.4451675,52.1808281    c-0.4867249-1.0099983-0.8926392-2.1910858-1.2262268-3.489315h1.7315598    c0.2073059,0.9917259,0.4237518,1.9924812,0.6581383,2.9932327    C40.2388344,51.8201599,39.8510857,51.9914665,39.4451675,52.1808281z M32.3647003,14.7064104h3.8488808v2.7155752h-3.8488808    V14.7064104z M37.1758041,19.2257652v3.8330288h-5.7728844v-3.8330288    C33.4102974,19.2257652,35.0102005,19.2257652,37.1758041,19.2257652z M28.8567791,48.6915131h1.7315559    c-0.3335838,1.307476-0.7395,2.4973717-1.2352543,3.50737c-0.3968887-0.1893616-0.7846394-0.35186-1.1544437-0.4960823    C28.4330273,50.6932411,28.6494713,49.6922684,28.8567791,48.6915131z"/><path d="M8.7396517,20.2207928h13.3746462c0.498064,0,0.9018898-0.4033833,0.9018898-0.9018879    c0-0.4976254-0.4038258-0.9018898-0.9018898-0.9018898h-1.1958389c-0.3507595-1.3475494-1.9794884-3.5780516-4.2278271-3.3063402    c-1.2775288,0.1541319-2.3901377,0.8120527-2.8113565,1.9535055c-1.5059795-0.7238674-3.2628527-0.1228447-4.0082989,1.3528347    H8.7396517c-0.498064,0-0.9018888,0.4042645-0.9018888,0.9018898C7.8377628,19.8174095,8.2415876,20.2207928,8.7396517,20.2207928    z"/><path d="M51.2145348,29.829567h11.1696854c0.4980659,0,0.9018898-0.4033833,0.9018898-0.9018879    c0-0.4976254-0.4038239-0.9018898-0.9018898-0.9018898h-1.0434685c-0.367054-1.1326466-1.6890602-2.8298531-3.4862328-2.6127472    c-1.0670319,0.1290302-1.9960022,0.6781769-2.3478622,1.6315899c-1.2012634-0.5787678-2.6006241-0.1458797-3.2682495,0.9811573    h-1.0238724c-0.4980659,0-0.9018898,0.4042645-0.9018898,0.9018898    C50.312645,29.4261837,50.7164688,29.829567,51.2145348,29.829567z"/></g></g><text x="0" y="87" fill="#000000" font-size="5px" font-weight="bold" font-family="'Helvetica Neue', Helvetica, Arial-Unicode, Arial, Sans-serif">Created by Brickclay</text><text x="0" y="92" fill="#000000" font-size="5px" font-weight="bold" font-family="'Helvetica Neue', Helvetica, Arial-Unicode, Arial, Sans-serif">from the Noun Project</text></svg>