<svg xmlns="http://www.w3.org/2000/svg" data-name="Layer 1" viewBox="0 0 64 80" x="0px" y="0px"><path d="M12.82168,7.21857a6.70834,6.70834,0,0,1,3.28137,1.861A16.6263,16.6263,0,0,1,18.92422,12.794c.48879.942.99989,1.87427,1.41546,2.85185a2.16856,2.16856,0,0,1,.6896-1.322,4.33615,4.33615,0,0,1,2.88672-.84091,6.58646,6.58646,0,0,1,4.35517,1.778c-.1548-.41557-.26148-.84718-.42673-1.25927-.31308-.80326-.7154-1.56678-1.10657-2.33378a1.01427,1.01427,0,0,0-.39606-.36885,5.5457,5.5457,0,0,0-2.56248-.83045,5.37684,5.37684,0,0,0-3.14261.61011,3.12426,3.12426,0,0,0-1.4057,2.15457.858.858,0,0,1-.03626-.555,3.50706,3.50706,0,0,1,1.92238-2.78351,5.17583,5.17583,0,0,1,3.00246-.22383,5.92686,5.92686,0,0,1,2.03674.71471,27.40464,27.40464,0,0,0-1.81361-2.72634A19.13594,19.13594,0,0,0,18.865,2.59774,12.50961,12.50961,0,0,0,12.76032.80435,9.2101,9.2101,0,0,0,8.21549,1.93394,10.71038,10.71038,0,0,0,3.96143,6.68167a18.86056,18.86056,0,0,0-1.56329,4.81049,19.59409,19.59409,0,0,0-.36537,3.98422,19.06036,19.06036,0,0,0,.645,5.08312,12.09152,12.09152,0,0,0,.64567,1.84429,14.76905,14.76905,0,0,1-.22033-2.886,17.10062,17.10062,0,0,1,1.90634-7.60237,9.36837,9.36837,0,0,1,3.76249-3.98A6.42446,6.42446,0,0,1,12.82168,7.21857Z"/><path d="M61.81281,13.02337a18.90945,18.90945,0,0,0-2.24034-7.131,10.19891,10.19891,0,0,0-4.745-4.39631,9.36205,9.36205,0,0,0-4.70171-.622,12.91735,12.91735,0,0,0-4.48068,1.39385,17.73251,17.73251,0,0,0-5.68069,4.91648,23.31575,23.31575,0,0,0-2.15457,3.25626,5.95281,5.95281,0,0,1,2.36375-.84579,4.64043,4.64043,0,0,1,2.9418.34933,3.42723,3.42723,0,0,1,1.68182,2.74517.51627.51627,0,0,1-.04462.3319l-.05787-.00976a2.74244,2.74244,0,0,0-.97549-1.7906,5.19342,5.19342,0,0,0-2.92646-.84928A5.61425,5.61425,0,0,0,37.381,11.51238a1.32974,1.32974,0,0,0-.25938.41279,22.61608,22.61608,0,0,0-1.02709,2.324c-.11086.34236-.21336.68821-.32911,1.02987a5.16989,5.16989,0,0,1,1.21744-.95178,6.56318,6.56318,0,0,1,4.08811-.80046,4.02588,4.02588,0,0,1,1.70065.66449,1.78623,1.78623,0,0,1,.75027,1.647c.251-.61638.54039-1.21674.82976-1.81639a5.36632,5.36632,0,0,0,.40232-.85207c.12551-.07112.1555-.22452.22731-.33957a17.38439,17.38439,0,0,1,2.3554-3.21931,8.74034,8.74034,0,0,1,2.89507-2.10646,5.75913,5.75913,0,0,1,4.07975.0237,7.41561,7.41561,0,0,1,2.98224,2.02976,13.76879,13.76879,0,0,1,2.97875,5.74,17.78393,17.78393,0,0,1,.42324,7.1087,8.38629,8.38629,0,0,0,.39257-1.01174A19.41243,19.41243,0,0,0,61.81281,13.02337Z"/><path d="M27.57041,15.385a6.43572,6.43572,0,0,0-3.51635-1.00338,4.50872,4.50872,0,0,0-2.7361.65614,2.05711,2.05711,0,0,0-.76073,1.06752c.19036.60105.45672,1.17491.654,1.77317a5.21082,5.21082,0,0,1,4.57759-1.38827,5.54286,5.54286,0,0,1,3.418,1.75155A3.97182,3.97182,0,0,0,27.57041,15.385Z"/><path d="M42.73332,17.89522c.20918-.54945.39744-1.10727.62824-1.649.14782-.26984-.04393-.56061-.20779-.77258a3.68061,3.68061,0,0,0-2.566-1.08426,7.11248,7.11248,0,0,0-3.92286.79559,3.94162,3.94162,0,0,0-1.88751,3.02477,4.43953,4.43953,0,0,1,1.56537-1.18327,6.59493,6.59493,0,0,1,3.04848-.60872A4.9435,4.9435,0,0,1,42.73332,17.89522Z"/><path d="M51.18845,15.75808a17.3272,17.3272,0,0,0-3.55679,1.815,28.26148,28.26148,0,0,0-3.25557,2.467c-.9204.7949-1.75434,1.68183-2.60989,2.54435a2.28831,2.28831,0,0,1-.76561.53133,1.317,1.317,0,0,0-.13666-1.36875,3.31381,3.31381,0,0,0-1.92378-1.0236,5.58063,5.58063,0,0,0-3.41734.21964A2.6629,2.6629,0,0,0,34.106,22.61576a21.611,21.611,0,0,1,.56689-4.28753,13.41822,13.41822,0,0,0-2.32123-.18129,15.451,15.451,0,0,0-3.03453.19314,25.99,25.99,0,0,1,.4867,2.92715,9.55539,9.55539,0,0,1,.09343,1.33807A2.46988,2.46988,0,0,0,28.525,20.96671a5.68146,5.68146,0,0,0-3.29043-.27891,3.569,3.569,0,0,0-2.08554.99152,1.33222,1.33222,0,0,0-.17084,1.41826,3.65137,3.65137,0,0,1-1.18187-.96921,29.861,29.861,0,0,0-3.92984-3.53588,18.385,18.385,0,0,0-5.93867-3.12587A5.69784,5.69784,0,0,0,10.0556,15.254a6.49156,6.49156,0,0,0,.09622,1.51587,9.6812,9.6812,0,0,0,1.05986,2.62245c.65334,1.05148,1.41686,2.02836,2.11413,3.05127a37.17722,37.17722,0,0,0,2.4035,3.24441,5.90168,5.90168,0,0,0,1.5605,1.292,4.50359,4.50359,0,0,0,1.75016.44277c.30261.02789.59268-.13039.8946-.08019a1.76335,1.76335,0,0,1,.84509.75166,6.81618,6.81618,0,0,1,.78792,1.99,14.69829,14.69829,0,0,1,.433,3.94238,12.09142,12.09142,0,0,1-.96084,3.95075,32.197,32.197,0,0,0-1.36736,3.2995,14.53676,14.53676,0,0,0,1.20629-.99013,5.81827,5.81827,0,0,1-.52924,1.458c-.38419.78234-.7907,1.55283-1.16305,2.34075a13.80857,13.80857,0,0,0,1.322-.92458,5.90993,5.90993,0,0,1-.54945,1.26c-.62057,1.07729-1.30181,2.11971-1.868,3.22768a8.95248,8.95248,0,0,0-.74748,1.75364,10.973,10.973,0,0,1,.82278.75794q6.881,6.51706,13.76209,13.03552c2.34772-2.24383,4.71635-4.466,7.08081-6.69313,2.54295-2.38746,5.05872-4.80491,7.63235-7.1596A14.428,14.428,0,0,0,45.27,46.48831,18.83112,18.83112,0,0,1,43.508,43.209a8.26866,8.26866,0,0,0,1.336.88344c-.29425-.578-.56549-1.16793-.866-1.74248a8.43516,8.43516,0,0,1-.83534-2.00955,10.53932,10.53932,0,0,0,1.20071.90646,11.92429,11.92429,0,0,0-.70355-1.7655,16.63215,16.63215,0,0,1-1.39594-3.79456,12.95663,12.95663,0,0,1,.14922-5.43525,7.18631,7.18631,0,0,1,.73841-2.04092,2.221,2.221,0,0,1,.783-.82c.31377-.17641.65683.0516.98664.03208a4.77056,4.77056,0,0,0,1.56468-.334A6.25064,6.25064,0,0,0,48.688,25.18661c.8695-1.0989,1.61628-2.28775,2.43767-3.42152a20.26372,20.26372,0,0,0,2.08624-3.2737,6.53349,6.53349,0,0,0,.70215-3.24232A7.09394,7.09394,0,0,0,51.18845,15.75808ZM28.94543,38.4355a7.36247,7.36247,0,0,1,.68333-1.15468c-.34236,1.47543-.63313,2.96411-.83255,4.466a21.61352,21.61352,0,0,0,3.01153-7.10173c.08437-.396.11993-.79907.18687-1.19721a19.92712,19.92712,0,0,0,2.513,7.1345c.23568.39465.45183.80256.705,1.18815a44.55267,44.55267,0,0,0-.89042-4.50369,10.91613,10.91613,0,0,1,1.3025,2.612,8.27779,8.27779,0,0,1,.37235,4.14459,4.40649,4.40649,0,0,1-.88414,2.16852,2.57407,2.57407,0,0,1-1.78991.75375c-.364.00558-.82418-.04253-1.00407-.41139a1.12074,1.12074,0,0,1,.23917-1.08077c.45113-.59408,1.22441-.797,1.71808-1.34574a.92433.92433,0,0,0,.32-.97269c-.046-.1032-.14224-.33958-.27821-.19873a3.60165,3.60165,0,0,1-1.68042.76491A3.69938,3.69938,0,0,1,30.197,43.292c-.228-.10668-.4086-.29146-.63591-.39535a.69663.69663,0,0,0-.083.90088c.51807.82626,1.61767,1.01732,2.11832,1.85753a.81635.81635,0,0,1-.14574,1.12958,1.93953,1.93953,0,0,1-1.40709.07949A2.27217,2.27217,0,0,1,28.49081,45.607a7.40471,7.40471,0,0,1-.54806-3.97376A10.14227,10.14227,0,0,1,28.94543,38.4355Zm12.302-6.67848c-.52505,1.26-1.0745,2.51088-1.511,3.805a26.26776,26.26776,0,0,0-1.07311,3.74854,39.80522,39.80522,0,0,1-1.21953,4.68359A13.454,13.454,0,0,1,35.89027,47.461a6.08344,6.08344,0,0,1-1.95585,1.95027,3.14454,3.14454,0,0,1-1.442.40721,4.47689,4.47689,0,0,1-2.179-.30192A5.89724,5.89724,0,0,1,28.2377,47.6179a12.95813,12.95813,0,0,1-1.68113-3.63,36.088,36.088,0,0,1-1.18466-4.60061,13.25142,13.25142,0,0,0-.31656-1.42662C24.637,36.58634,24.18584,35.22038,23.642,33.89c-.28867-.74469-.64149-1.46149-.935-2.20408a10.73388,10.73388,0,0,1-.63592-2.47254,3.65151,3.65151,0,0,0,1.73621.71331,5.79375,5.79375,0,0,1,2.35191.59129A4.92186,4.92186,0,0,1,27.917,33.54483a9.59446,9.59446,0,0,1-.44556,4.24569,11.701,11.701,0,0,0-.57664,2.22989,12.9289,12.9289,0,0,0,.77955,5.30764,3.52124,3.52124,0,0,0,1.82547,2.05138,5.6181,5.6181,0,0,0,2.43487.28728,9.57568,9.57568,0,0,0,1.9433-.099,3.279,3.279,0,0,0,2.27241-1.85753,11.982,11.982,0,0,0,.972-4.30218,6.41232,6.41232,0,0,0-.22312-2.38258,12.78541,12.78541,0,0,1-.91-4.86906,5.01338,5.01338,0,0,1,1.04661-2.84767,2.96492,2.96492,0,0,1,1.27044-1.01941,19.11862,19.11862,0,0,1,2.24173-.42952,3.46647,3.46647,0,0,0,1.359-.64707A10.77846,10.77846,0,0,1,41.24743,31.757Z"/><path d="M27.159,17.875a6.21,6.21,0,0,0-3.69973-.11784,4.45141,4.45141,0,0,0-1.8422,1.14074c.15967.54875.37025,1.08077.555,1.62186a4.69337,4.69337,0,0,1,2.12459-1.025,6.07552,6.07552,0,0,1,3.82733.40441,2.98373,2.98373,0,0,1,1.49914,1.571,3.9141,3.9141,0,0,0-.8695-2.6085A4.0617,4.0617,0,0,0,27.159,17.875Z"/><path d="M38.7742,17.52218a5.24271,5.24271,0,0,0-3.18585,1.04312,4.12654,4.12654,0,0,0-1.19791,2.9167,2.87214,2.87214,0,0,1,1.12121-1.38479,5.18573,5.18573,0,0,1,2.566-.7398,5.3842,5.3842,0,0,1,3.72344,1.19024c.17362-.54248.35073-1.08356.54109-1.61977A4.50912,4.50912,0,0,0,38.7742,17.52218Z"/><path d="M26.79783,32.52123a.82439.82439,0,0,0-.79628-.53132,3.86207,3.86207,0,0,1-1.66928-.33191,3.95447,3.95447,0,0,1-.81581-.654,5.43122,5.43122,0,0,0,2.02,2.44325,2.21156,2.21156,0,0,0,1.16515.49785A1.78726,1.78726,0,0,0,26.79783,32.52123Z"/><path d="M37.51143,32.13843a1.24761,1.24761,0,0,0-.37722,1.24882c.04114.19732.04881.46019.23707.57873a5.18586,5.18586,0,0,0,3.08335-2.94947,2.8692,2.8692,0,0,1-1.39455.84928C38.55525,32.02686,37.98419,31.87137,37.51143,32.13843Z"/><text x="0" y="79" fill="#000000" font-size="5px" font-weight="bold" font-family="'Helvetica Neue', Helvetica, Arial-Unicode, Arial, Sans-serif">Created by Delwar Hossain</text><text x="0" y="84" fill="#000000" font-size="5px" font-weight="bold" font-family="'Helvetica Neue', Helvetica, Arial-Unicode, Arial, Sans-serif">from the Noun Project</text></svg>