<svg xmlns="http://www.w3.org/2000/svg" xmlns:xlink="http://www.w3.org/1999/xlink" version="1.1" x="0px" y="0px" viewBox="0 0 295 368.75" enable-background="new 0 0 295 295" xml:space="preserve"><g><path d="M67.89308,36.85938c-0.22157,0.15989-0.32394,0.22038-0.50138,0.37469c-1.22538,1.03624-1.82616,2.53455-2.197,4.06552   c-1.07928,4.56597-1.11758,9.62607,1.12196,13.79675c2.22802,4.2256,5.48615,5.85809,10.00605,7.29919   c0.62968,1.11677,0.95499,2.04551,1.28587,3.2552c0.16055,0.71394,0.33003,1.45409,0.4023,2.23764   c0.50222,4.5395-0.81595,8.21745-2.77474,12.36636c-1.04374,2.19985-1.9828,3.91669-2.51362,4.7308l-0.14751,0.2264   c0.08373-0.03609,0.29865-0.12875,0.33506-0.14412c12.41545,4.08865,6.98012,21.08545,26.20815,29.07671   c2.70092,8.29101-3.42338,17.94382-9.55579,24.28804c-0.08997,0.12146-0.19212,0.11186,0.10468,0.10469   c17.17085,8.35194,12.85468,29.74966,40.53935,37.93144c-0.56688,0.59744-1.31319,0.45831-1.8338,0.52335   c-0.07684,0.01031-0.51043,0.06854-0.43359,0.05823c-1.85101,0.26184-3.53345,1.85739-3.74026,4.24182   c-4.65042-10.35442-14.9318-13.26588-25.5329-15.7984c0,0,0.10598,0.03508,0.29539,0.10579   c-0.5419,4.27292-1.04632,7.59781,0.36318,12.22476c0.71147,2.37434,1.98766,4.89862,3.91645,7.1171   c1.9098,2.23004,4.30161,3.89246,6.64686,4.9044c3.5581,1.54524,8.05838,2.25735,10.01816,5.60133   c-1.9377,2.93533-2.72426,4.63522-3.00811,9.82039c-1.0303,19.17574-1.69776,17.27296,17.29491,32.14311   c-0.14174,1.34108-0.26968,2.71432-0.32799,4.15648c-0.41696,12.29048,7.16159,17.55283,13.62692,16.42465   c6.32724,1.1011,14.04251-4.03824,13.62096-16.42465c-0.05849-1.44125-0.18643-2.81342-0.32808-4.15358   c14.95232-11.71648,17.61685-13.2906,17.61089-21.15146c-0.03883-15.0649-0.63458-16.74915-3.32036-20.81512   c3.59207-6.13351,16.29219-3.30927,20.58118-17.62265c1.42657-4.68298,0.86911-8.2762,0.36328-12.22476   c0.18951-0.07071,0.2953-0.10579,0.2953-0.10579c-8.84093,2.4969-20.38014,4.3261-25.53271,15.79858   c-0.21234-2.46124-2.00128-3.99599-3.74043-4.242c-1.21118-0.10268-1.77785-0.06583-2.26721-0.58157   c27.71051-8.18848,23.31659-29.57042,40.53935-37.93144c0.69916,0.01404-13.30183-12.57246-9.4512-24.39273   c13.58679-5.64674,15.33707-16.48617,18.52881-22.3032c1.63026-2.91238,4.44957-5.7111,7.67943-6.77351   c0.29494,0.12482,0.13669,0.05865,0.33487,0.14412c-0.53452-1.36809-9.15169-13.22818-3.74771-22.81622   c1.84351-0.58789,3.81131-1.27036,5.5994-2.42969c8.38289-5.44631,7.3199-19.86675,2.83025-23.10664   c0.18446,0.14303,0.14461,0.11312,0.21326,0.1689c-0.03856-0.02713-0.16707-0.11773-0.18979-0.13418   c0.93571,0.75453,1.13556,2.06154,0.90033,3.16641c-0.63788,2.83734-4.3192,3.36314-6.92027,3.84815   c-10.86829,1.96584-18.53224,11.01272-15.77475,21.97805c-3.94398,4.93299-4.5457,10.75674-2.58533,15.64542   c-8.07834,0.69169-12.23817,2.72918-17.10251,6.66357c-10.22374,9.41714-9.1198,22.23093-8.60434,33.73445   c-2.34576,4.33447-1.6637,8.84397-1.39882,13.36564c-14.57687,2.858-27.31102,13.46071-27.64897,29.57021   c0.13568,2.61354,0.05109,1.83969-0.07188,2.88884c-0.3813,3.11615,1.02144,4.16949,1.50526,6.13823   c0.50978,1.90361,0.33444,4.58203,1.4628,6.87949c1.12622,2.33926,3.44885,3.54193,5.89218,3.44235   c1.43497-0.02512,2.49442-0.59378,3.51823-1.16837c-1.17586,0.49472-2.36761,0.42058-3.38078,0.08282   c-2.81122-0.91577-3.51067-2.82288-3.99393-5.41472c-1.144-6.16164-2.31458-5.60304-3.82965-7.72   c-1.27518-1.8156-1.02591-2.79793-0.79231-5.10567c0.05547-0.32146,0.58034-2.76439,0.77032-3.23224   c6.43887-17.86955,25.61823-24.33815,45.04399-24.62981c6.91997-0.12352,8.35532,1.04277,10.10997,1.22334   c0.72083,0.39651,0.29292,0.12186-0.86606,0.25154c2.04131,0.03539,1.48911,0.02527,1.95599,0.03508   c-24.47734,9.99039-16.17232,28.31152-50.64561,40.20688c2.22357-0.4819,5.81635-1.009,10.04292-2.25212   c0.20409,0.89888,0.38478,1.30855,1.0918,1.98466l0.16614,0.16637c2.27191,2.78447,3.55559,3.19476,4.17831,4.20927   c-0.42715,1.11177-2.01157,6.00266-2.03496,6.07767c0.04381-0.07408,2.92761-6.32753,7.63248-10.85657   c-3.84915,6.15547-0.89146,9.66211-2.55077,14.24323c-0.72353-1.52711-0.75172-2.38632-0.67357-3.4438   c-0.1696,1.30855-0.16159,2.26837,0.44168,4.01289c-0.06387,0.1329-0.10831,0.21066-0.10831,0.21066   c0.02887-0.04358,0.07013-0.10614,0.11845-0.17938c0.37787,1.08562,0.89568,2.14891,1.40013,3.26532   c-9.07245-1.23782-9.66763,12.90823-21.05537,14.29822c2.91676-0.05632,5.70921,0.1469,9.35995-2.12952   c-2.05771,4.07578-3.48854,8.18777-4.0228,14.63222c-1.05824,12.23836,1.96378,20.43846-1.75967,27.29892   c-7.59511-3.87624-12.44444-3.37817-18.79404-0.03146c-4.94641-9.17606,2.57182-25.36005-5.76999-41.89949   c3.68039,2.29491,6.77711,2.07918,9.35939,2.12933c-0.64838-0.07961-1.17128-0.15694-2.31619-0.57072   c-10.1913-3.79727-10.19513-14.8932-18.73909-13.72749c0.50352-1.11385,1.02263-2.17995,1.40041-3.26532   c0.04842,0.07324,0.08978,0.1358,0.11845,0.17938c0,0-0.04442-0.07776-0.10831-0.21085   c0.59-1.70569,0.61484-2.67397,0.44132-4.01271c0.08389,1.06847,0.07108,1.87239-0.6731,3.4438   c-1.69323-4.67477,1.3322-8.03398-2.55059-14.24269c3.54838,3.41576,5.52396,6.95009,7.63221,10.85603   c-0.02371-0.075-1.62589-5.01204-2.03515-6.07748c0.52335-0.86124,1.96287-1.54602,4.05408-4.06117l0.12442-0.14828   c0.2403-0.3022,0.91882-0.63171,1.25774-2.1512c4.05246,1.19661,7.69707,1.74609,10.04312,2.25229   c-0.08354-0.02882-1.5455-0.33371-5.39676-1.94307c-29.0881-13.06595-22.23502-28.87067-45.24905-38.26381   c0.47413-0.00996-0.0993,0.00055,1.95618-0.03508c0,0-0.49915,0.00253-1.01506-0.02623   c-0.29707-0.01813-0.23277-0.00429-0.14937-0.05931l0.1151-0.06493c0.05643-0.0311,0.12292-0.06781,0.18318-0.10107   c1.54553-0.15942,3.28897-1.34512,10.1097-1.22334c28.72356,0.43121,43.49303,14.40729,45.81467,27.86205   c0.05,0.49339,0.25168,2.4407,0.17583,2.86169c-0.42775,2.63789-2.29803,3.13402-3.44859,5.30278   c-2.08356,3.83012-0.43723,8.47656-5.34311,10.07591c-1.13702,0.37889-2.28207,0.37961-3.38116-0.08282   c0.05289,0.02948,0.11249,0.06293,0.21492,0.12044c0.13634,0.08897,0.34158,0.21211,0.62468,0.35353   c0.28273,0.13797,0.64145,0.30127,1.08919,0.43274c2.29388,0.59491,4.28366,0.11801,5.77931-1.04449   c2.97276-2.28662,2.51863-6.60161,3.16512-9.01569c0.33127-1.34796,1.02835-2.16589,1.35739-3.46008   c0.55359-2.18015-0.11444-1.87384,0.07599-5.56699c-0.31479-15.60603-12.69594-26.63628-27.64851-29.57021   c0.26029-4.51062,0.95447-9.01591-1.39901-13.36546c0.48139-10.74778,1.93423-24.02725-8.60461-33.73463   c-4.62058-3.73854-8.70765-5.94357-17.10214-6.66357c1.96158-4.89169,1.35701-10.71373-2.5856-15.64542   c2.75452-10.9535-4.88358-20.00756-15.77447-21.97805c-2.03558-0.37957-4.23782-0.65352-5.76851-1.98104   c-1.77289-1.5678-1.47441-4.03066-0.25181-5.03352c-0.02272,0.01645-0.15142,0.10741-0.19035,0.13472   c0.03055-0.02477,0.06425-0.05334,0.08865-0.07197C67.83274,36.90621,67.86626,36.88017,67.89308,36.85938z M148.05267,166.86423   c0.00484,0.21609,0.00763,0.39168,0.00893,0.52695C148.03423,167.10365,148.04559,166.9286,148.05267,166.86423z    M222.08801,47.14035c3.11633-1.23991,6.53024-2.98718,6.79921-6.25759c0.38309,5.53599-1.58331,12.83905-6.80779,15.70781   c-4.12811,2.28589-11.00591,2.28028-16.60197,9.09578C205.44775,59.62038,210.37234,51.74692,222.08801,47.14035z    M208.31377,67.61369c2.40903-2.10386,5.11394-3.45251,7.86911-4.41344c-1.96422,1.99776-3.1179,4.48935-3.40509,6.83174   c-0.76186,6.04221,2.83453,10.08768,7.64552,13.734c0.63232,0.47578,1.1418,0.85806,1.51477,1.15969   c-1.78751-0.25364-8.32231-4.28143-18.9447-3.41307C202.21625,77.94516,203.608,71.69681,208.31377,67.61369z M206.10522,83.89058   c6.1656-1.0223,13.31746,0.06213,15.96397,1.17669c-9.36725,2.7654-10.98657,9.37314-15.50618,15.43294   c-9.89336,13.21281-23.24541,10.27978-29.42308,21.22343C178.93945,95.39278,189.78192,86.6468,206.10522,83.89058z    M194.22626,135.3873c-6.06172-0.95517-12.62578-1.26227-18.59866-0.09204c-0.2291-12.60155,5.53397-15.9592,17.76352-20.20824   c-3.77846,6.59963-1.79564,15.86873,8.53802,21.91803c1.09312,0.63626,1.73685,0.94383,2.18536,1.19205   C201.48798,137.3239,199.94868,136.27637,194.22626,135.3873z M173.25534,192.46782   c4.11145-6.22789,0.21179-8.52049,9.95427-20.05614c2.89821-1.81039,9.63809-5.62535,12.80948-6.81203   c0.43156,4.38657-1.7168,12.04974-6.48669,17.53911c-5.63206,6.5396-11.85689,6.36142-14.48273,12.26979   C174.32855,194.31752,173.77011,193.51276,173.25534,192.46782z M168.2946,201.75981   c0.3623,0.15407,0.78342,0.38699,1.13481,0.40869c1.63467,0.18976,2.44771-1.01041,1.94966-2.50745   c-0.03133-0.11258-0.05316-0.12151-0.29465-0.60272c-0.06818-0.12659-0.06519-0.18391-0.06519-0.18391   c-0.07726,0.03665-0.06775,0.28398-1.16518,0.54558c1.99472-2.57683,2.83044-2.78978,4.59923-3.02771   c2.30066,5.14838,1.02214,6.0228,1.05789,19.87442c0.026,3.55251-0.19919,5.00211-2.20863,7.52216   c-0.73903-0.43463-1.2892-1.29468-1.59419-2.09007c-0.35301-0.86349-2.06851-9.93324-6.13245-12.85786   c-0.90945-0.65793-1.53273-0.80704-2.16029-0.98953c0.69525-0.50064,1.1156-0.83142,1.76358-1.51033   c1.26741,0.46306,2.43855,0.71457,3.80284,0.42894c2.33421-0.56329,4.71069-2.58289,5.13377-5.02864   c0.26538-1.6886-0.11983-3.09802-0.43993-5.21489c-0.95631,3.56294-1.93565,5.75142-5.51669,8.13356   c-0.66997,0.43674-1.46895,0.69305-2.25827,0.86674c0.1584-0.19548,0.31262-0.39513,0.46172-0.59839   C167.08046,203.92746,167.56122,203.01813,168.2946,201.75981z M162.75815,208.293   c0.16382-0.10381,0.32771-0.20036,0.49002-0.31357c2.8232,1.65025,1.71219,5.19798,5.49026,11.59311   c1.18732,2.04385,2.31584,3.44769,4.54521,4.24074c-0.73889,0.92381-2.62744,3.01964-3.74043,4.26082   c-0.92169-0.98274-1.64644-2.55453-2.62854-4.07094c-1.34785-2.15495-2.15419-2.69633-3.58791-4.9583   c0.20753,0.79555-1.22771,8.11894,5.81079,9.48169c-1.29642,1.44221-2.64124,2.92191-3.96655,4.33876   c-0.67349-2.29974,0.38284-1.59419-1.84349-4.28885c-0.14766-0.18283-0.34241-0.32639-0.54608-0.63817   c-0.11287-0.15497-0.13261-0.24594-0.13261-0.24594c-0.21944,0.70364-0.7471,1.53807-0.82359,2.23204   c-0.23177,1.38103,0.53427,2.85619,2.48866,3.31396c0.16028,0.04088,0.31998,0.04486,0.45706,0.05336   c-1.17699,1.24977-2.74968,2.87819-3.9942,4.04489c-0.3821-3.59114-1.08902-8.9509-1.0267-14.30237   C159.79996,216.40117,160.99295,212.24446,162.75815,208.293z M156.5759,250.77785   c-2.19055,3.60226-5.66992,4.92584-8.46121,4.48106l-0.03688-0.23544c-0.07681,0.00002-1.2513,0.0002-1.17448,0.00018   l-0.03668,0.23491c-2.77757,0.44144-6.27512-0.86646-8.47508-4.50766C142.23801,250.1891,153.55771,250.39476,156.5759,250.77785z    M134.20067,237.33336c-1.24944-1.17165-2.81857-2.79704-3.99086-4.04164c2.12674-0.13161,3.66458-1.86609,2.55199-4.56372   c-0.08882-0.22795-0.23288-0.39966-0.3602-0.76602c-0.0719-0.17685-0.06966-0.26962-0.06966-0.26962   c-0.58629,0.96611-0.93289,1.04874-1.44232,1.75627c-1.04852,1.30913-0.60754,1.80925-1.07977,3.41669   c-1.3279-1.41962-2.67918-2.9066-3.96646-4.33876c7.03976-1.36299,5.60443-8.69905,5.81061-9.48169   c-0.04858,0.07666-0.05518,0.30684-1.0687,1.55916c-3.79667,4.76167-3.75002,5.97864-5.14747,7.47026   c-0.91814-1.02402-2.98437-3.31583-3.74035-4.261c5.80899-2.06424,7.41467-12.29066,8.54065-14.24377   c0.3485-0.63026,0.83971-1.20724,1.49464-1.59007c0.16222,0.1132,0.32603,0.20958,0.48984,0.31357   C136.43558,217.72383,135.35725,226.46417,134.20067,237.33336z M125.1267,199.42   c-1.12326-0.26936-1.08887-0.50937-1.16518-0.54558c0,0,0.00335,0.05733-0.06519,0.18391   c-0.24026,0.47876-0.26293,0.48985-0.29465,0.60272c-0.56254,1.69087,0.48657,3.19553,3.08466,2.09875   c0.86086,1.47704,1.42771,2.57509,2.39367,3.76715c-0.79237-0.17873-1.57537-0.42189-2.25808-0.86693   c-3.47197-2.30823-4.53343-4.46887-5.51707-8.13356c-0.17191,2.13292-1.7085,5.52185,1.44157,8.46214   c2.28045,2.08192,4.47044,2.29724,7.05531,1.35245c0.65646,0.68779,1.08038,1.01854,1.7636,1.51033   c-0.31892,0.32861-3.13933-0.27011-6.24084,7.16539c-1.86994,4.48759-1.48545,7.50037-3.6461,8.77208   c-3.12506-3.91858-1.78239-4.3933-2.46361-18.51091c-0.17861-3.78577-0.15968-5.59518,1.31287-8.88567   C122.28206,196.62825,123.1274,196.83604,125.1267,199.42z M121.7256,192.468c-0.5148,1.04567-1.06534,1.83743-1.79423,2.94073   c-3.20594-7.21451-12.47924-5.63692-18.43373-18.36336c-2.07148-4.41884-2.7622-9.08624-2.53596-11.44572   c3.08585,1.15146,9.70166,4.87047,12.80928,6.81184C121.60405,184.03671,117.54601,186.13689,121.7256,192.468z    M146.92828,166.86531c0.00708,0.06564,0.01807,0.23996-0.00894,0.52515   C146.92064,167.25555,146.92343,167.08069,146.92828,166.86531z M119.35354,135.29544   c-7.02068-1.37608-18.72874-0.87482-26.44496,2.13837c-0.8858,0.34665-1.54288,0.66312-2.03049,0.76131   c-0.00429,0.0009-0.00708,0.00108-0.01136,0.00198c0.52641-0.29181,1.0874-0.55334,2.18526-1.19205   c6.76238-3.96068,9.73486-8.98106,10.2113-13.76855c0.30542-2.98445-0.36669-5.86804-1.67345-8.14948   C113.76099,119.31577,119.59107,122.50782,119.35354,135.29544z M117.841,121.72364   c-6.19114-10.96751-19.49423-7.965-29.42326-21.22343c-4.53157-6.07584-6.16068-12.68176-15.50617-15.43294   c2.64561-1.11418,9.73202-2.2102,15.96397-1.17669C105.19926,86.64688,116.04301,95.42712,117.841,121.72364z M91.98757,81.5126   c-10.65221-0.8708-17.17807,3.16238-18.94479,3.41307c2.25121-1.82064,12.52591-8.05057,8.31724-17.93587   c-0.46992-1.14917-1.34679-2.55424-2.56214-3.78975c1.24871,0.43563,2.39693,0.90327,3.50903,1.4814   C90.15629,68.75243,93.26259,75.6596,91.98757,81.5126z M72.89275,47.14035c8.37973,3.29385,16.65208,10.12274,16.61082,18.54618   c-7.26448-8.821-15.37114-5.67068-20.19499-12.32766c-2.5104-3.42063-3.47591-8.72575-3.21485-12.4772   C66.36142,44.15936,69.80299,45.911,72.89275,47.14035z"/><path d="M143.32697,242.35802c0.0817,0.03094,2.1945,0.83098,2.06067,0.7803c-0.07982-1.35516,0.32851-2.69061-0.57143-4.15485   c-1.67975-2.78813-5.14719-2.49609-6.33359-2.69878c-0.01508-0.0114-0.03593-0.02605-0.05057-0.03725   c-0.00436-0.00688-0.01237-0.00832-0.01648-0.01538l-0.03818,0.03273c-0.0407-0.0085-0.06836-0.01482-0.06836-0.01482   s0.02403,0.00867,0.0596,0.02242l-0.16167,0.13889C138.95998,237.90143,140.01421,241.12709,143.32697,242.35802z    M138.6158,236.38289"/><path d="M99.2403,166.73384c-0.23206-0.57253-0.24771-0.92207-0.24771-0.92207c0.35832,8.25027,5.39474,2.34415,13.98619,19.09682   C109.91984,168.75481,101.76428,172.86427,99.2403,166.73384z"/><path d="M126.62638,192.45807c2.51574,0.92159,4.22857,3.32584,5.6601,5.58035c4.64682,7.29506,6.61429,10.01891,15.14662,10.38478   c-0.04851,0.00615-0.07497,0.0085-0.07497,0.0085c0.15985-0.00717,0.10211-0.00732,0.26448,0c0,0-0.02626-0.00235-0.07487-0.0085   c15.05844-0.64775,13.12263-13.15012,20.80701-15.96513c-8.22668,2.05595-9.55655,7.74501-14.01152,12.11119   c-1.78024,1.73418-4.50407,3.51352-6.85284,3.84508C138.35416,207.12389,137.52199,195.19722,126.62638,192.45807z"/><path d="M140.96161,193.49425c-0.64127-0.51643-1.35675-1.07884-2.10611-1.42914c-1.4501-0.69131-2.55737-0.30972-2.17018-0.21573   c0.02794,0.0065,0.03502-0.01086,0.03502-0.01086s-0.00894,0.01718-0.03391,0.0076   c-0.02011-0.00687-0.05066-0.05533-0.01266-0.07848c0.07153-0.03925,0.23096,0.0302,0.39671,0.09439   c0.34531,0.14232,0.73866,0.49495,1.05157,1.02623c0.6676,1.07935,1.44971,3.75401,4.68118,6.4151   c1.77452,1.46523,2.85915,1.77434,4.39995,2.00871c0,0-0.20972-0.05154-0.51517-0.27397   C144.98299,199.79803,144.96573,196.7865,140.96161,193.49425z"/><path d="M156.60336,236.2648l-0.03818-0.03273c-0.00391,0.00706-0.01201,0.0085-0.0163,0.01538   c-0.01462,0.01103-0.03548,0.02585-0.05057,0.03725c-0.40671,0.06937-1.37134,0.10265-2.2877,0.23544   c-5.85495,0.90794-4.43376,5.93005-4.61748,6.61818c4.79828-1.81688,4.84445-2.10381,7.18065-6.72704l-0.16158-0.13889   c0.03566-0.01375,0.05951-0.02242,0.05951-0.02242S156.64415,236.2563,156.60336,236.2648z"/><path d="M188.60414,175.041c3.91673-4.10533,7.16982-3.47487,7.38403-9.22923c0,0-0.01566,0.34955-0.24734,0.92207   c-1.00336,2.43314-3.2245,2.97841-4.82013,3.53206c-8.41176,2.87033-8.31232,13.1609-8.91873,14.64268   C182.04567,184.8345,184.71918,179.17679,188.60414,175.041z"/><path d="M158.26042,191.83852c0,0,0.00708,0.01736,0.03539,0.01086c0.019-0.00471,0.07301-0.04594,0.0313-0.10127   c-0.09798-0.07866-0.25479-0.06166-0.45407-0.08246c-2.33792-0.16861-5.91254,3.31656-7.50323,6.22052   c-0.66855,1.25067-1.17426,2.49559-2.07669,3.15193c-0.30582,0.22243-0.51553,0.27397-0.51553,0.27397   c1.71458-0.31253,3.72852-0.74893,6.44273-4.03622c2.30299-2.7719,2.30894-4.84464,3.68997-5.41382   c0.16576-0.06419,0.32518-0.13364,0.39671-0.09439c0.03836,0.02315,0.00745,0.07161-0.01266,0.07848   C158.26936,191.8557,158.26042,191.83852,158.26042,191.83852z"/></g><text x="0" y="310" fill="#000000" font-size="5px" font-weight="bold" font-family="'Helvetica Neue', Helvetica, Arial-Unicode, Arial, Sans-serif">Created by Vectors Point</text><text x="0" y="315" fill="#000000" font-size="5px" font-weight="bold" font-family="'Helvetica Neue', Helvetica, Arial-Unicode, Arial, Sans-serif">from the Noun Project</text></svg>