<svg xmlns="http://www.w3.org/2000/svg" xmlns:xlink="http://www.w3.org/1999/xlink" version="1.1" x="0px" y="0px" viewBox="0 0 72 90" style="enable-background:new 0 0 72 72;" xml:space="preserve"><g><g><path d="M10.8054199,26.6728916h2.6811523c0.3188477,0,0.5771484-0.2585449,0.5771484-0.5773926v-2.607666    c0-0.3188477-0.2583008-0.5773926-0.5771484-0.5773926h-2.6811523c-0.3188477,0-0.5771484,0.2585449-0.5771484,0.5773926v2.607666    C10.2282715,26.4143467,10.4865723,26.6728916,10.8054199,26.6728916z"/><path d="M42.4414063,37.4692802h-2.6716309c-0.2504883,0-0.4589844,0.1977539-0.4589844,0.4484863v2.6716309    c0,0.2607422,0.2084961,0.4589844,0.4589844,0.4589844h2.6716309c0.2504883,0,0.4592285-0.1982422,0.4592285-0.4589844v-2.6716309    C42.9006348,37.6670341,42.6918945,37.4692802,42.4414063,37.4692802z"/><path d="M37.333252,37.4692802h-2.6716309c-0.2507324,0-0.4592285,0.1977539-0.4592285,0.4484863v2.6716309    c0,0.2607422,0.2084961,0.4589844,0.4592285,0.4589844h2.6716309c0.2502441,0,0.4589844-0.1982422,0.4589844-0.4589844v-2.6716309    C37.7922363,37.6670341,37.5834961,37.4692802,37.333252,37.4692802z"/><path d="M32.2197266,37.4692802h-2.6716309c-0.2504883,0-0.4487305,0.1977539-0.4487305,0.4484863v2.6716309    c0,0.2607422,0.1982422,0.4589844,0.4487305,0.4589844h2.6716309c0.2607422,0,0.4589844-0.1982422,0.4589844-0.4589844v-2.6716309    C32.6787109,37.6670341,32.4804688,37.4692802,32.2197266,37.4692802z"/><path d="M23.7460938,47.355999h-2.4299316c-0.2424316,0-0.4387207,0.1962891-0.4387207,0.4387207v2.4299316    c0,0.2424316,0.1962891,0.4387207,0.4387207,0.4387207h2.4299316c0.2424316,0,0.4387207-0.1962891,0.4387207-0.4387207v-2.4299316    C24.1848145,47.5522881,23.9885254,47.355999,23.7460938,47.355999z"/><path d="M23.7460938,52.5876884h-2.4299316c-0.2424316,0-0.4387207,0.1965332-0.4387207,0.4389648v2.4296875    c0,0.2424316,0.1962891,0.4389648,0.4387207,0.4389648h2.4299316c0.2424316,0,0.4387207-0.1965332,0.4387207-0.4389648v-2.4296875    C24.1848145,52.7842216,23.9885254,52.5876884,23.7460938,52.5876884z"/><path d="M23.7460938,57.819622h-2.4299316c-0.2424316,0-0.4387207,0.1962891-0.4387207,0.4387207v2.4299316    c0,0.2424316,0.1962891,0.4387207,0.4387207,0.4387207h2.4299316c0.2424316,0,0.4387207-0.1962891,0.4387207-0.4387207v-2.4299316    C24.1848145,58.0159111,23.9885254,57.819622,23.7460938,57.819622z"/><path d="M48.0871582,50.663372h2.4299316c0.2424316,0,0.4389648-0.1962891,0.4389648-0.4387207v-2.4299316    c0-0.2424316-0.1965332-0.4387207-0.4389648-0.4387207h-2.4299316c-0.2421875,0-0.4387207,0.1962891-0.4387207,0.4387207    v2.4299316C47.6484375,50.467083,47.8449707,50.663372,48.0871582,50.663372z"/><path d="M48.0871582,55.8953056h2.4299316c0.2424316,0,0.4389648-0.1965332,0.4389648-0.4389648v-2.4296875    c0-0.2424316-0.1965332-0.4389648-0.4389648-0.4389648h-2.4299316c-0.2421875,0-0.4387207,0.1965332-0.4387207,0.4389648    v2.4296875C47.6484375,55.6987724,47.8449707,55.8953056,48.0871582,55.8953056z"/><path d="M48.0871582,61.1269951h2.4299316c0.2424316,0,0.4389648-0.1962891,0.4389648-0.4387207v-2.4299316    c0-0.2424316-0.1965332-0.4387207-0.4389648-0.4387207h-2.4299316c-0.2421875,0-0.4387207,0.1962891-0.4387207,0.4387207    v2.4299316C47.6484375,60.930706,47.8449707,61.1269951,48.0871582,61.1269951z"/><path d="M14.0808105,35.9465752c-0.5522461,0-1,0.4477539-1,1v14.5717773c0,0.5522461,0.4477539,1,1,1s1-0.4477539,1-1V36.9465752    C15.0808105,36.3943291,14.6330566,35.9465752,14.0808105,35.9465752z"/><path d="M10.2111816,35.9465752c-0.5522461,0-1,0.4477539-1,1v14.5717773c0,0.5522461,0.4477539,1,1,1s1-0.4477539,1-1V36.9465752    C11.2111816,36.3943291,10.7634277,35.9465752,10.2111816,35.9465752z"/><path d="M67.7263184,21.5857334c0.5522461-0.003418,0.9970703-0.4541016,0.9936523-1.0063477    s-0.4536133-1.0019531-1.0063477-0.9936523l-0.4956055,0.0031738c-0.0002441-0.001709,0-0.0036621-0.0004883-0.0053711    c-0.4399414-2.5900879-2.1899414-4.6999502-4.5400391-5.6499014c-0.0400391-1.1877441-0.8168945-2.1955566-1.8837891-2.5773926    l-0.0136719-2.0874023c-0.003418-0.550293-0.4506836-0.9936523-1-0.9936523c-0.0019531,0-0.0043945,0-0.0063477,0    c-0.5522461,0.003418-0.9970703,0.4541016-0.9936523,1.0063477l0.0136719,2.0803223    c-0.0019531,0.0007324-0.0041504,0.0009766-0.0061035,0.001709c-1.0132942,0.373559-1.8262863,1.3765154-1.8601074,2.6101074    c-2.3198242,0.9899902-4.0400391,3.1198721-4.4499512,5.70996c0,0.0004883,0,0.0009766-0.0002441,0.0014648l-0.4956055,0.0031738    c-0.5522461,0.003418-0.9970703,0.4541016-0.9936523,1.0063477c0.003418,0.550293,0.4506836,0.9936523,1,0.9936523    c0.0019531,0,0.0043945,0,0.0063477,0c0.2090073-0.0012836,2.5317802-0.0155602,2.3833008-0.0146484v7.1599121    l-1.2299805,1.0300293c-0.2302246,0.1899414-0.3601074,0.4699707-0.3601074,0.7700195c0,2.4885387,0,9.3336201,0,12.5700703    h-6.630127c-0.0003433-1.8762932,0.0011292,6.1712608-0.003418-18.6950703c0-0.5522461-0.4477539-1-1-1s-1,0.4477539-1,1v1    H27.8459473v-1c0-0.5522461-0.4477539-1-1-1s-1,0.4477539-1,1c0.0001507,1.9158115-0.0005436-6.9319992,0.0014648,18.6950703    h-6.6298828c0-4.2682533,0-8.8858185,0-12.5700703c0-0.3000488-0.1298828-0.5800781-0.3598633-0.7700195l-1.25-1.0500488    v-7.2099609c0.1006908-0.0007439,2.5675812-0.0189819,2.4106445-0.0178223    c0.5522461-0.003418,0.9970703-0.4541016,0.9936523-1.0063477s-0.4306641-1.0019531-1.0063477-0.9936523l-0.4975586,0.0031738    c-0.0002441-0.001709,0-0.0036621-0.0004883-0.0053711c-0.4399414-2.5900879-2.1899414-4.6999502-4.5400391-5.6499014    c-0.0400391-1.1870117-0.8161621-2.1940918-1.8818359-2.576416l-0.0136719-2.0883789    c-0.0039063-0.5522461-0.4838867-0.9926758-1.0063477-0.9936523c-0.5522461,0.003418-0.9970703,0.4541016-0.9936523,1.0063477    l0.0136719,2.0795898c-0.0024414,0.0009766-0.0053711,0.0014648-0.0080566,0.0024414    c-1.0093279,0.3720961-1.8262987,1.3700161-1.8601074,2.6201172c-2.3300781,0.9799805-4.0400391,3.1098623-4.4499512,5.6999502    c0,0.0004883,0,0.0009766-0.0002441,0.0014648l-0.4936523,0.0031738c-0.5522461,0.003418-0.9970703,0.4541016-0.9936523,1.0063477    c0.003418,0.550293,0.4506836,0.9936523,1,0.9936523c0.0019531,0,0.0043945,0,0.0063477,0    c0.2066655-0.0012703,2.5295849-0.0155621,2.3811035-0.0146484v7.1599121L5.4375,29.8635654    c-0.2299805,0.1899414-0.3598633,0.4699707-0.3598633,0.7700195c0,6.2680225,0,26.388628,0,32.6401367H4.9975586    c-0.5500488,0-1,0.4499512-1,0.9999962c0,0.5498047,0.4499512,1,1,1c5.5481825,0,62.1141129,0,62,0c0.5500488,0,1-0.4501953,1-1    c0-0.550045-0.4499512-0.9999962-1-0.9999962h-0.0700684c0-14.8946533,0-17.4234505,0-32.6401367    c0-0.3000488-0.1298828-0.5800781-0.3598633-0.7700195l-1.25-1.0400391v-7.2199707    C65.4183197,21.6028118,67.883255,21.5845737,67.7263184,21.5857334z M61.8776855,56.4536552l-1.1601563-1.9799805    c-0.3598633-0.6101074-1.3701172-0.6101074-1.7299805,0l-1.1599121,1.9799805l-1.1601563-1.9799805    c-0.3598633-0.6101074-1.369873-0.6101074-1.7199707,0l-0.1599121,0.2697754c0-7.1822433,0-13.2121506,0-20.2597656    c0.2593422,0,10.7444077,0,10.1398926,0v20.2597656l-0.1599121-0.2697754c-0.3601074-0.6101074-1.369873-0.6101074-1.7299805,0    L61.8776855,56.4536552z M54.7875977,31.1035557l1.0200195-0.8601074    c0.1019554,0.0859718,1.1219749,0.9460793,1.0200195,0.8601074v1.3801289h-2.0400391V31.1035557z M58.8276367,31.1035557    l1.0300293-0.8601074l1.0200195,0.8601074v1.3801289h-2.0500488V31.1035557z M64.9274902,32.4836845h-2.0498047v-1.3801289    c0.1019554-0.0859699,1.1219749-0.9460773,1.0200195-0.8601074l1.0297852,0.8601074V32.4836845z M52.7875977,45.2036552    c0,4.2598724,0,13.7990341,0,18.0700684h-6.630127V45.2036552H52.7875977z M31.1975098,56.5237236    c0-4.0035286,3.3918495-5.3918228,4.3200684-6.3500977c0.2800293-0.2199707,0.6799316-0.2199707,0.9599609,0    c0.9393959,0.9698143,4.3200684,2.3528137,4.3200684,6.3500977v6.75h-9.6000977V56.5237236z M39.0776367,31.383585h-2.4660645    v-3.875h2.4677734v3.875H39.0776367z M32.1477051,31.383585h-0.0039063v-3.875h2.4677734v3.875H32.1477051z M27.8459473,31.383585    v-3.875h2.2978516v3.875H27.8459473z M41.0793457,27.508585h3.074707v3.875h-3.074707V27.508585z M27.8474121,33.3835869    c20.3981552,0-20.3949757,0,16.3100586,0v9.8200684H27.8474121V33.3835869z M14.1674805,56.4536552l-1.1599121-1.9799805    c-0.3598633-0.6101074-1.3701172-0.6101074-1.7199707,0l-1.1599121,1.9799805l-1.170166-1.9799805    c-0.3498535-0.6101074-1.3601074-0.6101074-1.7199707,0l-0.1599121,0.2697754V34.4836845c0.2593403,0,10.7444077,0,10.1398926,0    c0,7.0473442,0,13.076973,0,20.2597656l-0.1599121-0.2697754c-0.3601074-0.6101074-1.3701172-0.6101074-1.7299805,0    L14.1674805,56.4536552z M11.1174316,31.1035557l1.0302734-0.8601074l1.0197754,0.8601074v1.3801289h-2.0500488V31.1035557z     M17.2175293,32.4836845h-2.0500488v-1.3801289c0.1023664-0.0854778,1.1323967-0.9455853,1.0300293-0.8601074l1.0200195,0.8601074    V32.4836845z M7.0776367,31.1035557l1.0197754-0.8601074c0.1019545,0.0859718,1.121974,0.9460793,1.0200195,0.8601074v1.3801289    H7.0776367V31.1035557z M15.607666,21.633585v6.5c-0.10007,0.0500355-0.688839,0.5656929-1.4401855,1.1899414    l-1.3798828-1.1499023c-0.3701172-0.3100586-0.9099121-0.3100586-1.2800293,0l-1.3798828,1.1499023    c-0.5906305-0.4880028-1.3537455-1.1467209-1.4602051-1.1999512v-6.4599609    C8.7701654,21.6631775,15.710351,21.6333046,15.607666,21.633585z M7.0776367,58.7036552l1.0197754-1.75l1.0200195,1.75v4.5700684    H7.0776367V58.7036552z M15.1674805,58.7036552l1.0300293-1.75l1.0200195,1.75v4.5700684h-2.0500488V58.7036552z     M19.2175293,58.4336357V45.2036552h6.6298828v18.0700684h-6.6298828V58.4336357z M54.7875977,58.7036552l1.0200195-1.75    l1.0200195,1.75v4.5700684h-2.0400391V58.7036552z M62.8776855,63.2737236v-4.5700684l1.0200195-1.75l1.0297852,1.75v4.5700684    H62.8776855z M63.317627,21.633585v6.5c-0.1000252,0.0500145-0.1180611,0.0914822-1.4399414,1.1899414l-1.380127-1.1499023    c-0.369873-0.3100586-0.9099121-0.3100586-1.2800293,0l-1.3898926,1.1599121    c-1.5775795-1.3218365-1.3694839-1.1558762-1.4499512-1.2099609v-6.4599609    C68.0183105,21.5808582,52.694603,21.6791077,63.317627,21.633585z"/><path d="M57.9360352,23.487833v2.607666c0,0.3188477,0.2585449,0.5773926,0.5773926,0.5773926h2.6811523    c0.3188477,0,0.5771484-0.2585449,0.5771484-0.5773926v-2.607666c0-0.3188477-0.2583008-0.5773926-0.5771484-0.5773926h-2.6811523    C58.1945801,22.9104404,57.9360352,23.1689854,57.9360352,23.487833z"/><path d="M61.7888184,35.9465752c-0.5522461,0-1,0.4477539-1,1v14.5717773c0,0.5522461,0.4477539,1,1,1s1-0.4477539,1-1V36.9465752    C62.7888184,36.3943291,62.3410645,35.9465752,61.7888184,35.9465752z"/><path d="M57.9191895,35.9465752c-0.5522461,0-1,0.4477539-1,1v14.5717773c0,0.5522461,0.4477539,1,1,1s1-0.4477539,1-1V36.9465752    C58.9191895,36.3943291,58.4714355,35.9465752,57.9191895,35.9465752z"/><path d="M28.7739258,13.6311445c0.0976563,0.0175781,0.9633789,0.2050781,1.3164063,1.4160156    c0.1103535,0.3735037,0.4940662,0.7137728,0.9519043,0.71875c0.0026855,0,0.0048828,0.0009766,0.0075684,0.0009766    c0.0002441,0,0.0002441,0,0.0004883,0s0.0002441,0,0.0004883,0c0.0026855,0,0.0048828-0.0009766,0.0075684-0.0009766    c0.4685192-0.0050926,0.8450737-0.3500786,0.9519043-0.71875c0.3500977-1.2011719,1.2041016-1.3955078,1.3139648-1.4155273    c0.5380859-0.081543,0.9135742-0.5795898,0.8413086-1.121582c-0.0732422-0.5473633-0.581543-0.9331055-1.1235352-0.8583984    c-0.517334,0.0693359-1.3208008,0.3823242-1.9916992,1.1040039c-0.6708984-0.7216797-1.4743652-1.034668-1.9916992-1.1040039    c-0.5332031-0.0712891-1.0249023,0.3017578-1.1088867,0.8388672    C27.8662109,13.0276289,28.2382813,13.5354414,28.7739258,13.6311445z"/><path d="M36.8237305,8.7131758c0.1064453,0.0205078,0.6513672,0.1655273,0.8901367,0.984375    c0.1094627,0.3704853,0.4803009,0.713624,0.9519043,0.71875c0.0026855,0,0.0048828,0.0009766,0.0075684,0.0009766    c0.0002441,0,0.0002441,0,0.0004883,0s0.0002441,0,0.0004883,0c0.0026855,0,0.0048828-0.0009766,0.0075684-0.0009766    c1.1771431-0.0127954,0.7992058-1.4916334,1.838623-1.7021484c0.5356445-0.0839844,0.9086914-0.5810547,0.8364258-1.1210942    c-0.0737305-0.5473633-0.5771484-0.9282227-1.1235352-0.8583984c-0.4069824,0.0541992-1.0185547,0.2915039-1.5595703,0.8022461    c-0.5407715-0.5107422-1.1523438-0.7480469-1.5585938-0.8022461c-0.5400391-0.0693359-1.0161133,0.2988281-1.1035156,0.8320313    C35.9243164,8.1008711,36.2929688,8.6096601,36.8237305,8.7131758z"/><path d="M39.2138672,15.7869062c-0.6708984-0.7216797-1.4743652-1.034668-1.9916992-1.1040039    c-0.5327148-0.0703125-1.0249023,0.3017578-1.1088867,0.8388672c-0.0834961,0.5371084,0.2885742,1.0449209,0.8242188,1.140624    c0.0976563,0.0175781,0.9633789,0.2050781,1.3164063,1.4160156c0.1103554,0.3735046,0.4940681,0.7137737,0.9519043,0.71875    c0.0026855,0,0.0048828,0.0009766,0.0075684,0.0009766c0.0002441,0,0.0002441,0,0.0004883,0s0.0002441,0,0.0004883,0    c0.0026855,0,0.0048828-0.0009766,0.0075684-0.0009766c0.3929062-0.0042706,0.8291054-0.2949734,0.9519043-0.71875    c0.3500977-1.2011719,1.2041016-1.3955078,1.3139648-1.4155273c0.5380859-0.081543,0.9135742-0.5795898,0.8413086-1.1215811    c-0.0732422-0.5473633-0.5805664-0.9306641-1.1235352-0.8583984    C40.6882324,14.7522383,39.8847656,15.0652266,39.2138672,15.7869062z"/></g></g><text x="0" y="87" fill="#000000" font-size="5px" font-weight="bold" font-family="'Helvetica Neue', Helvetica, Arial-Unicode, Arial, Sans-serif">Created by Brickclay</text><text x="0" y="92" fill="#000000" font-size="5px" font-weight="bold" font-family="'Helvetica Neue', Helvetica, Arial-Unicode, Arial, Sans-serif">from the Noun Project</text></svg>