<svg xmlns="http://www.w3.org/2000/svg" xmlns:xlink="http://www.w3.org/1999/xlink" version="1.1" x="0px" y="0px" viewBox="0 0 55 68.75" style="enable-background:new 0 0 55 55;" xml:space="preserve"><g><path d="M50.9238358,30.1449585h-0.0200195c0-2.6618614,0.1257057-2.6216717-0.5649414-3.3391113   c-0.0105247-3.6754284,0.0272255-3.697197-0.2421875-4.0412598c-0.227581-0.3413677-0.5085068-0.5884628-0.6660156-0.7407227   c-0.0576172-0.0551758-0.1230469-0.121582-0.1865234-0.1040039c-0.0848007,0-0.1145897,0.0714626-0.1787109,0.1269531   c-0.0214844,0.0219727-0.0517578,0.0527344-0.0673828,0.0776367c-0.0688324,0.0602283-0.1543732,0.146637-0.2841797,0.3042603   c-0.0015259-1.314064,0.0066795-6.3604355-0.0085449-6.5402832l0.6820068-0.3850708l0.0648193,0.015625   c0.0146484,0.0009766,0.03125,0.0004883,0.0429688-0.0097656c0.0117188-0.0092773,0.0185547-0.0239258,0.0185547-0.0390625   v-0.1699219c0-0.0180664-0.0097656-0.034668-0.0253906-0.043457l-0.7744141-0.4320068v-1.4547119   c0-0.0400391-0.0234375-0.0766602-0.0605469-0.0922852l-0.8236084-0.34552   c0.0003662-0.0132446,0.0042725-0.0289917,0.0042725-0.0421753c0-0.2631836-0.0615234-0.5253906-0.1894531-0.8012695   c-0.4124031-0.9075899-1.4832039-1.7542267-2.869873-1.949707c-0.000946-0.1020555-0.1033478-0.2306051-0.3293457-0.6781616   c0.3447914-0.1568918,0.3316689-0.6644402-0.0471191-0.8007813V7.7584229   c0.2699089-0.1110468,0.2715836-0.5148916-0.0134277-0.6257935c-0.0068626-0.1007767-0.0876465-1.2847877-0.0808105-1.1843262   V5.9213867c0-0.0269165,0-0.1547852-0.0336914-0.161499c-0.0065918,0-0.0201416,0.0067139-0.0268555,0.0134888   c-0.0239449,0.0359178-0.0777054,1.02666-0.0808105,1.0698853C44.1558914,6.9375,44.1491776,7.0384521,44.1424637,7.1326294   c-0.2875633,0.1060162-0.2820778,0.5215001-0.0134277,0.6257935v0.9017334   c-0.3783684,0.1360912-0.3898773,0.6407404-0.053833,0.8007813l-0.3028564,0.598877   c-0.0157471,0.0296631,0.0015869,0.0571899,0.0040283,0.0869141c-1.746582,0.2268066-3.0869141,1.5838013-3.0910645,2.7380981   c-0.8021584,0.4068604-0.8806152,0.3722715-0.8806152,0.4852295v1.4597778l-0.765625,0.4269409   c-0.015625,0.0087891-0.0253906,0.0253906-0.0253906,0.043457v0.1699219c0,0.0151367,0.0068359,0.0292969,0.0185547,0.0390625   c0.0260696,0.0217257,0.0665741,0.0040684,0.0993652-0.005188l0.6791992,0.3835449   c-0.0028763,3.0277157-0.0062218,6.5523949-0.0061035,6.4301147c-0.2528343-0.2559395-0.4560089-0.5777225-0.6455078-0.2762451   c-0.3275375,0.3238697-0.9345703,0.9336586-0.9345703,1.4384766v2.2296753   c-0.0759506,0.2396049-0.0336647,0.2519932-0.0458984,0.8643188c-0.0053711-0.0044556-0.0095215-0.0095825-0.0148926-0.0137939   c-0.0400391-0.0300293-0.119873-0.1400146-0.1699219-0.1300049c-0.0400391,0-0.0700684,0.0599976-0.0900879,0.0899658   c-0.3101311,0.3101273-0.9199219,0.9310188-0.9199219,1.3699951c-0.0437851-0.1310863,0.0950356-0.4356804-0.6201172-1.1499634   c-0.4074936-0.4087372-0.339901-0.3298607-0.4499512-0.2200317c-0.0694847,0.0694828-0.0336456,0.0059986-0.3000488,0.3099976   c-0.2716484,0.3081455-0.3505249,0.4056549-0.4887695,0.6607666c-0.0568886-10.0545559,0.1189003-9.838562-0.125-9.838562   v-2.0762939c0.0763664-0.2405252-0.07724-0.4491377-0.2998047-0.4852295   c-0.0026855-0.0012817-0.005127-0.0003052-0.0078125-0.0012817c-0.0428925-0.5594883-0.026989-0.7351637-0.0786133-0.7093506   c-0.0100098,0,0,0.0299683,0,0.039978c0,0.1110554-0.0426521,0.5077524-0.0487061,0.6603394l-0.0054932,0.000061   c-0.1870384,0.0335064-0.352581,0.2081652-0.2995605,0.4619751v2.1098022h-13.527956v-2.0841064   c0.0706692-0.2386112-0.0842495-0.4422951-0.3023682-0.4769287c-0.0023193-0.0011597-0.0043945-0.0002441-0.0068359-0.0011597   c-0.0089283-0.1299849-0.0237865-0.7376175-0.0791016-0.7099609c-0.0576305,0.8161755-0.0458393,0.6281929-0.0487061,0.7003174   l-0.0050049,0.000061c-0.2256565,0.0404253-0.3803272,0.2776155-0.2871094,0.519104v2.0526733   c-0.2429581,0-0.0681629-0.20504-0.125,9.7406616c-0.1928844-0.399416-0.4978848-0.6468163-0.684082-0.8328247   c-0.0400391-0.0300293-0.119873-0.1400146-0.1699219-0.1300049c-0.0400391,0-0.0700684,0.0599976-0.1000977,0.0899658   c-0.2474918,0.2474918-0.5079651,0.5198574-0.7099609,0.8400269c-0.3246288,0.5188141-0.1448689,0.5724888-0.1999512,1.0800171   c0-0.9486141,0.0502605-1.0205612-0.8100586-1.8800049c-0.0400391-0.0300293-0.1201172-0.1400146-0.1699219-0.1300049   c-0.0400391,0-0.0700684,0.0599976-0.1000977,0.0899658c-0.0087891,0.0133057-0.0234375,0.024353-0.0354004,0.0354614v-0.6356812   l-0.0009766-0.0751953c-0.0018311-0.0142822-0.0109863-0.027771-0.0136719-0.0419312   c-0.0019932-2.4052696,0.055769-2.6464634-0.2265625-3.038147c-0.1686916-0.2537785-0.4440861-0.5416336-0.6240234-0.6948242   c-0.0633259-0.0474949-0.1497135-0.1746616-0.2294922-0.1499023c-0.0889482,0-0.1102676,0.0563812-0.2597656,0.2094727   c-0.259367,0.2553158-0.1834221,0.198534-0.2705078,0.298584c-0.0036392-2.4345646,0.0089149-6.378912-0.0114746-6.5471191   l0.677002-0.3787842l0.0688477,0.0145264c0.0299873,0.0079966,0.0605469-0.0167236,0.0605469-0.0488281v-0.1630859   c0-0.0180664-0.0097656-0.034668-0.0253906-0.043457l-0.7695313-0.4315796   c-0.0225058-1.4751787,0.0495815-1.5054493-0.0605469-1.5518188l-0.8233643-0.3453979   c0.0375166-1.3630695-1.523221-2.5774851-3.0594482-2.793335c-0.0009422-0.1020555-0.1033287-0.2305527-0.3293457-0.6781006   c0.3447933-0.1568918,0.3316689-0.6644402-0.0471191-0.8007813V7.7584229   c0.2699118-0.1110468,0.2715845-0.5148916-0.0134277-0.6257935c-0.0080261-0.1139388-0.0926056-1.3132486-0.0808105-1.2112427   c0-0.0269165,0-0.1547852-0.0336914-0.161499c-0.0065918,0-0.0201416,0.0067139-0.0268555,0.0134888   c-0.0237303,0.0355954-0.0979099,1.3165808-0.1009521,1.3592529c-0.2875614,0.1060162-0.282074,0.5215001-0.0134277,0.6257935   v0.9017334c-0.3783674,0.1360912-0.3898745,0.6407404-0.053833,0.8007813l-0.3028564,0.598877   c-0.0157471,0.0296021,0.0015869,0.0569458,0.0040283,0.0865479c-1.7458496,0.2258301-3.0866694,1.586731-3.0874019,2.7426147   c-0.7967305,0.4005756-0.880127,0.3674126-0.880127,0.4810791v1.4573364l-0.7734375,0.4337769   c-0.015625,0.0087891-0.0253906,0.0253906-0.0253906,0.043457v0.1630859c0,0.0658255,0.0606632,0.0494928,0.1218262,0.0338745   l0.6828613,0.3856201c-0.0027547,3.0277157-0.0059705,6.5622826-0.0058594,6.4400024   c-0.2947135-0.2968483-0.4593043-0.5734138-0.6425781-0.2906494c-0.0096812,0.0063686-0.3063116,0.3025894-0.3164063,0.3120117   c-0.240345,0.3081341-0.6308594,0.7335148-0.6308594,1.1313477c-0.0088987,1.0475788,0.0189137,2.0096989-0.0224609,2.3500977   C4.739264,25.8656616,4.739264,25.8973999,4.739264,25.9198608v0.8831787   c-0.1402726,0.159586-0.3091006,0.3411674-0.4453125,0.5570679c-0.1000977,0.1599731-0.2001953,0.3400269-0.2001953,0.5299683   v2.2548828H3.8740296c-0.2734375,0-0.4951172,0.222168-0.4951172,0.4951172c0.0583014,18.983757-0.1177354,18.125,0.125,18.125   h0.7463379c0.8176231,0.6282845,12.2975311,0.629715,13.1173096,0c0.1006947,0.0000267,6.189312,0.001564,5.8023682,0.0014648   c0.1073895-0.0000114,14.6384563-0.0014954,14.5203876-0.0014648c0.3458252,0.2647095,3.1569824,0.4750366,6.5736084,0.4750366   c3.3977051,0,6.2077637-0.2103271,6.5534668-0.4750366c0.4920006-0.0340424,0.8115234,0.0896111,0.8115234-0.125V30.8500366   C51.6289139,30.4613647,51.3125076,30.1449585,50.9238358,30.1449585z M34.9821854,15.4484253h-0.6948242   C34.3039017,14.9902067,34.9554138,15.0315847,34.9821854,15.4484253z M31.9580135,48.5165405v-9.1035156   c0-4.4299812-5.8739872-6.1728134-8.2412109-2.3515625c-0.4394531,0.7050781-0.671875,1.5185547-0.671875,2.3515625v9.1035156   H20.757452c-0.0013428-0.000061-0.0020752-0.0014648-0.00354-0.0014648h-0.6259766c0-8.5036964,0-15.6789169,0-23.9358521   c6.8018112,0,11.2308846,0,14.7470722,0v23.9358521C34.5108986,48.5152588,31.7985077,48.5166206,31.9580135,48.5165405z    M8.9238338,22.9398804c0-0.4568195,0.8471117-1.2476482,0.9248047-1.3476563   c0.0039063,0.0029297,0.0068359,0.0053711,0.0097656,0.0078125l0.0087891,0.0063477   c0.0205078,0.034668,0.0498047,0.0629883,0.0859375,0.0844727c0.0224609,0.0224609,0.0498047,0.046875,0.0771484,0.0722656   c0.7147331,0.6477261,0.6866627,0.7981281,0.6835938,2.2683105c-0.1002083,0.002552-1.3027,0.0555744-1.7900391,0.0968628   V22.9398804z M10.9130917,22.9398804c0-0.3700638,0.5876036-1.0322437,0.796875-1.2148438   c0.0009766-0.0014648,0.0166016-0.0170898,0.0185547-0.0180664c0.0096169-0.0098267-0.0358105,0.0346966,0.0927734-0.0966797   c0.0039063-0.0058594,0.0097656-0.015625,0.0126953-0.0224609c0.0166016,0.0136719,0.0390625,0.0371094,0.0615234,0.0649414   c0.0029297,0.0039063,0.0302734,0.0307617,0.0341797,0.0341797c0.7976017,0.6624146,0.7744141,1.00243,0.7744141,1.8032227   v0.592041c-0.5959473-0.0456543-1.1936035-0.0640869-1.7910156-0.0549316   C10.9130917,23.9265881,10.9130917,22.8391857,10.9130917,22.9398804z M12.903326,22.9398804   c0-0.4902897,0.8327847-1.2455883,0.9228516-1.3496094c1.0225334,0.929575,0.7922792,1.1610622,0.8632813,1.3334961   c0.0039063,0.0102539,0.0048828,0.0131836,0.0048828,0.0161133c0,0.7478886,0,0.3714943,0,1.3981934   c-0.5935059-0.1077881-1.1911621-0.1878052-1.7910156-0.2399902C12.903326,23.9973888,12.903326,22.8391857,12.903326,22.9398804z    M4.989264,44.1928101c-0.0010252-6.396862-0.0019116-11.9249458-0.0029297-18.277832   c0.0505738-0.1011467-0.0238891-0.4123402,0.8461914-0.8138428v19.1313477H5.0866761   C5.0562806,44.2210083,5.0135012,44.2030067,4.989264,44.1928101z M8.7273006,24.3945923   c0.1002903-0.0012703,0.6717453-0.0799427,1.904541-0.0996704v19.937561h-1.904541V24.3945923z M6.333014,24.8927002   c0.1772027-0.0577831,0.3248277-0.1004391,0.5205078-0.1574097c0.100975,0,0.331286-0.1219711,1.3732905-0.269043v19.7662354   H6.333014V24.8927002z M11.1215878,44.2324829V24.3050537c1.8231096,0.0505886,1.2009439,0.0685349,1.904541,0.1211548v19.8062744   H11.1215878z M13.5158749,44.2324829V24.4779053c0.4773369,0.0814629,1.4530172,0.2772884,1.904541,0.4567871v19.2977905   H13.5158749z M8.7246151,24.1445313c-0.4803514,0.0533733-1.2263522,0.1746159-1.7714839,0.3153687   c0.0025625-0.8725395,0.011775-1.0052891-0.0097656-1.0742188v-0.4458008c0-0.3098755,0.3796387-0.7711296,0.5859375-1.0043945   c0.0868988-0.1000652,0.2677984-0.2708225,0.2929688-0.3100586c0.0126953-0.0112305,0.0244141-0.0234375,0.0361328-0.0356445   c0,0,0-0.0004883,0.0009766-0.0009766c0.3666768,0.3463058,0.8312011,0.763958,0.8544917,1.2612305   c0,0.0342274,0.0107422,0.0812206,0.0107422,0.0898438V24.1445313z M5.0360169,44.8257446   c1.4092941,0.4613991,9.6885204,0.4853745,11.4698486,0.0276489c0.0615826,1.1443024,0.4667797,2.5635643,0.6191406,2.8931274   c0,0.0009766,0.0126953,0.0302734,0.0126953,0.03125c0.0223675,0.0575142,0.0649147,0.148613,0.1064453,0.1972656   c-1.2622948,0.5364761-11.6822491,0.5513878-12.8798828-0.0136719C4.7754836,47.148716,4.9937224,45.7592735,5.0360169,44.8257446z    M17.4038143,48.1348267c0.1639156-0.0946541,0.1827316-0.2005348,0.0317383-0.3209229   c-0.1591988-0.1591988-0.620451-1.8277168-0.6848145-3.0727539c0.0053711-0.0081177,0.015625-0.0161743,0.015625-0.024353   v-0.3045654c0.255146-0.1655006,0.0742931,0.1987686,0.1320801-5.3922729c0-0.1654816-0.25-0.1653862-0.25,0v5.1704102   c-0.0434933,0.0265808-0.0449352,0.023983-0.0976563,0.0421143h-0.640625V25.151062   c0.4494629,0.2301025,0.708252,0.4793701,0.7382813,0.7092285c0.0560398,10.7267647-0.119154,10.6547852,0.125,10.6547852   c0.0693359,0,0.125-0.0561523,0.125-0.125v-5.9951172h2.9794922v18.1201172h-2.4741211V48.1348267z M42.1738358,22.9398804   v1.2047729c-0.392868,0.0617828-0.9924088,0.1143417-1.7705078,0.3152466   c0.0138664-1.0960121-0.0024376-0.5961266-0.0097656-1.5200195c0-0.4865322,0.7433357-1.1532555,0.8984375-1.3388672   c0.0029297-0.003418,0.0058594-0.0078125,0.0097656-0.0117188C41.721859,21.9609165,42.1738358,22.40275,42.1738358,22.9398804z    M42.3730545,22.9398804c0-0.4185486,0.644249-1.0631523,0.9189453-1.3476563   c0.0078125,0.0058594,0.0175781,0.012207,0.0263672,0.0185547c0.0253906,0.0419922,0.0517578,0.0688477,0.0712891,0.0761719   c0.065815,0.0545063,0.1148491,0.1059856,0.1835938,0.1640625c0.4934464,0.4916992,0.5445099,0.7375622,0.5810547,0.9990234   c0.000824,0.1000214,0.0105972,1.2816601,0.0097656,1.1809692c-0.1007042,0.0025139-1.3217926,0.0578251-1.7910156,0.0973511   V22.9398804z M44.3632889,22.9398804c0-0.4848061,0.8108788-1.2186222,0.9140625-1.3525391   c0.0185547,0.0151367,0.0449219,0.0419922,0.0664063,0.0737305c0.9481544,0.8132763,0.8105469,1.037344,0.8105469,2.4213257   c-0.5959473-0.0458374-1.1936035-0.0639038-1.7910156-0.0549316   C44.3632889,23.9267712,44.3632889,22.8391857,44.3632889,22.9398804z M46.3535233,22.9398804   c0-0.4581089,0.7409439-1.1462746,0.9150391-1.3466797c1.1504097,1.0458298,0.808239,1.1361504,0.8662109,2.7443237   c-0.590332-0.1070557-1.1846924-0.1865845-1.78125-0.2386475C46.3535233,23.9981823,46.3535233,22.8391857,46.3535233,22.9398804z    M38.4462967,25.8182983c0.0554199-0.2396851,0.3510742-0.4927368,0.8308105-0.7195435v19.2855835   c-0.1984863-0.0268555-0.6887207-0.0948486-0.8288574-0.1817627c-0.0009766,0-0.0097656-0.0053711-0.0195313-0.0112305   C38.4349747,24.6117134,38.4130554,25.9360294,38.4462967,25.8182983z M46.4707108,44.5551758   c-0.155365,0-1.1338959,0.0297241-1.904541,0.0297241V24.3051758c0.7016144,0.0001373,1.4351768,0.0534935,1.904541,0.1205444   V44.5551758z M42.1718826,24.3952026c0.0181656-0.0012569,0.1068497-0.0103683,0.1123047-0.010498   c0.9660416-0.0849915,1.6833458-0.0862617,1.7922363-0.0898438v20.2900391   c-0.1180534-0.0018272,0.0276413,0.0061951-1.904541-0.0297852C42.1718826,37.4075966,42.1718826,31.8000984,42.1718826,24.3952026   z M40.3037186,24.7352905c0.1006241,0,0.329277-0.1213875,1.3676758-0.2679443v20.0772095   c-0.6939011-0.0305939-1.4205856-0.0784912-1.8937988-0.1096802V24.8924561   C39.9558601,24.8326702,39.9282341,24.8431873,40.3037186,24.7352905z M48.8649979,44.4143066   c-1.4707375,0.118042-1.1226807,0.0881958-1.904541,0.1305542V24.4764404c0.606266,0.10602,1.321785,0.2378216,1.904541,0.4597168   V44.4143066z M35.1250076,30.3949585h3.0537109c0.078701,14.6122818-0.1539764,13.8527832,0.1352539,14.0183105v0.2319336   c-0.1857986,0.08955,0.0536919,0.2798691-0.3500977,2.0998535c-0.0518341,0.1797867-0.2346878,0.8220024-0.3291016,0.996582   c-0.0412216,0.1297264-0.2162552,0.2776985,0.0224609,0.4194336c0.0046387,0.0027466,0.0079346,0.005127,0.0123291,0.0075684   l-0.0100098,0.3464355h-2.5345459V30.3949585z M41.4668045,48.3422241   c-3.1465836-0.1245537-3.5355453-0.3556976-3.6357422-0.3662109c-0.0068359-0.0053711-0.015625-0.0102539-0.0234375-0.0146484   c0.0263672-0.0405273,0.0449219-0.0810547,0.0546875-0.1191406c0.1562004-0.2709084,0.561512-1.6200294,0.6221924-3.0150757   c1.4480629,0.467514,9.6537323,0.4859962,11.4666748,0.0275879c0.0485077,0.9905968,0.524704,2.9461746,0.7460938,3.1159058   C49.6399918,48.4516907,43.2063408,48.4034195,41.4668045,48.3422241z M49.2587967,22.1366577   c0.0107422,0.0102539,0.0234375,0.0224609,0.0332031,0.03125c0.0273438,0.0263672,0.0527344,0.0512695,0.0615234,0.0527344   c0.8107986,0.8552837,0.7705078,0.7888832,0.7705078,1.8193359v0.9127197   c-0.5910072-0.34445-1.1772537-0.4587231-1.7900391-0.5866089v-0.8861694   C48.333992,23.0641136,49.1071472,22.3025227,49.2587967,22.1366577z M44.1809158,10.3087769h0.2210693   c1.4299126,0.056818,2.6292953,0.9144297,3.0609131,1.8635254c0.1083984,0.2347412,0.1605225,0.4561768,0.166748,0.6760254   l-1.6462402-0.6906738c-0.0126953-0.0048828-0.0253906-0.0078125-0.0390625-0.0078125h-3.6708984   c-0.0146484,0-0.0292969,0.003418-0.0419922,0.0097656l-1.3312988,0.6233521   C40.9853592,11.6525269,42.4038162,10.3540039,44.1809158,10.3087769z M40.0039139,13.4330444l2.2919922-1.0830078h3.6279297   l1.7651367,0.7401733c0.003418,0.0013428,0.0046387,0.0054321,0.0083008,0.0064087   c0.003418,0.0009155,0.0067139,0.0007324,0.0100098,0.0012817l0.807373,0.3385649v1.2771578l-1.6259766-0.9070435   c-0.0078125-0.0043945-0.015625-0.0063477-0.0244141-0.0063477c-1.4281769,0.000535-5.4844589,0.0062056-5.2246094,0.0063477   L40.0039139,14.71875V13.4330444z M39.1132889,15.3295288l0.7480469-0.4172363   c0.013916,0.0073242,0.026123,0.0178223,0.0429688,0.0178223c0.0541992,0,0.0959473-0.0432739,0.0981445-0.0964966   l1.6743164-0.9337769h5.1748047l1.6630859,0.9278564v0.0023193c0,0.0551758,0.0439453,0.1000977,0.0996094,0.1000977   c0.0189209,0,0.0332031-0.0109253,0.0480957-0.0199585l0.751709,0.4193726v0.0771484l-0.0791016-0.0189819l-2.4711914-1.3875732   H41.663826c-2.522934,1.3971682-2.3910561,1.360508-2.5505371,1.4050903V15.3295288z M40.0820389,15.7675171   c2.2608032-1.2392673,2.1616554-1.2172852,2.2617188-1.2172852h3.5400391c0.0244141,0,0.0498047,0.0063477,0.0761719,0.0195313   c2.4910011,1.2669268,2.5546875,1.1460018,2.5546875,1.3500977v6.7719727   c-0.1028709,0.1381073-0.0735664,0.0774746-0.1806641,0.2503662c-0.0375366-0.5243073-0.232254-0.8151379-0.6416016-1.2244873   c-0.0466919-0.0583649-0.1411552-0.1555386-0.2080078-0.1889648c-0.1030846-0.1078205-0.2104034-0.2502575-0.3730469-0.0595703   c-0.1680336,0.1906509-0.5538368,0.5002728-0.8349609,1.0567627c-0.1421547-0.4109249-0.6188965-0.8882027-0.7705078-0.9844971   l-0.0058594-0.0029297c-0.1142845-0.187006-0.2800522-0.2210808-0.40625-0.0390625   c-0.0780792,0.1036034-0.5699577,0.5299034-0.8079834,1.0182495c-0.1145325-0.345726-0.5126038-0.783783-0.78479-0.9957886   c-0.0009766,0-0.0068359-0.0058594-0.0185547-0.0273438c-0.0087891-0.0170898-0.0214844-0.0307617-0.0371094-0.0405273   c-0.1247253-0.0706768-0.1598053-0.1443138-0.3320313,0.034668c-0.0078125,0.0078125-0.0146484,0.0170898-0.0195313,0.0273438   c-0.0068359,0.0136719-0.0175781,0.0224609-0.0498047,0.0458984c-0.1087303,0.111515-0.1035156,0.1064415-0.1035156,0.1064415   c-0.2301636,0.235281-0.4799957,0.5363274-0.6405029,0.8512001c-0.1254616-0.370348-0.6159859-0.8800125-0.7637939-0.9781494   l-0.0527344-0.0532227c-0.0556641-0.0571289-0.1220703-0.1269531-0.1894531-0.1083984   c-0.076931,0-0.1587639,0.0783081-0.1884766,0.1347656c-0.0039063,0.0063477-0.0146484,0.0161133-0.0253906,0.0258789   c-0.0146484,0.0136719-0.0341797,0.03125-0.0361328,0.0385742c-0.0916595,0.10256-0.2972031,0.2418938-0.6455078,0.7700195   c-0.0869141,0.1466064-0.1542969,0.3074341-0.1811523,0.4771118c-0.1223755-0.2013016-0.0743637-0.1122684-0.2133789-0.2750854   C40.044426,15.709218,39.9230232,15.8592558,40.0820389,15.7675171z M38.9892654,22.4852905   c0.0324097-0.0279903,0.3164024-0.3008976,0.3378906-0.3344727c0.0029297-0.0043945,0.0068359-0.0112305,0.0117188-0.0175781   c0.5472984,0.5082073,0.8057022,0.7814236,0.8554688,1.2653198v1.1101685   c-0.9327011,0.2588444-1.3644867,0.4304543-1.7705078,0.3378296v-1.3666382   C38.4238358,23.109993,38.8585434,22.6720333,38.9892654,22.4852905z M38.1787186,27.5526733v0.6948242   c-0.1250496,0.6352749-0.4348145,0.310051-0.4348145-0.3474121C37.7439041,27.241045,38.0538673,26.9184036,38.1787186,27.5526733z    M36.2338943,27.9000854c0,0.9123478-0.4799805,0.9215775-0.4799805,0   C35.7539139,27.5200806,36.2338943,26.978508,36.2338943,27.9000854z M34.2600174,17.9022827v4.2391968h-13.527956v-4.2391968   H34.2600174z M20.293951,15.1200562h0.0703125c0.0175781,0,0.0351563,0,0.0498047,0.0078125   c0.0019531,0.0009766,0.0048828,0.0019531,0.0068359,0.0019531c0.1298828,0.0205078,0.2373047,0.1088867,0.2734375,0.2250977   l0.0029297,0.0126953c0.0087891,0.0351563,0.0175781,0.0678711,0.0175781,0.0922852   c0,0.0015259-0.0008545,0.0027466-0.0008545,0.0042725h-0.6994629c0-0.0015259-0.0008545-0.0027466-0.0008545-0.0042725   C20.0136776,15.2919312,20.1328182,15.1488647,20.293951,15.1200562z M19.2439022,27.9000854   c0,0.8920555-0.4699707,0.9435024-0.4699707,0C18.7739315,27.5200806,19.2439022,27.0059872,19.2439022,27.9000854z    M17.0139217,27.210083c0.3186913,0,0.3186169,1.3800049,0,1.3800049c-0.043457,0-0.0812988-0.0441284-0.1154785-0.1045532   v-1.1708984C16.9326229,27.2542114,16.9704647,27.210083,17.0139217,27.210083z M15.8105526,22.1390991   c0-0.0009766,0.0009766-0.0019531,0.0019531-0.0029297c0.0990896,0.100605,0.4285755,0.364542,0.6806641,0.7426758   c0.2345333,0.3244381,0.1914063,0.7301464,0.1914063,1.1611328v0.9153442   c-0.5934315-0.347517-1.1792393-0.45961-1.7910156-0.588562v-0.8868408c0-0.1679688,0.0957031-0.3339844,0.1855469-0.4765625   C15.3656607,22.5479813,15.7299166,22.2432537,15.8105526,22.1390991z M11.7294979,10.4174194   c1.178215,0.2968235,2.4281731,1.3068209,2.4598389,2.4309692l-1.6463623-0.6907349   c-0.0126953-0.0048828-0.0253906-0.0078125-0.0390625-0.0078125c-2.8832264,0.0026569-3.6182098-0.0387268-3.7226563,0.0097656   l-1.3221431,0.6274414C7.5592666,11.4036245,9.5591936,9.889185,11.7294979,10.4174194z M6.5634828,13.4330444l2.2832026-1.0830078   h3.6367188c0.1129704,0.0473728,2.6987906,1.1317043,2.5908203,1.0864286v1.2813692   c-0.1001968-0.0560455-1.7618942-0.9806747-1.65625-0.9215088c-1.4307737,0.000535-5.4864087,0.0062056-5.2265625,0.0063477   l-1.6279292,0.9130249V13.4330444z M5.6650453,15.3339233l0.753418-0.4226685   c0.0144043,0.0081177,0.0275879,0.0188599,0.0454102,0.0188599c0.0556641,0,0.0996094-0.0449219,0.0996094-0.1000977v-0.000061   l1.6650386-0.934021h5.1767578l1.6700439,0.9368286c0.0015869,0.0537109,0.0439453,0.0973511,0.0985107,0.0973511   c0.0169678,0,0.0292969-0.010498,0.0432129-0.0178833l0.751709,0.4216919v0.0722656l-0.0814209-0.0172119l-2.4735107-1.388855   H8.2138729c-2.6124306,1.4477167-2.3557291,1.3545799-2.5488276,1.4041138V15.3339233z M6.6416078,15.7675171   c2.329226-1.2739716,2.1626315-1.2172852,2.2626948-1.2172852c3.3861294,0.0041618,3.5026779-0.0318642,3.6054688,0.0195313   c2.5417137,1.2689209,2.5644531,1.1713257,2.5644531,1.3500977v6.7645874c-0.092967,0.121767-0.091342,0.0950756-0.182373,0.244751   c-0.0014648-0.0332031-0.0097656-0.0601807-0.0187988-0.0835571c-0.0097656-0.2475586-0.0644531-0.4125977-0.2070313-0.6333008   c-0.2201462-0.3100662-0.5284376-0.6161232-0.5722656-0.6430664c-0.0078125-0.0083008-0.0205078-0.0180664-0.0390625-0.0297852   l-0.0185547-0.0205078c-0.0673828-0.0737305-0.140625-0.1577148-0.2119141-0.1391602   c-0.0996094,0-0.1523438,0.0786133-0.1816406,0.1210938c-0.0122805,0.0176544-0.0725756,0.0631161-0.0791016,0.078125   c-0.0837021,0.1050129-0.4442921,0.3750668-0.7322998,0.9387207c-0.1205645-0.3643951-0.4945021-0.7551899-0.7647705-0.9763184   c0,0-0.0117188-0.0131836-0.0146484-0.0136719c-0.1201172-0.1494141-0.1982422-0.15625-0.2333984-0.1469727   c-0.0917969,0.0078125-0.1416016,0.0854492-0.1542969,0.1083984c-0.2815552,0.2810707-0.5790548,0.5532684-0.8215332,1.0255737   c-0.1597462-0.4982567-0.8821392-1.0802021-0.7819824-0.9928589c-0.0303736-0.0163555-0.0255642-0.0393028-0.0566406-0.0620117   l-0.0205078-0.0166016c-0.2042103-0.1590939-0.258359,0.0128517-0.3652344,0.1030273   c-0.2112198,0.1936188-0.5540895,0.5849895-0.7609863,0.9715576c-0.1049728-0.3098583-0.5143147-0.7725716-0.7946777-1.0003662   c-0.1121225-0.1413212-0.2227798-0.200449-0.3486323-0.065918c-0.0247955,0.0275517-0.0458245,0.0374489-0.0585938,0.0629883   c-0.0058594,0.0117188-0.015625,0.0214844-0.0273438,0.034668c-0.0185547,0.0195313-0.0214844,0.0263672-0.0205078,0.0253906   c-0.2833242,0.2495193-0.7553539,0.808754-0.8364258,1.2384033c-0.1060271-0.1736183-0.0756297-0.1077862-0.2075195-0.2582397   C6.5934334,15.6414652,6.4926572,15.843482,6.6416078,15.7675171z M5.7929749,22.2484741   c0.0368047-0.0490723,0.0723829-0.0632305,0.0947266-0.1000977c0.0029297-0.003418,0.0048828-0.0083008,0.0078125-0.0126953   c0.0407429,0.0353107,0.2284822,0.2122192,0.2714844,0.269043c0.3591366,0.3591366,0.5495443,0.5607796,0.5771484,0.9907837   v1.1137085c-0.9037571,0.2542706-1.3422241,0.4344311-1.7705078,0.3358765v-1.3651733   C4.973639,23.0176468,5.885685,22.1483917,5.7929749,22.2484741z M3.6289124,30.6400757   c0-0.1352539,0.1103516-0.2451172,0.2451172-0.2451172H4.739264C4.8132353,44.956665,4.5948157,44.2742882,4.865973,44.4080811   v0.2333984c-0.1344185,0.0670013-0.0223246,0.0941467-0.1589355,1.0361938   c-0.2661138,2.2712479-0.8793478,2.2445068-0.4852295,2.4825439l-0.0050049,0.3548584H3.6289124V30.6400757z    M30.4509335,48.5165405v-7.7215576c0-3.2500191-3.4882145-5.3867149-6.3775635-3.803833   c2.3675499-3.3687668,7.6346436-1.6333694,7.6346436,2.421875v9.1035156H30.4509335z M51.3789139,48.5150757h-0.5251465v-0.3837891   c0.2615204-0.1563454,0.0446892-0.2593727-0.0119629-0.3833008c-0.218605-0.4319038-0.5878525-1.7887764-0.6452637-3.0015869   c0.0065918-0.0087891,0.017334-0.0174561,0.017334-0.0263062v-0.312561c0.2604408-0.2953949,0.0438995,0.0852089,0.125-4.4173584   c0-0.1654816-0.25-0.1653862-0.25,0v4.2011719c-0.1469612,0.0881767-0.5326843,0.137043-0.7341309,0.1633911V25.1539307   c0.4459229,0.2288818,0.7033691,0.4769897,0.7341309,0.7063599c0.0562019,8.1734009-0.1185379,8.0947266,0.125,8.0947266   c0.2420731,0,0.0731277-0.2427025,0.125-3.5600586h0.5849609c0.2509766,0,0.4550781,0.2041016,0.4550781,0.4550781V48.5150757z"/><path d="M44.9545975,11.397583c-0.0751495-0.1828604-0.2605019-0.2744055-0.4456787-0.3405762   c-0.081543-0.0291138-0.1837158-0.0393677-0.2130127,0.0626221C44.200058,11.4552898,45.1259575,11.8116245,44.9545975,11.397583z"/><path d="M45.6209793,11.2303467c-0.0491371-0.1186104-0.3098679-0.2558556-0.3417969-0.1442261   C45.2445488,11.2075348,45.7090721,11.4451418,45.6209793,11.2303467z"/><path d="M39.5463943,23.4897461c0-0.9179897-0.4750977-0.9276714-0.4750977,0   C39.0712967,23.8730469,39.5463943,24.4155655,39.5463943,23.4897461z"/><path d="M49.2314529,24.1837158c0.3140373,0,0.3139725-1.3880005,0-1.3880005   C48.9175682,22.7957153,48.9172974,24.1837158,49.2314529,24.1837158z"/><path d="M41.2783279,23.6403198c0.3138809,0,0.314106-1.3880005,0-1.3880005   C40.9642982,22.2523193,40.9643517,23.6403198,41.2783279,23.6403198z"/><path d="M43.0290604,22.9462891c0,0.9179897,0.4750977,0.9276714,0.4750977,0   C43.504158,22.0283165,43.0290604,22.0187645,43.0290604,22.9462891z"/><path d="M45.2548904,22.2523193c-0.3140297,0-0.3139763,1.3880005,0,1.3880005   C45.5687714,23.6403198,45.5689964,22.2523193,45.2548904,22.2523193z"/><path d="M47.0056229,22.9462891c0,0.9186401,0.4750977,0.9270802,0.4750977,0   C47.4807205,22.0283165,47.0056229,22.0187645,47.0056229,22.9462891z"/><path d="M11.4300594,11.5300903c0.3264999,0.0907526,0.2682657-0.2189093,0.022583-0.3867798   C10.8519411,10.7324009,10.7757225,11.3482456,11.4300594,11.5300903z"/><path d="M12.1496639,11.3287964c0.0183105,0.0013428,0.0375977-0.0038452,0.0500488-0.0172729   c0.0192871-0.0211182,0.0152588-0.0546875,0.0043945-0.0811768c-0.019043-0.0462646-0.0549316-0.0841675-0.0961914-0.1123657   C11.762722,10.8815536,11.7765026,11.3006611,12.1496639,11.3287964z"/><path d="M6.1018128,23.4897461c0-0.9179897-0.4750977-0.9276714-0.4750977,0   C5.6267152,23.8730469,6.1018128,24.4155655,6.1018128,23.4897461z"/><path d="M16.0244198,23.4897461c0-0.9179897-0.4750977-0.9276714-0.4750977,0   C15.5493221,23.8730469,16.0244198,24.4155655,16.0244198,23.4897461z"/><path d="M7.5961976,22.9462891c0,0.9179897,0.4750972,0.9276714,0.4750972,0   C8.0712948,22.5630493,7.5961976,22.0187645,7.5961976,22.9462891z"/><path d="M9.5844784,22.9462891c0,0.9179897,0.4750977,0.9276714,0.4750977,0   C10.059576,22.5630493,9.5844784,22.0187645,9.5844784,22.9462891z"/><path d="M11.5727596,22.9462891c0,0.9179897,0.4750977,0.9276714,0.4750977,0   C12.0478573,22.5630493,11.5727596,22.0187645,11.5727596,22.9462891z"/><path d="M13.5610409,22.9462891c0,0.9186401,0.4750977,0.9270802,0.4750977,0   C14.0361385,22.5630493,13.5610409,22.0187645,13.5610409,22.9462891z"/><path d="M24.3139706,27.5001221h-1.8701172c-0.2094727,0-0.3811035,0.1257324-0.4523926,0.2993164   c-0.2474499,0.0062714-0.1721191-0.0314331-0.1721191,3.2507935c0,0.355957,0.2744141,0.6347656,0.625,0.6347656   c1.9900284,0,2.0727844,0.0696125,2.0797119-0.1881714c0.1663818-0.0772095,0.289917-0.2467651,0.289917-0.4467163v-3.0499878   C24.8139706,27.7200928,24.583746,27.5001221,24.3139706,27.5001221z M22.4443417,31.4349976   c-0.2138672,0-0.375-0.1655273-0.375-0.3847656l-0.0029297-3.0053711h1.8378906c0.2070313,0,0.375,0.168457,0.375,0.375   l0.0039063,3.0151367H22.4443417z"/><path d="M28.4338436,27.5001221h-1.869873c-0.1992188,0-0.3745117,0.1229248-0.449585,0.2984009   c-0.122673,0.0085754-0.1759033,0.0797043-0.1759033,0.201416v3.050293c0,0.3442383,0.2861328,0.6347656,0.625,0.6347656   c1.8539047,0,1.9417324,0.0423851,2.0400391-0.0576172c0.0362129-0.0402374,0.0383625-0.0783405,0.0397949-0.1292114   c0.1711426-0.0762329,0.2905273-0.246521,0.2905273-0.4480591v-3.0499878   C28.9338436,27.7200928,28.7138729,27.5001221,28.4338436,27.5001221z M26.5634823,31.4349976   c-0.203125,0-0.375-0.1762695-0.375-0.3847656l-0.0039063-3.0053711h1.8388672c0.2070313,0,0.375,0.168457,0.375,0.375   l0.0029297,3.0151367H26.5634823z"/><path d="M32.9401932,34.5401001c-0.2177734-0.1834106-1.227541-1.09021-1.2166767-0.3656616   c0.0076904,0.5205078,0.3981953,1.2768555,0.8753681,1.4976807c0.4741669,0.2195473,0.9342003-0.1586418,0.7165527-0.6744385   C33.2378006,34.81427,33.0925369,34.668396,32.9401932,34.5401001z"/><path d="M30.1301327,33.817749c0.005476,0.3643837,0.4000244,0.7881851,0.6010742,0.5421143   c0.0493164-0.0601196,0.050415-0.149292,0.0201416-0.2208862C30.6881847,33.989727,30.1255226,33.503582,30.1301327,33.817749z"/><path d="M45.5844803,34.7302246c-0.3115234-0.2350464-0.6608887-0.0372925-0.5649414,0.3374023   c0.081543,0.3189087,0.1760254,0.7678223,0.5009766,0.9239502c0.1682129,0.0808105,0.392334,0.0576782,0.5136719-0.0839844   C46.3110886,35.5846558,45.9423103,35.0002251,45.5844803,34.7302246z"/><path d="M45.5415115,33.9309082c0.2070045,0.099556,0.4256554-0.0815544,0.2730713-0.3858643   c-0.2353821-0.469738-0.6139374-0.3937721-0.5404053-0.1069946C45.3176346,33.6081543,45.3680496,33.8475952,45.5415115,33.9309082   z"/><path d="M50.0898514,36.1220093v2.1669922c0,0.1654816,0.25,0.1653862,0.25,0v-2.1669922   C50.3398514,35.9565277,50.0898514,35.9566231,50.0898514,36.1220093z"/><path d="M30.6943417,31.6849976c1.6933727-0.0618782,2.0696392,0.1432018,2.0823994-0.1896362   c0.1716309-0.078064,0.2872314-0.2469482,0.2872314-0.4452515v-3.0499878c0-0.2800293-0.2202148-0.5-0.5-0.5h-1.8701191   c-0.1988525,0-0.3737793,0.1225586-0.4492188,0.2976074c-0.0378418,0.0018311-0.0849609,0.0085449-0.1303711,0.0547485   c-0.0087891,0.0097656-0.0166016,0.0205078-0.0224609,0.0327148c-0.0224609,0.0458984-0.0224609,0.0791016-0.0224609,0.1147461   v3.050293C30.0693417,31.4003296,30.3496151,31.6849976,30.6943417,31.6849976z M32.5293045,31.4349976h-1.8349628   c-0.2070313,0-0.375-0.1723633-0.375-0.3847656l-0.0029297-3.0053711h1.8271503c0.2128906,0,0.3857422,0.168457,0.3857422,0.375   V31.4349976z"/><path d="M9.9238338,19.6303101c1.3789139-0.0373116,1.6601563,0.0863514,1.6601563-0.1000977v-0.0001221h0.1298828V16.920105   c0-0.6371803-0.7239428-1.169055-1.3862305-0.7250977c-0.1130371,0.0330811-0.2233887,0.0812378-0.3227539,0.1525879   c-0.0058594,0.0053711-0.0214844,0.0219727-0.0253906,0.0283203c-0.1015625,0.1586914-0.1552734,0.3466797-0.1552734,0.5439453   v2.6103516C9.8242245,19.5853882,9.8681698,19.6303101,9.9238338,19.6303101z M10.1318417,16.5014038   c0.5379972-0.3812428,1.2529297,0.0011005,1.2529297,0.6484375v2.2802734h-1.3613281   C10.0602665,17.0136337,9.9403715,16.8200455,10.1318417,16.5014038z"/><path d="M6.8535218,20.1000366h1.570312c0.0556641,0,0.0993652-0.0447998,0.0996094-0.0999146h0.1203613v-2.6100464   c0-0.6866837-0.7936611-1.1843815-1.4272456-0.7150879c-0.6527228,0.2192993-0.4125462,0.4998398-0.4626465,3.3249512   C6.7539124,20.0551147,6.7978578,20.1000366,6.8535218,20.1000366z M7.0791078,16.953064   c0.6537261-0.3548794,1.2451167,0.0912037,1.2451167,0.6572266v2.2895508H6.9531312   C7.0115614,17.4683113,6.8456683,17.3665276,7.0791078,16.953064z"/><path d="M12.9043026,20.1000366c1.3789158-0.0372372,1.6583538,0.0865326,1.6591797-0.0999146h0.1303711v-2.6100464   c0-0.683342-0.7871723-1.1817856-1.4216309-0.7191162c-0.0905838,0.0294018-0.2659903,0.097086-0.3151855,0.1790771   c-0.2633791,0.4634972-0.1078234,0.638628-0.1523438,3.1499023C12.8046932,20.0551147,12.8486385,20.1000366,12.9043026,20.1000366   z M13.1298885,16.9515991c0.625-0.359375,1.234375,0.0693359,1.234375,0.6586914v2.2895508H13.003912   C13.0622921,17.4683113,12.8947458,17.3640976,13.1298885,16.9515991z"/><path d="M44.9238358,19.6303101c0.0556641,0,0.0996094-0.0449219,0.0996094-0.1000977v-0.0001221h0.1303711V16.920105   c0-0.6587029-0.739399-1.1695337-1.3896484-0.7182617c-0.1235352,0.0390625-0.232666,0.0908813-0.3129883,0.1491699   c-0.0048828,0.0043945-0.0185547,0.0195313-0.0214844,0.0249023c-0.1015625,0.1586914-0.1552734,0.3466797-0.1552734,0.5439453   v2.6103516C43.2744217,19.7185936,43.5178108,19.5920162,44.9238358,19.6303101z M43.5810623,16.5014038   c0.5397034-0.3804913,1.2431641,0.0034084,1.2431641,0.6484375v2.2802734h-1.3505859   C43.5104294,17.0158367,43.3908386,16.8227673,43.5810623,16.5014038z"/><path d="M40.3037186,20.1000366c1.3789139-0.0372162,1.6593285,0.0865326,1.6601563-0.0999146h0.119873v-2.6100464   c0-0.7193623-0.8184891-1.1772079-1.4295654-0.7109375c-0.077404,0.0266972-0.2562294,0.093399-0.2938232,0.1665039   c-0.1025391,0.1582031-0.15625,0.3461914-0.15625,0.5444336v2.6098633   C40.2041092,20.0551147,40.2480545,20.1000366,40.3037186,20.1000366z M40.5283279,16.9540405   c0-0.0004883,0.0009766-0.0009766,0.0009766-0.0024414c0.6237335-0.358942,1.2353516,0.0894966,1.2353516,0.6586914v2.2895508   h-1.3613281C40.4403381,17.4710541,40.3112755,17.2873707,40.5283279,16.9540405z"/><path d="M47.9043045,20.1000366c0.0556641,0,0.0993652-0.0447998,0.0996094-0.0999146h0.1298828v-2.6100464   c0-0.7080669-0.7995071-1.1741714-1.416748-0.7200317c-0.6520195,0.2109985-0.4113541,0.4427109-0.4631348,3.329895   C46.2539139,20.0551147,46.4982796,20.0617657,47.9043045,20.1000366z M46.5781326,16.9540405   c0.0009766-0.0009766,0.0009766-0.0019531,0.0019531-0.003418c0.5753021-0.3504486,1.2246094,0.053421,1.2246094,0.659668   v2.2895508h-1.3515625C46.4916573,17.4285469,46.361351,17.2935753,46.5781326,16.9540405z"/></g><text x="0" y="70" fill="#000000" font-size="5px" font-weight="bold" font-family="'Helvetica Neue', Helvetica, Arial-Unicode, Arial, Sans-serif">Created by ProSymbols</text><text x="0" y="75" fill="#000000" font-size="5px" font-weight="bold" font-family="'Helvetica Neue', Helvetica, Arial-Unicode, Arial, Sans-serif">from the Noun Project</text></svg>