<svg xmlns="http://www.w3.org/2000/svg" xmlns:xlink="http://www.w3.org/1999/xlink" version="1.1" x="0px" y="0px" viewBox="0 0 67 83.75" enable-background="new 0 0 67 67" xml:space="preserve"><g><g><path d="M64.5,49.84077h-0.88965V27.6269h0.61426c0.55273,0,1-0.44727,1-1s-0.44727-1-1-1h-0.61426v-4.9707h0.37598    c0.55273,0,1-0.44727,1-1s-0.44727-1-1-1h-1.37598h-5.99023h-1.37598c-0.55273,0-1,0.44727-1,1s0.44727,1,1,1h0.37598v0.73438    h-13.4082c0-0.16099,0-5.42571,0-5.23145c0-0.55273-0.44727-1-1-1s-1,0.44727-1,1v1.58203H26.79199v-1.58203    c0-0.55273-0.44727-1-1-1s-1,0.44727-1,1c0,0.16052,0,5.561,0,5.23145H11.38184v-0.73438h0.37695c0.55273,0,1-0.44727,1-1    s-0.44727-1-1-1h-1.37695H4.39258H3.01563c-0.55273,0-1,0.44727-1,1s0.44727,1,1,1h0.37695v4.9707    c-0.10364,0.0287-1.61523-0.24571-1.61523,1c0,0.55273,0.44727,1,1,1h0.61328v22.21387H2.5c-0.55273,0-1,0.44727-1,1    s0.44727,1,1,1c1.59166,0,63.48882,0,62,0c0.55273,0,1-0.44727,1-1S65.05273,49.84077,64.5,49.84077z M20.14941,29.44233h-4.12207    c-0.55273,0-1,0.44727-1,1v0.8291H13.375c-0.55273,0-1,0.44727-1,1v1.1709h-0.99316V27.6269h13.41309v5.81446h-0.99316v-1.16992    c0-0.55274-0.44727-1-1-1h-1.65234v-0.8291C21.14941,29.88959,20.70215,29.44233,20.14941,29.44233z M55.62012,33.44233h-0.99316    v-1.1709c0-0.55274-0.44727-1-1-1h-1.65234v-0.8291c0-0.55273-0.44727-1-1-1h-4.12207c-0.55273,0-1,0.44727-1,1v0.8291h-1.65137    c-0.55273,0-1,0.44727-1,1v1.16992h-0.99316V27.6269h13.41211V33.44233z M38.21387,31.27143H36.5625v-0.8291    c0-0.55273-0.44727-1-1-1h-4.12207c-0.55273,0-1,0.44727-1,1v0.8291h-1.65234c-0.55273,0-1,0.44727-1,1v1.16992h-0.99316V27.6269    h13.41309v5.81446h-0.99414v-1.16992C39.21387,31.71869,38.7666,31.27143,38.21387,31.27143z M29.08984,35.38154    c0.40234-0.12939,0.69824-0.49353,0.69824-0.93921v-1.1709h1.65234c0.55273,0,1-0.44727,1-1v-0.8291h2.12207v0.8291    c0,0.55273,0.44727,1,1,1h1.65137v1.1709c0,0.44568,0.2959,0.80981,0.69824,0.93921v14.45923h-8.82227V35.38154z     M44.50293,35.38154c0.40234-0.12939,0.69824-0.49353,0.69824-0.93921v-1.1709h1.65137c0.55273,0,1-0.44727,1-1v-0.8291h2.12207    v0.8291c0,0.55273,0.44727,1,1,1h1.65234v1.1709c0,0.55273,0.44727,1,1,1h1.99316v14.39844H44.50293V35.38154z M61.61035,20.65619    v4.9707h-3.99023v-3.22656c0-0.00342,0.00195-0.00635,0.00195-0.00977s-0.00195-0.00635-0.00195-0.00977v-1.72461H61.61035z     M55.62012,23.39057v2.23633h-13.4082v-2.23633H55.62012z M40.21191,25.30073H26.79199v-5.55957h13.41992V25.30073z     M24.79199,23.39057v2.23633H11.38184v-2.23633H24.79199z M9.38184,20.65619v4.9707H5.39258v-4.9707H9.38184z M5.39063,27.6308    h3.98926v22.20996H5.39063V27.6308z M11.37988,35.44233H13.375c0.55273,0,1-0.44727,1-1v-1.1709h1.65234c0.55273,0,1-0.44727,1-1    v-0.8291h2.12207v0.8291c0,0.55273,0.44727,1,1,1h1.65234v1.1709c0,0.44568,0.2959,0.80981,0.69824,0.93921v14.45923H11.37988    V35.44233z M24.5,49.84077V35.44233h1.29492h1.29492v14.39844H24.5z M39.91211,49.84077V35.44233h1.2959h1.29492v14.39844    H39.91211z M57.62012,49.84077c0-2.77127,0-15.54644,0-22.20996h3.99023v22.20996H57.62012z"/></g></g><text x="0" y="82" fill="#000000" font-size="5px" font-weight="bold" font-family="'Helvetica Neue', Helvetica, Arial-Unicode, Arial, Sans-serif">Created by Vectors Point</text><text x="0" y="87" fill="#000000" font-size="5px" font-weight="bold" font-family="'Helvetica Neue', Helvetica, Arial-Unicode, Arial, Sans-serif">from the Noun Project</text></svg>