<svg xmlns="http://www.w3.org/2000/svg" viewBox="0 0 123.17 148.3875" x="0px" y="0px"><title>Asset 37</title><g data-name="Layer 2"><g data-name="Layer 1"><path d="M97,4.27A15.83,15.83,0,0,0,86.06,0,17.44,17.44,0,0,0,73.76,5.11L72.33,6.55,70.89,5.1A17.45,17.45,0,0,0,58.6,0,15.83,15.83,0,0,0,47.66,4.27a16.34,16.34,0,0,0-.36,23.46l25,25,25-25A16.34,16.34,0,0,0,97,4.27Z"/><path d="M121.56,65.5c-3.85-2.61-8.38-1.87-12.39.45S82.11,88,82.11,88H59.42a2.48,2.48,0,0,1-2.2-2.24,2.25,2.25,0,0,1,2.2-2.2H73.3c4.86,0,10.3-3.17,10.3-8.79,0-6-5.44-8.79-10.3-8.79-8.43,0-10.07,0-10.07,0-3.38,0-6.8-.2-9.44-1.61a26,26,0,0,0-11.9-2.82A25.4,25.4,0,0,0,23.68,69L0,92.33l26.38,26.38,8.79-8.79H79.7a18.1,18.1,0,0,0,12-4.57l30.15-33.82A3.85,3.85,0,0,0,121.56,65.5Z"/></g></g><text x="0" y="133.70999999999998" fill="#000000" font-size="5px" font-weight="bold" font-family="'Helvetica Neue', Helvetica, Arial-Unicode, Arial, Sans-serif">Created by Mario Köstl</text><text x="0" y="138.70999999999998" fill="#000000" font-size="5px" font-weight="bold" font-family="'Helvetica Neue', Helvetica, Arial-Unicode, Arial, Sans-serif">from the Noun Project</text></svg>