<?xml version="1.0" encoding="iso-8859-1"?>
<!-- Generator: Adobe Illustrator 19.0.0, SVG Export Plug-In . SVG Version: 6.00 Build 0)  -->
<svg version="1.1" id="Capa_1" xmlns="http://www.w3.org/2000/svg" xmlns:xlink="http://www.w3.org/1999/xlink" x="0px" y="0px"
	 viewBox="0 0 522.462 522.462" style="enable-background:new 0 0 522.462 522.462;" xml:space="preserve">
<g>
	<path d="M457.154,65.308h-10.885V10.885C446.269,4.876,441.393,0,435.385,0H108.846c-6.008,0-10.885,4.876-10.885,10.885v54.423
		H87.077c-18.003,0-32.654,14.629-32.654,32.654v87.077c0,18.003,14.651,32.654,32.654,32.654h174.154
		c6.008,0,10.885,4.876,10.885,10.885v54.771c-20.289,4.419-43.538,20.202-43.538,42.211v163.269c0,20.528,30.847,33.633,47,33.633
		h21.769c18.156,0,40.077-14.977,40.077-33.633V325.559c0-22.03-23.25-37.791-43.538-42.211v-54.771
		c0-18.025-14.651-32.654-32.654-32.654H87.077c-6.008,0-10.885-4.898-10.885-10.885V97.962c0-6.008,4.876-10.885,10.885-10.885
		h10.885V141.5c0,5.987,4.876,10.885,10.885,10.885h326.538c6.008,0,10.885-4.898,10.885-10.885V87.077h10.885
		c6.008,0,10.885-4.898,10.885-10.885C468.038,70.184,463.162,65.308,457.154,65.308z"/>
</g>
<g>
</g>
<g>
</g>
<g>
</g>
<g>
</g>
<g>
</g>
<g>
</g>
<g>
</g>
<g>
</g>
<g>
</g>
<g>
</g>
<g>
</g>
<g>
</g>
<g>
</g>
<g>
</g>
<g>
</g>
</svg>
