<svg xmlns="http://www.w3.org/2000/svg" viewBox="0 0 34 23"><path d="M9.5,4.5H4.8c-.2.1-.3.1-.4.3V5c0,.1-.1.1-.1.2h0v.5h0v.8h0v7.1h0v3.5h0l.3.4.4.2H24.5a.8.8,0,0,0,.7-.4.5.5,0,0,0,.2-.4V11.6h2v8.6H2.1V19s.1,0,0-.1h0V4.4h0v-1h.2v.3h.1c-.1.1-.1.1-.1.2h.1V3.4h.1V3l.4-.5H20.1l-.3.4-.5.6-.5.9v.2H15.1M3,4.1Z" style="fill:#366fe7"/><path d="M22.9.3h-.1" style="fill:#9ae2d2"/><path d="M2.2,2.6v.2h0Z" style="fill:#7ea3ef"/><path d="M22.2,13l.7-.2.8-.3,1-.5h.7v5.1c0,.2-.1.4-.2.4a.6.6,0,0,1-.7.4H18.1v-.5h0c0-.2.1-.4,0-.6v-.7c0-.1-.1-.2-.1-.4v-.3c-.1-.2-.1-.4-.2-.6s-.1-.5-.2-.8l-.4-1a14,14,0,0,0-1-1.6l-.6-.8-.4-.4-.4-.3h-.1A3.4,3.4,0,0,0,16,7.2a4,4,0,0,0-.9-2.7h3.6v.3a.4.4,0,0,0-.1.3v.2h-.1v.4h0V7.1a4.3,4.3,0,0,0,.1.5l.3.8.2.5.4.5a2,2,0,0,0,.8.8l.6.6.6.4h.1l.7.4h.2l-.2.3-.4.3" style="fill:#274ea1"/><path d="M33.6,4.7Z" style="fill:#a4e5d6"/><path d="M31.4,6.2Z" style="fill:#97e2d1"/><path d="M23.7.1Z" style="fill:#c3eee4"/><path d="M32.8,6.1c.1-.1.1-.1.2.1Z" style="fill:#93e1cf"/><path d="M21,2h-.1" style="fill:#abe7d9"/><path d="M33,5.2Z" style="fill:#b1e9dc"/><path d="M23.2.4Z" style="fill:#b1e9dc"/><path d="M17.7,14c.1.3.1.6.2.8a4.2,4.2,0,0,1,.2.6v.3h0V16h0a3.5,3.5,0,0,1,.1.6h0v.2H18a.3.3,0,0,1,.1.2h.1c-.1,0-.1.1-.1.2H18v.2h.2v.4H7c-.2-.1-.2-.3-.2-.6v-.5a2.5,2.5,0,0,1,.1-1.2v-.2c0-.1.1-.2.1-.4H7v-.6h.1c-.2-.1.2-1,.3-1.3l.4-.5h.1a.4.4,0,0,1-.1-.3H8c.1,0-.1-.2,0-.2h.1c0,.1.1.1,0,.2h0v.2h0c.1,0,.1,0,0,.1h0v-.2h.1c-.1-.1-.1-.3-.2-.3H8l.6-.7h0c0-.1.1-.3.2-.3v-.2l.3-.5h.3l.2-.2V9.8l-.3-.2h.3l-.2-.2L9.2,9h0c.1,0,.1-.2.1-.2H9.1c.1,0,0-.2,0-.2H9c.1-.1.1-.1,0-.1s.1-.2-.1-.4,0-.1-.1-.3h0c0-.1.1-.1.1-.2H8.7v-1c.1-.1.1-.4.2-.5s.1-.4.1-.5a1.8,1.8,0,0,1,.6-.9l.3-.5.7-.5.6-.3H13l.7.2h.2l.4.2h.2V4h.1l.6.6a4.6,4.6,0,0,1,.9,2.7,3.8,3.8,0,0,1-1.3,2.5h.1l.4.3.4.4.6.8m-6.2,4H9.7c0,.2-.1.2,0,.2h.2c0-.2.1-.1.2-.1h0v-.2ZM8.8,13.2H8.6c0,.1-.1.2,0,.2h.1C8.8,13.4,8.9,13.3,8.8,13.2Zm.3.4c.1,0,0,.1,0,.2s.2-.1.1-.2v-.2H9.1Zm.3.6c-.1.1,0,.1,0,.1h.1l-.3.2ZM16.1,18l.3-.3h-.3ZM8.6,13h.2C8.7,13.2,8.6,13.1,8.6,13Zm-.2-.9M10.1,16v-.2l-.2-.2V16Zm.3-.2ZM14.7,4.5h.2a.2.2,0,0,0-.2-.2Zm.5,13h0c-.1.1,0,.1.1.1h0A.1.1,0,0,1,15.2,17.5ZM10.5,5.3Zm7,10.5c-.2,0-.1.2-.2.2h.2Zm-4.1-4.2ZM8.9,13.2Zm5.9-8.3h0Zm-2.4,6h0Zm.9-3.8h0V6.8h.1v.2Zm1.6,10.4v.2l.2-.2Zm-2.3-12h0Z" style="fill:#fdc32a"/><path d="M9.7,4.4c-.2.4-.5.6-.6.9s-.2.4-.2.7-.1.3-.2.5V7.6h.1v.2a4.3,4.3,0,0,0,.1.5l.2.4h0v.2l.2.4.2.2h.1v.2h.2l-.2.3h0l-.7.6H9c-.1,0-.2.2-.2.3h0l-.5.9H8.1c-.1,0,.1.2,0,.2H8a.2.2,0,0,0,0,.3H7.9l-.2.4a1.6,1.6,0,0,0-.3.9H7.2c0,.3-.1.4-.1.6s-.1.3-.1.5-.1.3-.1.4v.3a2.8,2.8,0,0,0-.1,1.3v.5c0,.2,0,.5.2.6H4.9l-.4-.2-.3-.4h0V14.5h0V6.7h0v-1h0V5.2h0c0-.1,0-.2.1-.2s0-.1.1-.2l.4-.4ZM7.4,14.1v-.2h0C7.4,14,7.3,14,7.4,14.1Z" style="fill:#274ea1"/><path d="M18,17.5v-.4h-.2v-.2H18c0,.1,0,.1.1.1v.5Z" style="fill:#c6a549"/><path d="M2.3,2.8V3h0v.3H2.2V3.1H2.2V2.8Z" style="fill:#7ea3ef"/><path d="M3,3.7Z" style="fill:#b6caf6"/><path d="M18.1,17c-.1,0-.1-.1,0-.2h0v-.3h0a1.3,1.3,0,0,0-.1-.6h0v-.3h0c0,.2.1.3.1.4v.8c.1.2,0,.4,0,.6Z" style="fill:#c6a549"/><path d="M9,8.2H9l-.2-.3a4.3,4.3,0,0,1-.1-.5V7.1h.1c0,.1-.1.1-.1.2h0c.1.1,0,.3.1.3s.2.1.1.3.1.1,0,.2H9S9.1,8.2,9,8.2Z" style="fill:#a0905f"/><path d="M8.1,11.9h.1c.1,0,.1.2.2.3H8.3v.5h0c.1-.1.1-.1,0-.1h0v-.2h0C8.2,12,8.1,12,8.1,11.9Z" style="fill:#87826c"/><path d="M10,14.8h.1V15h0c-.1,0-.2-.1-.2.1H9.6c-.1-.1,0-.1,0-.1H10Z" style="fill:#ac9658"/><path d="M8.4,12.2V12h.3Z" style="fill:#6a737f"/><path d="M8.7,12.7c.1.1,0,.2-.1.3H8.5c-.1,0,0-.1,0-.2Z" style="fill:#a4925c"/><path d="M9,13.1v-.2h.1v.2c.1.1,0,.1-.1.2S9.1,13.1,9,13.1Z" style="fill:#9e8f5f"/><path d="M9.3,13.7H9.1l.3-.2H9.3S9.2,13.8,9.3,13.7Z" style="fill:#ac9658"/><path d="M16,17.5h0Z" style="fill:#7a7b73"/><path d="M9.1,8.4V8.2h.2c0,.1,0,.2-.1.2Z" style="fill:#a0905f"/><path d="M8.5,12.5c0,.1.1.2.2.1H8.5Z" style="fill:#a4925c"/><path d="M8.5,11.8l-.2-.2h.3Z" style="fill:#7a7c74"/><path d="M10,15.5v-.4l.2.2Z" style="fill:#8e8668"/><path d="M10.3,15.3Z" style="fill:#958a64"/><path d="M14.6,4h0a.2.2,0,0,1,.2.2h-.1a.1.1,0,0,0-.1-.1h0Z" style="fill:#9d987f"/><path d="M15.1,17c0,.1.1.1.1.2h0c-.1,0-.2,0-.1-.1Z" style="fill:#86826d"/><path d="M10.4,4.8Z" style="fill:#938967"/><path d="M17.4,15.3h0Z" style="fill:#958a64"/><path d="M13.3,11.1Z" style="fill:#8c8569"/><path d="M9.3,12Z" style="fill:#8d8669"/><path d="M8.8,12.7Z" style="fill:#a4925c"/><path d="M14.7,4.4l.2.2h-.2Z" style="fill:#a6935b"/><path d="M12.3,10.4h0Z" style="fill:#7e7d71"/><path d="M8.8,12.3Z" style="fill:#a4925c"/><path d="M13.2,6.6h0v.2Z" style="fill:#86826d"/><path d="M14.8,17H15l-.2.2Z" style="fill:#7c7c73"/><path d="M12.5,4.9c-.1,0-.1,0-.1-.1h.1Z" style="fill:#7f7e71"/><path d="M9,11.7Z" style="fill:#787a74"/><path d="M7.4,13c-.1-.1,0-.1,0-.2h0Z" style="fill:#cea944"/><path d="M21.3,1.2l.9-.7L24,0h4.6l1,.3.8.4.9.5.7.6.6.6a1.8,1.8,0,0,1,.6.9l.3.4c.1.2.1.4.2.6l.2.5V5h0A2.9,2.9,0,0,1,34,6.3v.8a1.9,1.9,0,0,0-.2.7l-.3.5-.4.8-.9.9-.5.4-.3.3h0l-.4.2-.7.4-1.3.5h-.5l-.7.2h-3l-1,.5-.8.3-2.4.8h-.3c-.1,0-.4-.2-.4-.4h.6c0-.1,0-.1.1-.1l.2-.2v-.2c0-.1.2-.1.2-.1h.5l.3-.3.4-.3.2-.3h-.2l-.7-.4h-.1l-.6-.4-.6-.6a3,3,0,0,1-.8-.8,1,1,0,0,0-.4-.5.8.8,0,0,0-.2-.5l-.3-.8c0-.2-.1-.3-.1-.5V5.5h0V5h.1V4.8a.4.4,0,0,1,.1-.3V4l.5-.9.5-.6.3-.4.5-.4M33.6,4.8ZM31.4,6.3ZM23.7.2Zm9.1,6H33C32.9,6.1,32.9,6.1,32.8,6.2ZM21,2.1h0M33,5.3ZM23.2.5Z" style="fill:#0fbc94"/><path d="M27.4,19.3h2.2l.2.2v3.3l-.2.2H0V19.4H27.4Z" style="fill:#274ea1"/></svg>